<?xml version="1.0" encoding="UTF-8" standalone="no"?>
<!DOCTYPE svg PUBLIC "-//W3C//DTD SVG 1.1//EN" "http://www.w3.org/Graphics/SVG/1.1/DTD/svg11.dtd">
<svg width="100%" height="100%" viewBox="0 0 1641 3111" version="1.1" xmlns="http://www.w3.org/2000/svg" xmlns:xlink="http://www.w3.org/1999/xlink" xml:space="preserve" xmlns:serif="http://www.serif.com/" style="fill-rule:evenodd;clip-rule:evenodd;stroke-linejoin:round;stroke-miterlimit:2;">
    <g transform="matrix(1,0,0,1,-11556.407449,-878.446249)">
        <g transform="matrix(4.166667,0,0,4.166667,10125,0)">
            <g transform="matrix(1,0,0,1,458.9981,638.9826)">
                <path d="M0,59.405C-3.514,48.644 -4.963,42.247 -9.383,31.849C-10.772,28.598 -12.617,25.244 -14.758,21.922C-14.862,21.763 -14.961,21.615 -15.066,21.466L-15.066,21.477C-19.765,14.274 -25.843,7.29 -31.52,2.223C-33.585,0.378 -36.572,-1.406 -39.498,-0.457C-41.562,0.23 -43.758,1.932 -44.346,4.534C-44.329,5.045 -44.39,5.561 -44.521,6.055C-44.741,6.994 -45.208,7.872 -45.856,8.575L-45.911,8.641C-48.782,6.005 -53.702,3.546 -57.331,4.205C-60.114,4.715 -62.541,7.57 -61.942,10.941L-61.948,10.947L-62.239,11.007C-62.701,12.034 -63.168,13.067 -63.614,14.078C-65.189,15.004 -66.873,17.526 -67.381,21.252C-68.158,26.952 -65.818,29.251 -65.818,29.251C-65.818,29.251 -68.644,30.272 -70.447,33.7C-72.251,37.127 -69.726,51.739 -69.726,51.739C-68.292,53.159 -28.27,60.047 -28.27,60.047C-23.045,60.574 -17.804,60.811 -12.535,60.69L-12.535,60.695L-12.243,60.695C-8.142,60.591 -4.057,60.283 0.027,60.064L0,59.405Z" style="fill:rgb(248,232,215);fill-rule:nonzero;"/>
            </g>
            <g transform="matrix(1,0,0,1,497.1839,565.553)">
                <path d="M0,142.311C0.763,141.669 1.537,141.021 2.3,140.362L3.942,138.956C0.752,135.821 -4.079,135.206 -8.549,134.756C-16.455,133.966 -24.388,133.159 -32.338,133.279C-34.271,133.307 -36.22,133.395 -38.153,133.499C-42.238,133.719 -46.323,134.026 -50.424,134.13L-50.715,134.13C-55.986,134.246 -61.229,134.015 -66.456,133.488C-74.757,132.653 -83.015,131.1 -91.184,129.14C-96.279,127.893 -101.358,126.504 -106.398,125.011L-106.266,124.544C-106.662,124.149 -107.03,123.726 -107.337,123.254C-107.98,119.196 -108.435,115.112 -108.715,111.016C-108.831,109.199 -108.863,107.195 -107.749,105.762C-106.87,104.603 -105.317,104.032 -103.9,104.312C-102.654,104.559 -101.589,105.471 -101.089,106.623L-101.045,106.596C-101.792,104.927 -102.555,103.241 -103.313,101.561C-103.944,100.172 -104.57,98.767 -105.053,97.328L-105.053,97.312C-105.536,95.879 -105.871,94.396 -105.915,92.892C-105.943,91.514 -105.695,90.037 -104.79,88.983C-104.043,88.104 -102.961,87.649 -101.819,87.55C-101.364,86.523 -100.897,85.485 -100.43,84.448L-100.139,84.387C-100.738,81.022 -98.311,78.167 -95.527,77.651C-91.898,76.992 -86.979,79.452 -84.107,82.087L-84.047,82.016C-83.405,81.313 -82.932,80.434 -82.713,79.495C-82.729,78.952 -82.669,78.458 -82.537,77.975C-81.949,75.367 -79.753,73.67 -77.689,72.984C-74.763,72.034 -71.776,73.819 -69.712,75.663C-64.029,80.731 -57.957,87.715 -53.257,94.918C-53.152,95.066 -53.054,95.209 -52.949,95.374C-48.645,87.001 -44.955,78.304 -41.941,69.371C-41.914,69.283 -41.881,69.196 -41.853,69.091L-42.029,69.031L-42.54,68.531L-42.54,65.297C-43.111,64.902 -43.665,64.49 -44.209,64.068C-44.824,63.601 -45.455,63.074 -45.702,62.338C-45.878,61.811 -45.817,61.256 -45.762,60.696C-45.428,57.682 -44.752,54.706 -43.769,51.841C-42.831,49.134 -41.573,46.438 -39.509,44.434C-37.444,42.43 -34.474,41.184 -31.663,41.782C-31.163,41.886 -30.68,42.046 -30.23,42.249C-30.598,39.289 -30.686,36.292 -30.433,33.316L-29.379,33.228C-32.514,0.505 -21.017,-35.616 -3.964,-58.835C-1.301,-62.436 0.999,-66.889 5.243,-68.822C8.905,-73.362 12.99,-77.562 17.41,-81.367L16.839,-82.57C5.77,-77.414 -4.7,-70.579 -14.451,-63.436C-30.774,-51.489 -41.859,-33.859 -52.548,-16.685C-80.643,28.539 -115.139,73.182 -143.25,118.406L-147.818,128.332C-151.491,135.772 -151.903,144.48 -150.497,152.666C-149.091,160.836 -146,168.61 -142.926,176.313C-141.152,180.722 -139.385,185.142 -136.881,189.166C-130.82,198.889 -120.833,205.654 -110.192,209.87C-99.546,214.087 -88.143,215.992 -76.838,217.864C-71.523,218.759 -66.209,219.638 -60.877,220.516C-55.667,221.378 -50.44,222.256 -45.224,223.124C-39.849,224.019 -34.156,224.881 -29.088,222.844C-25.706,221.499 -22.955,218.979 -20.276,216.503C-14.495,211.16 -8.697,205.802 -2.91,200.454C-2.559,199.224 -2.207,198.011 -1.856,196.781C-2.235,196.984 -2.63,197.176 -3.025,197.369C-12.397,201.832 -22.598,204.16 -32.805,206.021L-32.876,205.626C-36.066,206.126 -39.317,206.258 -42.54,205.994L-42.787,206.054C-43.166,204.517 -43.33,202.908 -43.33,201.399C-43.286,189.248 -37.856,177.62 -30.389,168.033C-22.922,158.458 -13.452,150.656 -4.079,142.926L-2.674,144.595C-1.779,143.832 -0.901,143.085 -0.011,142.327L0,142.311Z" style="fill:rgb(249,249,249);fill-rule:nonzero;"/>
            </g>
            <g transform="matrix(1,0,0,1,533.1843,646.7673)">
                <path d="M0,-10.69L0,-10.685C0.642,-9.339 2.24,-8.796 3.761,-8.9L3.777,-8.697C4.919,-8.329 6.072,-7.967 7.275,-7.994C8.461,-8.038 9.702,-8.565 10.289,-9.603C10.728,-10.377 10.629,-11.431 10.086,-12.107L10.454,-12.502C8.505,-13.995 6.341,-15.577 3.865,-15.549C1.406,-15.505 -1.071,-12.914 0,-10.69M129.062,-191.022L129.035,-191.044C129.551,-190.676 130.078,-190.308 130.589,-189.929C130.122,-189.666 129.815,-189.21 129.507,-188.787C120.388,-175.709 111.263,-162.62 102.143,-149.547L101.88,-149.739C100.018,-147.966 97.767,-146.637 95.335,-145.83L94.984,-146.956C91.7,-149.602 86.331,-148.872 82.273,-147.73C78.216,-146.572 74.647,-144.183 71.161,-141.828C61.646,-135.388 52.071,-128.914 43.857,-120.877C42.128,-119.191 40.327,-117.011 40.81,-114.64C41.046,-113.481 41.732,-112.619 42.671,-111.96C44.121,-110.95 46.158,-110.45 48.003,-110.187L48.074,-110.686C53.828,-115.518 58.703,-121.063 64.649,-125.648C71.908,-131.215 80.357,-136.645 89.449,-135.635C92.403,-135.311 95.494,-134.108 97.032,-131.577C99.272,-127.915 97.471,-123.172 95.302,-119.455C90.822,-111.812 84.892,-105.108 78.902,-98.564C77.689,-97.246 76.432,-95.841 75.976,-94.1C75.553,-92.414 76.185,-90.306 77.793,-89.664L77.458,-88.934C78.864,-88.511 80.489,-88.714 81.867,-89.285C82.806,-89.68 83.652,-90.218 84.459,-90.85L84.124,-91.316C92.777,-98.932 100.287,-107.864 106.321,-117.687C108.166,-120.684 109.896,-123.836 110.538,-127.289C110.994,-129.705 110.845,-132.297 109.896,-134.537C109.852,-134.668 109.808,-134.784 109.736,-134.915C109.544,-135.454 109.572,-136.101 109.632,-136.7C110.027,-140.653 111.01,-144.562 112.547,-148.252L112.3,-148.455C120.69,-159.172 129.727,-173.227 136.474,-183.857C136.974,-183.495 137.468,-183.11 137.968,-182.731C153.165,-161.895 184.159,-155.06 195.2,-131.693C198.615,-124.462 199.449,-116.336 200.355,-108.37C208.909,-33.36 173.71,38.323 148.235,102.302L148.427,102.406C147.005,105.014 145.6,107.622 144.194,110.241L144.474,110.4C141.312,116.023 137.902,121.733 134.372,127.371C127.553,138.275 120.333,148.937 113.7,158.277C103.494,172.639 90.932,186.316 74.417,192.465C53.465,200.256 30.214,194.689 7.857,194.793C-5.381,194.854 -18.574,196.929 -31.778,197.385C-34.518,197.489 -37.252,197.516 -39.992,197.445C-54.426,197.039 -69.596,193.272 -80.05,183.582C-81.175,182.555 -82.229,181.441 -83.24,180.271C-88.598,174.007 -91.805,166.243 -94.923,158.617L-97.91,159.056C-98.184,157.195 -98.448,155.323 -98.728,153.478L-97.306,153.275C-97.817,149.481 -97.921,145.643 -97.597,141.838L-97.756,141.778C-97.46,140.943 -97.169,140.125 -96.861,139.291C-91.645,140.158 -86.419,141.037 -81.208,141.899C-75.833,142.788 -70.14,143.656 -65.072,141.619C-61.69,140.268 -58.939,137.754 -56.26,135.277C-50.473,129.93 -44.675,124.571 -38.894,119.229C-38.542,117.999 -38.191,116.786 -37.84,115.556C-35.457,114.386 -33.129,113.113 -30.741,111.954C-18.689,106.129 -5.117,103.494 8.219,104.399L8.29,105.437C9.125,105.382 9.96,105.278 10.794,105.146L10.734,104.751C16.839,100.77 23.543,97.723 30.57,95.747C31.257,95.538 31.949,95.362 32.635,95.203L32.459,94.5C39.064,86.479 44.922,77.985 50.221,69.173C49.446,69.393 48.667,69.596 47.893,69.816L47.569,68.657C26.107,62.288 3.805,58.747 -18.58,58.176C-22.368,58.077 -30.861,59.494 -36,61.091C-35.237,60.443 -34.463,59.801 -33.7,59.142L-32.058,57.737C-35.254,54.607 -40.085,53.992 -44.549,53.537C-52.455,52.746 -60.389,51.944 -68.339,52.06C-70.271,52.087 -72.221,52.175 -74.153,52.279L-74.181,51.62C-77.694,40.859 -79.144,34.457 -83.564,24.064C-84.958,20.814 -86.803,17.459 -88.939,14.138C-84.634,5.765 -80.945,-2.932 -77.931,-11.865L-77.316,-11.645C-75.614,-2.306 -68.515,2.119 -63.024,0.961C-57.534,-0.192 -52.999,-4.222 -49.908,-8.906C-45.735,-15.242 -43.819,-23.032 -44.549,-30.587C-44.769,-32.882 -45.285,-35.254 -46.762,-37.027C-48.239,-38.801 -50.934,-39.734 -52.938,-38.609L-52.955,-38.521C-53.905,-38.697 -54.887,-38.697 -55.854,-38.581L-55.854,-45.504L-57.902,-45.521C-57.797,-63.996 -57.347,-82.724 -51.708,-100.277C-46.877,-115.315 -38.433,-128.887 -29.368,-141.844C-26.996,-144.304 -24.608,-146.753 -22.236,-149.196C-21.649,-149.811 -21.05,-150.437 -20.814,-151.244C-20.622,-151.886 -20.594,-152.704 -20.358,-153.292C-16.564,-155.927 -11.283,-162.164 -6.215,-168.314C-1.663,-173.848 2.701,-179.311 5.672,-182.061C7.225,-183.511 8.79,-185.015 10.723,-185.91C12.655,-186.805 15.055,-186.981 16.812,-185.795L16.477,-183.423C17.125,-183.319 17.767,-183.231 18.426,-183.143C13.797,-174.139 7.945,-165.415 4.239,-156.718C2.817,-153.38 1.795,-149.882 0.769,-146.412C-3.228,-132.84 -7.549,-116.764 -8.104,-102.253C-7.637,-100.381 -7.165,-98.503 -6.698,-96.631L-6.451,-96.34C-5.221,-97.35 -3.991,-98.344 -2.778,-99.31C7.818,-107.788 18.129,-116.632 28.215,-125.708C45.987,-141.696 64.347,-158.37 78.551,-177.713C87.802,-190.336 95.374,-199.746 108.007,-208.064C108.841,-208.619 109.703,-209.173 110.598,-209.716C111.625,-210.331 112.794,-210.946 113.953,-210.655C115.15,-210.348 115.913,-209.178 116.528,-208.108C120.585,-201.168 125.823,-199.136 129.881,-192.18L129.062,-191.022Z" style="fill:rgb(249,249,249);fill-rule:nonzero;"/>
            </g>
            <g transform="matrix(1,0,0,1,500.8405,869.1404)">
                <path d="M0,-14.837L0.115,-14.837C0.264,-16.949 0.406,-19.078 0.571,-21.207C-2.169,-21.097 -4.903,-21.068 -7.643,-21.144C-22.077,-21.578 -37.247,-25.541 -47.701,-35.753C-47.904,-34.891 -48.035,-33.994 -48.096,-33.098L-48.299,-33.115C-49.556,-17.73 -50.336,-2.316 -50.599,13.127L1.307,20.916C0.121,11.642 0.027,-5.481 0,-14.831L0,-14.837Z" style="fill:rgb(249,249,249);fill-rule:nonzero;"/>
            </g>
            <g transform="matrix(1,0,0,1,480.2295,647.3764)">
                <path d="M0,-39.13C-0.95,-39.306 -1.933,-39.306 -2.899,-39.19C-5.139,-38.899 -7.291,-37.889 -8.872,-36.275C-10.174,-37.609 -11.596,-38.866 -13.265,-39.586C-13.721,-39.789 -14.204,-39.954 -14.698,-40.052C-17.509,-40.651 -20.479,-39.41 -22.544,-37.401C-24.608,-35.391 -25.865,-32.701 -26.804,-29.994C-27.787,-27.122 -28.457,-24.152 -28.797,-21.138C-28.858,-20.583 -28.912,-20.023 -28.737,-19.496C-28.49,-18.766 -27.858,-18.239 -27.243,-17.767C-26.7,-17.344 -26.145,-16.932 -25.574,-16.537L-25.574,-13.303L-25.064,-12.804L-24.888,-12.743C-24.915,-12.639 -24.948,-12.551 -24.976,-12.463L-24.361,-12.244C-22.664,-2.904 -15.56,1.521 -10.069,0.362C-4.579,-0.796 -0.038,-4.821 3.047,-9.504C7.22,-15.845 9.136,-23.631 8.406,-31.185C8.186,-33.486 7.676,-35.858 6.193,-37.626C4.716,-39.399 2.02,-40.332 0.016,-39.207L0,-39.119L0,-39.13Z" style="fill:rgb(90,158,149);fill-rule:nonzero;"/>
            </g>
            <g transform="matrix(1,0,0,1,563.7548,734.1194)">
                <path d="M0,8.4C0.686,8.197 1.378,8.021 2.064,7.856L1.889,7.154C8.494,-0.868 14.346,-9.361 19.65,-18.173C18.876,-17.954 18.096,-17.751 17.322,-17.531L16.998,-18.69C-4.464,-25.058 -26.766,-28.6 -49.15,-29.171C-52.944,-29.275 -61.432,-27.853 -66.571,-26.255C-67.466,-25.492 -68.344,-24.746 -69.234,-23.988L-70.639,-25.657C-80.011,-17.926 -89.482,-10.125 -96.949,-0.549C-104.416,9.042 -109.846,20.665 -109.89,32.816C-109.89,34.326 -109.731,35.934 -109.346,37.472L-109.099,37.411C-105.877,37.675 -102.626,37.543 -99.436,37.043L-99.365,37.439C-89.158,35.577 -78.957,33.249 -69.585,28.786C-69.19,28.594 -68.794,28.407 -68.416,28.198C-66.027,27.029 -63.699,25.755 -61.317,24.597C-49.265,18.771 -35.693,16.136 -22.357,17.042L-22.285,18.08C-21.451,18.019 -20.616,17.92 -19.782,17.789L-19.842,17.393C-13.737,13.413 -7.033,10.366 -0.005,8.389L0,8.4Z" style="fill:rgb(248,232,215);fill-rule:nonzero;"/>
            </g>
            <g transform="matrix(1,0,0,1,503.8162,584.6154)">
                <path d="M0,-79.687C2.372,-82.147 4.76,-84.59 7.132,-87.039C7.72,-87.654 8.318,-88.285 8.554,-89.086C8.746,-89.729 8.774,-90.553 9.01,-91.135C12.804,-93.77 18.085,-100.007 23.153,-106.156L21.511,-106.184C20.282,-105.772 19.068,-105.332 17.849,-104.866C15.274,-103.883 12.738,-102.801 10.223,-101.632L10.794,-100.43C6.374,-96.625 2.29,-92.419 -1.373,-87.884C-5.617,-85.952 -7.917,-81.499 -10.58,-77.897C-27.639,-54.678 -39.13,-18.557 -35.995,14.166L-37.049,14.254C-37.296,17.224 -37.208,20.227 -36.846,23.186C-35.177,23.906 -33.755,25.163 -32.454,26.497C-30.872,24.888 -28.72,23.878 -26.48,23.582L-26.48,16.658L-28.528,16.642C-28.424,-1.833 -27.974,-20.561 -22.335,-38.114C-17.503,-53.152 -9.054,-66.724 0.006,-79.682L0,-79.687Z" style="fill:rgb(90,158,149);fill-rule:nonzero;"/>
            </g>
            <g transform="matrix(1,0,0,1,646.4016,269.643)">
                <path d="M0,120.174L-0.351,120.465C-2.284,126.202 -6.473,132.484 -12.095,138.413L-10.761,139.028C-11.305,145.792 -9.207,158.398 -7.363,166.216C-6.764,166.991 -6.149,167.781 -5.534,168.561L-5.21,169.06C-4.376,168.506 -3.514,167.946 -2.619,167.408C-1.592,166.793 -0.423,166.178 0.736,166.469C1.938,166.776 2.696,167.946 3.311,169.016C7.368,175.956 12.606,177.993 16.663,184.944L15.845,186.102C16.356,186.47 16.883,186.833 17.399,187.217C17.426,187.19 17.459,187.173 17.487,187.157C19.595,186.086 21.5,187.244 22.609,188.897L23.197,188.705C30.708,190.242 38.438,188.881 45.466,185.674C49.551,183.83 53.388,181.386 56.798,178.531C45.581,156.509 58.072,144.079 60.811,119.779C63.815,93.205 52.406,64.024 45.526,38.713C41.194,22.785 37.84,6.254 28.72,-7.741C10.684,-35.396 -31.877,-70.068 -66.313,-50.846C-69.898,-51.532 -73.665,-50.522 -76.882,-48.782C-77.392,-48.502 -77.909,-48.194 -78.403,-47.876C-90.893,-47.832 -101.331,-37.993 -108.342,-27.567C-124.698,-3.277 -130.232,26.546 -142.541,53.104C-155.482,80.978 -162.658,113.833 -150.008,143.514C-146.072,152.754 -142.876,165.404 -147.258,173.381C-142.794,176.56 -137.595,178.581 -132.165,179.75C-128.535,180.541 -124.802,180.964 -121.112,181.084C-115.183,181.276 -109.281,180.793 -103.384,180.222C-98.887,179.783 -94.407,179.283 -89.916,178.992L-88.878,179.239C-87.253,172.871 -87.017,166.31 -89.186,159.458L-89.521,159.474C-89.68,156.679 -90.152,153.896 -90.926,151.189L-90.46,150.662C-107.343,135.624 -120.476,108.655 -117.061,83.696L-117.088,83.696C-116.413,78.705 -116.446,73.577 -116.473,68.526C-116.544,59.741 -116.605,50.957 -116.676,42.172L-116.72,42.156C-116.528,41.392 -116.341,40.635 -116.166,39.872C-113.426,28.259 -111.158,16.153 -104.394,6.314C-98.525,-2.223 -88.082,-8.532 -78.101,-7.302L-78.073,-7.609C-73.665,-6.907 -68.965,-8.109 -65.396,-10.788L-61.954,-10.585C-47.563,-19.968 -33.025,-8.636 -24.575,3.092C-12.848,19.359 -14.297,35.595 -14.884,54.849C-15.236,66.736 -14.33,78.656 -12.178,90.356C-10.58,99.009 -8.252,107.661 -3.64,115.156C-2.559,116.913 -1.34,118.598 0.005,120.179L0,120.174Z" style="fill:rgb(99,57,6);fill-rule:nonzero;"/>
            </g>
            <g transform="matrix(1,0,0,1,669.3898,950.7574)">
                <path d="M0,-170.729L0.044,-170.746C-0.527,-172.598 -0.73,-174.571 -0.527,-176.503L-1.828,-177.354C-8.653,-165.857 -15.867,-154.627 -22.5,-144.785C-32.706,-129.649 -45.268,-115.236 -61.783,-108.755C-82.735,-100.545 -105.986,-106.412 -128.343,-106.302C-141.581,-106.238 -154.769,-104.051 -167.978,-103.571C-168.138,-101.442 -168.286,-99.312 -168.434,-97.201L-168.549,-97.201C-168.522,-87.85 -168.429,-70.71 -167.243,-61.436L-101.587,6.625L-25.969,-50.767L27.93,-69.243L29.011,-69.52C21.001,-103.756 11.31,-137.564 -0.006,-170.735L0,-170.729Z" style="fill:rgb(249,249,249);fill-rule:nonzero;"/>
            </g>
            <g transform="matrix(1,0,0,1,632.2144,548.2743)">
                <path d="M0,-138.077C-14.67,-123.758 -37.51,-112.25 -56.721,-116.922C-63.326,-118.531 -70.057,-122.44 -76.283,-127.975L-76.75,-127.448C-75.976,-124.741 -75.504,-121.957 -75.345,-119.163L-75.01,-119.179C-72.841,-112.327 -73.077,-105.766 -74.702,-99.397C-75.976,-94.374 -78.112,-89.47 -80.615,-84.656C-85.244,-75.651 -91.096,-66.927 -94.803,-58.23C-96.225,-54.892 -97.246,-51.395 -98.272,-47.925C-102.269,-34.353 -106.59,-18.277 -107.145,-3.766C-106.678,-1.893 -106.206,-0.016 -105.739,1.857L-105.492,2.147C-104.262,1.137 -103.033,0.143 -101.819,-0.823C-91.217,-9.3 -80.912,-18.145 -70.826,-27.221C-53.054,-43.209 -34.694,-59.883 -20.49,-79.225C-11.239,-91.848 -3.668,-101.258 8.966,-109.576L8.642,-110.076C8.027,-110.85 7.412,-111.641 6.814,-112.42C4.969,-120.239 2.877,-132.845 3.415,-139.609L2.081,-140.224C1.406,-139.505 0.703,-138.802 -0.011,-138.088L0,-138.077Z" style="fill:rgb(248,232,215);fill-rule:nonzero;"/>
            </g>
            <g transform="matrix(1,0,0,1,616.0781,347.8049)">
                <path d="M0,-9.905L0,-9.9C0.028,-8.423 1.071,-4.233 3.206,-6.841C3.503,-7.209 3.591,-7.648 3.662,-8.088C3.821,-9.274 3.821,-10.476 3.618,-11.662C3.574,-11.958 3.503,-12.205 3.399,-12.425C1.993,-15.396 -0.044,-11.327 0,-9.905M-60.817,-12.82L-60.828,-12.82C-60.74,-11.459 -59.609,-8.11 -57.913,-10.289C-57.649,-10.63 -57.561,-11.069 -57.501,-11.492C-57.336,-12.634 -57.336,-13.803 -57.528,-14.945C-57.572,-15.225 -57.627,-15.472 -57.731,-15.692C-57.951,-16.175 -58.226,-16.702 -58.857,-16.686C-60.702,-16.669 -60.888,-14.094 -60.817,-12.82M16.136,62.392L16.142,62.398C1.471,76.717 -21.369,88.225 -40.579,83.552C-47.184,81.944 -53.921,78.035 -60.142,72.5C-77.019,57.468 -90.152,30.499 -86.743,5.534L-86.77,5.534C-86.095,0.538 -86.128,-4.585 -86.155,-9.636C-86.227,-18.421 -86.287,-27.205 -86.358,-35.99L-86.402,-36.006C-86.216,-36.769 -86.023,-37.527 -85.848,-38.29C-83.108,-49.902 -80.84,-62.009 -74.076,-71.848C-68.207,-80.385 -57.77,-86.694 -47.783,-85.464L-47.755,-85.771C-43.352,-85.068 -38.652,-86.271 -35.078,-88.95L-31.636,-88.747C-17.245,-98.13 -2.707,-86.798 5.743,-75.07C17.47,-58.803 16.021,-42.567 15.433,-23.313C15.082,-11.42 15.988,0.494 18.14,12.194C19.738,20.847 22.066,29.5 26.678,36.994C27.759,38.751 28.978,40.436 30.323,42.018L29.972,42.309C28.039,48.046 23.85,54.327 18.228,60.256C17.558,60.97 16.855,61.673 16.136,62.392" style="fill:rgb(248,232,215);fill-rule:nonzero;"/>
            </g>
            <g transform="matrix(1,0,0,1,663.7951,557.1632)">
                <path d="M0,-100.303C-0.467,-100.04 -0.774,-99.584 -1.082,-99.161C-10.201,-86.088 -19.326,-72.999 -28.446,-59.921L-28.709,-60.113C-30.57,-58.34 -32.822,-57.011 -35.254,-56.204L-35.605,-57.33C-38.883,-59.982 -44.258,-59.246 -48.315,-58.104C-52.373,-56.946 -55.942,-54.563 -59.428,-52.202C-68.943,-45.761 -78.518,-39.288 -86.732,-31.251C-88.461,-29.565 -90.262,-27.385 -89.779,-25.014C-89.543,-23.855 -88.856,-22.993 -87.918,-22.334C-86.468,-21.324 -84.431,-20.824 -82.586,-20.561L-82.515,-21.061C-76.761,-25.892 -71.886,-31.443 -65.94,-36.022C-58.676,-41.583 -50.232,-47.019 -41.139,-46.009C-38.18,-45.685 -35.095,-44.488 -33.557,-41.951C-31.317,-38.289 -33.118,-33.545 -35.287,-29.829C-39.767,-22.186 -45.697,-15.482 -51.687,-8.938C-52.9,-7.62 -54.163,-6.214 -54.613,-4.474C-55.036,-2.788 -54.41,-0.68 -52.796,-0.038L-53.13,0.693C-51.725,1.115 -50.1,0.912 -48.722,0.341C-47.783,-0.054 -46.937,-0.598 -46.13,-1.224L-46.465,-1.69C-37.812,-9.306 -30.301,-18.233 -24.268,-28.061C-22.423,-31.064 -20.693,-34.21 -20.051,-37.663C-19.595,-40.079 -19.743,-42.671 -20.693,-44.911C-20.765,-45.026 -20.825,-45.158 -20.852,-45.289C-21.045,-45.833 -21.012,-46.475 -20.957,-47.074C-20.562,-51.027 -19.579,-54.936 -18.041,-58.626L-18.288,-58.829C-9.899,-69.546 -0.867,-83.601 5.886,-94.231C6.561,-95.301 6.21,-97.146 5.227,-98.607C4.112,-100.259 2.213,-101.418 0.104,-100.347C0.077,-100.331 0.044,-100.32 0.016,-100.287L0,-100.303Z" style="fill:rgb(90,158,149);fill-rule:nonzero;"/>
            </g>
            <g transform="matrix(1,0,0,1,0,-403.75)">
                <path d="M621.892,739.13L617.061,739.13L617.061,739.136L621.892,739.136L621.892,739.13ZM617.308,740.255L622.085,739.531C622.013,739.069 621.887,738.575 621.662,738.092L617.297,740.168C617.275,740.124 617.292,740.135 617.308,740.255M617.346,743.143L622.134,743.791C622.321,742.391 622.326,740.942 622.079,739.487L617.313,740.299C617.473,741.216 617.478,742.171 617.346,743.143M617.39,743.215L621.179,746.212C621.898,745.306 622.052,744.285 622.123,743.885L617.363,743.05C617.341,743.154 617.33,743.226 617.319,743.281C617.302,743.341 617.297,743.368 617.297,743.374C617.292,743.39 617.313,743.313 617.39,743.215M618.494,741.611L613.662,741.699C613.673,742.281 613.778,743 613.942,743.687C614.107,744.373 614.376,745.202 614.81,745.938C615.178,746.569 616.034,747.75 617.594,747.942C619.246,748.145 620.448,747.107 621.157,746.245L617.418,743.182C617.27,743.363 617.237,743.352 617.341,743.292C617.478,743.215 617.78,743.094 618.181,743.143C618.571,743.193 618.818,743.368 618.922,743.456C619.016,743.539 619.021,743.577 618.977,743.495C618.873,743.324 618.746,742.995 618.642,742.556C618.538,742.128 618.499,741.765 618.494,741.611M617.292,740.168L621.662,738.103C621.19,737.104 620.212,735.726 618.433,735.66C616.863,735.605 615.82,736.665 615.37,737.208C614.821,737.872 614.414,738.669 614.14,739.371C613.888,740.03 613.64,740.903 613.662,741.732L618.494,741.578C618.494,741.677 618.483,741.672 618.51,741.546C618.538,741.436 618.582,741.288 618.648,741.112C618.79,740.75 618.966,740.442 619.098,740.283C619.164,740.206 619.158,740.233 619.065,740.294C618.966,740.36 618.681,740.508 618.258,740.491C617.802,740.475 617.478,740.277 617.313,740.135C617.187,740.014 617.204,739.975 617.292,740.168M619.477,739.13L621.662,738.092C621.173,737.071 620.048,736.522 618.944,736.774C617.846,737.022 617.061,737.999 617.061,739.13L619.477,739.13ZM619.696,739.893L617.308,740.255C617.313,740.272 617.313,740.283 617.313,740.299L619.696,739.893ZM619.74,743.467L622.123,743.885C622.129,743.852 622.129,743.819 622.134,743.791L619.74,743.467ZM619.285,744.713L621.157,746.245C621.162,746.234 621.173,746.223 621.179,746.212L619.285,744.713ZM616.078,741.655L618.494,741.611L618.494,741.578L616.078,741.655ZM619.477,739.135L617.292,740.168C617.775,741.189 618.906,741.738 620.009,741.491C621.107,741.244 621.892,740.266 621.892,739.135L619.477,739.135Z" style="fill:rgb(26,36,53);fill-rule:nonzero;"/>
            </g>
            <g transform="matrix(1,0,0,1,0,-410.547)">
                <path d="M558.363,740.25L558.352,740.25L558.352,745.081L558.363,745.081L558.363,740.25ZM556.178,743.786L560.955,743.039C560.894,742.654 560.79,742.171 560.565,741.672L556.162,743.659C556.145,743.626 556.145,743.615 556.151,743.637C556.156,743.659 556.167,743.703 556.178,743.786M556.2,746.531L560.988,747.201C561.18,745.833 561.18,744.422 560.949,743.022L556.183,743.802C556.326,744.686 556.332,745.614 556.2,746.531M556.282,746.575L560.082,749.561C560.784,748.666 560.927,747.629 560.988,747.201L556.2,746.531C556.189,746.613 556.178,746.674 556.173,746.723C556.162,746.772 556.156,746.794 556.156,746.8C556.151,746.811 556.178,746.706 556.282,746.575M557.677,745.383L552.856,745.691C552.922,746.679 553.312,748.315 554.13,749.501C554.514,750.067 555.376,751.077 556.826,751.192C558.374,751.318 559.467,750.352 560.087,749.55L556.277,746.586C556.052,746.877 556.365,746.306 557.221,746.377C557.6,746.41 557.864,746.564 557.99,746.657C558.111,746.745 558.138,746.805 558.111,746.767C558.05,746.674 557.935,746.448 557.831,746.108C557.726,745.773 557.688,745.499 557.677,745.383M557.249,744.088L557.205,739.256C556.118,739.267 555.173,739.679 554.465,740.354C553.806,740.985 553.444,741.743 553.235,742.369C552.829,743.593 552.807,744.906 552.856,745.68L557.677,745.389C557.666,745.175 557.666,744.895 557.688,744.603C557.715,744.307 557.759,744.066 557.82,743.901C557.88,743.72 557.907,743.753 557.798,743.852C557.737,743.912 557.644,743.978 557.529,744.027C557.408,744.076 557.304,744.088 557.249,744.088M556.156,743.665L560.554,741.666C560.444,741.43 560.186,740.848 559.719,740.343C559.159,739.734 558.292,739.229 557.166,739.256L557.293,744.088C557.089,744.093 556.853,744.049 556.617,743.945C556.398,743.841 556.249,743.709 556.167,743.621C556.096,743.539 556.063,743.484 556.074,743.5C556.085,743.522 556.107,743.56 556.156,743.665M558.363,742.665L560.565,741.672C560.175,740.81 559.313,740.25 558.363,740.25L558.363,742.665ZM558.566,743.412L556.178,743.786C556.183,743.791 556.183,743.797 556.183,743.802L558.566,743.412ZM558.594,746.866L560.988,747.201L558.594,746.866ZM558.182,748.068L556.282,746.575C556.282,746.575 556.277,746.58 556.277,746.586L558.182,748.068ZM555.267,745.537L552.856,745.68L552.856,745.691L555.267,745.537ZM557.227,741.672L557.249,744.088L557.293,744.088L557.227,741.672ZM558.352,742.665L556.156,743.665C556.546,744.527 557.408,745.081 558.352,745.081L558.352,742.665Z" style="fill:rgb(26,36,53);fill-rule:nonzero;"/>
            </g>
            <g transform="matrix(1,0,0,1,581.1208,343.4394)">
                <path d="M0,9.603L-3.701,6.495C-5.326,8.434 -6.643,10.877 -6.945,13.869C-7.247,16.867 -6.501,20.15 -4.442,23.708L-0.258,21.292C-1.916,18.42 -2.317,16.142 -2.136,14.352C-1.955,12.551 -1.164,10.986 0,9.603M2.487,7.017L-1.323,4.041C-1.554,4.343 -1.85,4.634 -2.284,5.046C-2.679,5.419 -3.223,5.924 -3.706,6.501L0.005,9.598C0.269,9.279 0.582,8.988 1.038,8.554C1.455,8.159 2.004,7.637 2.487,7.017M4.903,-0.186L0.093,-0.648C-0.104,1.4 -0.478,2.965 -1.318,4.036L2.482,7.022C4.244,4.777 4.694,1.982 4.903,-0.186M4.079,-13.544L-0.631,-12.468C0.346,-8.186 0.544,-5.024 0.093,-0.664L4.903,-0.17C5.403,-5.056 5.177,-8.746 4.079,-13.544M-0.258,21.292L-4.442,23.708C-3.772,24.866 -2.295,25.261 -1.142,24.592C0.016,23.922 0.412,22.445 -0.258,21.292M-1.85,8.049L0,9.603L0.005,9.598L-1.85,8.049ZM0.582,5.529L-1.318,4.036L-1.323,4.041L0.582,5.529ZM2.498,-0.417L0.093,-0.664L0.093,-0.648L2.498,-0.417ZM-0.631,-12.468L4.079,-13.544C3.783,-14.846 2.487,-15.658 1.186,-15.362C-0.115,-15.065 -0.928,-13.77 -0.631,-12.468" style="fill:rgb(26,36,53);fill-rule:nonzero;"/>
            </g>
            <g transform="matrix(1,0,0,1,629.1617,297.3148)">
                <path d="M0,10.355L3.591,7.127C-3.195,-0.423 -14.231,-1.076 -22.351,5.238L-19.387,9.048C-13.133,4.184 -4.98,4.815 0,10.355M-19.387,9.048L-22.351,5.238C-23.406,6.056 -23.592,7.571 -22.774,8.625C-21.956,9.68 -20.441,9.866 -19.387,9.048M3.591,7.127L0,10.355C0.889,11.349 2.421,11.431 3.409,10.536C4.403,9.647 4.486,8.115 3.591,7.127" style="fill:rgb(26,36,53);fill-rule:nonzero;"/>
            </g>
            <g transform="matrix(1,0,0,1,567.027,297.8531)">
                <path d="M0,8.307L3.821,5.347C0.231,0.714 -5.018,-1.197 -10.053,-1.224C-15.044,-1.252 -20.062,0.554 -23.477,3.651L-20.227,7.231C-17.8,5.024 -13.99,3.585 -10.08,3.607C-6.226,3.629 -2.509,5.067 0,8.307M-20.227,7.231L-23.477,3.651C-24.465,4.551 -24.537,6.078 -23.642,7.066C-22.741,8.054 -21.215,8.126 -20.227,7.231M3.821,5.347L0,8.307C0.818,9.367 2.339,9.559 3.393,8.741C4.447,7.923 4.639,6.407 3.821,5.347" style="fill:rgb(26,36,53);fill-rule:nonzero;"/>
            </g>
            <g transform="matrix(1,0,0,1,602.2753,392.25)">
                <path d="M0,-1.022L-3.036,-4.777C-7.017,-1.566 -12.946,0.455 -18.892,0.521C-24.828,0.592 -30.406,-1.28 -34.013,-5.359L-37.637,-2.164C-32.838,3.272 -25.722,5.435 -18.838,5.352C-11.958,5.275 -4.936,2.964 0,-1.022M-37.637,-2.164L-34.013,-5.359C-34.897,-6.359 -36.423,-6.457 -37.422,-5.574C-38.422,-4.69 -38.521,-3.163 -37.637,-2.164M-3.036,-4.777L0,-1.022C1.038,-1.856 1.197,-3.377 0.357,-4.421C-0.478,-5.458 -1.999,-5.617 -3.036,-4.777" style="fill:rgb(26,36,53);fill-rule:nonzero;"/>
            </g>
            <g transform="matrix(1,0,0,1,648.2408,266.7007)">
                <path d="M0,121.557L-3.679,124.687C0.972,130.155 7.121,134.514 14.292,136.167L15.379,131.456C9.438,130.089 4.14,126.421 0,121.557M-3.426,116.83L-7.544,119.366C-6.396,121.222 -5.106,123.012 -3.679,124.687L0,121.557C-1.263,120.069 -2.41,118.488 -3.426,116.83M-11.645,92.859L-16.4,93.737C-14.78,102.489 -12.386,111.488 -7.544,119.366L-3.426,116.83C-7.802,109.72 -10.064,101.413 -11.645,92.859M-14.313,57.863L-19.145,57.72C-19.502,69.777 -18.579,81.867 -16.4,93.737L-11.645,92.859C-13.77,81.329 -14.659,69.58 -14.313,57.863M-24.46,4.623L-28.38,7.445C-17.223,22.922 -18.546,38.24 -19.145,57.72L-14.313,57.863C-13.731,38.833 -12.161,21.682 -24.46,4.623M-65.116,-9.669L-62.481,-5.617C-56.123,-9.762 -49.809,-9.378 -43.929,-6.545C-37.933,-3.657 -32.47,1.768 -28.38,7.445L-24.46,4.623C-28.819,-1.428 -34.847,-7.533 -41.831,-10.899C-48.936,-14.319 -57.083,-14.906 -65.116,-9.669M15.379,131.456L14.292,136.167C15.593,136.463 16.888,135.656 17.19,134.355C17.487,133.054 16.68,131.758 15.379,131.456M-1.839,123.122L0,121.557L-1.839,123.122ZM-5.485,118.098L-7.544,119.366L-5.485,118.098ZM-14.022,93.298L-16.4,93.737L-14.022,93.298ZM-16.729,57.792L-19.145,57.72L-16.729,57.792ZM-26.42,6.034L-28.38,7.445L-26.42,6.034ZM-62.481,-5.617L-65.116,-9.669C-66.236,-8.939 -66.549,-7.44 -65.819,-6.325C-65.094,-5.205 -63.595,-4.892 -62.481,-5.617" style="fill:rgb(26,36,53);fill-rule:nonzero;"/>
            </g>
            <g transform="matrix(1,0,0,1,516.7186,263.6093)">
                <path d="M0,79.512L-3.305,75.987C-5.622,78.161 -8.005,79.468 -10.146,79.194L-10.761,83.981C-6.336,84.552 -2.515,81.873 0,79.512M15.302,48.771L10.613,47.607C7.917,58.451 4.272,68.877 -3.305,75.987L0,79.512C8.675,71.37 12.584,59.714 15.302,48.771M15.867,46.449L11.157,45.362C10.986,46.103 10.805,46.828 10.613,47.613L15.307,48.766C15.483,48.025 15.686,47.234 15.867,46.449M27.276,13.715L23.296,10.981C16.208,21.281 13.852,33.947 11.162,45.351L15.862,46.46C18.651,34.639 20.831,23.093 27.276,13.715M51.28,1.131L51.873,-3.667C40.733,-5.04 29.505,1.944 23.296,10.981L27.276,13.715C32.8,5.677 42.452,0.044 51.28,1.131M55.2,2.081L56.88,-2.454C55.239,-3.058 53.548,-3.47 51.862,-3.667L51.297,1.131C52.592,1.285 53.91,1.598 55.2,2.081M-10.761,83.981L-10.146,79.194C-11.469,79.023 -12.677,79.957 -12.848,81.28C-13.018,82.603 -12.084,83.811 -10.761,83.981M-1.653,77.75L-3.305,75.987L-1.653,77.75ZM12.957,48.189L15.302,48.771C15.302,48.771 15.302,48.766 15.307,48.766L12.957,48.189ZM13.512,45.905L11.162,45.351C11.162,45.356 11.162,45.356 11.157,45.362L13.512,45.905ZM25.283,12.348L27.276,13.715L25.283,12.348ZM51.577,-1.268L51.28,1.131L51.297,1.131L51.577,-1.268ZM56.88,-2.454L55.2,2.081C56.452,2.542 57.841,1.905 58.308,0.654C58.769,-0.598 58.132,-1.987 56.88,-2.454" style="fill:rgb(26,36,53);fill-rule:nonzero;"/>
            </g>
            <g transform="matrix(1,0,0,1,632.5548,378.1219)">
                <path d="M0,28.276L3.503,31.603C9.268,25.52 13.704,18.948 15.785,12.76L11.206,11.223C9.421,16.51 5.479,22.5 0,28.276M-2.048,30.368L1.367,33.783C2.081,33.069 2.811,32.339 3.514,31.592L-0.011,28.287C-0.648,28.968 -1.323,29.643 -2.048,30.368M-56.491,50.88L-57.633,55.58C-47.377,58.072 -36.324,56.217 -26.079,52.011C-15.823,47.8 -6.188,41.156 1.345,33.805L-2.026,30.346C-9.164,37.313 -18.283,43.583 -27.913,47.542C-37.56,51.5 -47.536,53.06 -56.491,50.88M-75.015,40.371L-78.227,43.984C-71.803,49.699 -64.726,53.85 -57.633,55.58L-56.491,50.885C-62.607,49.392 -69.003,45.724 -75.015,40.371M-100.831,-24.459L-105.619,-25.118C-109.16,0.808 -95.577,28.534 -78.233,43.984L-75.015,40.371C-91.426,25.756 -104.109,-0.455 -100.831,-24.459M-100.48,-26.732L-105.229,-27.622C-105.388,-26.771 -105.514,-25.931 -105.619,-25.096L-100.826,-24.481C-100.727,-25.261 -100.617,-26.002 -100.48,-26.732M11.206,11.223L15.785,12.76C16.213,11.497 15.532,10.13 14.269,9.702C13.001,9.274 11.634,9.955 11.206,11.223M1.751,29.939L0,28.276C-0.005,28.281 -0.005,28.281 -0.011,28.287L1.751,29.939ZM-0.34,32.075L1.345,33.805C1.356,33.799 1.362,33.788 1.367,33.783L-0.34,32.075ZM-57.062,53.23L-57.633,55.58L-57.062,53.23ZM-76.624,42.178L-78.233,43.984L-78.227,43.984L-76.624,42.178ZM-103.225,-24.789L-100.831,-24.459C-100.831,-24.47 -100.831,-24.476 -100.826,-24.481L-103.225,-24.789ZM-105.229,-27.622L-100.48,-26.732C-100.238,-28.044 -101.1,-29.307 -102.412,-29.549C-103.724,-29.796 -104.987,-28.934 -105.229,-27.622" style="fill:rgb(26,36,53);fill-rule:nonzero;"/>
            </g>
            <g transform="matrix(1,0,0,1,501.2522,224.9243)">
                <path d="M0,219.264L-4.239,216.936C-4.925,218.193 -5.831,219.297 -6.995,220.219L-4.003,224.008C-2.301,222.668 -0.983,221.048 0,219.264M-2.646,187.288L-7.094,189.177C-5.178,193.673 -3.47,198.933 -2.767,203.973C-2.053,209.068 -2.41,213.609 -4.239,216.936L0,219.264C2.553,214.614 2.795,208.843 2.02,203.303C1.235,197.714 -0.626,192.032 -2.646,187.288M4.788,98.838L0.406,96.806C-12.655,124.934 -20.133,158.573 -7.094,189.177L-2.646,187.282C-14.901,158.529 -8.033,126.46 4.788,98.838M38.801,18.503L34.793,15.801C26.442,28.21 20.885,41.969 15.906,55.821C10.898,69.75 6.501,83.657 0.406,96.806L4.788,98.838C11.003,85.43 15.527,71.144 20.452,57.451C25.41,43.676 30.796,30.384 38.801,18.503M66.747,-0.741L66.73,-5.573C52.966,-5.523 41.903,5.227 34.793,15.801L38.801,18.497C45.713,8.219 55.524,-0.703 66.747,-0.741M67.35,-5.573L66.735,-5.573L66.735,-0.741L67.35,-0.741L67.35,-5.573ZM-4.003,224.008L-6.995,220.219C-8.043,221.043 -8.225,222.564 -7.396,223.612C-6.572,224.656 -5.051,224.837 -4.003,224.008M-2.119,218.1L-4.239,216.936L-2.119,218.1ZM-4.87,188.232L-2.646,187.288L-2.646,187.282L-4.87,188.232ZM2.597,97.822L4.788,98.838L2.597,97.822ZM36.796,17.152L38.801,18.503L38.801,18.497L36.796,17.152ZM66.736,-3.157L66.736,-5.573L66.73,-5.573L66.736,-3.157ZM67.35,-5.573L67.35,-0.741C68.685,-0.741 69.766,-1.823 69.766,-3.157C69.766,-4.491 68.685,-5.573 67.35,-5.573" style="fill:rgb(26,36,53);fill-rule:nonzero;"/>
            </g>
            <g transform="matrix(1,0,0,1,641.3943,411.8878)">
                <path d="M0,23.45L-4.711,24.504C-4.502,25.437 -4.288,26.321 -4.074,27.118L0.593,25.877C0.401,25.147 0.198,24.323 0,23.45M-3.344,-3.019L-8.159,-3.403C-8.455,0.253 -8.032,5.31 -7.341,10.317C-6.643,15.368 -5.644,20.551 -4.705,24.532L-0.005,23.423C-0.911,19.585 -1.878,14.556 -2.558,9.658C-3.239,4.717 -3.596,0.088 -3.344,-3.019M0.593,25.877L-4.074,27.118C-3.733,28.408 -2.41,29.176 -1.12,28.831C0.17,28.49 0.939,27.167 0.593,25.877M-2.355,23.977L0,23.45C0,23.439 0,23.433 -0.005,23.423L-2.355,23.977ZM-8.159,-3.403L-3.344,-3.019C-3.239,-4.348 -4.228,-5.512 -5.562,-5.622C-6.89,-5.726 -8.054,-4.732 -8.159,-3.403" style="fill:rgb(26,36,53);fill-rule:nonzero;"/>
            </g>
            <g transform="matrix(1,0,0,1,705.3518,214.3011)">
                <path d="M0,232.797L-4.326,234.949C-3.646,236.316 -2.86,237.695 -2.015,239.095L2.119,236.591C1.312,235.268 0.604,234.01 0,232.797M4.25,175.39L-0.549,174.852C-1.213,180.743 -2.471,185.937 -3.832,190.807C-5.177,195.6 -6.693,200.294 -7.741,204.813C-9.894,214.108 -10.245,223.332 -4.315,234.971L-0.011,232.775C-5.293,222.398 -5.002,214.399 -3.036,205.9C-2.021,201.518 -0.599,197.17 0.818,192.108C2.213,187.123 3.547,181.649 4.25,175.39M-11.102,93.424L-15.763,94.686C-12.26,107.589 -7.774,120.887 -4.436,134.684C-1.12,148.36 0.906,161.977 -0.549,174.852L4.25,175.39C5.798,161.691 3.624,147.432 0.264,133.547C-3.069,119.783 -7.731,105.832 -11.102,93.424M-28.215,46.283L-32.267,48.919C-23.411,62.507 -20.161,78.528 -15.763,94.686L-11.102,93.424C-15.373,77.727 -18.832,60.684 -28.215,46.283M-126.449,2.388L-124.094,6.604C-107.919,-2.427 -89.625,1.059 -72.797,10.568C-55.974,20.078 -41.101,35.368 -32.262,48.919L-28.215,46.283C-37.417,32.173 -52.839,16.3 -70.42,6.363C-87.983,-3.564 -108.194,-7.802 -126.449,2.388M-127.898,3.228L-125.373,7.345C-124.945,7.082 -124.533,6.84 -124.121,6.621L-126.427,2.371C-126.927,2.646 -127.415,2.931 -127.898,3.228M2.119,236.591L-2.015,239.095C-1.329,240.237 0.159,240.599 1.301,239.907C2.443,239.221 2.806,237.733 2.119,236.591M-2.163,233.873L0,232.797C-0.005,232.792 -0.005,232.786 -0.011,232.775L-2.163,233.873ZM1.85,175.121L-0.549,174.852L1.85,175.121ZM-13.435,94.055L-11.102,93.424L-13.435,94.055ZM-30.241,47.601L-28.215,46.283L-30.241,47.601ZM-125.274,4.496L-124.121,6.621C-124.116,6.615 -124.105,6.61 -124.094,6.604L-125.274,4.496ZM-125.373,7.345L-127.898,3.228C-129.035,3.925 -129.392,5.413 -128.695,6.549C-127.997,7.686 -126.509,8.043 -125.373,7.345" style="fill:rgb(26,36,53);fill-rule:nonzero;"/>
            </g>
            <g transform="matrix(1,0,0,1,691.2964,433.1796)">
                <path d="M0,24.493L1.142,19.793C-4.167,18.508 -7.895,16.449 -10.888,13.54C-13.929,10.586 -16.35,6.633 -18.854,1.318L-23.224,3.377C-20.633,8.884 -17.915,13.452 -14.253,17.004C-10.553,20.6 -6.023,23.027 0,24.493M-0.159,24.433L1.537,19.908C1.444,19.876 1.356,19.848 1.274,19.826C1.191,19.804 1.126,19.788 1.087,19.782C1.071,19.777 1.054,19.777 1.049,19.777L1.054,19.777C1.071,19.782 1.109,19.788 1.158,19.799L-0.016,24.488C0.055,24.504 0.115,24.515 0.148,24.52C0.165,24.526 0.181,24.526 0.181,24.531C0.187,24.531 0.181,24.526 0.176,24.526C0.154,24.52 0.104,24.515 0.038,24.498C-0.022,24.482 -0.093,24.46 -0.159,24.433M-23.224,3.377L-18.854,1.318C-19.42,0.116 -20.863,-0.406 -22.066,0.165C-23.274,0.731 -23.79,2.175 -23.224,3.377M0.571,22.143L1.158,19.799C1.153,19.799 1.147,19.799 1.142,19.793L0.571,22.143ZM1.537,19.908L-0.159,24.433C1.087,24.899 2.482,24.268 2.948,23.016C3.415,21.77 2.784,20.375 1.537,19.908" style="fill:rgb(26,36,53);fill-rule:nonzero;"/>
            </g>
            <g transform="matrix(1,0,0,1,544.489,437.622)">
                <path d="M0,14.143L-2.965,10.333C-4.584,11.595 -6.435,12.529 -8.373,13.012L-7.209,17.701C-4.552,17.042 -2.097,15.779 0,14.143M7.961,-1.417L3.129,-1.482C3.069,3.03 0.686,7.478 -2.97,10.333L0.005,14.143C4.694,10.476 7.879,4.7 7.961,-1.417M-7.209,17.701L-8.373,13.012C-9.669,13.336 -10.459,14.643 -10.135,15.938C-9.811,17.234 -8.499,18.025 -7.209,17.701M-1.482,12.238L0,14.143L0.005,14.143L-1.482,12.238ZM3.129,-1.482L7.961,-1.417C7.978,-2.751 6.912,-3.849 5.578,-3.865C4.244,-3.882 3.146,-2.817 3.129,-1.482" style="fill:rgb(26,36,53);fill-rule:nonzero;"/>
            </g>
            <g transform="matrix(1,0,0,1,514.6432,438.0554)">
                <path d="M0,13.715L-0.835,8.96C-2.789,9.301 -4.777,9.476 -6.759,9.476L-6.759,14.308C-4.491,14.308 -2.229,14.11 0,13.715M20.556,3.904L17.35,0.291C12.277,4.799 5.886,7.829 -0.818,8.955L-0.016,13.721C7.566,12.441 14.797,9.026 20.556,3.904M-6.759,14.308L-6.759,9.476C-8.093,9.476 -9.174,10.558 -9.174,11.892C-9.174,13.227 -8.093,14.308 -6.759,14.308M-0.417,11.338L-0.818,8.955C-0.824,8.955 -0.829,8.955 -0.835,8.96L-0.417,11.338ZM17.35,0.291L20.556,3.904C21.555,3.014 21.643,1.488 20.759,0.494C19.875,-0.505 18.349,-0.593 17.35,0.291" style="fill:rgb(26,36,53);fill-rule:nonzero;"/>
            </g>
            <g transform="matrix(1,0,0,1,578.0737,249.5151)">
                <path d="M0,-17.695L-4.354,-19.792C-7.549,-13.143 -8.263,-5.364 -6.341,1.758L-1.675,0.495C-3.3,-5.506 -2.69,-12.1 0,-17.695M-1.675,0.495L-6.341,1.758C-5.99,3.042 -4.667,3.805 -3.377,3.46C-2.086,3.108 -1.329,1.785 -1.675,0.495M-4.354,-19.792L0,-17.695C0.576,-18.897 0.071,-20.341 -1.131,-20.923C-2.333,-21.5 -3.777,-20.995 -4.354,-19.792" style="fill:rgb(26,36,53);fill-rule:nonzero;"/>
            </g>
            <g transform="matrix(1,0,0,1,637.3369,460.6488)">
                <path d="M0,37.982L-3.964,35.215C-4.343,35.758 -4.705,36.286 -5.084,36.818L-1.131,39.596C-0.747,39.053 -0.379,38.526 0,37.982M27.364,-1.258L23.4,-4.025C14.281,9.048 5.155,22.137 -3.964,35.215L0,37.982C9.12,24.904 18.245,11.815 27.364,-1.258M27.65,-1.68L25.278,-5.886C24.251,-5.31 23.62,-4.327 23.427,-4.063L27.337,-1.219C27.43,-1.351 27.485,-1.428 27.551,-1.516C27.611,-1.598 27.655,-1.647 27.688,-1.686C27.754,-1.763 27.743,-1.73 27.65,-1.68M27.798,-1.774L25.311,-5.914C25.371,-5.952 25.431,-5.979 25.409,-5.974C25.409,-5.974 25.393,-5.963 25.371,-5.952C25.349,-5.941 25.316,-5.924 25.278,-5.897C25.113,-5.804 24.855,-5.622 24.608,-5.331L28.319,-2.235C28.1,-1.977 27.875,-1.818 27.737,-1.741C27.683,-1.708 27.633,-1.686 27.65,-1.691C27.65,-1.691 27.672,-1.702 27.694,-1.713C27.715,-1.724 27.754,-1.746 27.798,-1.774M29.67,-0.753L33.678,-3.454C32.931,-4.563 31.839,-5.639 30.406,-6.226C28.901,-6.852 27.161,-6.863 25.459,-5.996L27.644,-1.691C28.05,-1.894 28.319,-1.862 28.566,-1.763C28.89,-1.625 29.302,-1.296 29.67,-0.753M30.29,0.982L34.375,3.563C35.138,2.35 35.193,0.955 35.012,-0.154C34.826,-1.307 34.348,-2.46 33.678,-3.454L29.67,-0.753C29.983,-0.286 30.175,0.214 30.241,0.62C30.312,1.059 30.203,1.125 30.29,0.982M6.259,36.187L10.064,39.163C18.536,28.341 27.628,14.181 34.375,3.568L30.296,0.977C23.532,11.623 14.56,25.574 6.259,36.187M2.685,40.579L6.374,43.698C7.582,42.265 8.812,40.749 10.058,39.168L6.259,36.181C5.046,37.73 3.849,39.201 2.685,40.579M-1.131,39.596L-5.084,36.818C-5.853,37.905 -5.589,39.415 -4.497,40.184C-3.404,40.953 -1.9,40.689 -1.131,39.596M-1.982,36.599L-3.964,35.215L-1.982,36.599ZM25.382,-2.641L23.427,-4.063C23.422,-4.047 23.411,-4.036 23.4,-4.025L25.382,-2.641ZM26.464,-3.783L27.65,-1.68C27.908,-1.823 28.133,-2.01 28.319,-2.235L26.464,-3.783ZM26.552,-3.844L25.459,-5.996C25.409,-5.974 25.36,-5.946 25.311,-5.914L26.552,-3.844ZM31.674,-2.103L33.678,-3.454L31.674,-2.103ZM32.333,2.273L34.375,3.568L34.375,3.563L32.333,2.273ZM8.159,37.675L10.058,39.168L10.064,39.163L8.159,37.675ZM6.374,43.698L2.685,40.579C1.823,41.6 1.955,43.127 2.97,43.983C3.991,44.845 5.518,44.713 6.374,43.698" style="fill:rgb(26,36,53);fill-rule:nonzero;"/>
            </g>
            <g transform="matrix(1,0,0,1,641.5754,534.6809)">
                <path d="M0,-4.321L-4.118,-6.847C-10.025,2.773 -17.383,11.519 -25.854,18.975L-22.659,22.598C-13.825,14.824 -6.16,5.704 0,-4.321M4.535,-14.747L-0.214,-15.626C-0.769,-12.644 -2.289,-9.822 -4.118,-6.852L0,-4.316C1.861,-7.341 3.805,-10.822 4.535,-14.747M3.739,-23.378L-0.708,-21.489C0.022,-19.771 0.17,-17.674 -0.214,-15.637L4.535,-14.736C5.057,-17.531 4.908,-20.616 3.739,-23.378M3.481,-23.966L-0.769,-21.66C-0.769,-21.671 -0.774,-21.676 -0.78,-21.682C-0.78,-21.693 -0.785,-21.698 -0.785,-21.704C-0.791,-21.709 -0.791,-21.709 -0.785,-21.704C-0.785,-21.698 -0.78,-21.687 -0.774,-21.671L3.81,-23.197C3.739,-23.4 3.646,-23.658 3.481,-23.966M1.664,-26.727L-1.938,-23.499C-1.493,-23.005 -1.126,-22.439 -0.845,-21.813L3.558,-23.812C3.08,-24.855 2.449,-25.849 1.664,-26.727M-22.659,22.598L-25.854,18.975C-26.853,19.853 -26.952,21.38 -26.068,22.384C-25.19,23.383 -23.664,23.482 -22.659,22.598M-2.059,-5.584L-4.118,-6.852L-4.118,-6.847L-2.059,-5.584ZM2.158,-15.186L-0.214,-15.637L-0.214,-15.626L2.158,-15.186ZM1.515,-22.434L-0.774,-21.671C-0.758,-21.61 -0.73,-21.55 -0.708,-21.489L1.515,-22.434ZM1.356,-22.813L-0.845,-21.813C-0.818,-21.764 -0.796,-21.709 -0.769,-21.66L1.356,-22.813ZM-1.938,-23.499L1.664,-26.727C0.774,-27.721 -0.752,-27.803 -1.746,-26.914C-2.74,-26.024 -2.828,-24.493 -1.938,-23.499" style="fill:rgb(26,36,53);fill-rule:nonzero;"/>
            </g>
            <g transform="matrix(1,0,0,1,599.3325,544.4816)">
                <path d="M0,-21.435L-2.954,-25.262C-6.034,-22.879 -8.823,-20.271 -11.508,-17.701C-14.215,-15.115 -16.801,-12.59 -19.606,-10.235L-16.499,-6.534C-13.545,-9.016 -10.822,-11.673 -8.164,-14.21C-5.49,-16.774 -2.866,-19.228 0,-21.435M23.06,-30.933L23.592,-35.732C13.435,-36.863 4.271,-30.802 -2.948,-25.262L-0.006,-21.43C7.291,-27.03 15.027,-31.823 23.06,-30.933M28.841,-28.023L32.97,-30.527C30.861,-33.997 26.853,-35.375 23.587,-35.732L23.06,-30.933C25.701,-30.642 27.875,-29.616 28.841,-28.023M27.089,-18.371L31.262,-15.934C32.41,-17.899 33.541,-20.271 34.057,-22.742C34.578,-25.229 34.513,-28.012 32.964,-30.538L28.846,-28.012C29.544,-26.876 29.692,-25.459 29.33,-23.73C28.962,-21.979 28.111,-20.123 27.089,-18.371M10.997,2.108L14.561,5.369C20.545,-1.17 26.639,-8.044 31.262,-15.934L27.095,-18.377C22.758,-10.976 16.987,-4.442 10.997,2.108M7.511,7.593L12.189,8.812C12.469,7.747 13.276,6.764 14.555,5.375L10.997,2.102C9.85,3.349 8.148,5.177 7.511,7.593M10.772,14.884L12.562,10.393C12.54,10.387 12.392,10.316 12.26,9.964C12.128,9.608 12.101,9.157 12.194,8.79L7.505,7.615C7.176,8.932 7.258,10.382 7.736,11.656C8.214,12.946 9.185,14.247 10.772,14.884M10.953,14.961L12.65,10.437C12.622,10.426 12.6,10.42 12.589,10.415C12.584,10.415 12.578,10.409 12.573,10.409L12.568,10.409C12.562,10.404 12.6,10.42 12.644,10.437C12.749,10.481 12.924,10.563 13.117,10.706L10.218,14.571C10.454,14.747 10.673,14.851 10.822,14.911C10.893,14.939 10.948,14.961 10.964,14.966C10.997,14.977 10.97,14.966 10.953,14.961M-16.499,-6.534L-19.606,-10.235C-20.627,-9.378 -20.759,-7.852 -19.903,-6.831C-19.046,-5.809 -17.52,-5.677 -16.499,-6.534M-1.477,-23.346L-2.948,-25.262L-2.954,-25.262L-1.477,-23.346ZM23.323,-33.333L23.06,-30.933L23.323,-33.333ZM30.905,-29.275L28.841,-28.023L28.846,-28.012L30.905,-29.275ZM29.176,-17.152L31.262,-15.934L29.176,-17.152ZM12.776,3.739L14.555,5.375L14.561,5.369L12.776,3.739ZM9.85,8.202L7.511,7.593C7.511,7.598 7.511,7.604 7.505,7.615L9.85,8.202ZM11.667,12.638L13.117,10.706C12.946,10.579 12.76,10.475 12.562,10.393L11.667,12.638ZM12.65,10.437L10.953,14.961C12.2,15.428 13.594,14.796 14.061,13.544C14.528,12.298 13.896,10.904 12.65,10.437" style="fill:rgb(26,36,53);fill-rule:nonzero;"/>
            </g>
            <g transform="matrix(1,0,0,1,581.6534,500.6357)">
                <path d="M0,33.595L-0.889,38.339C-0.829,38.349 -0.78,38.361 -0.741,38.366C-0.703,38.372 -0.67,38.377 -0.648,38.383C-0.62,38.383 -0.609,38.388 -0.599,38.388C-0.587,38.388 -0.593,38.388 -0.609,38.383L0.28,33.639C0.225,33.628 0.17,33.617 0.132,33.611C0.093,33.606 0.06,33.6 0.038,33.595C0.011,33.595 0,33.59 -0.011,33.59C-0.017,33.59 -0.011,33.59 0,33.595M-4.392,32.211L-7.154,36.175C-5.221,37.521 -2.718,38.081 -0.785,38.361L-0.104,33.573C-1.861,33.326 -3.426,32.887 -4.392,32.211M-5.271,31.031L-10.004,31.997C-9.614,33.902 -8.477,35.248 -7.165,36.17L-4.387,32.217C-4.952,31.822 -5.183,31.443 -5.271,31.031M-2.904,27.006L-6.276,23.548C-7.187,24.437 -8.263,25.59 -9.037,26.935C-9.822,28.297 -10.404,30.043 -10.004,31.997L-5.271,31.031C-5.353,30.614 -5.276,30.087 -4.848,29.345C-4.409,28.582 -3.717,27.803 -2.904,27.006M24.07,6.324L21.358,2.327C11.876,8.746 2.119,15.334 -6.281,23.553L-2.899,27.001C5.134,19.144 14.522,12.786 24.07,6.324M34.491,0.746L33.162,-3.899C28.676,-2.62 24.8,-0.006 21.358,2.327L24.07,6.324C27.6,3.936 30.861,1.784 34.491,0.746M45.016,1.075L48.057,-2.68C45.823,-4.486 43.028,-5.024 40.481,-5.03C37.911,-5.035 35.314,-4.503 33.173,-3.904L34.48,0.751C36.396,0.208 38.515,-0.198 40.47,-0.198C42.441,-0.193 43.972,0.23 45.016,1.075M0.28,33.639L-0.609,38.383C0.703,38.63 1.966,37.768 2.213,36.455C2.454,35.143 1.592,33.881 0.28,33.639M-0.445,35.967L0,33.595C-0.033,33.584 -0.066,33.579 -0.104,33.573L-0.445,35.967ZM-5.776,34.193L-7.165,36.17L-7.154,36.175L-5.776,34.193ZM-7.637,31.514L-10.004,31.997L-7.637,31.514ZM-4.59,25.277L-2.904,27.006L-2.899,27.001L-4.59,25.277ZM22.714,4.326L24.07,6.324L22.714,4.326ZM33.826,-1.576L33.173,-3.904C33.167,-3.899 33.167,-3.899 33.162,-3.899L33.826,-1.576ZM48.057,-2.68L45.016,1.075C46.053,1.915 47.574,1.756 48.414,0.719C49.254,-0.319 49.095,-1.84 48.057,-2.68" style="fill:rgb(26,36,53);fill-rule:nonzero;"/>
            </g>
            <g transform="matrix(1,0,0,1,515.9993,560.2496)">
                <path d="M0,74.23L1.839,69.761C-2.454,67.993 -5.485,63.946 -8.68,59.368L-12.644,62.135C-9.581,66.516 -5.809,71.836 0,74.23M13.243,75.07L12.342,70.326C8.62,71.029 4.952,71.045 1.839,69.761L-0.005,74.23C4.332,76.02 9.065,75.861 13.243,75.07M49.375,51.418L45.927,48.035C35.979,58.16 25.388,67.823 12.337,70.326L13.248,75.07C27.957,72.248 39.503,61.465 49.375,51.418M91.717,3.799L87.951,0.78C74.752,17.212 60.718,32.981 45.927,48.035L49.375,51.418C64.276,36.253 78.419,20.364 91.717,3.799M92.832,2.443L89.071,-0.587C88.697,-0.126 88.351,0.302 87.989,0.73L91.679,3.849C92.085,3.366 92.464,2.893 92.832,2.443M-12.644,62.135L-8.68,59.368C-9.443,58.275 -10.953,58.006 -12.046,58.769C-13.138,59.532 -13.407,61.042 -12.644,62.135M0.917,71.995L1.839,69.761L0.917,71.995ZM12.793,72.698L13.243,75.07L13.248,75.07L12.793,72.698ZM47.651,49.726L49.375,51.418L47.651,49.726ZM89.834,2.289L87.989,0.73C87.978,0.747 87.961,0.763 87.951,0.78L89.834,2.289ZM89.071,-0.587L92.832,2.443C93.666,1.406 93.507,-0.115 92.469,-0.95C91.426,-1.79 89.905,-1.625 89.071,-0.587" style="fill:rgb(26,36,53);fill-rule:nonzero;"/>
            </g>
            <g transform="matrix(1,0,0,1,503.3934,615.0764)">
                <path d="M0,-0.829L-4.019,-3.519C-5.666,-1.048 -5.013,2.476 -2.608,4.2L0.203,0.269C-0.088,0.06 -0.192,-0.543 0,-0.829M1.477,0.329L6.309,0.329C6.309,-1.296 5.886,-2.745 4.941,-3.854C4.003,-4.969 2.762,-5.479 1.625,-5.644C0.511,-5.803 -0.587,-5.644 -1.493,-5.326C-2.328,-5.035 -3.377,-4.48 -4.024,-3.508L0.006,-0.84C-0.11,-0.664 -0.203,-0.615 -0.159,-0.648C-0.126,-0.67 -0.044,-0.714 0.093,-0.763C0.373,-0.862 0.692,-0.895 0.944,-0.862C1.17,-0.829 1.235,-0.758 1.257,-0.73C1.279,-0.703 1.477,-0.461 1.477,0.329M0.203,0.269L-2.608,4.2C-1.521,4.974 -0.011,4.727 0.763,3.64C1.537,2.553 1.29,1.049 0.203,0.269M-2.009,-2.174L0,-0.829C0,-0.834 0.006,-0.84 0.006,-0.84L-2.009,-2.174ZM6.309,0.329L1.477,0.329C1.477,1.664 2.559,2.745 3.893,2.745C5.227,2.745 6.309,1.664 6.309,0.329" style="fill:rgb(26,36,53);fill-rule:nonzero;"/>
            </g>
            <g transform="matrix(1,0,0,1,521.8466,543.4982)">
                <path d="M0,81.494L-4.2,83.882C-3.503,85.118 -2.553,86.446 -1.186,87.462L1.691,83.575C1.076,83.119 0.527,82.427 0,81.494M-0.95,67.45L-5.589,66.099C-7.231,71.749 -7.302,78.375 -4.206,83.877L0.005,81.505C-2.262,77.486 -2.355,72.287 -0.95,67.45M6.177,53.537L2.125,50.902C-0.857,55.481 -3.959,60.477 -5.589,66.099L-0.95,67.45C0.456,62.585 3.184,58.127 6.177,53.537M50.588,-2.416L47.107,-5.765C30.373,11.651 15.296,30.659 2.125,50.902L6.177,53.537C19.183,33.546 34.068,14.78 50.588,-2.416M1.691,83.575L-1.186,87.462C-0.11,88.253 1.4,88.028 2.196,86.957C2.987,85.881 2.762,84.371 1.691,83.575M-2.103,82.691L-4.206,83.877C-4.206,83.877 -4.206,83.882 -4.2,83.882L-2.103,82.691ZM4.151,52.219L6.177,53.537L4.151,52.219ZM47.107,-5.765L50.588,-2.416C51.516,-3.376 51.483,-4.908 50.523,-5.831C49.562,-6.759 48.03,-6.726 47.107,-5.765" style="fill:rgb(26,36,53);fill-rule:nonzero;"/>
            </g>
            <g transform="matrix(1,0,0,1,540.514,631.4597)">
                <path d="M0,9.729L-0.11,4.898C-0.84,4.914 -1.614,4.694 -2.811,4.31L-4.293,8.911C-3.206,9.262 -1.669,9.767 0,9.729M5.062,6.896L0.856,4.513C0.84,4.541 0.78,4.629 0.593,4.722C0.401,4.821 0.137,4.887 -0.143,4.898L0.033,9.729C1.74,9.663 3.926,8.905 5.062,6.896M4.639,1.686L0.873,4.716C0.84,4.672 0.829,4.645 0.824,4.634C0.818,4.623 0.818,4.618 0.818,4.618C0.818,4.623 0.818,4.618 0.824,4.607C0.824,4.59 0.835,4.557 0.856,4.513L5.062,6.896C5.996,5.249 5.792,3.124 4.639,1.686M2.899,0.428L1.213,4.952C1.104,4.914 0.961,4.832 0.835,4.667L4.678,1.735C4.2,1.109 3.563,0.676 2.899,0.428M-4.293,8.911L-2.811,4.31C-4.079,3.904 -5.441,4.601 -5.853,5.869C-6.259,7.138 -5.562,8.499 -4.293,8.911M-0.055,7.313L0,9.729L0.033,9.729L-0.055,7.313ZM2.959,5.705L0.856,4.513L2.959,5.705ZM2.756,3.201L0.835,4.667C0.851,4.683 0.862,4.7 0.873,4.716L2.756,3.201ZM1.213,4.952L2.899,0.428C1.647,-0.038 0.258,0.599 -0.209,1.845C-0.675,3.097 -0.038,4.486 1.213,4.952" style="fill:rgb(26,36,53);fill-rule:nonzero;"/>
            </g>
            <g transform="matrix(1,0,0,1,547.7612,568.8031)">
                <path d="M0,-13.16L-2.306,-17.41C-13.484,-11.337 -23.625,-4.441 -35.023,-0.104L-33.305,4.409C-21.517,-0.071 -10.607,-7.406 0,-13.16M-33.305,4.409L-35.023,-0.104C-36.269,0.368 -36.895,1.763 -36.423,3.009C-35.951,4.261 -34.557,4.887 -33.305,4.409M-2.306,-17.41L0,-13.16C1.175,-13.797 1.609,-15.263 0.972,-16.438C0.335,-17.607 -1.131,-18.047 -2.306,-17.41" style="fill:rgb(26,36,53);fill-rule:nonzero;"/>
            </g>
            <g transform="matrix(1,0,0,1,555.1788,529.4866)">
                <path d="M0,-81.197L4.678,-80C6.396,-86.72 6.665,-93.748 4.337,-101.111L-0.269,-99.65C1.735,-93.309 1.537,-87.215 0,-81.197M-5.716,-66.971L-1.433,-64.742C1.12,-69.645 3.344,-74.735 4.683,-80.005L0,-81.192C-1.213,-76.426 -3.256,-71.699 -5.716,-66.971M-19.985,-40.381L-15.538,-38.487C-13.742,-42.693 -11.414,-46.948 -8.916,-51.335C-6.435,-55.683 -3.772,-60.191 -1.428,-64.753L-5.721,-66.96C-8.005,-62.519 -10.58,-58.165 -13.111,-53.723C-15.62,-49.325 -18.069,-44.867 -19.985,-40.381M-23.548,-29.813L-18.914,-28.44C-17.877,-31.943 -16.894,-35.297 -15.538,-38.487L-19.985,-40.376C-21.467,-36.89 -22.527,-33.25 -23.548,-29.813M-32.52,14.94L-27.688,15.126C-27.15,0.95 -22.911,-14.862 -18.914,-28.445L-23.548,-29.807C-27.54,-16.246 -31.949,0.094 -32.52,14.94M-32.58,19.497L-27.748,19.409C-27.776,17.998 -27.765,16.581 -27.688,15.159L-32.514,14.907C-32.596,16.471 -32.607,18.009 -32.58,19.497M-0.269,-99.65L4.337,-101.111C3.931,-102.379 2.575,-103.087 1.301,-102.686C0.033,-102.28 -0.675,-100.924 -0.269,-99.65M2.339,-80.599L0,-81.197L0,-81.192L2.339,-80.599ZM-3.574,-65.857L-5.716,-66.971C-5.721,-66.966 -5.721,-66.966 -5.721,-66.96L-3.574,-65.857ZM-17.761,-39.432L-19.985,-40.381L-19.985,-40.376L-17.761,-39.432ZM-21.231,-29.126L-23.548,-29.813L-23.548,-29.807L-21.231,-29.126ZM-30.104,15.033L-27.688,15.159L-27.688,15.126L-30.104,15.033ZM-27.748,19.409L-32.58,19.497C-32.552,20.831 -31.454,21.89 -30.12,21.868C-28.786,21.841 -27.721,20.743 -27.748,19.409" style="fill:rgb(26,36,53);fill-rule:nonzero;"/>
            </g>
            <g transform="matrix(1,0,0,1,514.528,458.3099)">
                <path d="M0,36.873L-3.415,33.458C-3.366,33.409 -3.316,33.359 -3.267,33.326C-3.223,33.288 -3.184,33.26 -3.168,33.249C-3.157,33.244 -3.152,33.238 -3.157,33.244L-3.163,33.244C-3.163,33.249 -3.168,33.249 -3.173,33.255C-3.195,33.271 -3.245,33.304 -3.305,33.343L-0.461,37.252C-0.489,37.268 -0.511,37.285 -0.5,37.279C-0.5,37.279 -0.5,37.274 -0.494,37.274C-0.489,37.268 -0.483,37.268 -0.478,37.263C-0.467,37.252 -0.445,37.241 -0.423,37.225C-0.324,37.159 -0.165,37.043 0,36.873M14.302,21.681L10.574,18.607C8.038,21.681 5.485,24.734 3.102,27.342C0.692,29.983 -1.422,32.025 -3.086,33.183L-0.329,37.148C1.806,35.665 4.228,33.277 6.671,30.603C9.147,27.896 11.766,24.756 14.302,21.681M25.964,8.169L22.681,4.623C19.557,7.521 15.038,13.177 10.569,18.607L14.302,21.676C18.936,16.043 23.153,10.772 25.964,8.169M30.389,4.738L28.358,0.356C26.008,1.444 24.147,3.255 22.675,4.628L25.97,8.164C27.606,6.637 28.879,5.441 30.389,4.738M34.112,4.667L36.813,0.658C34.112,-1.164 30.746,-0.747 28.358,0.356L30.389,4.738C31.866,4.051 33.305,4.117 34.112,4.667M-0.461,37.252L-3.305,33.343C-4.381,34.128 -4.623,35.638 -3.838,36.719C-3.053,37.795 -1.543,38.037 -0.461,37.252M-1.708,35.166L-3.086,33.183C-3.201,33.266 -3.316,33.354 -3.415,33.458L-1.708,35.166ZM12.436,20.144L14.302,21.681L14.302,21.676L12.436,20.144ZM24.322,6.396L25.964,8.169C25.964,8.164 25.97,8.164 25.97,8.164L24.322,6.396ZM36.813,0.658L34.112,4.667C35.215,5.413 36.72,5.122 37.466,4.013C38.213,2.91 37.922,1.405 36.813,0.658" style="fill:rgb(26,36,53);fill-rule:nonzero;"/>
            </g>
            <g transform="matrix(1,0,0,1,477.693,504.4998)">
                <path d="M0,96.752L-4.832,96.752C-4.832,97.345 -4.837,97.932 -4.837,98.536C-4.843,99.135 -4.848,99.744 -4.848,100.354L-0.016,100.354C-0.016,99.761 -0.011,99.173 -0.005,98.569C-0.005,97.971 0,97.361 0,96.752M6.078,42.738L1.477,41.255C-4.288,59.209 -4.727,78.288 -4.832,96.741L0,96.763C0.104,78.266 0.565,59.889 6.078,42.738M28.1,1.812L24.141,-0.955C15.044,12.046 6.424,25.86 1.477,41.255L6.078,42.738C10.794,28.051 19.068,14.72 28.1,1.812M30.691,-1.872L26.76,-4.683C25.876,-3.442 25.003,-2.201 24.136,-0.95L28.1,1.807C28.967,0.566 29.824,-0.653 30.691,-1.872M-0.016,100.354L-4.848,100.354C-4.848,101.688 -3.766,102.769 -2.432,102.769C-1.098,102.769 -0.016,101.688 -0.016,100.354M-2.416,96.752L-4.832,96.741L-4.832,96.752L-2.416,96.752ZM3.777,41.996L1.477,41.255L3.777,41.996ZM26.118,0.429L28.1,1.812L28.1,1.807L26.118,0.429ZM26.76,-4.683L30.691,-1.872C31.465,-2.959 31.218,-4.469 30.131,-5.243C29.044,-6.017 27.534,-5.765 26.76,-4.683" style="fill:rgb(26,36,53);fill-rule:nonzero;"/>
            </g>
            <g transform="matrix(1,0,0,1,456.0938,610.5354)">
                <path d="M0,18.366L-2.877,22.242C-2.021,22.879 -1.158,23.467 -0.286,24.032L2.333,19.969C1.532,19.459 0.758,18.926 0,18.366M-1.625,17.169L-4.59,20.979C-4.019,21.424 -3.426,21.863 -2.811,22.292L-0.06,18.317C-0.593,17.954 -1.109,17.57 -1.625,17.169M-2.311,16.57L-6.89,18.119C-6.374,19.634 -5.134,20.562 -4.579,20.99L-1.636,17.158C-1.933,16.927 -2.108,16.779 -2.235,16.647C-2.344,16.532 -2.333,16.505 -2.311,16.57M-2.257,15.967L-7.061,15.44C-7.116,15.917 -7.258,17.004 -6.89,18.108L-2.306,16.582C-2.289,16.637 -2.301,16.637 -2.301,16.527C-2.306,16.406 -2.289,16.252 -2.257,15.967M-0.384,7.627L-4.952,6.067C-5.99,9.098 -6.704,12.244 -7.061,15.434L-2.262,15.972C-1.938,13.134 -1.307,10.333 -0.384,7.627M3.278,1.17L-0.093,-2.289C-2.558,0.11 -3.97,3.229 -4.952,6.057L-0.384,7.638C0.511,5.052 1.62,2.79 3.278,1.17M8.933,-0.85L9.943,-5.572C6.127,-6.385 2.372,-4.688 -0.093,-2.289L3.278,1.17C4.941,-0.45 7.132,-1.235 8.933,-0.85M9.888,-0.537L11.854,-4.952C11.266,-5.215 10.613,-5.44 9.91,-5.578L8.966,-0.845C9.251,-0.785 9.564,-0.68 9.888,-0.537M13.534,2.252L16.993,-1.119C15.642,-2.509 13.946,-4.051 11.826,-4.963L9.916,-0.526C11.135,0.001 12.287,0.972 13.534,2.252M14.495,3.256L17.965,-0.104C17.739,-0.34 17.306,-0.812 16.971,-1.141L13.556,2.274C13.896,2.614 14.072,2.823 14.495,3.256M2.333,19.969L-0.286,24.032C0.834,24.751 2.328,24.433 3.053,23.307C3.777,22.187 3.453,20.694 2.333,19.969M-1.438,20.304L0,18.366C-0.022,18.349 -0.044,18.333 -0.06,18.317L-1.438,20.304ZM-3.108,19.074L-1.625,17.169C-1.625,17.164 -1.631,17.164 -1.636,17.158L-3.108,19.074ZM-4.601,17.345L-6.89,18.108L-6.89,18.119L-4.601,17.345ZM-4.661,15.703L-7.061,15.434L-7.061,15.44L-4.661,15.703ZM-2.668,6.847L-4.952,6.057L-4.952,6.067L-2.668,6.847ZM9.438,-3.211L8.933,-0.85C8.944,-0.845 8.955,-0.845 8.966,-0.845L9.438,-3.211ZM10.871,-2.745L9.888,-0.537C9.899,-0.532 9.905,-0.532 9.916,-0.526L10.871,-2.745ZM15.263,0.566L13.534,2.252C13.539,2.263 13.55,2.268 13.556,2.274L15.263,0.566ZM17.965,-0.104L14.495,3.256C15.422,4.217 16.949,4.239 17.91,3.311C18.87,2.383 18.892,0.857 17.965,-0.104" style="fill:rgb(26,36,53);fill-rule:nonzero;"/>
            </g>
            <g transform="matrix(1,0,0,1,470.8849,626.3869)">
                <path d="M0,-8.126L-4.793,-8.741C-5.144,-5.99 -6.77,-3.404 -9.098,-1.922L-6.506,2.152C-2.948,-0.11 -0.533,-3.975 0,-8.126M-6.506,2.152L-9.098,-1.922C-10.223,-1.208 -10.558,0.285 -9.839,1.411C-9.125,2.537 -7.632,2.871 -6.506,2.152M-4.793,-8.741L0,-8.126C0.165,-9.455 -0.769,-10.662 -2.092,-10.827C-3.415,-10.997 -4.628,-10.064 -4.793,-8.741" style="fill:rgb(26,36,53);fill-rule:nonzero;"/>
            </g>
            <g transform="matrix(1,0,0,1,470.6542,605.6877)">
                <path d="M0,44.401L-0.999,39.674C-4.804,40.481 -10.887,37.384 -12.414,29.001L-17.168,29.868C-15.291,40.162 -7.176,45.916 0,44.401M14.632,33.503L10.602,30.845C7.714,35.216 3.657,38.697 -0.994,39.674L0,44.407C6.33,43.072 11.338,38.499 14.632,33.503M20.38,10.262L15.571,10.723C16.252,17.734 14.467,24.97 10.602,30.845L14.637,33.503C19.112,26.7 21.165,18.36 20.38,10.262M17.619,2.504L13.907,5.6C14.901,6.792 15.362,8.543 15.571,10.723L20.38,10.262C20.15,7.851 19.579,4.859 17.619,2.504M8.406,0.363L10.772,4.579C11.437,4.206 12.908,4.404 13.907,5.6L17.619,2.504C15.664,0.154 11.744,-1.515 8.406,0.363M-17.168,29.868L-12.414,29.001C-12.655,27.688 -13.913,26.821 -15.225,27.057C-16.537,27.298 -17.405,28.556 -17.168,29.868M-0.5,42.04L-0.994,39.674L-0.999,39.674L-0.5,42.04ZM12.617,32.174L14.632,33.503L14.637,33.503L12.617,32.174ZM17.976,10.492L15.571,10.723L17.976,10.492ZM10.772,4.579L8.406,0.363C7.242,1.016 6.825,2.493 7.478,3.651C8.131,4.815 9.608,5.233 10.772,4.579" style="fill:rgb(26,36,53);fill-rule:nonzero;"/>
            </g>
            <g transform="matrix(1,0,0,1,470.226,497.3354)">
                <path d="M0,101.237L-4.815,101.643C-4.804,101.819 -4.788,101.989 -4.771,102.148C-4.755,102.308 -4.744,102.45 -4.727,102.599L0.082,102.181C0.071,102.011 0.055,101.841 0.038,101.687C0.022,101.528 0.011,101.385 0,101.237M24.954,10.81L21.061,7.944C3.673,31.613 -8.011,68.317 -4.815,101.671L-0.005,101.21C-3.08,69.118 8.219,33.579 24.954,10.81M33.211,1.587L31.213,-2.806C28.594,-1.62 26.678,0.307 25.129,2.251C24.35,3.228 23.642,4.238 22.983,5.199C22.307,6.182 21.698,7.082 21.061,7.939L24.948,10.816C25.646,9.871 26.321,8.867 26.963,7.939C27.611,6.989 28.243,6.094 28.907,5.265C30.236,3.596 31.586,2.333 33.211,1.587M33.876,1.317L32.19,-3.207C31.85,-3.08 31.526,-2.949 31.246,-2.822L33.178,1.603C33.425,1.499 33.651,1.4 33.876,1.317M0.082,102.181L-4.727,102.599C-4.612,103.927 -3.443,104.91 -2.114,104.795C-0.785,104.68 0.198,103.51 0.082,102.181M-2.41,101.44L0,101.237C-0.005,101.226 -0.005,101.221 -0.005,101.21L-2.41,101.44ZM23.005,9.377L21.061,7.939L21.061,7.944L23.005,9.377ZM32.212,-0.61L31.246,-2.822C31.235,-2.817 31.224,-2.811 31.213,-2.806L32.212,-0.61ZM32.19,-3.207L33.876,1.317C35.122,0.851 35.759,-0.538 35.292,-1.79C34.831,-3.036 33.436,-3.673 32.19,-3.207" style="fill:rgb(26,36,53);fill-rule:nonzero;"/>
            </g>
            <g transform="matrix(1,0,0,1,735.9497,674.2847)">
                <path d="M0,-136.145L-4.799,-135.596C-0.577,-98.552 -7.148,-62.239 -18.008,-27.117C-28.885,8.054 -43.978,41.787 -56.765,73.906L-52.274,75.696C-39.586,43.83 -24.344,9.729 -13.391,-25.689C-2.427,-61.157 4.326,-98.185 0,-136.145M-5.37,-160.226L-9.74,-158.161C-6.534,-151.364 -5.721,-143.667 -4.799,-135.596L0,-136.145C-0.9,-144.007 -1.757,-152.561 -5.37,-160.226M-62.832,-211.654L-66.736,-208.81C-58.818,-197.95 -46.8,-190.769 -35.935,-183.642C-24.877,-176.389 -14.934,-169.159 -9.74,-158.161L-5.37,-160.226C-11.217,-172.596 -22.291,-180.469 -33.288,-187.683C-44.483,-195.024 -55.557,-201.678 -62.832,-211.654M-63.375,-212.396L-67.252,-209.507C-67.224,-209.474 -66.873,-208.969 -66.659,-208.706L-62.914,-211.759C-63.085,-211.967 -63.052,-211.956 -63.375,-212.396M-52.274,75.696L-56.765,73.906C-57.259,75.147 -56.65,76.553 -55.414,77.047C-54.174,77.541 -52.768,76.937 -52.274,75.696M-2.399,-135.87L0,-136.145L-2.399,-135.87ZM-7.555,-159.194L-5.37,-160.226L-7.555,-159.194ZM-64.787,-210.232L-62.832,-211.654C-62.859,-211.693 -62.887,-211.726 -62.914,-211.759L-64.787,-210.232ZM-67.252,-209.507L-63.375,-212.396C-64.172,-213.466 -65.687,-213.686 -66.758,-212.89C-67.823,-212.093 -68.048,-210.578 -67.252,-209.507" style="fill:rgb(26,36,53);fill-rule:nonzero;"/>
            </g>
            <g transform="matrix(1,0,0,1,416.8924,691.6347)">
                <path d="M0,-46.641L-4.832,-46.564C-4.81,-45.164 -4.475,-43.66 -3.755,-42.106L0.631,-44.126C0.17,-45.12 0.011,-45.966 0,-46.641M0.093,-47.487L-4.568,-48.76C-4.766,-48.041 -4.853,-47.3 -4.832,-46.531L0,-46.674C-0.011,-46.981 0.022,-47.239 0.093,-47.487M3.371,-50.819L1.845,-55.409C-0.741,-54.547 -3.766,-52.334 -4.595,-48.656L0.115,-47.591C0.461,-49.117 1.828,-50.309 3.371,-50.819M8.977,-48.634L12.194,-52.236C11.041,-53.268 9.542,-54.361 7.829,-55.058C6.1,-55.766 4.019,-56.112 1.861,-55.415L3.355,-50.819C4.123,-51.066 4.996,-50.995 6.012,-50.583C7.039,-50.166 8.065,-49.447 8.977,-48.634M25.02,-29.862L29.066,-32.498C24.251,-39.882 18.03,-47.025 12.194,-52.236L8.977,-48.634C14.495,-43.709 20.435,-36.885 25.02,-29.862M25.327,-29.401L29.368,-32.047C29.258,-32.218 29.143,-32.388 29.017,-32.569L25.064,-29.791C25.146,-29.676 25.228,-29.549 25.327,-29.401M30.505,-19.848L34.946,-21.748C33.491,-25.152 31.575,-28.627 29.379,-32.031L25.316,-29.418C27.402,-26.178 29.176,-22.945 30.505,-19.848M39.811,7.511L44.401,6.006C40.947,-4.579 39.421,-11.217 34.946,-21.742L30.499,-19.853C34.864,-9.581 36.237,-3.426 39.811,7.511M0.631,-44.126L-3.755,-42.106C-3.201,-40.893 -1.762,-40.365 -0.555,-40.92C0.659,-41.48 1.186,-42.918 0.631,-44.126M-2.416,-46.603L0,-46.641L0,-46.674L-2.416,-46.603ZM-2.24,-48.123L0.093,-47.487C0.099,-47.525 0.11,-47.558 0.115,-47.591L-2.24,-48.123ZM2.608,-53.114L1.861,-55.415C1.856,-55.409 1.85,-55.409 1.845,-55.409L2.608,-53.114ZM10.585,-50.435L8.977,-48.634L10.585,-50.435ZM27.04,-31.18L25.02,-29.862C25.031,-29.835 25.047,-29.813 25.064,-29.791L27.04,-31.18ZM27.348,-30.724L29.379,-32.031C29.374,-32.037 29.374,-32.042 29.368,-32.047L27.348,-30.724ZM32.723,-20.798L34.946,-21.742L34.946,-21.748L32.723,-20.798ZM44.401,6.006L39.811,7.511C40.223,8.779 41.59,9.471 42.858,9.053C44.126,8.642 44.818,7.275 44.401,6.006" style="fill:rgb(26,36,53);fill-rule:nonzero;"/>
            </g>
            <g transform="matrix(1,0,0,1,399.4276,693.2808)">
                <path d="M0,-43.796L-4.749,-42.907C-4.552,-41.841 -4.156,-40.738 -3.481,-39.645L0.626,-42.193C0.28,-42.747 0.093,-43.28 0,-43.796M2.674,-47.711L1.801,-52.465C-2.174,-51.735 -5.606,-47.727 -4.755,-42.929L0,-43.774C-0.346,-45.723 1.076,-47.42 2.674,-47.711M12.024,-43.873L15.291,-47.431C13.649,-48.941 11.464,-50.363 9.169,-51.329C6.918,-52.284 4.271,-52.916 1.806,-52.465L2.668,-47.711C3.827,-47.925 5.457,-47.65 7.291,-46.882C9.081,-46.124 10.794,-44.998 12.024,-43.873M12.441,-43.467L16.01,-46.728C15.746,-47.013 15.472,-47.26 15.291,-47.431L12.018,-43.873C12.244,-43.67 12.353,-43.565 12.441,-43.467M32.574,-18.441L36.901,-20.594C31.443,-31.547 24.937,-37.438 15.966,-46.772L12.485,-43.423C21.671,-33.869 27.523,-28.571 32.574,-18.441M44.845,7.385L49.227,5.354C45.219,-3.31 41.194,-12.007 36.901,-20.599L32.58,-18.436C36.835,-9.92 40.826,-1.289 44.845,7.385M0.626,-42.193L-3.481,-39.645C-2.778,-38.514 1.329,-41.056 0.626,-42.193M-2.377,-43.351L-4.755,-42.929C-4.755,-42.923 -4.755,-42.912 -4.749,-42.907L-2.377,-43.351ZM2.235,-50.088L1.806,-52.465L1.801,-52.465L2.235,-50.088ZM13.655,-45.652L15.291,-47.431L13.655,-45.652ZM14.226,-45.097L12.441,-43.467C12.458,-43.45 12.469,-43.439 12.485,-43.423L14.226,-45.097ZM34.738,-19.518L32.574,-18.441L32.58,-18.436L34.738,-19.518ZM49.227,5.354L44.845,7.385C45.405,8.593 46.838,9.12 48.052,8.56C49.265,8 49.792,6.567 49.227,5.354" style="fill:rgb(26,36,53);fill-rule:nonzero;"/>
            </g>
            <g transform="matrix(1,0,0,1,390.0939,698.2563)">
                <path d="M0,-5.37L1.373,-10.004C-2.8,-11.239 -6.956,-12.551 -11.113,-13.88L-12.584,-9.279C-8.417,-7.95 -4.228,-6.627 0,-5.37M15.329,-1.214L16.477,-5.903C11.42,-7.138 6.38,-8.521 1.373,-10.004L0,-5.37C5.073,-3.866 10.19,-2.466 15.329,-1.214M40.387,3.195L40.87,-1.615C32.706,-2.433 24.558,-3.965 16.466,-5.908L15.335,-1.208C23.581,0.768 31.949,2.344 40.387,3.195M56.425,3.848L56.32,-0.983C51.154,-0.868 46.009,-1.093 40.87,-1.615L40.387,3.195C45.707,3.728 51.049,3.964 56.425,3.848M56.661,-0.983L56.37,-0.983L56.37,3.849L56.661,3.849L56.661,-0.983ZM69.064,3.211L68.805,-1.609C64.649,-1.389 60.658,-1.087 56.6,-0.983L56.721,3.848C60.866,3.744 65.05,3.431 69.064,3.211M74.779,2.997L74.713,-1.834C72.731,-1.807 70.749,-1.713 68.8,-1.609L69.064,3.211C70.985,3.107 72.896,3.025 74.779,2.997M98.294,4.463L98.777,-0.346C90.899,-1.131 82.822,-1.955 74.708,-1.834L74.785,2.997C82.57,2.876 90.361,3.667 98.294,4.463M109.336,7.983L112.723,4.535C108.83,0.713 103.093,0.087 98.777,-0.346L98.294,4.463C102.917,4.93 106.843,5.534 109.336,7.983M-12.584,-9.279L-11.113,-13.88C-12.386,-14.286 -13.743,-13.584 -14.149,-12.315C-14.555,-11.042 -13.852,-9.686 -12.584,-9.279M0.686,-7.687L0,-5.37L0.686,-7.687ZM15.9,-3.558L15.329,-1.214C15.329,-1.208 15.335,-1.208 15.335,-1.208L15.9,-3.558ZM40.629,0.79L40.87,-1.615L40.629,0.79ZM56.37,1.433L56.37,-0.983L56.32,-0.983L56.37,1.433ZM56.661,1.433L56.661,3.848L56.721,3.848L56.661,1.433ZM68.932,0.801L69.064,3.211L68.932,0.801ZM74.746,0.581L74.779,2.997L74.785,2.997L74.746,0.581ZM98.536,2.058L98.777,-0.346L98.536,2.058ZM112.723,4.535L109.336,7.983C110.285,8.916 111.817,8.905 112.751,7.95C113.684,7 113.673,5.474 112.723,4.535" style="fill:rgb(26,36,53);fill-rule:nonzero;"/>
            </g>
            <g transform="matrix(1,0,0,1,456.7581,716.8244)">
                <path d="M0,54.223L-4.705,55.321C-3.717,59.554 -1.082,64.413 4.272,65.116L4.897,60.328C2.641,60.032 0.851,57.863 0,54.223M-0.483,50.116L-5.315,50.116C-5.315,51.785 -5.139,53.597 -4.7,55.36L-0.011,54.184C-0.34,52.872 -0.483,51.467 -0.483,50.116M11.947,18.233L8.137,15.269C0.467,25.119 -5.265,37.252 -5.315,50.105L-0.483,50.127C-0.439,38.68 4.683,27.567 11.947,18.233M37.889,-6.495L34.814,-10.218C25.481,-2.52 15.796,5.446 8.137,15.263L11.947,18.239C19.222,8.905 28.479,1.268 37.889,-6.495M4.897,60.328L4.272,65.116C5.595,65.292 6.808,64.358 6.978,63.035C7.154,61.712 6.221,60.498 4.897,60.328M-2.355,54.772L0,54.223C-0.005,54.212 -0.005,54.196 -0.011,54.184L-2.355,54.772ZM-2.899,50.116L-5.315,50.105L-5.315,50.116L-2.899,50.116ZM10.042,16.751L8.137,15.263L8.137,15.269L10.042,16.751ZM34.814,-10.218L37.889,-6.495C38.921,-7.341 39.064,-8.862 38.219,-9.894C37.368,-10.92 35.847,-11.069 34.814,-10.218" style="fill:rgb(26,36,53);fill-rule:nonzero;"/>
            </g>
            <g transform="matrix(1,0,0,1,520.7925,791.1969)">
                <path d="M0,-313.704L1.735,-309.191C2.915,-309.647 4.101,-310.075 5.298,-310.476L3.761,-315.055C2.498,-314.632 1.246,-314.182 0,-313.704M-7.774,-310.404L-5.743,-306.023C-3.261,-307.17 -0.785,-308.236 1.724,-309.191L0.011,-313.704C-2.63,-312.705 -5.216,-311.596 -7.774,-310.404M-39.476,-291.029L-36.621,-287.131C-26.93,-294.23 -16.603,-300.966 -5.737,-306.023L-7.774,-310.404C-19.046,-305.161 -29.665,-298.215 -39.476,-291.029M-78.194,-243.608L-74.093,-241.05C-63.359,-258.295 -52.51,-275.502 -36.621,-287.131L-39.476,-291.029C-56.244,-278.763 -67.548,-260.711 -78.194,-243.608M-168.901,-108.512L-164.794,-105.964C-150.777,-128.513 -135.162,-150.925 -119.509,-173.403C-103.867,-195.858 -88.181,-218.38 -74.093,-241.055L-78.2,-243.603C-92.206,-221.054 -107.815,-198.642 -123.473,-176.164C-139.115,-153.709 -154.801,-131.187 -168.901,-108.512M-173.611,-98.322L-169.219,-96.301L-164.651,-106.228L-169.043,-108.248L-173.611,-98.322ZM-176.477,-72.572L-171.712,-73.384C-173.062,-81.252 -172.623,-89.405 -169.246,-96.241L-173.579,-98.382C-177.548,-90.339 -177.932,-81.076 -176.477,-72.572M-168.763,-48.436L-164.278,-50.226C-167.369,-57.967 -170.356,-65.511 -171.712,-73.39L-176.472,-72.566C-175.017,-64.106 -171.827,-56.101 -168.763,-48.436M-162.526,-35.204L-158.425,-37.752C-160.797,-41.568 -162.499,-45.79 -164.283,-50.231L-168.763,-48.43C-167.012,-44.066 -165.162,-39.437 -162.526,-35.204M-134.679,-13.528L-132.9,-18.019C-143.244,-22.115 -152.726,-28.61 -158.425,-37.757L-162.526,-35.199C-156.108,-24.899 -145.627,-17.865 -134.679,-13.528M-100.831,-5.397L-100.04,-10.162C-111.389,-12.04 -122.534,-13.912 -132.9,-18.019L-134.679,-13.528C-123.753,-9.202 -112.092,-7.264 -100.831,-5.397M-84.865,-2.745L-84.08,-7.511C-89.411,-8.389 -94.726,-9.268 -100.035,-10.162L-100.836,-5.397C-95.516,-4.502 -90.196,-3.623 -84.865,-2.745M-69.217,-0.137L-68.427,-4.903C-73.637,-5.765 -78.853,-6.643 -84.08,-7.511L-84.87,-2.745C-79.66,-1.878 -74.428,-0.999 -69.217,-0.137M-51.785,-0.56L-53.586,-5.04C-57.924,-3.299 -62.931,-3.991 -68.427,-4.903L-69.217,-0.137C-63.957,0.73 -57.583,1.773 -51.785,-0.56M-42.232,-7.368L-45.515,-10.915C-48.244,-8.389 -50.682,-6.204 -53.581,-5.046L-51.791,-0.554C-47.926,-2.097 -44.856,-4.941 -42.232,-7.368M-24.866,-23.416L-28.144,-26.963C-33.925,-21.621 -39.728,-16.262 -45.51,-10.915L-42.232,-7.368C-36.445,-12.716 -30.647,-18.074 -24.866,-23.416M-20.298,-27.633L-23.581,-31.18C-24.339,-30.477 -25.096,-29.774 -25.86,-29.071C-26.623,-28.369 -27.386,-27.666 -28.149,-26.963L-24.866,-23.416C-24.108,-24.119 -23.345,-24.822 -22.582,-25.525C-21.824,-26.227 -21.061,-26.93 -20.298,-27.633M3.761,-315.055L5.298,-310.476C6.561,-310.898 7.247,-312.265 6.819,-313.534C6.396,-314.796 5.029,-315.477 3.761,-315.055M0.867,-311.447L1.724,-309.191L1.735,-309.191L0.867,-311.447ZM-6.759,-308.214L-7.774,-310.404L-6.759,-308.214ZM-38.048,-289.08L-36.621,-287.131L-38.048,-289.08ZM-76.146,-242.329L-78.194,-243.608L-78.2,-243.603L-76.146,-242.329ZM-166.847,-107.238L-168.901,-108.512C-168.95,-108.43 -168.999,-108.342 -169.043,-108.248L-166.847,-107.238ZM-171.415,-97.311L-169.246,-96.241C-169.241,-96.263 -169.23,-96.279 -169.219,-96.301L-171.415,-97.311ZM-174.095,-72.978L-176.477,-72.572L-176.472,-72.566L-174.095,-72.978ZM-166.523,-49.331L-168.763,-48.436L-168.763,-48.43L-166.523,-49.331ZM-160.478,-36.478L-162.526,-35.204L-162.526,-35.199L-160.478,-36.478ZM-100.436,-7.78L-100.035,-10.162L-100.04,-10.162L-100.436,-7.78ZM-84.475,-5.128L-84.08,-7.511L-84.475,-5.128ZM-68.822,-2.52L-68.427,-4.903L-68.822,-2.52ZM-52.686,-2.8L-53.581,-5.046L-53.586,-5.04L-52.686,-2.8ZM-43.874,-9.141L-45.51,-10.915L-45.515,-10.915L-43.874,-9.141ZM-26.508,-25.19L-24.866,-23.416L-26.508,-25.19ZM-23.581,-31.18L-20.298,-27.633C-19.321,-28.539 -19.26,-30.065 -20.166,-31.048C-21.072,-32.025 -22.598,-32.086 -23.581,-31.18" style="fill:rgb(26,36,53);fill-rule:nonzero;"/>
            </g>
            <g transform="matrix(1,0,0,1,446.3318,632.9746)">
                <path d="M0,29.149L-4.184,26.733C-4.249,26.848 -4.299,26.953 -4.332,27.013C-4.376,27.096 -4.376,27.101 -4.387,27.123L-0.115,29.374C-0.088,29.325 -0.066,29.286 -0.049,29.253C-0.044,29.237 -0.033,29.22 -0.027,29.209C-0.022,29.193 -0.016,29.182 -0.011,29.176C0.006,29.138 0.006,29.138 0,29.149M11.206,2.713L6.627,1.165C3.651,9.982 0.011,18.569 -4.238,26.838L0.055,29.045C4.414,20.567 8.153,11.761 11.206,2.713M11.343,2.274L6.671,1.044C6.671,1.027 6.676,1.027 6.665,1.049C6.66,1.071 6.654,1.077 6.643,1.11C6.638,1.137 6.627,1.176 6.61,1.219L11.222,2.658C11.228,2.636 11.228,2.647 11.255,2.559C11.277,2.493 11.31,2.394 11.343,2.274M11.579,1.615L6.995,0.088C6.885,0.407 6.83,0.588 6.759,0.769L11.25,2.548C11.387,2.202 11.508,1.823 11.579,1.615M-0.115,29.374L-4.387,27.123C-5.007,28.303 -4.557,29.764 -3.377,30.384C-2.196,31.01 -0.736,30.555 -0.115,29.374M-2.092,27.941L0,29.149C0.022,29.116 0.039,29.083 0.055,29.045L-2.092,27.941ZM8.916,1.939L11.206,2.713C11.211,2.696 11.217,2.674 11.222,2.658L8.916,1.939ZM9.004,1.659L6.759,0.769C6.726,0.857 6.693,0.95 6.671,1.044L9.004,1.659ZM6.995,0.088L11.579,1.615C11.997,0.352 11.316,-1.021 10.047,-1.438C8.785,-1.861 7.418,-1.18 6.995,0.088" style="fill:rgb(26,36,53);fill-rule:nonzero;"/>
            </g>
            <g transform="matrix(1,0,0,1,497.9085,710.4344)">
                <path d="M0,-0.259L-1.444,-4.871C-2.569,-4.52 -3.613,-4.141 -4.458,-3.734L-2.383,0.625C-1.823,0.361 -1.021,0.059 0,-0.259M16.63,-3.065L16.762,-7.896C14.621,-7.956 11.365,-7.594 8.093,-7.045C4.788,-6.491 1.263,-5.711 -1.438,-4.871L-0.005,-0.259C2.427,-1.017 5.721,-1.747 8.889,-2.279C12.095,-2.817 14.978,-3.108 16.63,-3.065M82.158,7.318L83.531,2.684C61.866,-3.745 39.355,-7.32 16.757,-7.896L16.636,-3.065C38.806,-2.499 60.899,1.009 82.158,7.318M-2.383,0.625L-4.458,-3.734C-5.666,-3.163 -6.177,-1.719 -5.6,-0.517C-5.024,0.691 -3.585,1.202 -2.383,0.625M-0.725,-2.565L-1.438,-4.871L-1.444,-4.871L-0.725,-2.565ZM16.696,-5.48L16.63,-3.065L16.636,-3.065L16.696,-5.48ZM83.531,2.684L82.158,7.318C83.437,7.697 84.783,6.966 85.161,5.687C85.54,4.408 84.81,3.063 83.531,2.684" style="fill:rgb(26,36,53);fill-rule:nonzero;"/>
            </g>
            <g transform="matrix(1,0,0,1,464.818,748.4153)">
                <path d="M0,25.531L-0.856,20.776C-1.18,20.837 -1.504,20.892 -1.828,20.952C-2.152,21.012 -2.471,21.073 -2.789,21.128L-1.933,25.882C-1.609,25.822 -1.279,25.767 -0.961,25.707C-0.637,25.646 -0.318,25.586 0,25.531M30.389,16.681L28.314,12.321C19.244,16.642 9.301,18.926 -0.862,20.776L0.005,25.531C10.256,23.659 20.721,21.287 30.389,16.681M31.663,16.044L29.379,11.783C29.05,11.959 28.698,12.134 28.297,12.327L30.406,16.675C30.796,16.483 31.235,16.274 31.663,16.044M38.674,12.486L36.566,8.137C35.342,8.73 34.134,9.356 32.959,9.96C31.773,10.575 30.62,11.174 29.456,11.745L31.586,16.082C32.805,15.484 34.007,14.858 35.177,14.254C36.357,13.644 37.51,13.051 38.674,12.486M76.415,5.167L76.745,0.347C62.986,-0.587 48.996,2.131 36.571,8.137L38.674,12.486C50.347,6.842 63.502,4.289 76.415,5.167M-1.933,25.882L-2.789,21.128C-4.101,21.364 -4.974,22.621 -4.738,23.933C-4.502,25.246 -3.245,26.118 -1.933,25.882M-0.428,23.154L0,25.531L0.005,25.531L-0.428,23.154ZM29.352,14.501L30.389,16.681C30.395,16.681 30.4,16.675 30.406,16.675L29.352,14.501ZM30.521,13.913L29.456,11.745C29.434,11.756 29.406,11.772 29.379,11.783L30.521,13.913ZM37.62,10.312L36.571,8.137L36.566,8.137L37.62,10.312ZM76.745,0.347L76.415,5.167C77.749,5.255 78.902,4.25 78.99,2.922C79.084,1.587 78.073,0.434 76.745,0.347" style="fill:rgb(26,36,53);fill-rule:nonzero;"/>
            </g>
            <g transform="matrix(1,0,0,1,585.4692,623.4877)">
                <path d="M0,93.71L-4.14,91.217C-9.389,99.947 -15.175,108.336 -21.698,116.253L-17.965,119.328C-11.272,111.202 -5.348,102.604 0,93.71M53.658,-22.977L49.32,-25.096C39.893,-5.836 31.938,14.336 23.658,34.068C15.362,53.85 6.72,73.247 -4.134,91.212L0,93.715C11.047,75.427 19.804,55.755 28.116,35.94C36.445,16.076 44.313,-3.876 53.658,-22.977M-17.965,119.328L-21.698,116.253C-22.543,117.286 -22.395,118.807 -21.369,119.658C-20.336,120.503 -18.816,120.355 -17.965,119.328M-2.07,92.464L-4.134,91.212L-4.14,91.217L-2.07,92.464ZM49.32,-25.096L53.658,-22.977C54.245,-24.174 53.751,-25.618 52.554,-26.206C51.352,-26.793 49.908,-26.299 49.32,-25.096" style="fill:rgb(26,36,53);fill-rule:nonzero;"/>
            </g>
            <g transform="matrix(1,0,0,1,564.4081,747.5102)">
                <path d="M0,-2.663L-1.307,-7.319C-8.571,-5.271 -15.499,-2.125 -21.808,1.987L-19.173,6.039C-13.27,2.191 -6.792,-0.758 0,-2.663M1.96,-3.179L0.867,-7.89C0.148,-7.72 -0.598,-7.533 -1.356,-7.302L0.049,-2.679C0.664,-2.866 1.301,-3.031 1.96,-3.179M8.126,-4.447L7.379,-9.224C5.172,-8.878 2.987,-8.433 0.813,-7.873L2.01,-3.196C4.03,-3.712 6.061,-4.123 8.126,-4.447M-19.173,6.039L-21.808,1.987C-22.928,2.718 -23.241,4.216 -22.511,5.331C-21.786,6.451 -20.287,6.764 -19.173,6.039M-0.653,-4.991L0,-2.663C0.016,-2.668 0.033,-2.674 0.049,-2.679L-0.653,-4.991ZM1.411,-5.534L1.96,-3.179C1.976,-3.185 1.993,-3.19 2.01,-3.196L1.411,-5.534ZM7.379,-9.224L8.126,-4.447C9.443,-4.656 10.344,-5.891 10.141,-7.209C9.932,-8.527 8.697,-9.427 7.379,-9.224" style="fill:rgb(26,36,53);fill-rule:nonzero;"/>
            </g>
            <g transform="matrix(1,0,0,1,448.1107,771.7721)">
                <path d="M0,56.842L3.673,53.701C-1.395,47.783 -4.469,40.387 -7.615,32.701L-12.084,34.534C-8.993,42.1 -5.655,50.232 0,56.842M3.399,60.367L6.654,56.798C5.611,55.848 4.623,54.811 3.668,53.696L0.005,56.847C1.065,58.083 2.185,59.263 3.399,60.367M45.016,74.861L45.153,70.03C31.004,69.629 16.515,65.94 6.665,56.809L3.382,60.356C14.445,70.606 30.296,74.439 45.016,74.861M53.389,74.801L53.202,69.97C50.512,70.074 47.827,70.101 45.147,70.03L45.021,74.861C47.816,74.933 50.605,74.905 53.389,74.801M92.941,72.21L92.919,67.378C86.188,67.411 79.495,67.949 72.89,68.537C66.258,69.118 59.735,69.744 53.213,69.97L53.378,74.801C60.065,74.57 66.741,73.928 73.313,73.346C79.918,72.764 86.435,72.237 92.941,72.21M160.336,69.728L158.65,65.204C148.619,68.932 137.941,69.497 126.828,69.097C121.261,68.899 115.666,68.46 109.983,68.07C104.323,67.686 98.602,67.351 92.919,67.378L92.941,72.21C98.437,72.182 104.01,72.506 109.654,72.89C115.271,73.275 120.986,73.725 126.652,73.928C137.99,74.334 149.415,73.791 160.336,69.728M200.745,34.677L196.803,31.877C186.679,46.13 174.468,59.313 158.65,65.204L160.336,69.728C177.548,63.321 190.462,49.15 200.745,34.677M221.493,3.651L217.397,1.093C210.6,11.953 203.413,22.571 196.803,31.877L200.745,34.677C207.399,25.305 214.641,14.61 221.493,3.651M231.656,-13.413L227.445,-15.785C224.299,-10.196 220.911,-4.519 217.397,1.087L221.493,3.651C225.04,-2.015 228.471,-7.758 231.656,-13.413M232.09,-14.193L227.829,-16.466C227.785,-16.389 227.736,-16.301 227.664,-16.175C227.598,-16.059 227.505,-15.906 227.417,-15.735L231.678,-13.462C231.722,-13.539 231.771,-13.627 231.842,-13.753C231.908,-13.869 232.002,-14.022 232.09,-14.193M-12.084,34.534L-7.615,32.701C-8.12,31.471 -9.526,30.878 -10.761,31.383C-11.997,31.888 -12.589,33.299 -12.084,34.534M1.834,55.272L0,56.842L0.005,56.847L1.834,55.272ZM5.024,58.582L6.665,56.809C6.66,56.804 6.66,56.804 6.654,56.798L5.024,58.582ZM45.081,72.446L45.016,74.861L45.021,74.861L45.081,72.446ZM53.295,72.385L53.213,69.97L53.202,69.97L53.295,72.385ZM92.93,69.794L92.941,72.21L92.93,69.794ZM159.49,67.466L160.336,69.728L159.49,67.466ZM198.774,33.277L200.745,34.677L198.774,33.277ZM219.445,2.372L217.397,1.087L217.397,1.093L219.445,2.372ZM229.548,-14.599L231.656,-13.413C231.661,-13.429 231.672,-13.446 231.678,-13.462L229.548,-14.599ZM227.829,-16.466L232.09,-14.193C232.721,-15.368 232.276,-16.833 231.096,-17.459C229.921,-18.091 228.455,-17.641 227.829,-16.466" style="fill:rgb(26,36,53);fill-rule:nonzero;"/>
            </g>
            <g transform="matrix(1,0,0,1,437.9975,799.8943)">
                <path d="M0,-11.08L-4.815,-11.486C-5.156,-7.506 -5.046,-3.487 -4.513,0.477L0.275,-0.171C-0.214,-3.794 -0.313,-7.456 0,-11.08M0.275,-0.171L-4.513,0.477C-4.337,1.795 -3.119,2.723 -1.796,2.547C-0.472,2.371 0.456,1.153 0.275,-0.171M-4.815,-11.486L0,-11.08C0.11,-12.409 -0.873,-13.578 -2.207,-13.688C-3.536,-13.803 -4.705,-12.815 -4.815,-11.486" style="fill:rgb(26,36,53);fill-rule:nonzero;"/>
            </g>
            <g transform="matrix(1,0,0,1,700.7563,780.4852)">
                <path d="M0,95.423L-4.7,96.543C-4.639,96.796 -4.579,97.048 -4.519,97.284C-4.458,97.52 -4.403,97.745 -4.348,97.976L0.351,96.856C0.291,96.604 0.231,96.351 0.17,96.115C0.11,95.879 0.055,95.654 0,95.423M-29.094,-0.878L-33.64,0.758C-22.351,32.157 -12.677,64.155 -4.694,96.56L-0.005,95.407C-8.027,62.838 -17.75,30.675 -29.094,-0.878M-29.758,-2.729L-34.32,-1.136C-34.205,-0.801 -34.084,-0.472 -33.974,-0.165C-33.854,0.154 -33.749,0.445 -33.645,0.741L-29.088,-0.862C-29.203,-1.191 -29.324,-1.521 -29.434,-1.828C-29.549,-2.136 -29.659,-2.432 -29.758,-2.729M0.351,96.856L-4.348,97.976C-4.035,99.272 -2.734,100.073 -1.438,99.766C-0.137,99.458 0.664,98.152 0.351,96.856M-2.35,95.983L0,95.423C0,95.418 0,95.412 -0.005,95.407L-2.35,95.983ZM-31.367,-0.06L-33.645,0.741C-33.645,0.747 -33.64,0.752 -33.64,0.758L-31.367,-0.06ZM-34.32,-1.136L-29.758,-2.729C-30.197,-3.986 -31.575,-4.65 -32.833,-4.216C-34.095,-3.777 -34.76,-2.399 -34.32,-1.136" style="fill:rgb(26,36,53);fill-rule:nonzero;"/>
            </g>
            <g transform="matrix(1,0,0,1,452.6568,836.6577)">
                <path d="M0,40.129L-4.832,40.03C-4.875,42.149 -4.903,44.285 -4.919,46.416L-0.088,46.449C-0.071,44.34 -0.044,42.226 0,40.129M2.295,-3.591L-2.52,-4.008C-3.783,10.646 -4.568,25.327 -4.832,40.036L0,40.124C0.263,25.525 1.038,10.953 2.295,-3.591M-0.088,46.449L-4.919,46.416M-2.416,40.08L0,40.129L0,40.124L-2.416,40.08ZM-2.52,-4.008L2.295,-3.591C2.405,-4.92 1.422,-6.094 0.093,-6.204C-1.235,-6.32 -2.405,-5.337 -2.52,-4.008" style="fill:rgb(26,36,53);fill-rule:nonzero;"/>
            </g>
            <g transform="matrix(1,0,0,1,528.2649,485.3494)">
                <path d="M0,66.95L-3.064,63.217C-18.706,76.036 -36.654,93.233 -38.263,116.424L-33.442,116.753C-31.992,95.846 -15.713,79.836 0,66.95M3.646,64.002L0.637,60.224C-0.587,61.196 -1.823,62.201 -3.064,63.217L0,66.95C1.224,65.945 2.443,64.963 3.646,64.002M34.749,37.511L31.52,33.92C21.462,42.968 11.184,51.786 0.631,60.224L3.651,64.002C14.292,55.486 24.635,46.614 34.749,37.511M85.419,-14.862L81.521,-17.717C67.488,1.389 49.32,17.91 31.52,33.92L34.749,37.511C52.499,21.545 71.046,4.716 85.419,-14.862M114.255,-44.62L111.598,-48.656C98.585,-40.091 90.806,-30.384 81.521,-17.717L85.419,-14.862C94.638,-27.441 102,-36.555 114.255,-44.62M116.775,-46.229L114.266,-50.357C113.333,-49.792 112.443,-49.221 111.592,-48.65L114.266,-44.631C115.078,-45.169 115.913,-45.707 116.775,-46.229M118.285,-46.888L119.46,-51.576C117.198,-52.142 115.183,-50.907 114.277,-50.363L116.759,-46.223C117.258,-46.52 117.621,-46.712 117.934,-46.816C118.076,-46.866 118.17,-46.882 118.224,-46.888C118.252,-46.893 118.268,-46.893 118.274,-46.893C118.279,-46.888 118.279,-46.888 118.285,-46.888M119.355,-45.482L123.545,-47.887C123.226,-48.441 122.776,-49.193 122.178,-49.858C121.568,-50.539 120.69,-51.258 119.476,-51.571L118.274,-46.893C118.274,-46.893 118.279,-46.888 118.285,-46.888C118.29,-46.882 118.312,-46.877 118.334,-46.855C118.389,-46.822 118.472,-46.75 118.581,-46.63C118.817,-46.366 119.059,-45.998 119.355,-45.482M132.714,-29.538L136.886,-31.976C134.674,-35.77 132.126,-38.218 129.804,-40.464C127.476,-42.709 125.378,-44.752 123.534,-47.903L119.361,-45.466C121.579,-41.677 124.127,-39.234 126.444,-36.989C128.772,-34.743 130.869,-32.701 132.714,-29.538M-33.442,116.753L-38.263,116.424C-38.356,117.753 -37.351,118.906 -36.017,118.999C-34.688,119.092 -33.535,118.087 -33.442,116.753M-1.532,65.083L0,66.95L-1.532,65.083ZM2.141,62.113L3.646,64.002L3.651,64.002L2.141,62.113ZM33.134,35.715L31.52,33.92L33.134,35.715ZM83.47,-16.29L85.419,-14.862L83.47,-16.29ZM112.926,-46.641L114.255,-44.62C114.26,-44.626 114.26,-44.626 114.266,-44.631L112.926,-46.641ZM115.518,-48.293L114.277,-50.363C114.271,-50.363 114.266,-50.363 114.266,-50.357L115.518,-48.293ZM118.872,-49.232L119.476,-51.571C119.471,-51.571 119.465,-51.576 119.46,-51.576L118.872,-49.232ZM121.447,-46.684L119.355,-45.482C119.355,-45.477 119.361,-45.471 119.361,-45.466L121.447,-46.684ZM136.886,-31.976L132.714,-29.538C133.383,-28.385 134.866,-27.995 136.019,-28.671C137.172,-29.34 137.562,-30.823 136.886,-31.976" style="fill:rgb(26,36,53);fill-rule:nonzero;"/>
            </g>
            <g transform="matrix(1,0,0,1,495.608,701.1442)">
                <path d="M0,-74.428L-4.788,-75.054C-7.791,-52.055 -5.836,-22.203 -1.499,0.713L3.245,-0.187C-1.021,-22.742 -2.915,-52.066 0,-74.428M3.245,-0.187L-1.499,0.713C-1.252,2.026 0.011,2.882 1.323,2.635C2.635,2.388 3.497,1.125 3.245,-0.187M-4.788,-75.054L0,-74.428C0.176,-75.751 -0.758,-76.965 -2.081,-77.135C-3.404,-77.31 -4.617,-76.377 -4.788,-75.054" style="fill:rgb(26,36,53);fill-rule:nonzero;"/>
            </g>
            <g transform="matrix(1,0,0,1,505.068,849.4388)">
                <path d="M0,26.991L-4.793,27.595C-4.667,28.627 -4.53,29.703 -4.365,30.779L0.412,30.044C0.258,29.044 0.132,28.034 0,26.991M-1.812,0.758L-6.643,0.769C-6.616,9.751 -5.99,18.712 -4.793,27.617L-0.005,26.969C-1.175,18.272 -1.784,9.521 -1.812,0.758M-1.795,-3.525L-6.627,-3.612C-6.654,-2.136 -6.654,-0.681 -6.643,0.78L-1.812,0.747C-1.823,-0.692 -1.823,-2.102 -1.795,-3.525M0.412,30.044L-4.365,30.779C-4.162,32.097 -2.926,33.003 -1.609,32.8C-0.291,32.597 0.615,31.361 0.412,30.044M-2.399,27.293L0,26.991C-0.005,26.98 -0.005,26.975 -0.005,26.969L-2.399,27.293ZM-4.228,0.763L-1.812,0.758L-1.812,0.747L-4.228,0.763ZM-6.627,-3.612L-1.795,-3.525C-1.768,-4.859 -2.833,-5.957 -4.167,-5.984C-5.501,-6.012 -6.599,-4.947 -6.627,-3.612" style="fill:rgb(26,36,53);fill-rule:nonzero;"/>
            </g>
            <g transform="matrix(1,0,0,1,699.6511,683.6914)">
                <path d="M0,31.331L-2.383,30.945L0,31.331ZM5.232,1.732L9.614,3.775C10.179,2.566 9.652,1.128 8.444,0.565C7.236,0 5.798,0.523 5.232,1.732" style="fill:rgb(26,36,53);fill-rule:nonzero;"/>
            </g>
            <g transform="matrix(1,0,0,1,427.4778,654.547)">
                <path d="M0,45.333C0.232,45.333 0.468,45.297 0.702,45.22C1.876,44.832 2.514,43.566 2.126,42.392C-5.471,19.367 -22.653,1.642 -23.381,0.898C-24.245,0.015 -25.662,0 -26.546,0.865C-27.43,1.729 -27.445,3.146 -26.581,4.031C-26.41,4.206 -9.39,21.783 -2.127,43.795C-1.816,44.736 -0.94,45.333 0,45.333" style="fill:rgb(26,36,53);fill-rule:nonzero;"/>
            </g>
            <g transform="matrix(1,0,0,1,407.9783,650.7864)">
                <path d="M0,45.339C0.369,45.339 0.743,45.248 1.088,45.056C2.168,44.454 2.556,43.09 1.954,42.01C1.937,41.978 0.081,38.641 -9.872,20.295C-15.313,10.264 -14.462,6.628 -13.843,5.53C-13.354,4.662 -12.514,4.553 -12.507,4.553C-11.271,4.494 -10.317,3.445 -10.377,2.21C-10.435,0.975 -11.48,0 -12.72,0.08C-13.056,0.096 -16.051,0.324 -17.746,3.333C-19.947,7.24 -18.658,13.488 -13.808,22.43C-3.827,40.828 -1.975,44.157 -1.958,44.189C-1.548,44.924 -0.785,45.339 0,45.339" style="fill:rgb(26,36,53);fill-rule:nonzero;"/>
            </g>
            <g transform="matrix(1,0,0,1,389.2907,667.3215)">
                <path d="M0,22.52C0.121,22.52 0.244,22.51 0.368,22.49C1.587,22.288 2.414,21.135 2.212,19.915C1.129,13.351 1.045,6.395 1.989,4.77C3.097,4.962 4.206,4.297 4.528,3.196C4.876,2.01 4.217,0.771 3.029,0.423C1.595,0 0.22,0.286 -0.842,1.226C-4.444,4.415 -2.997,15.869 -2.207,20.646C-2.025,21.742 -1.076,22.52 0,22.52" style="fill:rgb(26,36,53);fill-rule:nonzero;"/>
            </g>
        </g>
    </g>
</svg>
