<svg preserveAspectRatio="xMidYMid meet" width="100%" height="100%" overflow="visible" style="display: block;" viewBox="0 0 72 72" fill="none" xmlns="http://www.w3.org/2000/svg">
<g id="rocket-launch">
<path id="Primary" d="M59.2594 13.9594C59.1375 13.3688 58.6781 12.9 58.0781 12.7781C53.925 11.9438 47.6531 11.4469 41.625 14.5594C38.1187 16.3687 34.8 19.35 32.0531 24H23.5781C21.9938 24 20.5312 24.825 19.7156 26.1844L14.7656 34.4531C13.5656 36.4594 15 39 17.3344 39H27.0375C30.3469 39 33.0375 41.6906 33.0375 45V54.7031C33.0375 57.0375 35.5781 58.4719 37.5844 57.2719L45.8531 52.3125C47.2125 51.4969 48.0375 50.0344 48.0375 48.45V39.975C52.6875 37.2281 55.6687 33.9094 57.4781 30.4031C60.5906 24.375 60.0844 18.1031 59.2594 13.95V13.9594ZM45.0375 41.5594V48.45C45.0375 48.975 44.7656 49.4625 44.3062 49.7344L36.0375 54.6937V44.9906C36.0375 44.8875 36.0375 44.775 36.0281 44.6719C39.4781 43.8094 42.4594 42.75 45.0375 41.55V41.5594ZM35.4281 41.7375C34.5187 39.3844 32.6438 37.5187 30.2906 36.6C33.1594 25.2187 38.0906 19.7531 43.0031 17.2125C47.7281 14.775 52.7156 14.8969 56.4937 15.525C57.1312 19.3031 57.2437 24.2906 54.8062 29.0156C52.2656 33.9281 46.8 38.8594 35.4187 41.7281L35.4281 41.7375ZM27.3562 36C27.2531 36 27.15 35.9906 27.0375 35.9906H17.3344L22.2937 27.7219C22.5656 27.2719 23.0531 26.9906 23.5781 26.9906H30.4687C29.2594 29.5594 28.2094 32.55 27.3469 36H27.3562ZM46.5375 27.75C45.9408 27.75 45.3685 27.5129 44.9465 27.091C44.5246 26.669 44.2875 26.0967 44.2875 25.5C44.2875 24.9033 44.5246 24.331 44.9465 23.909C45.3685 23.4871 45.9408 23.25 46.5375 23.25C47.1342 23.25 47.7065 23.4871 48.1285 23.909C48.5504 24.331 48.7875 24.9033 48.7875 25.5C48.7875 26.0967 48.5504 26.669 48.1285 27.091C47.7065 27.5129 47.1342 27.75 46.5375 27.75ZM41.2875 25.5C41.2875 26.1894 41.4233 26.8721 41.6871 27.5091C41.951 28.146 42.3377 28.7248 42.8252 29.2123C43.3127 29.6998 43.8915 30.0865 44.5284 30.3504C45.1654 30.6142 45.8481 30.75 46.5375 30.75C47.2269 30.75 47.9096 30.6142 48.5466 30.3504C49.1835 30.0865 49.7623 29.6998 50.2498 29.2123C50.7373 28.7248 51.124 28.146 51.3879 27.5091C51.6517 26.8721 51.7875 26.1894 51.7875 25.5C51.7875 24.8106 51.6517 24.1279 51.3879 23.4909C51.124 22.854 50.7373 22.2752 50.2498 21.7877C49.7623 21.3002 49.1835 20.9135 48.5466 20.6496C47.9096 20.3858 47.2269 20.25 46.5375 20.25C45.8481 20.25 45.1654 20.3858 44.5284 20.6496C43.8915 20.9135 43.3127 21.3002 42.8252 21.7877C42.3377 22.2752 41.951 22.854 41.6871 23.4909C41.4233 24.1279 41.2875 24.8106 41.2875 25.5Z" fill="var(--fill-0, #BFBFBF)"/>
<path id="Primary_2" d="M26.325 45.7031C29.2781 48.6562 29.2781 53.4375 26.325 56.3906C23.3906 59.325 17.7093 59.9062 14.475 59.9812C13.0968 60.0094 12.0093 58.9219 12.0468 57.5531C12.1218 54.3281 12.7031 48.6375 15.6375 45.7031C18.5906 42.75 23.3718 42.75 26.325 45.7031Z" fill="var(--fill-0, #E80D68)"/>
</g>
</svg>
