<svg width="621" height="555" viewBox="0 0 621 555" fill="none" xmlns="http://www.w3.org/2000/svg">
<path d="M122.342 123.069C114.715 107.852 110.6 95.9693 110.803 78.7987C110.979 56.8721 120.068 35.96 135.981 20.8709C161.254 -3.48111 197.835 -4.8786 228.161 8.21898C231.142 9.50613 234.851 9.0519 237.315 9.91536C255.315 16.2574 270.693 25.5771 279.679 43.0209C291.048 65.0878 293.73 97.5104 273.684 115.67C272.892 116.602 272.2 117.248 271.807 118.399C271.725 120.581 271.63 125.096 270.991 127.125C267.968 136.718 269.013 146.899 267.011 156.495C262.653 177.384 247.41 198.966 229.311 209.827C228.098 210.821 227.257 211.162 226.751 212.416C227.463 213.112 229.565 215.067 230.091 215.726C231.1 216.234 233.339 217.464 234.329 217.704C248.676 223.254 287.101 237.383 297.432 245.723C302.97 250.192 306.985 256.325 309.865 262.774C312.625 268.95 319.279 287.006 318.276 293.547L319.099 295.132C328.131 296.027 339.745 295.711 348.959 295.743C355.607 295.764 366.326 295.909 372.679 295.18L372.921 293.166C380.988 293.07 413.779 291.233 418.429 295.812C420.133 297.484 421.065 300.703 421.601 302.99C423.872 312.755 424.585 323.387 425.919 333.345L433.033 385.988C435.342 402.727 436.038 416.707 443.453 431.877C445.649 436.371 447.91 449.183 443.415 452.601C439.51 455.89 430.644 456.956 426.015 459.398L425.271 460.416L422.313 460.684C417.299 467.588 416.592 469.045 407.946 467.679C396.401 473.829 393.096 468.247 380.844 468.708C377.587 466.86 374.174 464.996 371.062 462.944C363.745 469.704 354.127 478.29 347.663 485.929C346.795 486.957 346.225 489.143 345.92 490.482C345.898 490.139 345.67 489.271 345.584 488.902L344.802 489.084C341.381 497.702 334.672 504.612 326.153 508.276C319.496 511.19 313.599 510.761 306.735 509.144L306.272 508.924L305.928 513.788C306.28 525.266 308.381 543.436 310.362 554.588C303.573 554.593 264.705 555.321 261.219 554.256L259.497 554.368C252.689 554.802 195.644 555.402 191.744 554.357L189.799 554.143C186.903 554.845 159.267 554.572 154.349 554.572C123.269 554.352 92.1869 554.475 61.1096 554.941C62.5978 545.707 63.5653 535.497 64.6282 526.14C63.0328 525.202 60.0725 525.84 58.0582 526.054C50.8169 526.332 43.677 526.29 36.9602 523.194C27.1245 518.657 21.4587 509.01 17.8603 499.207C11.4746 481.81 9.72285 460.743 7.44767 442.279C2.02517 398.287 -7.77091 305.159 10.9539 265.324C18.8311 248.561 32.5239 240.608 48.68 233.149C53.8619 230.757 59.0487 228.222 64.4139 226.271L64.5119 224.116C63.6746 222.955 63.6039 223.044 63.5793 221.64C64.8752 220.26 66.6741 220.424 68.3878 219.741C88.5682 211.711 86.046 186.207 88.8264 169.942C89.931 163.083 92.1441 156.45 95.3803 150.302C101.77 138.149 109.176 131.408 122.058 127.411C122.113 126.023 122.249 124.469 122.342 123.069Z" fill="#2E2837"/>
<path d="M122.342 123.069C124.011 118.016 125.286 114.251 129.969 111.11C135.867 107.156 143.131 108.811 146.883 114.664C141.741 114.25 136.488 108.08 130.11 113.524C121.241 121.092 124.269 132.153 129.891 140.371C135.053 147.917 145.205 147.686 146.442 149.403L146.238 150.545C145.319 150.746 144.452 150.955 143.592 151.341C142.48 166.52 144.691 178.727 136.489 192.961L135.728 189.284L135.247 188.834C134.699 190.053 134.792 190.038 133.735 190.825C136.965 204.791 152.656 224.122 162.657 234.474C180.301 252.736 177.631 254.707 176.632 278.817C175.28 311.421 180.828 346.153 183.188 378.736C183.441 382.062 183.784 385.324 184.373 388.597C165.206 404.977 137.999 417.222 115.307 428.513C109.179 421.539 105.068 424.432 97.7075 428.106C91.9582 430.977 81.7475 432.638 78.5219 437.609C61.6716 441.851 49.4707 445.3 40.2093 461.434C38.8475 463.807 36.6162 468.199 37.3534 470.845C39.6821 469.919 42.32 462.591 44.2528 459.682C46.2216 456.769 48.5337 454.106 51.1384 451.744C59.4468 444.331 69.4394 442.038 79.8907 440.255C81.3886 439.998 81.5552 436.73 83.2475 436.302C91.723 433.543 99.7261 429.713 108.046 426.676C108.814 426.397 111.492 427.887 112.219 428.454L112.35 429.408C110.541 430.999 106.911 430.543 106.471 431.824C103.421 440.699 105.446 453.324 106.667 462.361C107.656 469.683 116.438 491.494 123.169 494.553C126.025 493.642 125.944 491.259 129.118 489.282C130.852 490.236 130.736 493.058 129.777 494.628C125.812 501.104 117.649 502.855 111.628 506.423C104.647 510.563 102.942 516.209 93.9891 512.133C82.506 518.33 70.8687 523.258 58.0582 526.054C50.8169 526.333 43.677 526.29 36.9602 523.194C27.1245 518.657 21.4587 509.01 17.8603 499.208C11.4746 481.81 9.72285 460.743 7.44767 442.279C2.02517 398.287 -7.77091 305.16 10.9539 265.324C18.8311 248.561 32.5239 240.608 48.68 233.15C53.8619 230.758 59.0487 228.222 64.4139 226.271L64.5119 224.117C63.6746 222.955 63.6039 223.044 63.5793 221.64C64.8752 220.26 66.6741 220.424 68.3878 219.742C88.5682 211.712 86.046 186.207 88.8264 169.943C89.931 163.084 92.1441 156.45 95.3803 150.302C101.77 138.149 109.176 131.408 122.058 127.411C122.113 126.023 122.249 124.47 122.342 123.069Z" fill="#FAA4A2"/>
<path d="M122.059 127.411C124.547 140.151 128.966 145.987 141.038 150.804C141.239 157.257 141.304 164.929 140.803 171.378C136.818 171.933 135.041 171.984 131.93 174.826C126.019 180.227 121.976 187.352 116.999 193.625C114.449 196.84 110.636 201.381 108.563 204.829C101.976 207.456 93.5726 211.753 86.9292 214.618C83.717 216.004 65.9731 223.01 64.5128 224.116C63.6754 222.955 63.6047 223.044 63.5801 221.64C64.876 220.26 66.6749 220.424 68.3886 219.741C88.569 211.711 86.0469 186.207 88.8272 169.942C89.9319 163.083 92.1449 156.45 95.3811 150.302C101.771 138.149 109.177 131.408 122.059 127.411Z" fill="#957F6E"/>
<path d="M122.342 123.069C124.011 118.016 125.286 114.251 129.969 111.11C135.867 107.156 143.131 108.811 146.884 114.664C141.741 114.25 136.489 108.08 130.11 113.524C121.242 121.092 124.269 132.153 129.891 140.371C135.053 147.917 145.205 147.686 146.442 149.403L146.238 150.545C145.319 150.746 144.452 150.955 143.593 151.341C142.48 166.52 144.691 178.727 136.489 192.961L135.728 189.284C137.503 186.639 140.741 176.562 139.168 173.891C133.942 172.665 116.573 197.967 112.389 202.963C116.102 219.147 129.123 258.644 136.857 273.498C143.676 266.347 154.341 251.456 164.371 249.581C166.064 249.265 171.13 251.177 171.207 253.759L170.223 254.563C168.361 253.54 164.651 251.456 162.728 252.249C153.066 256.25 144.451 271.141 136.245 276.733C128.831 264.686 113.393 220.498 110.706 205.989C100.268 211.641 76.3123 222.054 64.4141 226.271L64.5121 224.117C65.9725 223.011 83.7164 216.004 86.9285 214.619C93.5719 211.753 101.975 207.456 108.562 204.829C110.635 201.381 114.448 196.84 116.998 193.626C121.976 187.353 126.018 180.227 131.93 174.826C135.04 171.984 136.817 171.934 140.802 171.378C141.304 164.93 141.238 157.258 141.038 150.805C128.965 145.987 124.546 140.152 122.059 127.411C122.113 126.023 122.249 124.47 122.342 123.069Z" fill="#352735"/>
<path d="M133.735 190.825C132.988 187.886 132.651 186.395 133.76 183.588L134.487 183.324C135.594 184.882 135.273 186.843 135.246 188.834C134.699 190.053 134.792 190.038 133.735 190.825Z" fill="#352735"/>
<path d="M70.4863 340.865L71.8143 341.594C74.1399 346.029 83.9086 427.388 82.6443 432.059C82.0352 431.711 81.6886 431.378 81.1406 430.934C79.3941 413.022 77.3418 395.142 74.9847 377.3C74.2706 371.965 70.1499 344.561 70.4863 340.865Z" fill="#352735"/>
<path d="M34.3848 262.297C45.0471 263.947 69.5249 307.805 66.6712 316.349C65.9705 316.076 65.7685 315.883 65.1332 315.47C63.3819 312.235 62.4707 307.757 61.1887 304.259C57.8078 295.035 53.4101 286.326 47.4873 278.457C45.8812 275.983 43.9108 273.824 42.121 271.521C39.6058 268.275 34.6226 266.346 34.3848 262.297Z" fill="#352735"/>
<path d="M77.3909 456.977C76.6002 469.886 78.2207 480.711 82.9425 492.715C85.1014 498.2 88.4218 502.716 91.1984 507.885L90.7757 509.004L90.0397 509.009C89.5639 508.629 88.6993 507.938 88.3516 507.44C77.2232 491.446 73.9838 474.9 75.3418 456.377L77.3909 456.977Z" fill="#382534"/>
<path d="M75.3418 456.377C75.7463 452.45 76.185 445.717 78.2373 442.53C79.7513 444.351 77.8297 454.031 77.3909 456.977L75.3418 456.377Z" fill="#1B131C"/>
<path d="M372.922 293.166C380.99 293.07 413.781 291.232 418.431 295.812C420.134 297.483 421.067 300.703 421.602 302.99C423.874 312.755 424.586 323.387 425.92 333.345L433.034 385.988C435.343 402.727 436.04 416.707 443.454 431.877C445.651 436.371 447.911 449.183 443.417 452.601C439.511 455.89 430.645 456.955 426.017 459.398L425.272 460.416L422.315 460.684C417.301 467.588 416.593 469.045 407.947 467.679C396.402 473.828 393.097 468.247 380.845 468.708C377.588 466.86 374.176 464.995 371.063 462.944C363.747 469.704 354.129 478.29 347.665 485.929C346.796 486.957 346.226 489.142 345.921 490.481C345.899 490.139 345.671 489.271 345.586 488.901L344.804 489.083C341.382 497.702 334.673 504.612 326.155 508.276C319.498 511.189 313.6 510.761 306.736 509.143L306.273 508.924L305.929 513.787C306.281 525.266 308.383 543.435 310.364 554.587C303.574 554.593 264.706 555.321 261.221 554.255C261.695 547.785 260.766 530.617 260.496 523.643L257.797 461.38C257.578 457.079 256.472 440.897 257.08 437.169C258.869 436.317 261.227 436.521 263.298 436.494C264.457 435.664 269.341 435.974 271.169 435.996C270.061 434.919 267.703 434.769 266.063 434.48C258.655 433.403 249.184 435.026 241.603 434.544C231.037 433.869 231.348 427.147 231.526 418.984C243.522 415.663 258.123 414.806 269.261 409.219C271.849 407.923 272.964 403.627 273.704 400.959C277.836 398.11 285.661 400.027 287.847 392.325C287.061 383.845 263.268 385.356 256.488 385.115C253.103 384.285 250.541 385.34 247.719 383.819C255.808 381.955 291.804 384.386 291.072 372.393C290.636 365.237 265.615 366.217 259.218 365.687C250.421 364.958 237.231 367.16 227.683 368.306C231.428 365.601 238.196 360.368 243.35 359.024C251.779 356.827 268.092 359.066 274.585 351.31C275.978 349.194 273.764 345.375 271.643 344.963C257.545 342.199 241.284 340.592 227.894 346.436L226.229 318.545C225.88 313.065 222.858 296.225 230.826 295.839C259.947 294.43 289.97 295.823 319.1 295.132C328.132 296.026 339.746 295.71 348.96 295.743C355.608 295.764 366.327 295.909 372.681 295.18L372.922 293.166Z" fill="#EBEBEB"/>
<path d="M372.921 293.166C380.989 293.07 413.78 291.232 418.43 295.812C420.133 297.483 421.066 300.703 421.601 302.99C423.873 312.755 424.585 323.387 425.919 333.345L433.033 385.988C435.342 402.727 436.039 416.707 443.453 431.877C445.65 436.371 447.91 449.183 443.416 452.601C439.51 455.89 430.644 456.955 426.016 459.398L425.271 460.416L422.314 460.684C417.299 467.588 416.592 469.045 407.946 467.679C396.401 473.828 393.096 468.247 380.844 468.708C377.587 466.86 374.174 464.995 371.062 462.944C363.746 469.704 354.128 478.29 347.664 485.929C346.795 486.957 346.225 489.142 345.92 490.481C345.898 490.139 345.67 489.271 345.584 488.901L344.803 489.083C341.381 497.702 334.672 504.612 326.154 508.276C319.497 511.189 313.599 510.761 306.735 509.143L306.272 508.924L305.928 513.787C306.28 525.266 308.382 543.435 310.363 554.587C303.573 554.593 264.705 555.321 261.22 554.255C261.694 547.785 260.765 530.617 260.495 523.643L257.796 461.38C257.577 457.079 256.471 440.897 257.079 437.169C258.868 436.317 261.226 436.521 263.297 436.494C264.456 435.664 269.34 435.974 271.168 435.996C280.607 436.135 287.454 436.767 296.643 434.491C321.22 432.926 351.878 434.849 377.142 434.233C377.169 428.288 375.985 415.631 383.673 414.34C391.687 416.016 388.076 431.662 391.489 434.405L392.555 433.96C393.717 429.53 384.969 400.279 398.421 402.855C405.262 407.194 405.182 432.46 410.11 434.839C412.007 430.377 401.967 406.214 408.407 401.602C420.407 393.016 422.608 428.882 427.976 433.778L428.925 433.725C429.782 429.423 425.48 420.408 429.514 415.989C431.116 414.232 432.83 415.148 434.624 414.34C434.646 412.095 433.264 403.83 432.883 401.232C431.662 392.903 430.483 384.563 429.358 376.218L422.705 327.683C421.558 319.311 420.808 310.66 419.142 302.39C418.805 300.697 418.189 299.235 416.967 297.987C412.703 293.643 380.528 295.293 372.68 295.18L372.921 293.166Z" fill="#F2E1DA"/>
<path d="M263.297 436.494C268.646 436.574 300.988 436.06 303.496 437.18L305.117 437.212C304.884 451.412 304.631 464.621 305.111 478.821C305.324 485.131 307.549 504.221 306.735 509.143L306.272 508.924L305.928 513.787C306.28 525.266 308.382 543.435 310.363 554.588C303.573 554.593 264.705 555.321 261.22 554.255C261.694 547.785 260.765 530.617 260.495 523.643L257.796 461.38C257.577 457.079 256.471 440.897 257.079 437.169C258.868 436.317 261.226 436.521 263.297 436.494Z" fill="#FAA4A2"/>
<path d="M303.496 437.18L305.117 437.212C304.884 451.412 304.631 464.621 305.111 478.821C305.325 485.131 307.549 504.221 306.735 509.144L306.272 508.924L305.928 513.788C303.68 493.797 301.015 457.277 303.496 437.18Z" fill="#1B131C"/>
<path d="M377.143 434.234C377.169 428.288 375.985 415.631 383.673 414.34C391.687 416.017 388.077 431.663 391.489 434.405L392.555 433.961C393.718 429.531 384.969 400.279 398.421 402.856C405.262 407.194 405.182 432.461 410.11 434.839C409.902 435.391 409.875 435.605 409.543 436.076L409.189 436.639C408.348 438.931 408.075 442.445 409.837 444.368C409.848 445.509 409.618 445.102 410.239 445.772C409.302 449.285 408.675 454.631 407.673 457.229L406.778 457.347C405.273 454.915 407.341 445.182 407.169 442.156C406.837 436.264 401.073 407.269 396.605 405.063C388.902 408.534 396.455 431.663 395.593 438.755C394.864 444.716 392.93 449.698 391.789 455.381L390.921 456.206L389.925 456.018C387.669 452.194 389.86 424.008 384.31 417.698C376.66 416.183 381.144 446.066 377.341 452.992L376.639 453.303C375.91 452.756 375.466 452.681 375.552 451.969C376.339 445.75 377.255 442.777 377.105 436.462C368.228 436.489 358.996 436.382 350.148 436.591C341.363 442.708 331.001 447.073 320.902 450.512C309.609 463.775 306.981 495.785 328.291 499.181L329.147 500.761C328.126 501.559 327.998 501.479 326.715 501.821L329.031 501.854C331.323 499.566 342.119 489.384 344.803 489.084C341.382 497.702 334.672 504.612 326.154 508.276C319.497 511.19 313.599 510.761 306.735 509.144C307.549 504.221 305.325 485.131 305.111 478.821C304.631 464.621 304.884 451.412 305.117 437.212L303.496 437.18C300.989 436.06 268.647 436.575 263.297 436.494C264.457 435.664 269.34 435.975 271.168 435.996C280.607 436.135 287.454 436.767 296.643 434.491C321.22 432.927 351.878 434.85 377.143 434.234Z" fill="#2B313D"/>
<path d="M305.116 437.212L305.448 437.078C305.71 439.719 305.247 448.975 305.882 449.768L306.067 449.778C307.98 450.839 310.185 448.439 312.14 447.389C318.167 444.149 324.022 441.551 330.893 443.725C327.782 445.938 324.319 445.895 322.19 447.132C308.748 454.947 306.6 480.803 314.629 493.101C317.748 497.879 321.907 500.365 326.715 501.821L329.031 501.854C331.322 499.566 342.119 489.384 344.803 489.084C341.381 497.702 334.672 504.612 326.153 508.276C319.497 511.19 313.599 510.761 306.735 509.144C307.549 504.221 305.324 485.131 305.11 478.821C304.63 464.621 304.884 451.412 305.116 437.212Z" fill="#FAA4A2"/>
<path d="M305.449 437.078C309.373 435.781 339.195 437.04 347.118 436.167C342.967 438.556 338.535 441.315 333.866 442.37L332.504 441.947C331.927 442.557 331.438 443.088 330.895 443.725C324.024 441.55 318.168 444.148 312.141 447.389C310.186 448.439 307.981 450.838 306.068 449.778L305.884 449.767C305.248 448.974 305.711 439.718 305.449 437.078Z" fill="#E9B3B6"/>
<path d="M306.066 449.778C310.633 441.946 324.313 438.556 332.502 441.946C331.925 442.557 331.436 443.087 330.893 443.725C324.022 441.55 318.167 444.148 312.139 447.389C310.184 448.438 307.979 450.838 306.066 449.778Z" fill="#352735"/>
<path d="M390.824 436.21C392.646 436.638 391.96 436.172 393.074 437.463C393.599 440.19 392.555 443.43 391.901 446.205L391.537 446.441C390.487 444.095 390.674 438.829 390.824 436.21Z" fill="#EBEBEB"/>
<path d="M372.92 293.166C380.988 293.07 413.779 291.232 418.429 295.812C420.133 297.483 421.065 300.703 421.601 302.99C423.872 312.755 424.584 323.387 425.918 333.345L433.033 385.988C435.342 402.727 436.038 416.707 443.452 431.877C445.649 436.371 447.909 449.183 443.415 452.601C439.509 455.89 430.643 456.955 426.015 459.398L425.27 460.416L422.313 460.684C417.299 467.588 416.592 469.045 407.945 467.679C396.401 473.828 393.095 468.247 380.843 468.708C377.586 466.86 374.174 464.995 371.061 462.944C370.402 462.226 369.304 461.867 368.351 461.423C364.13 459.505 361.69 457.995 358.319 454.856L358.622 454.025L358.127 454.063C361.794 454.208 377.184 463.614 381.663 466.142C389.184 465.778 391.826 466.951 399.127 468.879C406.402 465.638 406.729 465.279 414.567 465.67C416.736 463.828 418.879 461.128 421.134 459.012C426.309 454.588 440.897 454.824 443.281 448.208C445.333 442.514 437.431 418.164 432.893 416.777L431.559 417.505C427.676 423.028 433.017 435.605 433.488 443.789C431.597 444.148 429.433 444.395 427.509 444.662C426.213 447.7 423.481 455.579 420.877 456.757C419.961 454.384 424.102 446.044 425.109 443.157C427.059 437.549 416.913 403.782 411.851 402.582C401.008 408.287 420.417 433.28 410.238 445.771C409.617 445.102 409.847 445.509 409.836 444.368C408.074 442.445 408.347 438.931 409.188 436.638L409.542 436.076C409.874 435.605 409.901 435.39 410.109 434.839C412.006 430.377 401.967 406.214 408.406 401.602C420.406 393.016 422.608 428.882 427.976 433.778L428.924 433.725C429.781 429.423 425.479 420.408 429.513 415.989C431.115 414.232 432.829 415.148 434.624 414.34C434.645 412.095 433.263 403.83 432.883 401.232C431.661 392.903 430.483 384.563 429.358 376.218L422.704 327.683C421.558 319.311 420.808 310.66 419.142 302.39C418.804 300.697 418.188 299.235 416.967 297.987C412.702 293.643 380.527 295.293 372.679 295.18L372.92 293.166Z" fill="#2B313D"/>
<path d="M409.543 436.076C411.922 437.067 411.354 439.81 410.031 441.39L409.479 440.977C409.339 439.451 409.238 438.171 409.189 436.639L409.543 436.076Z" fill="#EBEBEB"/>
<path d="M428.12 436.018C429.347 436.494 429.299 436.709 430.075 437.833C430.525 439.992 430.413 440.169 429.979 442.392L428.575 441.824C427.199 439.697 427.622 438.444 428.12 436.018Z" fill="#EBEBEB"/>
<path d="M368.351 461.423C369.305 461.867 370.403 462.226 371.062 462.944C363.746 469.704 354.127 478.29 347.663 485.929C346.795 486.957 346.225 489.142 345.92 490.482C345.898 490.139 345.67 489.271 345.584 488.901L344.803 489.083C342.119 489.383 331.323 499.566 329.031 501.853L326.715 501.821C327.997 501.478 328.126 501.559 329.146 500.761L328.29 499.18C329.859 497.257 337.589 491.012 339.655 489.175C343.973 485.323 367.237 464.101 368.351 461.423Z" fill="#2B313D"/>
<path d="M266.062 434.48C275.251 434.304 287.442 434.062 296.644 434.491C287.455 436.767 280.608 436.135 271.169 435.996C270.061 434.919 267.703 434.77 266.062 434.48Z" fill="#1B131C"/>
<path d="M122.343 123.069C114.716 107.852 110.601 95.9693 110.804 78.7987C110.98 56.8721 120.069 35.96 135.982 20.8709C161.255 -3.48111 197.836 -4.8786 228.162 8.21898C231.143 9.50613 234.852 9.0519 237.316 9.91536C255.316 16.2574 270.694 25.5771 279.68 43.0209C291.049 65.0878 293.731 97.5104 273.685 115.67C272.893 116.602 272.201 117.248 271.808 118.399C271.726 120.581 271.631 125.096 270.992 127.125C267.969 136.718 269.014 146.899 267.012 156.495C262.654 177.384 247.411 198.966 229.312 209.827C210.939 214.795 182.474 197.108 170.216 184.451C168.328 182.502 166.643 180.364 164.565 178.511L163.56 178.777L163.597 179.997C171.37 194.405 197.158 206.808 212.37 211.892C210.721 216.6 208.205 231.398 211.111 235.392L211.715 235.105C212.659 233.305 212.348 224.004 212.414 221.034C221.872 234.191 226.269 254.155 230.076 269.85C216.646 289.004 197.502 285.785 178.935 275.592C179.593 255.805 182.981 252.372 167.754 236.499C155.236 223.453 144.094 209.412 136.49 192.961C144.692 178.727 142.481 166.52 143.593 151.341C144.453 150.954 145.32 150.746 146.239 150.545L146.443 149.403C145.206 147.685 135.054 147.917 129.892 140.371C124.27 132.153 121.242 121.092 130.111 113.523C136.489 108.08 141.742 114.25 146.884 114.663C143.132 108.81 135.868 107.156 129.97 111.11C125.287 114.25 124.012 118.015 122.343 123.069Z" fill="#F2E1DA"/>
<path d="M122.343 123.069C114.716 107.852 110.601 95.9693 110.804 78.7987C110.98 56.8721 120.069 35.96 135.982 20.8709C161.255 -3.48111 197.836 -4.8786 228.162 8.21898C231.143 9.50613 234.852 9.0519 237.316 9.91536C255.316 16.2574 270.694 25.5771 279.68 43.0209C291.049 65.0878 293.731 97.5104 273.685 115.67C272.893 116.602 272.201 117.248 271.808 118.399C271.63 114.142 273.165 106.999 272.894 102.155C271.751 81.8053 260.282 59.7164 246.162 45.7387L245.178 45.6766C241.466 66.5373 234.93 84.8579 219.341 100.049C216.853 102.473 216.815 102.149 219.554 104.233L219.422 105.177L218.483 105.795C216.891 105.458 216.325 105.268 214.775 104.72C213.763 105.073 205.786 109.48 205.197 110.114C200.445 115.223 168.793 121.287 166.749 114.519L166.467 113.952L165.215 114.228C162.636 115.485 161.39 115.236 158.585 115.11L157.024 116.025C152.509 116.722 150.726 117.105 146.884 114.663C143.132 108.81 135.868 107.156 129.97 111.11C125.287 114.25 124.012 118.015 122.343 123.069Z" fill="#957F6E"/>
<path d="M214.14 101.861C228.429 87.9841 235.323 76.3553 240.85 56.5005C241.91 52.6926 242.28 42.3654 244.287 39.5693L245.229 39.9603C245.703 42.096 245.403 43.509 245.177 45.6767C241.465 66.5374 234.929 84.8581 219.34 100.05C216.852 102.473 216.814 102.149 219.553 104.233L219.421 105.177L218.481 105.795C216.89 105.458 216.324 105.268 214.774 104.72C213.762 105.073 205.785 109.48 205.196 110.114C200.444 115.223 168.792 121.287 166.748 114.519C169.02 114.44 174.844 115.125 178.027 115.12C190.895 115.096 200.793 110.816 211.179 103.598C208.99 103.688 206.321 103.751 204.178 104.068C201.663 104.44 196.294 106.578 194.004 105.924L193.963 105.413C197.523 101.077 208.93 101.535 214.14 101.861Z" fill="#2B313D"/>
<path d="M157.023 116.025C155.139 115.871 153.064 115.577 151.812 114.011C152.973 113.042 156.3 112.711 157.974 112.302C178.37 107.304 195.498 90.5564 202.821 71.112C203.74 68.6732 205.236 61.0949 207.681 60.9111C208.919 63.8936 203.395 75.8085 201.884 78.8874C194.569 93.7852 181.112 106.721 165.428 112.411C164.429 112.773 164.916 112.367 164.272 113.265L165.214 114.228C162.634 115.485 161.389 115.236 158.584 115.109L157.023 116.025Z" fill="#2B313D"/>
<path d="M246.162 45.7393C247.024 45.3831 247.822 44.8121 248.684 45.4061C257.796 51.6882 266.977 70.9735 270.686 80.5466C275.003 91.6885 276.327 105.104 273.684 115.671C272.893 116.602 272.2 117.248 271.807 118.399C271.629 114.143 273.165 107 272.893 102.156C271.751 81.8058 260.282 59.717 246.162 45.7393Z" fill="#2B313D"/>
<path d="M205.797 169.625C211.373 169.752 217.625 170.74 223.391 170.818C230.647 170.917 237.702 170.554 244.94 170.232C243.144 173.961 241.563 176.881 239.497 180.472C228.928 193.971 210.759 182.636 205.797 169.625Z" fill="#2B313D"/>
<path d="M209.354 172.297C219.916 173.357 230.553 173.437 241.13 172.535C239.936 175.115 238.697 177.105 237.232 179.533C236.48 180.302 235.681 181.024 234.838 181.694C226.082 188.584 214.552 179.581 209.354 172.297Z" fill="#EBEBEB"/>
<path d="M236.929 124.006C237.5 124.428 237.623 124.646 238.098 125.182C238.015 127.447 236.983 135.94 237.497 137.37C241.318 148.005 250.279 149.758 235.62 158.571L234.97 157.212C236.544 153.125 245.028 151.91 239.137 145.317C234.28 139.882 233.298 130.375 236.929 124.006Z" fill="#2B313D"/>
<path d="M207.014 125.073C212.975 127.298 211.994 132.811 208.344 136.83C202.052 135.167 203.127 128.846 207.014 125.073Z" fill="#2B313D"/>
<path d="M254.23 125.095C260.634 125.866 259.592 131.791 256.858 135.854C256.214 135.844 255.268 135.706 254.601 135.632C250.644 132.984 251.85 128.481 254.23 125.095Z" fill="#2B313D"/>
<path d="M255.437 101.985C260.893 101.617 263.691 101.419 268.605 104.353L268.831 105.255C266.931 105.717 266.111 105.089 264.02 104.449C257.867 103.429 253.717 105.896 249.502 104.873L249.756 104.176C251.607 102.784 253.187 102.575 255.437 101.985Z" fill="#2B313D"/>
<path d="M133.422 123.203C138.315 123.806 143.504 128.89 142.033 134.074C141.339 133.909 141.177 133.734 140.532 133.376C138.476 129.062 133.672 124.505 133.422 123.203Z" fill="#2B313D"/>
<path d="M229.079 420.489C229.497 441.01 238.647 436.248 254.472 436.58C254.559 439.237 254.951 454.829 255.45 456.817L255.991 455.676C256.103 457.272 256.251 458.702 256.437 460.288L257.797 461.38L260.496 523.644C260.766 530.618 261.694 547.785 261.22 554.256L259.498 554.368C252.69 554.802 195.645 555.402 191.745 554.358L189.8 554.143C188.771 517.173 188.619 482.11 186.947 444.845L188.793 444.117C190.628 439.435 203.089 437.351 207.745 436.119C217.576 433.516 221.763 426.472 229.079 420.489Z" fill="#F2E1DA"/>
<path d="M188.793 444.116C189.792 449.205 190.344 471.616 190.494 477.985C191.084 502.935 192.165 529.423 191.745 554.357L189.8 554.143C188.771 517.173 188.619 482.109 186.947 444.845L188.793 444.116Z" fill="#352735"/>
<path d="M255.449 456.817L255.991 455.676C256.103 457.272 256.25 458.702 256.437 460.288L257.796 461.38L260.496 523.644C260.766 530.618 261.694 547.785 261.22 554.256L259.498 554.368C258.331 521.844 256.982 489.325 255.449 456.817Z" fill="#1B131C"/>
<path d="M132.465 486.877C143.279 477.814 155.482 468.858 166.594 460.068C170.566 456.929 183.211 446.923 186.946 444.845C188.618 482.11 188.77 517.173 189.799 554.143C186.903 554.845 159.267 554.571 154.348 554.571C123.268 554.352 92.1867 554.475 61.1094 554.941C62.5976 545.707 63.5651 535.497 64.628 526.14C70.9451 526.788 87.781 518.169 93.8254 515.164C104.627 517.778 104.906 513.322 114.086 508.088C126.023 501.28 132.314 502.443 132.465 486.877Z" fill="#FAA4A2"/>
<path d="M214.774 212.268C219.112 213.255 222.464 213.884 226.751 212.416C227.463 213.112 229.565 215.067 230.091 215.726C231.1 216.234 233.339 217.464 234.328 217.704C248.675 223.254 287.101 237.383 297.432 245.723C302.97 250.192 306.985 256.325 309.865 262.774C312.625 268.95 319.279 287.007 318.276 293.547C316.248 292.931 298.284 293.108 294.615 293.108L238.423 293.075C232.686 270.932 226.696 235.256 213.027 217.942L214.774 212.268Z" fill="#FAA4A2"/>
<path d="M230.092 215.726C231.101 216.234 233.34 217.464 234.329 217.704C234.231 217.969 234.133 218.235 234.034 218.501C242.559 232.726 250.504 247.42 257.866 262.276C258.729 264.017 258.619 264.408 258.143 265.57L256.954 265.988C250.867 263.502 243.967 252.318 237.674 253.395C235.199 255.248 235.541 256.577 233.648 258.687L232.865 258.692L232.465 257.492C235.139 241.719 249.037 256.55 254.287 261.301C249.013 247.796 236.896 229.242 230.092 215.726Z" fill="#352735"/>
<path d="M240.797 385.232C243.434 384.499 245.065 384.231 247.717 383.818C250.539 385.34 253.101 384.284 256.486 385.115C251.257 385.222 246.027 385.259 240.797 385.232Z" fill="#D4D9E9"/>
<path d="M240.462 345.177C246.78 344.363 266.1 344.839 271.379 347.48C272.672 349.103 272.42 348.225 272.33 350.153C267.953 356.12 247.659 354.915 241.409 356.988C235.843 358.83 229.024 364.84 224.027 367.91C223.799 368.049 220.368 369.243 219.488 369.629L219.255 370.743C221.11 372.168 286.963 361.884 288.243 373.919C285.307 381.386 260.126 379.346 253.057 380.604C249.212 381.29 230.019 384.059 227.93 386.02L227.97 387.257C231.926 389.657 284.48 383.55 285.119 392.613C280.661 402.11 233.439 399.063 228.51 403.621C232.61 406.899 269.229 397.911 271.42 403.825C266.951 410.113 246.828 413.241 239.168 414.661C223.239 417.623 224.686 423.842 212.053 431.855C206.554 435.342 196.85 435.063 191.714 438.411C182.231 444.582 172.544 452.29 163.641 459.29C150.344 469.741 135.692 480.379 123.071 491.504C121.813 490.053 120.616 488.547 119.484 486.999C109.561 473.137 105.081 450.731 108.044 434.056C116.646 431.308 131.267 423.242 139.648 418.973C150.992 413.075 162.734 407.129 173.487 400.305C188.737 390.632 194.299 379.378 202.966 364.803C207.494 357.186 231.623 346.537 240.462 345.177Z" fill="#F2E1DA"/>
<path d="M230.409 272.678C231.415 273.856 235.196 290.156 235.928 292.973C235.129 292.984 234.33 293.011 233.531 293.054C217.654 293.937 223.793 315.695 224.565 327.271C220.858 333.457 218.551 340.78 214.607 347.25C212.037 352.944 204.717 357.642 201.752 362.441C196.635 370.722 191.85 378.666 186.239 386.668C185.992 384.617 185.763 382.56 185.552 380.508C183.766 350.073 176.994 308.153 178.942 278.506C195.41 286.449 219.563 292.4 230.409 272.678Z" fill="#F2E1DA"/>
<path d="M224.173 333.093C225.369 334.266 225.422 344.968 225.534 347.491L214.66 352.869L214.372 352.89L214.133 352.408C219.239 345.182 220.598 341.277 224.173 333.093Z" fill="#EBEBEB"/>
<path d="M400.237 246.175C389.688 237.901 398.469 211.881 398.19 200.735C397.944 190.983 392.27 180.865 391.445 171.057C390.39 158.472 391.66 145.969 392.436 133.407C391.349 98.0167 392.345 59.2001 427.21 39.3443C441.01 31.4853 447.165 33.4421 461.512 31.923C476.662 30.3198 483.556 27.5468 499.387 32.3054C508.847 35.192 517.478 40.3219 524.533 47.2585C551.458 73.4863 543.304 112.805 555.122 144.91C561.749 162.912 579.058 179.206 588.208 196.366C595.654 210.327 599.742 225.081 594.99 240.776L594.524 243.232C606.985 251.037 615.744 258.719 618.54 274.188C624.535 307.371 615.947 347.223 608.549 379.785C605.801 391.88 601.933 403.825 599.672 415.523C599.083 418.957 595.563 438.079 594.379 440.2C592.67 458.235 591.878 472.28 591.615 490.396L592.954 493.904C597.224 498.023 597.053 499.935 594.712 505.297C595.044 514.376 597.824 523.364 598.124 532.063C599.42 535.615 600.883 549.949 601.606 554.641C595.054 555.053 585.283 554.721 578.447 554.7L535.794 554.593C489.128 554.427 442.456 554.539 395.79 554.919C396.69 547.79 398.635 540.521 399.347 533.274C399.604 530.617 400.038 525.4 400.906 523.129L401.426 520.922C383.174 516.246 351.324 511.468 345.92 490.481C346.225 489.142 346.795 486.957 347.663 485.928C354.127 478.29 363.745 469.704 371.062 462.944C374.174 464.995 377.587 466.859 380.844 468.707C393.095 468.247 396.401 473.828 407.945 467.679C416.592 469.045 417.299 467.588 422.313 460.683L425.27 460.416L426.015 459.398C430.644 456.955 439.51 455.889 443.415 452.6C447.91 449.183 445.649 436.37 443.453 431.876C436.038 416.707 435.342 402.727 433.033 385.988L425.919 333.345C424.585 323.387 423.872 312.754 421.601 302.99C421.065 300.702 420.133 297.483 418.429 295.812C413.779 291.232 380.988 293.069 372.92 293.166C372.529 291.918 372.733 290.654 373.081 289.395C379.638 265.559 382.724 260.272 402.524 247.687L400.237 246.175Z" fill="#2B313D"/>
<path d="M400.238 246.175C389.69 237.901 398.47 211.881 398.191 200.735C397.945 190.983 392.272 180.865 391.447 171.057C390.391 158.472 391.661 145.969 392.438 133.407C391.35 98.0167 392.347 59.2001 427.211 39.3443C441.011 31.4853 447.166 33.4421 461.513 31.923C476.663 30.3198 483.557 27.5468 499.388 32.3054C508.849 35.192 517.479 40.3219 524.534 47.2585C551.459 73.4863 543.306 112.805 555.124 144.91C561.75 162.912 579.059 179.206 588.209 196.366C595.656 210.327 599.743 225.081 594.991 240.776L594.525 243.232C584.497 238.951 571.688 234.754 562.5 230.351C558.354 252.05 536.7 283.144 554.357 302.406L554.572 303.477C552.772 304.773 553.099 303.595 550.64 304.232C545.443 306.536 534.906 298.651 531.45 294.869C530.995 296.042 530.743 296.878 530.084 297.949L529.077 298.715C525.9 298.603 519.74 294.505 517.441 292.186C506.974 281.628 504.863 268.012 504.627 254.042C499.816 257.931 495.434 261.059 489.284 262.323C488.856 261.145 488.936 261.782 489.477 260.347C487.859 259.485 488.149 254.337 488.09 252.489C487.463 233.684 488.127 233.402 475.854 220.467C474.766 219.67 474.515 219.688 474.027 218.482C472.474 214.694 465.011 206.812 460.731 206.492C452.824 205.9 444.847 211.672 438.809 215.996C425.524 204.001 415.243 190.97 411.616 173.052C410.69 168.498 409.913 159.755 408.177 155.839C405.434 158.498 407.775 162.096 408.081 165.799C409.72 185.768 421.554 205.377 437.202 217.598C429.574 223.948 431.915 227.35 441.161 227.297C434.288 233.85 426.263 235.632 417.488 238.893C411.643 241.098 405.89 243.527 400.238 246.175Z" fill="#957F6E"/>
<path d="M437.845 85.162C465.247 61.0248 469.87 129.261 504.027 134.134C505.623 134.338 506.818 134.186 507.847 135.036L508.918 136.817C512.314 137.354 521.529 130.503 525.048 137.039C533.239 152.249 524.03 161.66 511.704 167.291L511.564 168.249C512.475 169.061 512.946 169.093 514.114 169.467C514.607 171.058 514.655 174.485 514.8 176.295C516.214 194.566 510.895 213.254 507.536 231.211C506.368 237.641 505.43 244.111 504.729 250.61C499.827 255.372 495.654 257.386 489.477 260.348C487.859 259.485 488.148 254.338 488.089 252.49C487.463 233.684 488.127 233.403 475.854 220.467C474.766 219.67 474.514 219.689 474.027 218.482C472.473 214.695 465.011 206.813 460.73 206.492C452.823 205.901 444.847 211.673 438.809 215.997C425.523 204.002 415.243 190.971 411.616 173.053C410.689 168.499 409.913 159.755 408.177 155.84C406.672 152.963 404.1 139.488 402.793 134.957C405.798 122.434 410.443 96.2305 420.616 88.6511C423.584 86.4411 428.159 87.0967 431.582 87.8048L432.659 86.9858C433.002 85.9665 433.066 85.9928 433.634 85.0559C435.241 84.3194 436.098 84.7474 437.845 85.162Z" fill="#F2E1DA"/>
<path d="M474.027 218.482C482.861 212.419 490.447 207.145 496.645 198.278C497.952 196.406 500.063 193.412 502.313 192.872L502.704 193.503C499.827 201.07 489.097 210.563 482.599 215.228C481.158 216.26 476.717 219.412 475.854 220.467C474.767 219.67 474.515 219.689 474.027 218.482Z" fill="#2B313D"/>
<path d="M439.43 147.01C440.035 147.143 440.742 147.417 441.342 147.624C448.333 157.094 440.656 163.854 440.072 171.138C441.171 174.405 444.224 173.657 445.488 178.148C443.346 177.633 441.337 176.668 439.596 175.318C434.544 171.44 441.503 164.906 441.562 159.324C441.615 153.879 439.772 151.828 439.43 147.01Z" fill="#2B313D"/>
<path d="M469.478 187.444L471.091 188.083L471.289 189.08C463.162 195.562 449.373 196.356 439.516 194.592L438.498 193.361L438.707 192.477C440.614 191.967 444.069 192.806 446.266 193.042C455.137 193.994 461.989 191.822 469.478 187.444Z" fill="#2B313D"/>
<path d="M467.561 125.534C470.898 125.274 477.364 125.335 480.166 127.181L480.096 127.963C478.698 129.012 470.561 127.642 467.496 127.957C463.269 128.657 460.034 130.751 456.878 130.95L456.289 130.063L456.777 128.949C459.723 126.967 464.1 126.176 467.561 125.534Z" fill="#2B313D"/>
<path d="M468.417 146.004C474.502 147.137 474.084 152.459 470.951 156.608C470.147 156.376 469.413 156.199 468.706 155.722C467.522 154.902 466.718 153.643 466.467 152.225C466.043 149.689 467.024 147.951 468.417 146.004Z" fill="#2B313D"/>
<path d="M422.266 149.18C423.439 149.318 424.055 149.329 425.014 150.069C426.176 150.957 426.9 152.299 427.007 153.758C427.2 156.363 426.364 157.599 424.837 159.532C419.496 157.662 419.137 153.363 422.266 149.18Z" fill="#2B313D"/>
<path d="M417.427 129.301C421.665 129.01 425.779 129.406 429.54 131.518L429.165 132.054C425.656 132.602 423.449 131.834 419.913 131.214C414.915 131.891 411.545 134.37 408.111 133.68L408.315 132.996C412.22 130.237 412.885 130.134 417.427 129.301Z" fill="#2B313D"/>
<path d="M519.213 143.964L520.177 144.717C520.092 146.076 516.031 151.735 514.927 153.493C514.236 153.256 514.108 153.093 513.481 152.683C512.913 149.54 517.022 145.909 519.213 143.964Z" fill="#2B313D"/>
<path d="M507.847 135.035C512.652 132.872 517.672 130.474 522.879 132.699C531.857 136.535 531.632 149.277 527.866 156.731C524.92 162.566 521.647 165.341 516.198 168.435C520.8 198.176 508.313 224.897 506.898 254.203C506.32 266.239 510.456 283.69 520.409 291.318C522.391 292.866 529.184 296.589 530.084 297.949L529.077 298.715C525.9 298.603 519.74 294.505 517.441 292.186C506.973 281.628 504.863 268.012 504.627 254.043C499.816 257.931 495.434 261.059 489.284 262.324C488.856 261.145 488.936 261.783 489.477 260.347C495.654 257.385 499.827 255.371 504.729 250.609C505.431 244.11 506.368 237.64 507.536 231.211C510.895 213.254 516.215 194.566 514.8 176.294C514.656 174.485 514.607 171.057 514.114 169.466C512.947 169.092 512.475 169.06 511.564 168.248L511.704 167.291C524.031 161.659 533.24 152.249 525.048 137.038C521.529 130.503 512.315 137.353 508.918 136.816L507.847 135.035Z" fill="#2B313D"/>
<path d="M550.435 302.652C536.377 276.165 554.474 257.267 559.868 231.882C561.958 222.039 561.642 213.117 559.895 203.377C559.649 202.02 559.504 198.883 560.409 197.745C563.999 202.332 563.345 221.646 563.126 227.863C572.811 232.688 584.629 236.068 594.99 240.776L594.524 243.232C584.495 238.951 571.686 234.754 562.499 230.351C558.352 252.05 536.699 283.144 554.356 302.406L554.57 303.477C552.77 304.773 553.097 303.595 550.638 304.232L550.435 302.652Z" fill="#2B313D"/>
<path d="M437.844 85.1615C437.657 79.7145 443.742 76.9329 448.21 77.7583C471.76 82.1131 473.426 114.929 492.835 127.25C500.008 131.802 507.198 131.263 509.341 132.685C508.066 134.419 506.062 134.123 504.026 134.133C469.869 129.261 465.246 61.0243 437.844 85.1615Z" fill="#333136"/>
<path d="M402.793 134.956C401.764 137.907 401.191 144.856 399.696 146.626L398.893 146.239C397.435 138.37 407.716 106.998 410.839 98.3059C413.41 91.147 424.639 77.7645 432.659 86.9851L431.582 87.8041C428.159 87.0959 423.584 86.4403 420.616 88.6504C410.443 96.2298 405.798 122.434 402.793 134.956Z" fill="#2E2E33"/>
<path d="M531.449 294.87C529.22 291.051 524.57 282.331 525.084 277.863L525.754 277.167L526.718 277.285C528.256 279.283 528.288 282.491 529.161 285.089C532.649 295.47 540.438 300.269 550.434 302.653L550.638 304.233C545.441 306.536 534.904 298.652 531.449 294.87Z" fill="#2B313D"/>
<path d="M452.935 44.3418C454.478 44.4312 453.878 44.1254 454.869 45.1072C454.365 46.3896 452.019 47.8337 450.765 48.6789C443.265 53.7194 439.864 60.8466 436.703 69.0104C435.701 69.2284 436.103 69.1791 435.015 68.8733C434.64 67.1121 436.108 64.3867 436.815 62.7192C440.426 54.2662 445.248 49.2001 452.935 44.3418Z" fill="#2B313D"/>
<path d="M562.499 230.352C571.686 234.754 584.495 238.951 594.524 243.232C606.985 251.038 615.744 258.719 618.54 274.188C624.535 307.371 615.947 347.223 608.549 379.785C605.801 391.88 601.933 403.825 599.672 415.523C596.276 424.078 593.179 434.807 590.185 443.704C585.669 457.357 579.995 470.598 573.224 483.282C552.947 520.429 527.313 513.054 508.697 479.694C493.719 452.858 485.078 420.028 474.851 391.06C469.804 376.753 463.735 360.588 459.904 346.088C476.522 342.686 497.849 327.619 505.135 312.112C515.356 332.702 528.749 354.096 540.513 373.92C548.206 386.872 557.742 398.688 564.481 412.32C568.649 420.746 569.431 426.675 571.67 435.556L572.351 435.958L573.261 435.476C574.858 420.467 557.581 395.576 549.235 383.02C554.008 368.033 556.949 346.061 560.463 330.324C561.449 325.915 563.629 315.283 563.854 311.094L563.056 310.242L562.081 310.532C561.181 312.085 556.992 336.264 556.231 340.099C553.611 353.597 550.745 367.037 547.628 380.428C539.206 367.824 531.39 354.829 524.195 341.487C518.86 331.791 511.06 316.981 505.06 308.036C502.954 308.448 501.786 308.855 499.697 308.448C496.413 305.443 492.385 293.648 491.426 289.25C490.579 285.356 487.772 264.718 489.283 262.324C495.433 261.06 499.815 257.931 504.626 254.043C504.861 268.012 506.972 281.628 517.44 292.186C519.738 294.505 525.899 298.603 529.076 298.715L530.083 297.949C530.742 296.878 530.994 296.042 531.449 294.869C534.904 298.651 545.442 306.536 550.638 304.232C553.097 303.595 552.77 304.773 554.57 303.477L554.356 302.406C536.699 283.144 558.353 252.05 562.499 230.352Z" fill="#D7F1EE"/>
<path d="M402.524 247.688C413.115 244.108 428.468 235.967 439.504 233.901C431.447 238.796 432.979 237.732 430.654 246.742C430.059 248.151 428.206 249.86 427.986 251.322C427.193 256.577 429.315 263.412 432.165 267.863C435.507 273.075 438.191 274.832 443.945 273.246C444.572 278.565 445.209 283.525 446.125 288.812C447.791 298.437 456.154 303.553 460.82 311.486C463.89 316.708 466.022 323.479 468.309 329.183C463.863 333.549 459.432 338.552 456.866 344.299C461.297 359.817 467.506 376.668 472.686 392.154C482.779 422.311 492.1 452.392 506.415 480.814C503.774 480.433 492.234 479.507 490.445 477.294C490.065 476.834 489.807 474.488 488.286 474.07C483.872 472.854 478.89 471.847 474.475 470.872C463.032 468.408 451.622 465.778 440.254 462.987C437.324 462.275 428.49 460.331 426.015 459.399C430.643 456.956 439.509 455.89 443.415 452.601C447.909 449.184 445.649 436.371 443.452 431.877C436.038 416.708 435.341 402.727 433.032 385.989L425.918 333.345C424.584 323.388 423.872 312.755 421.6 302.99C421.065 300.703 420.132 297.484 418.429 295.813C413.779 291.233 380.988 293.07 372.92 293.167C372.529 291.919 372.732 290.655 373.081 289.396C379.638 265.56 382.724 260.273 402.524 247.688Z" fill="#D7F1EE"/>
<path d="M422.313 460.684C439.772 466.506 468.695 471.852 487.301 476.389C478.633 492.249 471.315 512.764 475.204 530.917C453.176 528.753 431.388 526.605 409.628 522.374C407.029 521.865 404.024 521.254 401.426 520.922C383.174 516.246 351.324 511.468 345.92 490.482C346.225 489.142 346.795 486.957 347.663 485.929C354.127 478.29 363.745 469.704 371.062 462.944C374.174 464.996 377.587 466.86 380.844 468.708C393.095 468.247 396.401 473.828 407.945 467.679C416.592 469.045 417.299 467.588 422.313 460.684Z" fill="#D7F1EE"/>
<path d="M486.745 518.121C489.745 518.222 496.409 518.378 499.002 519.229C509.523 522.69 517.018 527.382 528.129 530.044C537.048 532.176 545.223 530.285 552.707 531.512C556.495 537.248 556.645 538.475 563.914 539.996C567.75 540.8 572.63 541.003 576.145 538.85C580.479 536.332 577.377 531.86 583.323 530.467C584.352 530.226 587.373 527.81 587.346 526.803C587.164 519.69 590.941 520.151 593.684 514.821C593.989 514.237 594.268 513.471 594.423 513.08C595.446 519.256 596.362 526.107 598.125 532.063C599.421 535.615 600.884 549.948 601.607 554.641C595.055 555.053 585.284 554.721 578.448 554.7L535.795 554.593C489.129 554.426 442.457 554.539 395.791 554.919C396.691 547.79 398.636 540.521 399.348 533.274C399.605 530.617 400.039 525.4 400.907 523.129C422.1 527.076 457.634 533.001 479.218 533.033C483.204 528.041 484.923 524.318 486.745 518.121Z" fill="#D7F1EE"/>
<path d="M488.143 480.079C495.563 481.782 500.363 482.436 507.842 482.875C516.327 497.177 530.711 514.451 549.702 509.598C562.436 506.347 569.701 493.931 575.952 483.373C581.54 486.635 587.433 490.46 592.956 493.904C597.226 498.023 597.054 499.935 594.713 505.297L593.363 506.095C587.845 505.335 580.688 492.056 576.301 492.126L575.749 493.122C576.89 496.234 588.124 504.735 590.684 509.486C593.749 515.185 588.242 518.913 586.897 518.292C581.904 515.983 579.445 506.192 572.358 503.669C572.122 510.616 595.94 522.524 578.545 530.033C576.665 527.023 570.879 517.301 567.627 516.819C567.108 521.324 575.926 526.568 576.295 532.738C576.863 542.107 556.393 537.404 556.109 532.031C559.051 531.089 565.115 534.329 567.488 533.504C562.592 526.953 547.131 529.021 539.84 528.914C535.822 528.866 531.82 528.357 527.915 527.398C515.899 524.479 508.436 519.074 497.545 516.401C494.888 515.753 480.542 515.774 476.652 515.673C477.745 504.606 482.695 489.865 488.143 480.079Z" fill="#F2E1DA"/>
<path d="M577.162 480.888C581.292 472.842 584.962 464.572 588.166 456.114C589.859 451.706 592.409 443.891 594.38 440.2C592.671 458.235 591.878 472.28 591.616 490.395C587.485 487.348 581.592 483.743 577.162 480.888Z" fill="#D7F1EE"/>
<path d="M458.71 208.452L460.799 208.454C464.822 210.512 484.145 232.219 484.526 235.804C486.449 253.807 485.436 275.929 490.167 293.852C491.87 300.301 496.976 309.686 499.992 315.846C493.413 326.28 483.974 332.279 473.79 338.514C471.122 330.399 468.122 322.477 465.176 314.48C461.967 305.759 453.326 300.901 449.918 292.802C446.452 284.569 447.46 273.867 444.958 265.302C443.635 260.787 440.029 257.723 435.331 259.378C437.233 261.671 441.138 262.078 442.317 265.27C443.126 267.456 444.106 271.039 441.315 272.03C434.442 270.418 427.311 255.441 431.404 249.838C434.179 246.035 451.82 252.056 455.49 248.886C454.761 245.374 437.549 248.616 433.51 244.781C431.051 231.848 459.497 243.086 462.974 240.553L462.652 239.669C458.543 237.279 445.317 236.762 439.563 235.6L439.097 234.673C440.485 221.424 464.056 234.124 470.956 231.722L470.667 230.878C468.342 229.142 466.001 228.937 463.118 228.324C461.131 225.752 458.822 221.936 456.754 219.055C452.131 220.049 437.677 228.439 435.374 223.558C437.302 217.247 452.865 210.475 458.71 208.452Z" fill="#F2E1DA"/>
<path d="M468.354 331.979C470.229 333.142 470.979 337.406 471.584 339.661C468.783 340.946 466.281 341.894 463.404 342.982C462.161 343.26 462.204 343.228 460.924 343.099L460.816 341.985C462.236 338.745 465.97 334.738 468.354 331.979Z" fill="#D7F1EE"/>
<path d="M476.458 518.04L484.199 518.179C482.86 522.106 482.179 523.761 480.299 527.451C479.511 528.662 479.474 528.699 478.424 529.696L477.524 529.385C475.992 526.701 476.399 521.216 476.458 518.04Z" fill="#D7F1EE"/>
<path d="M454.403 222.181L455.983 222.689C457.22 223.994 458.313 224.756 458.447 226.471L457.724 227.134L455.431 226.808C453.562 226.592 450.524 226.661 449.635 224.98C450.781 223.496 452.635 222.949 454.403 222.181Z" fill="#EBEBEB"/>
</svg>
