<svg width="184" height="184" viewBox="0 0 184 184" fill="none" xmlns="http://www.w3.org/2000/svg">
<path d="M70.5493 53.7767L68.8785 51.7306L66.5454 53.2026C66.5454 53.2026 67.6126 54.3434 68.908 55.9368L70.5493 53.7767Z" fill="#B55B52"/>
<path d="M91.3809 53.9416C91.2853 54.1477 91.219 54.2728 91.1381 54.431L90.9062 54.8726C90.748 55.1633 90.5934 55.4504 90.4278 55.7337C90.104 56.298 89.7642 56.8525 89.4085 57.3971C88.6932 58.5123 87.9039 59.5782 87.0459 60.5877C86.1366 61.665 85.1124 62.6398 83.9915 63.4949C83.3713 63.9531 82.7112 64.3547 82.019 64.6945L81.4633 64.9411L80.8782 65.1582C80.6832 65.2281 80.4734 65.2797 80.2673 65.3385L80.1128 65.3827L79.892 65.4305C79.7301 65.4637 79.5718 65.4857 79.4172 65.5041C78.8542 65.5593 78.286 65.5295 77.7318 65.4158C77.2776 65.3266 76.8328 65.1948 76.4033 65.0221C75.6871 64.7288 75.0017 64.3651 74.3572 63.9365C73.242 63.1844 72.192 62.34 71.2182 61.412C70.2724 60.5325 69.3966 59.6235 68.5576 58.6961C68.1381 58.2288 67.7222 57.7651 67.3174 57.2867C66.9126 56.8083 66.5262 56.3483 66.1067 55.8147L70.1768 52.6573C70.4932 53.0584 70.8723 53.5184 71.2366 53.9416C71.6009 54.3648 71.9726 54.799 72.3627 55.2148C73.1355 56.0428 73.9267 56.8414 74.74 57.5737C75.5063 58.2773 76.3325 58.9126 77.2092 59.4726C77.558 59.6958 77.9278 59.8844 78.3132 60.0357C78.6297 60.1571 78.8652 60.1534 78.7953 60.135H78.7585L78.8211 60.1166C78.9021 60.0835 78.9793 60.0651 79.064 60.032L79.3105 59.9253L79.5681 59.7965C79.936 59.5926 80.2857 59.3574 80.6132 59.0936C81.3654 58.4678 82.0432 57.7578 82.6336 56.9776C83.2792 56.1373 83.8657 55.2532 84.3889 54.3317C84.6588 53.8606 84.9127 53.3822 85.1507 52.8965C85.2721 52.6573 85.3899 52.4144 85.5187 52.1605L85.6806 51.7925C85.7285 51.6821 85.791 51.5385 85.8168 51.4723L91.3809 53.9416Z" fill="#6638B6"/>
<path opacity="0.8" d="M91.3809 53.9416C91.2853 54.1477 91.219 54.2728 91.1381 54.431L90.9062 54.8726C90.748 55.1633 90.5934 55.4504 90.4278 55.7337C90.104 56.298 89.7642 56.8525 89.4085 57.3971C88.6932 58.5123 87.9039 59.5782 87.0459 60.5877C86.1366 61.665 85.1124 62.6398 83.9915 63.4949C83.3713 63.9531 82.7112 64.3547 82.019 64.6945L81.4633 64.9411L80.8782 65.1582C80.6832 65.2281 80.4734 65.2797 80.2673 65.3385L80.1128 65.3827L79.892 65.4305C79.7301 65.4637 79.5718 65.4857 79.4172 65.5041C78.8542 65.5593 78.286 65.5295 77.7318 65.4158C77.2776 65.3266 76.8328 65.1948 76.4033 65.0221C75.6871 64.7288 75.0017 64.3651 74.3572 63.9365C73.242 63.1844 72.192 62.34 71.2182 61.412C70.2724 60.5325 69.3966 59.6235 68.5576 58.6961C68.1381 58.2288 67.7222 57.7651 67.3174 57.2867C66.9126 56.8083 66.5262 56.3483 66.1067 55.8147L70.1768 52.6573C70.4932 53.0584 70.8723 53.5184 71.2366 53.9416C71.6009 54.3648 71.9726 54.799 72.3627 55.2148C73.1355 56.0428 73.9267 56.8414 74.74 57.5737C75.5063 58.2773 76.3325 58.9126 77.2092 59.4726C77.558 59.6958 77.9278 59.8844 78.3132 60.0357C78.6297 60.1571 78.8652 60.1534 78.7953 60.135H78.7585L78.8211 60.1166C78.9021 60.0835 78.9793 60.0651 79.064 60.032L79.3105 59.9253L79.5681 59.7965C79.936 59.5926 80.2857 59.3574 80.6132 59.0936C81.3654 58.4678 82.0432 57.7578 82.6336 56.9776C83.2792 56.1373 83.8657 55.2532 84.3889 54.3317C84.6588 53.8606 84.9127 53.3822 85.1507 52.8965C85.2721 52.6573 85.3899 52.4144 85.5187 52.1605L85.6806 51.7925C85.7285 51.6821 85.791 51.5385 85.8168 51.4723L91.3809 53.9416Z" fill="white"/>
<path d="M90.5642 112.755H102.443L97.9389 90.241H92.1208L90.5642 112.755Z" fill="#6638B6"/>
<path opacity="0.6" d="M90.5642 112.755H102.443L97.9389 90.241H92.1208L90.5642 112.755Z" fill="white"/>
<path d="M93.1103 149.814H90.0817L89.9529 142.803H92.9815L93.1103 149.814Z" fill="#B55B52"/>
<path d="M109.881 149.814H106.853L105.502 142.803H108.531L109.881 149.814Z" fill="#B55B52"/>
<path d="M106.648 149.463H110.033C110.093 149.463 110.151 149.483 110.197 149.521C110.244 149.558 110.275 149.611 110.287 149.669L110.817 152.359C110.829 152.425 110.826 152.494 110.809 152.559C110.791 152.624 110.76 152.684 110.716 152.736C110.672 152.787 110.618 152.828 110.557 152.856C110.495 152.884 110.428 152.897 110.361 152.896C109.176 152.878 108.602 152.808 107.104 152.808C106.184 152.808 104.285 152.904 103.016 152.904C101.746 152.904 101.61 151.649 102.132 151.535C104.477 151.023 105.375 150.32 106.136 149.647C106.279 149.526 106.461 149.461 106.648 149.463Z" fill="#263238"/>
<path d="M90.1121 149.463H93.4241C93.4833 149.463 93.5407 149.483 93.5864 149.521C93.632 149.558 93.6632 149.611 93.6743 149.669L94.2079 152.352C94.2204 152.418 94.2181 152.486 94.2013 152.551C94.1845 152.616 94.1535 152.676 94.1107 152.728C94.0678 152.779 94.014 152.821 93.9532 152.849C93.8924 152.878 93.8261 152.893 93.759 152.893C92.5666 152.871 90.8444 152.801 89.343 152.801C87.5913 152.801 87.4478 152.896 85.3943 152.896C84.1505 152.896 83.8377 151.641 84.3602 151.527C86.7412 151.008 87.3042 150.953 89.3798 149.687C89.5989 149.547 89.8521 149.47 90.1121 149.463Z" fill="#263238"/>
<path d="M67.7479 51.0307L65.7901 51.0012L65.4221 53.5257C66.6686 53.7535 67.9541 53.626 69.1316 53.1577L69.0984 52.3371C69.0834 51.9878 68.9349 51.6576 68.6836 51.4146C68.4324 51.1715 68.0975 51.0341 67.7479 51.0307Z" fill="#B55B52"/>
<path d="M62.728 51.119L63.1071 52.7124L65.4144 53.5257L65.7898 51.0012L62.728 51.119Z" fill="#B55B52"/>
<path opacity="0.2" d="M89.9529 142.807L90.0191 146.42H93.0478L92.9815 142.807H89.9529Z" fill="black"/>
<path opacity="0.2" d="M108.531 142.807H105.502L106.201 146.42H109.23L108.531 142.807Z" fill="black"/>
<path d="M86.3802 52.0613C85.5412 55.2703 84.036 63.3663 85.681 76.2426H101.873C102.031 73.9868 101.001 63.7821 102.822 53.158C102.899 52.7254 102.886 52.2818 102.785 51.8544C102.684 51.4269 102.496 51.0248 102.233 50.6728C101.97 50.3207 101.638 50.0262 101.257 49.8074C100.876 49.5887 100.455 49.4502 100.018 49.4007C99.389 49.3308 98.7229 49.2719 98.0642 49.2388C95.8011 49.1759 93.5362 49.2496 91.282 49.4596C90.3204 49.5514 89.3687 49.7262 88.4373 49.9821C87.9416 50.1167 87.4903 50.3799 87.1291 50.745C86.7678 51.1101 86.5095 51.5642 86.3802 52.0613Z" fill="white"/>
<path d="M97.3205 42.8021C96.8311 45.0101 96.5477 47.7591 98.0565 49.2384C98.0565 49.2384 97.1108 51.4832 92.9965 51.4832C89.2356 51.4832 91.1565 49.2384 91.1565 49.2384C93.6405 48.6496 93.589 45.5952 93.1989 43.873L97.3205 42.8021Z" fill="#B55B52"/>
<path d="M92.8082 51.1784L91.9176 52.1609C91.8861 52.1949 91.8643 52.2368 91.8546 52.2821C91.8449 52.3275 91.8476 52.3746 91.8624 52.4185L92.1458 53.287C92.1615 53.3357 92.1919 53.3784 92.2327 53.4093C92.2735 53.4403 92.3228 53.4579 92.3739 53.46L93.3344 53.5078C93.3799 53.5097 93.4252 53.4999 93.4658 53.4793C93.5064 53.4587 93.541 53.4279 93.5663 53.39L94.1403 52.5473C94.175 52.5018 94.1937 52.4462 94.1937 52.3891C94.1937 52.3319 94.175 52.2763 94.1403 52.2308L93.213 51.1747C93.1886 51.1443 93.1576 51.1198 93.1224 51.1031C93.0872 51.0864 93.0487 51.0779 93.0097 51.0783C92.9707 51.0786 92.9323 51.0878 92.8974 51.1051C92.8625 51.1225 92.832 51.1475 92.8082 51.1784Z" fill="#6638B6"/>
<path d="M92.5842 53.4524C92.5842 53.4524 91.1122 64.2863 91.0791 66.1742C91.0985 67.957 91.3787 69.7275 91.9108 71.4292C91.9108 71.4292 92.9228 69.5156 93.0957 66.0932C93.2687 62.6708 93.0589 55.3734 93.1362 53.4524H92.5842Z" fill="#6638B6"/>
<path opacity="0.2" d="M93.2205 43.8767C93.4523 44.885 93.5627 46.3496 93.1138 47.5125C93.4082 47.6413 94.6226 47.174 95.1267 46.8538C96.2491 46.1399 96.6834 45.4407 97.0955 43.9503C97.1618 43.5565 97.2354 43.1738 97.32 42.8021L93.2205 43.8767Z" fill="black"/>
<path d="M89.3792 41.7238C89.5148 42.0681 89.7178 42.3818 89.9762 42.6466C90.2347 42.9114 90.5434 43.1219 90.8844 43.2657C91.8007 43.6337 92.3932 42.8315 92.246 41.8931C92.1172 41.0504 91.4805 39.836 90.509 39.8617C90.2949 39.8738 90.087 39.9379 89.9032 40.0483C89.7195 40.1587 89.5653 40.3122 89.4541 40.4955C89.3429 40.6788 89.2779 40.8864 89.2649 41.1004C89.2519 41.3144 89.2911 41.5284 89.3792 41.7238Z" fill="#B55B52"/>
<path opacity="0.2" d="M89.3792 41.7238C89.5148 42.0681 89.7178 42.3818 89.9762 42.6466C90.2347 42.9114 90.5434 43.1219 90.8844 43.2657C91.8007 43.6337 92.3932 42.8315 92.246 41.8931C92.1172 41.0504 91.4805 39.836 90.509 39.8617C90.2949 39.8738 90.087 39.9379 89.9032 40.0483C89.7195 40.1587 89.5653 40.3122 89.4541 40.4955C89.3429 40.6788 89.2779 40.8864 89.2649 41.1004C89.2519 41.3144 89.2911 41.5284 89.3792 41.7238Z" fill="black"/>
<path d="M93.1036 38.4085C92.9306 39.7038 92.121 40.668 91.2967 40.5576C90.4724 40.4472 89.9461 39.3064 90.1228 38.0074C90.2994 36.7083 91.1053 35.7442 91.9296 35.8546C92.754 35.965 93.2876 37.1094 93.1036 38.4085Z" fill="#263238"/>
<path d="M98.7692 39.9316C98.0332 42.8756 97.7461 44.6272 95.9761 45.9005C93.3191 47.8178 89.9519 45.8453 89.8121 42.7615C89.6833 39.9868 90.9161 35.6444 94.0073 34.9452C94.6851 34.7884 95.392 34.8107 96.0585 35.01C96.7251 35.2093 97.3282 35.5787 97.8087 36.0818C98.2892 36.5849 98.6304 37.2045 98.7988 37.8795C98.9672 38.5545 98.957 39.2617 98.7692 39.9316Z" fill="#B55B52"/>
<path d="M93.8836 33.9192C92.1209 34.2872 90.1705 35.726 91.8523 36.7748C93.534 37.8236 97.3208 37.9856 97.3208 37.9856C97.3208 37.9856 96.0696 40.9296 97.7808 42.4494C98.3512 42.166 97.1331 44.7347 97.1331 44.7347C97.7598 44.5188 98.2843 44.0783 98.6051 43.4982C99.6281 43.2369 102.653 38.3462 100.636 36.9625C100.254 34.1105 96.2499 33.4076 93.8836 33.9192Z" fill="#263238"/>
<path d="M98.1369 41.7055H98.0964L95.4468 40.4911C95.4336 40.4874 95.4214 40.4808 95.411 40.4719C95.4006 40.463 95.3922 40.452 95.3864 40.4396C95.3806 40.4271 95.3776 40.4136 95.3774 40.3999C95.3773 40.3862 95.3802 40.3726 95.3858 40.3601C95.3914 40.3476 95.3996 40.3364 95.4099 40.3274C95.4201 40.3183 95.4322 40.3116 95.4454 40.3076C95.4585 40.3036 95.4723 40.3025 95.4859 40.3043C95.4995 40.3062 95.5125 40.3109 95.5241 40.3182L98.1774 41.5326C98.2002 41.543 98.2179 41.562 98.2269 41.5854C98.2358 41.6088 98.2352 41.6347 98.2252 41.6577C98.2164 41.6731 98.2034 41.6857 98.1878 41.6941C98.1723 41.7026 98.1546 41.7065 98.1369 41.7055Z" fill="white"/>
<path d="M99.4808 43.4243C98.9719 43.9879 98.2626 44.33 97.5047 44.3774C96.5074 44.4289 96.2498 43.4758 96.7282 42.6441C97.1588 41.9081 98.2002 40.966 99.0981 41.3083C99.9961 41.6505 100.095 42.7287 99.4808 43.4243Z" fill="#B55B52"/>
<path d="M85.6789 76.2423C85.6789 76.2423 84.7073 98.8743 84.8104 108.107C84.9171 117.709 88.9099 145.717 88.9099 145.717H94.0361C94.0361 145.717 93.5761 118.268 94.0361 108.84C94.5366 98.5578 96.3251 76.2423 96.3251 76.2423H85.6789Z" fill="#6638B6"/>
<path d="M94.278 143.454C94.3037 143.454 94.3736 145.824 94.3736 145.824H88.4636L88.125 143.248L94.278 143.454Z" fill="#263238"/>
<path opacity="0.2" d="M92.6185 82.2335C92.4419 93.4649 92.9497 100.288 94.2046 105.786C94.5137 100.427 95.0179 93.3434 95.4632 87.4591L92.6185 82.2335Z" fill="black"/>
<path d="M91.4243 76.2423C91.4243 76.2423 94.2947 99.3748 95.9654 108.041C97.8054 117.532 104.797 145.717 104.797 145.717H110.343C110.343 145.717 105.968 118.301 105.018 108.917C103.992 98.7198 101.864 76.257 101.864 76.257L91.4243 76.2423Z" fill="#6638B6"/>
<path d="M110.213 143.579C110.239 143.579 110.625 145.824 110.625 145.824H104.531L103.861 143.351L110.213 143.579Z" fill="#263238"/>
<path d="M94.1679 40.0093C94.1201 40.2522 93.9582 40.4251 93.7999 40.3994C93.6417 40.3736 93.5534 40.1565 93.5975 39.9136C93.6417 39.6707 93.8073 39.4978 93.9655 39.5235C94.1238 39.5493 94.2084 39.7664 94.1679 40.0093Z" fill="#263238"/>
<path d="M91.1967 39.3103C91.1526 39.5532 90.987 39.7262 90.8287 39.7004C90.6705 39.6746 90.5822 39.4575 90.6263 39.2146C90.6705 38.9718 90.8361 38.7988 90.9943 38.8246C91.1526 38.8503 91.2409 39.0674 91.1967 39.3103Z" fill="#263238"/>
<path d="M92.433 39.9171C91.9293 40.5531 91.3426 41.1187 90.6887 41.5989C90.8125 41.76 90.9704 41.8918 91.1511 41.9847C91.3318 42.0776 91.5308 42.1293 91.7338 42.1362L92.433 39.9171Z" fill="#A02724"/>
<path d="M92.4399 42.8908C92.4217 42.8864 92.4058 42.8751 92.3955 42.8594C92.3852 42.8437 92.3814 42.8246 92.3847 42.8061C92.3883 42.7872 92.3992 42.7704 92.415 42.7594C92.4308 42.7484 92.4503 42.744 92.4694 42.7472C92.7682 42.802 93.0756 42.7867 93.3674 42.7024C93.6593 42.6181 93.9276 42.4671 94.1511 42.2615C94.1638 42.2478 94.1814 42.2398 94.2 42.2391C94.2187 42.2384 94.2368 42.2451 94.2505 42.2578C94.2641 42.2705 94.2722 42.2881 94.2729 42.3067C94.2736 42.3254 94.2668 42.3435 94.2542 42.3572C94.0158 42.5837 93.7269 42.7502 93.4115 42.843C93.096 42.9358 92.763 42.9522 92.4399 42.8908Z" fill="#263238"/>
<path d="M95.6067 39.2214C95.585 39.2162 95.565 39.2057 95.5483 39.191C95.5316 39.1762 95.5188 39.1576 95.511 39.1367C95.4527 38.9705 95.3555 38.8206 95.2274 38.6996C95.0994 38.5786 94.9443 38.49 94.775 38.4412C94.738 38.4332 94.7056 38.411 94.6849 38.3793C94.6643 38.3476 94.6569 38.309 94.6646 38.2719C94.6726 38.2347 94.6947 38.202 94.7262 38.1808C94.7578 38.1595 94.7964 38.1513 94.8339 38.1578C95.0533 38.2118 95.256 38.3194 95.4236 38.471C95.5912 38.6225 95.7186 38.8134 95.7943 39.0263C95.8066 39.0625 95.8047 39.102 95.789 39.1368C95.7733 39.1717 95.7449 39.1993 95.7097 39.214C95.6774 39.2288 95.6408 39.2314 95.6067 39.2214Z" fill="#263238"/>
<path d="M90.4361 38.1508C90.4153 38.1464 90.3962 38.1362 90.3809 38.1214C90.355 38.0941 90.3406 38.0578 90.3406 38.0202C90.3406 37.9825 90.355 37.9463 90.3809 37.919C90.5233 37.7397 90.7055 37.5962 90.9132 37.4997C91.1208 37.4033 91.348 37.3566 91.5769 37.3633C91.5953 37.3656 91.6131 37.3715 91.6292 37.3807C91.6453 37.3899 91.6595 37.4022 91.6708 37.417C91.6821 37.4317 91.6903 37.4485 91.6951 37.4665C91.6998 37.4844 91.7009 37.5032 91.6983 37.5216C91.6965 37.5404 91.6909 37.5588 91.682 37.5755C91.673 37.5922 91.6608 37.607 91.6461 37.619C91.6314 37.6309 91.6144 37.6399 91.5962 37.6453C91.578 37.6507 91.5589 37.6524 91.5401 37.6504C91.3591 37.6465 91.1797 37.6854 91.0166 37.7641C90.8535 37.8428 90.7113 37.9589 90.6017 38.103C90.5823 38.1269 90.556 38.1443 90.5264 38.1529C90.4968 38.1614 90.4653 38.1607 90.4361 38.1508Z" fill="#263238"/>
<path d="M94.1127 41.7316C94.0399 41.7308 93.9673 41.7247 93.8955 41.7132C93.7231 41.6804 93.5588 41.6138 93.4123 41.5171C93.2658 41.4205 93.1398 41.2958 93.0418 41.1502C92.9163 40.9629 92.829 40.7528 92.7848 40.5318C92.7406 40.3108 92.7404 40.0832 92.7842 39.8622C92.834 39.4596 93.0395 39.0925 93.3565 38.8394C93.6735 38.5863 94.077 38.4673 94.4806 38.5079C94.8285 38.5753 95.1355 38.7777 95.3344 39.071C95.5863 39.4497 95.6789 39.9124 95.592 40.359C95.5418 40.7233 95.367 41.0591 95.0973 41.3093C94.8277 41.5595 94.4798 41.7087 94.1127 41.7316ZM94.2599 38.6809C93.938 38.7036 93.634 38.837 93.3992 39.0583C93.1645 39.2797 93.0135 39.5753 92.9718 39.8953C92.8929 40.2926 92.9736 40.7051 93.1963 41.0434C93.2811 41.1684 93.3898 41.2753 93.5162 41.358C93.6425 41.4408 93.7839 41.4977 93.9323 41.5255C94.2858 41.5576 94.6378 41.45 94.9129 41.2258C95.188 41.0015 95.3644 40.6785 95.4043 40.3258C95.4822 39.928 95.4002 39.5155 95.1762 39.1777C95.0917 39.0525 94.9831 38.9453 94.8567 38.8626C94.7303 38.7798 94.5887 38.723 94.4402 38.6956C94.3806 38.6856 94.3203 38.6807 94.2599 38.6809Z" fill="white"/>
<path d="M92.875 39.9728C92.8598 39.9726 92.8449 39.9689 92.8315 39.9618C92.818 39.9548 92.8065 39.9447 92.7977 39.9323C92.738 39.8116 92.6361 39.7169 92.5114 39.6661C92.3867 39.6153 92.2477 39.6118 92.1206 39.6563C92.0971 39.6651 92.0711 39.6647 92.0479 39.6551C92.0247 39.6456 92.006 39.6276 91.9955 39.6048C91.9855 39.5818 91.9849 39.5558 91.9939 39.5324C92.0028 39.509 92.0206 39.4901 92.0433 39.4796C92.2118 39.4198 92.396 39.4218 92.5631 39.4851C92.7303 39.5485 92.8695 39.6691 92.956 39.8256C92.9628 39.8362 92.9674 39.848 92.9696 39.8605C92.9718 39.8729 92.9715 39.8856 92.9688 39.8979C92.9661 39.9102 92.9609 39.9219 92.9537 39.9322C92.9464 39.9425 92.9372 39.9513 92.9265 39.958C92.9114 39.9684 92.8933 39.9736 92.875 39.9728Z" fill="white"/>
<path d="M90.6999 40.9551C90.626 40.9545 90.5521 40.9484 90.4791 40.9367C90.3067 40.9039 90.1424 40.8373 89.9959 40.7406C89.8493 40.644 89.7234 40.5193 89.6254 40.3737C89.3735 39.9949 89.2809 39.5322 89.3678 39.0857C89.4176 38.6834 89.6232 38.3166 89.9403 38.0641C90.2575 37.8116 90.661 37.6935 91.0642 37.7351C91.2367 37.7665 91.4012 37.8321 91.5478 37.9282C91.6945 38.0243 91.8204 38.1488 91.918 38.2945C92.1701 38.6745 92.2626 39.1385 92.1756 39.5861C92.1254 39.9496 91.951 40.2844 91.682 40.5339C91.413 40.7834 91.0661 40.9322 90.6999 40.9551ZM90.8434 37.9044C90.5216 37.9272 90.2176 38.0605 89.9828 38.2818C89.7481 38.5032 89.5971 38.7989 89.5554 39.1188C89.5161 39.3158 89.516 39.5186 89.5551 39.7156C89.5943 39.9126 89.6719 40.1 89.7836 40.2669C89.8681 40.3922 89.9767 40.4993 90.1031 40.5821C90.2295 40.6648 90.371 40.7216 90.5196 40.749C90.8731 40.7811 91.225 40.6735 91.5002 40.4493C91.7753 40.2251 91.9517 39.902 91.9916 39.5494C92.0706 39.1515 91.9886 38.7386 91.7634 38.4012C91.5916 38.1494 91.3269 37.9761 91.0274 37.9191C90.9666 37.9089 90.9051 37.904 90.8434 37.9044Z" fill="white"/>
<path d="M105.617 149.99C105.413 150.006 105.209 149.953 105.039 149.839C104.988 149.793 104.949 149.736 104.925 149.672C104.9 149.608 104.892 149.539 104.899 149.471C104.901 149.429 104.914 149.387 104.937 149.351C104.959 149.315 104.991 149.285 105.028 149.265C105.363 149.096 106.327 149.696 106.438 149.762C106.45 149.769 106.459 149.781 106.465 149.794C106.47 149.807 106.471 149.822 106.467 149.835C106.465 149.85 106.459 149.863 106.449 149.874C106.439 149.884 106.426 149.891 106.412 149.894C106.151 149.956 105.885 149.988 105.617 149.99ZM105.183 149.364C105.151 149.364 105.12 149.37 105.091 149.383C105.076 149.391 105.063 149.403 105.055 149.418C105.046 149.433 105.042 149.45 105.043 149.467C105.035 149.515 105.04 149.564 105.056 149.61C105.072 149.655 105.099 149.696 105.135 149.729C105.297 149.869 105.691 149.887 106.209 149.784C105.903 149.58 105.559 149.437 105.197 149.364H105.183Z" fill="#6638B6"/>
<path d="M106.409 149.887C106.398 149.89 106.387 149.89 106.376 149.887C106.067 149.717 105.474 149.055 105.548 148.716C105.56 148.664 105.59 148.617 105.632 148.583C105.674 148.549 105.726 148.53 105.78 148.529C105.834 148.522 105.89 148.526 105.942 148.542C105.995 148.558 106.044 148.585 106.085 148.621C106.428 148.908 106.479 149.78 106.483 149.82C106.481 149.84 106.472 149.857 106.459 149.871C106.446 149.885 106.428 149.895 106.409 149.898V149.887ZM105.828 148.672H105.795C105.703 148.672 105.692 148.724 105.688 148.742C105.647 148.941 106.019 149.445 106.324 149.681C106.312 149.338 106.195 149.006 105.99 148.731C105.944 148.693 105.887 148.672 105.828 148.672Z" fill="#6638B6"/>
<path d="M88.8408 149.993C88.5811 150.018 88.321 149.952 88.1048 149.806C88.0562 149.763 88.0193 149.708 87.9974 149.647C87.9756 149.586 87.9695 149.52 87.9796 149.456C87.9821 149.417 87.9945 149.379 88.0158 149.346C88.0371 149.314 88.0664 149.287 88.1011 149.268C88.4691 149.059 89.6761 149.677 89.8123 149.751C89.8259 149.757 89.8371 149.768 89.8441 149.781C89.8511 149.795 89.8535 149.81 89.851 149.825C89.8485 149.84 89.8412 149.854 89.8303 149.864C89.8193 149.875 89.8052 149.881 89.7902 149.883C89.4778 149.949 89.16 149.986 88.8408 149.993ZM88.3182 149.364C88.2715 149.363 88.2252 149.372 88.182 149.39C88.1685 149.398 88.1573 149.409 88.1495 149.423C88.1418 149.436 88.1377 149.452 88.1379 149.467C88.1303 149.509 88.1338 149.553 88.148 149.594C88.1621 149.634 88.1866 149.671 88.2188 149.699C88.3992 149.865 88.896 149.894 89.5694 149.78C89.1789 149.571 88.7558 149.431 88.3182 149.364Z" fill="#6638B6"/>
<path d="M89.7912 149.887H89.7617C89.3937 149.721 88.6945 149.07 88.7571 148.724C88.7571 148.646 88.8307 148.543 89.0294 148.525C89.0999 148.516 89.1714 148.523 89.2393 148.544C89.3071 148.565 89.3698 148.6 89.4232 148.646C89.7912 148.963 89.8611 149.78 89.8648 149.813C89.8651 149.826 89.8626 149.838 89.8575 149.849C89.8524 149.861 89.8449 149.871 89.8353 149.879C89.8213 149.885 89.8063 149.887 89.7912 149.887ZM89.0736 148.672H89.0294C88.9006 148.672 88.8896 148.735 88.8859 148.753C88.8491 148.956 89.3275 149.471 89.6955 149.695C89.6726 149.353 89.544 149.026 89.3275 148.76C89.257 148.7 89.1663 148.669 89.0736 148.672Z" fill="#6638B6"/>
<path d="M98.2544 49.036L101.75 49.4555C102.33 49.5244 102.863 49.8084 103.243 50.2514C103.623 50.6944 103.824 51.264 103.804 51.8475C103.627 57.2976 102.906 64.7864 103.484 76.2422C103.774 82.0198 107.811 113.392 107.811 113.392L99.8588 114.787C96.0614 102.731 93.4003 90.3466 91.91 77.7952C91.3319 72.3405 91.3122 66.8411 91.8512 61.3824L98.2544 49.036Z" fill="#6638B6"/>
<path opacity="0.8" d="M98.2544 49.036L101.75 49.4555C102.33 49.5244 102.863 49.8084 103.243 50.2514C103.623 50.6944 103.824 51.264 103.804 51.8475C103.627 57.2976 102.906 64.7864 103.484 76.2422C103.774 82.0198 107.811 113.392 107.811 113.392L99.8588 114.787C96.0614 102.731 93.4003 90.3466 91.91 77.7952C91.3319 72.3405 91.3122 66.8411 91.8512 61.3824L98.2544 49.036Z" fill="white"/>
<path opacity="0.2" d="M101.111 55.9915C101.111 56.8084 101.736 60.9668 103.285 63.8372C103.33 61.8795 103.4 60.091 103.481 58.4497L101.111 55.9915Z" fill="#6638B6"/>
<path opacity="0.2" d="M86.0627 55.2628C85.6137 56.1203 84.3184 59.7561 83.6597 63.7268C83.9614 63.5171 84.2485 63.2999 84.5245 63.0791C85.5418 62.2344 86.4759 61.2942 87.3139 60.2713L87.4758 60.0726L86.0627 55.2628Z" fill="#6638B6"/>
<path d="M90.8702 49.3932L88.8057 49.6434C87.8162 49.7652 86.9023 50.2354 86.228 50.9697C85.5536 51.7041 85.1629 52.6546 85.1257 53.6509C84.8902 59.7671 84.4118 71.9847 84.1505 76.2425C83.7825 82.0164 84.0438 113.392 84.0438 113.392L89.0008 114.261C89.0008 114.261 90.2593 96.9866 91.9264 77.7954C92.354 72.0994 92.4559 66.3837 92.2318 60.6761L90.8702 49.3932Z" fill="#6638B6"/>
<path opacity="0.8" d="M90.8702 49.3932L88.8057 49.6434C87.8162 49.7652 86.9023 50.2354 86.228 50.9697C85.5536 51.7041 85.1629 52.6546 85.1257 53.6509C84.8902 59.7671 84.4118 71.9847 84.1505 76.2425C83.7825 82.0164 84.0438 113.392 84.0438 113.392L89.0008 114.261C89.0008 114.261 90.2593 96.9866 91.9264 77.7954C92.354 72.0994 92.4559 66.3837 92.2318 60.6761L90.8702 49.3932Z" fill="white"/>
<path d="M93.0034 51.0901C93.4648 51.8305 93.8355 52.6238 94.1074 53.4527C94.1074 53.4527 98.9393 51.793 98.7663 49.1324C98.7663 49.1324 98.0303 48.6981 97.5887 48.3448C97.585 48.3448 97.3679 50.0229 93.0034 51.0901Z" fill="#F5F5F5"/>
<path d="M93.0041 51.09C92.4534 51.7263 91.9917 52.4345 91.6315 53.195C91.0373 52.7482 90.5995 52.1251 90.3807 51.4146C90.1619 50.7041 90.1734 49.9426 90.4134 49.239C90.8447 49.065 91.2888 48.9247 91.7419 48.8195C91.7419 48.8195 91.3923 50.5196 93.0041 51.09Z" fill="#F5F5F5"/>
<path opacity="0.2" d="M98.0232 77.8503L103.562 82.6086L99.7786 80.7575L98.0232 77.8503Z" fill="#6638B6"/>
<path d="M103.583 50.8505C103.818 51.178 103.995 51.4356 104.194 51.7263L104.757 52.5764C105.125 53.1456 105.482 53.7209 105.828 54.3023C106.523 55.4689 107.178 56.6612 107.782 57.9087C108.405 59.1848 108.935 60.5045 109.368 61.8573C109.598 62.5805 109.78 63.3181 109.913 64.0653C110.053 64.8745 110.116 65.6952 110.1 66.5162C110.032 68.0656 109.733 69.5961 109.213 71.0573C108.743 72.4021 108.162 73.7056 107.476 74.9545C106.824 76.1621 106.105 77.3329 105.324 78.4615C104.941 79.0233 104.546 79.5753 104.139 80.1175C103.936 80.3898 103.726 80.6621 103.513 80.9308C103.3 81.1994 103.097 81.4497 102.832 81.7588L98.9425 78.3842C99.0897 78.2076 99.3105 77.9573 99.4724 77.7292L100.017 77.0226C100.385 76.5442 100.724 76.0585 101.058 75.5506C101.719 74.5693 102.325 73.5521 102.873 72.5036C103.398 71.5011 103.838 70.4559 104.186 69.3793C104.508 68.4301 104.683 67.4373 104.705 66.4353C104.661 65.4591 104.461 64.4962 104.113 63.5833C103.727 62.5156 103.258 61.4797 102.711 60.4847C102.151 59.4543 101.53 58.4313 100.871 57.434C100.536 56.9372 100.19 56.4441 99.8367 55.962L99.2994 55.2444C99.1228 55.0162 98.9314 54.7586 98.7732 54.5783L103.583 50.8505Z" fill="#6638B6"/>
<path opacity="0.8" d="M103.583 50.8505C103.818 51.178 103.995 51.4356 104.194 51.7263L104.757 52.5764C105.125 53.1456 105.482 53.7209 105.828 54.3023C106.523 55.4689 107.178 56.6612 107.782 57.9087C108.405 59.1848 108.935 60.5045 109.368 61.8573C109.598 62.5805 109.78 63.3181 109.913 64.0653C110.053 64.8745 110.116 65.6952 110.1 66.5162C110.032 68.0656 109.733 69.5961 109.213 71.0573C108.743 72.4021 108.162 73.7056 107.476 74.9545C106.824 76.1621 106.105 77.3329 105.324 78.4615C104.941 79.0233 104.546 79.5753 104.139 80.1175C103.936 80.3898 103.726 80.6621 103.513 80.9308C103.3 81.1994 103.097 81.4497 102.832 81.7588L98.9425 78.3842C99.0897 78.2076 99.3105 77.9573 99.4724 77.7292L100.017 77.0226C100.385 76.5442 100.724 76.0585 101.058 75.5506C101.719 74.5693 102.325 73.5521 102.873 72.5036C103.398 71.5011 103.838 70.4559 104.186 69.3793C104.508 68.4301 104.683 67.4373 104.705 66.4353C104.661 65.4591 104.461 64.4962 104.113 63.5833C103.727 62.5156 103.258 61.4797 102.711 60.4847C102.151 59.4543 101.53 58.4313 100.871 57.434C100.536 56.9372 100.19 56.4441 99.8367 55.962L99.2994 55.2444C99.1228 55.0162 98.9314 54.7586 98.7732 54.5783L103.583 50.8505Z" fill="white"/>
<path d="M98.6232 57.2322C98.5043 57.5101 98.2923 57.7378 98.0236 57.8762C97.755 58.0145 97.4464 58.0549 97.1512 57.9903C97.0166 57.9609 96.8903 57.9018 96.7816 57.8173C96.6728 57.7328 96.5843 57.625 96.5225 57.5019C96.4608 57.3788 96.4274 57.2434 96.4247 57.1057C96.4221 56.968 96.4503 56.8314 96.5072 56.706C96.6261 56.4283 96.8383 56.201 97.1071 56.0632C97.3759 55.9255 97.6844 55.886 97.9792 55.9516C98.1137 55.9805 98.2399 56.0391 98.3487 56.1233C98.4575 56.2074 98.546 56.3148 98.6078 56.4377C98.6696 56.5606 98.7031 56.6957 98.7057 56.8332C98.7084 56.9707 98.6802 57.107 98.6232 57.2322Z" fill="#263238"/>
<path opacity="0.2" d="M98.6232 57.2322C98.5043 57.5101 98.2923 57.7378 98.0236 57.8762C97.755 58.0145 97.4464 58.0549 97.1512 57.9903C97.0166 57.9609 96.8903 57.9018 96.7816 57.8173C96.6728 57.7328 96.5843 57.625 96.5225 57.5019C96.4608 57.3788 96.4274 57.2434 96.4247 57.1057C96.4221 56.968 96.4503 56.8314 96.5072 56.706C96.6261 56.4283 96.8383 56.201 97.1071 56.0632C97.3759 55.9255 97.6844 55.886 97.9792 55.9516C98.1137 55.9805 98.2399 56.0391 98.3487 56.1233C98.4575 56.2074 98.546 56.3148 98.6078 56.4377C98.6696 56.5606 98.7031 56.6957 98.7057 56.8332C98.7084 56.9707 98.6802 57.107 98.6232 57.2322Z" fill="white"/>
<path d="M97.4117 56.6726C97.3815 56.6732 97.3519 56.6641 97.3271 56.6469C97.2966 56.6247 97.276 56.5915 97.2698 56.5543C97.2636 56.5171 97.2723 56.479 97.2939 56.4481C100.032 52.6393 99.2664 49.2537 99.2591 49.2206C99.2513 49.2015 99.2478 49.1809 99.2487 49.1603C99.2496 49.1396 99.255 49.1194 99.2644 49.1011C99.2739 49.0827 99.2872 49.0666 99.3034 49.0538C99.3197 49.0411 99.3385 49.032 99.3586 49.0272C99.3787 49.0223 99.3995 49.0219 99.4198 49.0259C99.4401 49.0299 99.4592 49.0382 99.476 49.0503C99.4928 49.0624 99.5067 49.0779 99.5169 49.0959C99.5271 49.1138 99.5333 49.1338 99.5351 49.1544C99.5351 49.1875 100.345 52.6945 97.5258 56.6137C97.5133 56.6324 97.4963 56.6476 97.4763 56.6579C97.4564 56.6682 97.4341 56.6733 97.4117 56.6726Z" fill="#263238"/>
<path d="M87.866 54.7403C87.83 54.7395 87.7955 54.7257 87.7691 54.7013C87.7426 54.6768 87.726 54.6436 87.7224 54.6078C87.4244 50.8689 89.4042 49.4889 89.4888 49.4337C89.5204 49.4133 89.5586 49.4058 89.5955 49.4126C89.6325 49.4195 89.6654 49.4402 89.6876 49.4705C89.7085 49.5022 89.716 49.541 89.7084 49.5782C89.7008 49.6155 89.6788 49.6482 89.6471 49.6692C89.6287 49.6692 87.7224 51.0235 88.0095 54.5857C88.0115 54.6232 87.9988 54.66 87.974 54.6882C87.9492 54.7164 87.9144 54.7338 87.877 54.7366L87.866 54.7403Z" fill="#263238"/>
<path d="M98.2229 57.1327C98.1035 57.4101 97.8914 57.6374 97.6228 57.7757C97.3543 57.9139 97.0461 57.9546 96.7509 57.8908C96.616 57.862 96.4892 57.8033 96.3801 57.7189C96.2709 57.6345 96.1821 57.5267 96.1203 57.4034C96.0585 57.28 96.0252 57.1444 96.0228 57.0064C96.0205 56.8685 96.0493 56.7318 96.1069 56.6065C96.229 56.3322 96.4425 56.1089 96.711 55.9746C96.9795 55.8404 97.2863 55.8036 97.5789 55.8705C97.7106 55.9006 97.8342 55.9592 97.9408 56.0423C98.0473 56.1253 98.1344 56.2307 98.1958 56.3511C98.2572 56.4715 98.2915 56.6038 98.2962 56.7389C98.3008 56.8739 98.2758 57.0084 98.2229 57.1327Z" fill="#263238"/>
<path opacity="0.4" d="M98.2229 57.1327C98.1035 57.4101 97.8914 57.6374 97.6228 57.7757C97.3543 57.9139 97.0461 57.9546 96.7509 57.8908C96.616 57.862 96.4892 57.8033 96.3801 57.7189C96.2709 57.6345 96.1821 57.5267 96.1203 57.4034C96.0585 57.28 96.0252 57.1444 96.0228 57.0064C96.0205 56.8685 96.0493 56.7318 96.1069 56.6065C96.229 56.3322 96.4425 56.1089 96.711 55.9746C96.9795 55.8404 97.2863 55.8036 97.5789 55.8705C97.7106 55.9006 97.8342 55.9592 97.9408 56.0423C98.0473 56.1253 98.1344 56.2307 98.1958 56.3511C98.2572 56.4715 98.2915 56.6038 98.2962 56.7389C98.3008 56.8739 98.2758 57.0084 98.2229 57.1327Z" fill="white"/>
<path opacity="0.4" d="M97.6047 56.9337C97.5417 57.0799 97.4297 57.1996 97.288 57.2721C97.1463 57.3446 96.9837 57.3655 96.8282 57.3311C96.7577 57.3156 96.6916 57.2845 96.6346 57.2402C96.5776 57.1959 96.5312 57.1394 96.4988 57.0749C96.4664 57.0104 96.4487 56.9395 96.4471 56.8673C96.4456 56.7951 96.4601 56.7235 96.4897 56.6577C96.5533 56.5119 96.6653 56.3927 96.8069 56.3202C96.9485 56.2478 97.1107 56.2266 97.2662 56.2602C97.3367 56.2758 97.4028 56.3068 97.4598 56.3511C97.5168 56.3955 97.5632 56.4519 97.5956 56.5164C97.6281 56.5809 97.6457 56.6518 97.6473 56.724C97.6488 56.7962 97.6343 56.8678 97.6047 56.9337Z" fill="white"/>
<path d="M88.9838 63.4399C88.9464 63.439 88.9108 63.4234 88.8847 63.3966C88.8586 63.3698 88.844 63.3339 88.844 63.2964C88.8435 63.2777 88.8468 63.2592 88.8536 63.2418C88.8604 63.2244 88.8706 63.2085 88.8836 63.1951C88.8967 63.1818 88.9122 63.1711 88.9295 63.1639C88.9467 63.1566 88.9652 63.1529 88.9838 63.1529C89.2538 63.145 89.5115 63.0384 89.7082 62.8532C89.9049 62.6681 90.0268 62.4173 90.051 62.1483L90.3233 57.3643C90.3462 57.0286 90.2994 56.6919 90.1859 56.3753C90.0724 56.0586 89.8946 55.7688 89.6638 55.5242C89.4329 55.2795 89.154 55.0852 88.8444 54.9535C88.5349 54.8218 88.2015 54.7555 87.8651 54.7588C87.1575 54.7674 86.479 55.0421 85.9648 55.5283C85.4506 56.0146 85.1384 56.6766 85.0904 57.3827L84.8144 62.1667C84.8046 62.2945 84.8217 62.4229 84.8645 62.5438C84.9072 62.6646 84.9748 62.7752 85.0628 62.8684C85.1508 62.9616 85.2573 63.0353 85.3755 63.085C85.4937 63.1346 85.6209 63.159 85.7491 63.1566C85.7872 63.1566 85.8237 63.1717 85.8506 63.1986C85.8775 63.2255 85.8926 63.262 85.8926 63.3001C85.8917 63.3379 85.8763 63.3738 85.8496 63.4005C85.8228 63.4273 85.7869 63.4427 85.7491 63.4436C85.5825 63.445 85.4173 63.412 85.264 63.3466C85.1107 63.2812 84.9726 63.1848 84.8582 63.0636C84.7439 62.9423 84.6558 62.7988 84.5995 62.6419C84.5432 62.485 84.5199 62.3182 84.531 62.1519L84.807 57.3679C84.8597 56.5896 85.2037 55.8597 85.7704 55.3237C86.3372 54.7876 87.0851 54.4848 87.8651 54.4755C88.2406 54.472 88.6128 54.5463 88.9582 54.6936C89.3037 54.8409 89.6149 55.0581 89.8724 55.3315C90.1298 55.6048 90.328 55.9285 90.4544 56.2821C90.5807 56.6358 90.6326 57.0117 90.6067 57.3863L90.3344 62.1703C90.3095 62.5128 90.1568 62.8333 89.9067 63.0685C89.6565 63.3037 89.3271 63.4362 88.9838 63.4399Z" fill="#263238"/>
<path d="M85.9854 63.2964C85.9854 63.5245 85.8566 63.7122 85.7278 63.7122C85.599 63.7122 85.4997 63.5245 85.5144 63.2964C85.5291 63.0682 85.6432 62.8768 85.7757 62.8768C85.9081 62.8768 86.0001 63.0645 85.9854 63.2964Z" fill="#263238"/>
<path d="M89.2235 63.2964C89.2235 63.5245 89.0947 63.7122 88.9622 63.7122C88.8298 63.7122 88.7341 63.5245 88.7488 63.2964C88.7635 63.0682 88.8776 62.8768 89.0101 62.8768C89.1426 62.8768 89.2346 63.0645 89.2235 63.2964Z" fill="#263238"/>
<path d="M59.5953 34.2241L59.334 34.0364C60.103 32.9833 61.1843 32.1993 62.4242 31.7957C63.6642 31.392 64.9998 31.3893 66.2413 31.788L66.142 32.0971C64.9656 31.72 63.7003 31.7225 62.5254 32.1043C61.3505 32.486 60.3254 33.2276 59.5953 34.2241Z" fill="#6638B6"/>
<path d="M58.4806 37.5366H58.1567C58.1733 36.9488 58.2737 36.3664 58.4548 35.807L58.7639 35.9064C58.5923 36.4335 58.4969 36.9825 58.4806 37.5366Z" fill="#6638B6"/>
<path d="M75.782 37.7942C75.4992 37.1697 75.0926 36.6091 74.5867 36.1464C74.0808 35.6837 73.4862 35.3285 72.8389 35.1024C72.1917 34.8764 71.5053 34.7841 70.8213 34.8312C70.1374 34.8783 69.4701 35.0638 68.86 35.3764C68.553 34.7775 68.1298 34.2458 67.615 33.8124C67.1002 33.3789 66.5042 33.0524 65.8617 32.852C65.2193 32.6516 64.5434 32.5812 63.8734 32.645C63.2035 32.7088 62.553 32.9055 61.96 33.2236C59.5054 34.5411 58.648 37.6617 59.9249 40.1457L63.2369 46.6115C63.3977 46.9262 63.619 47.2061 63.8882 47.4351C64.1573 47.6641 64.469 47.8378 64.8054 47.9462C65.1418 48.0546 65.4962 48.0955 65.8485 48.0666C66.2007 48.0378 66.5438 47.9397 66.858 47.778L73.3496 44.4661C74.5335 43.8783 75.4462 42.858 75.8989 41.6162C76.3517 40.3744 76.3098 39.006 75.782 37.7942Z" fill="#6638B6"/>
</svg>
