<svg width="184" height="184" viewBox="0 0 184 184" fill="none" xmlns="http://www.w3.org/2000/svg">
<path d="M60.3487 37.3083C57.5703 34.6992 52.9887 34.1987 51.2738 36.9146C49.5589 39.6304 50.5378 42.5008 47.0197 45.511C44.6277 47.5682 46.4015 53.872 60.0469 53.2942C66.5053 53.0219 64.3194 46.3022 64.1465 43.1264C63.9735 39.9506 63.9625 36.0645 60.3487 37.3083Z" fill="#263238"/>
<path d="M54.9746 148.091L51.67 148.22L51.6074 144.643L54.9121 144.514L54.9746 148.091Z" fill="#B55B52"/>
<path d="M51.4637 147.535H55.1989C55.2647 147.534 55.3287 147.556 55.3803 147.597C55.4319 147.638 55.4679 147.695 55.4822 147.759L56.1299 150.722C56.1448 150.794 56.1432 150.869 56.1254 150.94C56.1076 151.012 56.074 151.078 56.0271 151.135C55.9801 151.192 55.921 151.238 55.8541 151.269C55.7872 151.3 55.7142 151.315 55.6405 151.314C54.3341 151.292 53.7011 151.215 52.0561 151.215C51.0441 151.215 48.4203 151.322 47.0219 151.322C45.6235 151.322 45.4469 149.938 46.0173 149.813C48.5933 149.25 50.091 148.477 50.9153 147.737C51.0665 147.604 51.2621 147.532 51.4637 147.535Z" fill="#263238"/>
<path opacity="0.2" d="M51.6074 144.646L51.6369 146.31L54.9415 146.166L54.9121 144.518L51.6074 144.646Z" fill="black"/>
<path d="M46.7363 76.0475C46.0003 80.0145 46.8467 99.4045 47.9691 107.968C49.4632 119.339 51.0088 145.743 51.0088 145.743L55.4248 145.478C55.4248 145.478 56.5288 117.672 55.6272 108.542C56.1387 96.7917 57.4047 76.2683 57.4047 76.2683L46.7363 76.0475Z" fill="#6638B6"/>
<path opacity="0.2" d="M56.6715 89.0557C56.826 86.0786 54.7174 83.4326 53.8673 89.0557C53.33 92.629 54.4414 98.8923 55.8987 103.316C56.1232 98.712 56.4102 93.5858 56.6715 89.0557Z" fill="black"/>
<path d="M79.2543 136.966L77.1052 139.019L74.1943 135.899L76.3398 133.849L79.2543 136.966Z" fill="#B55B52"/>
<path d="M76.5453 139.075L78.7533 136.05C78.7892 135.997 78.8439 135.96 78.9061 135.947C78.9683 135.933 79.0334 135.943 79.0881 135.976L81.6641 137.492C81.7276 137.534 81.7818 137.589 81.8238 137.652C81.8657 137.716 81.8943 137.787 81.9081 137.862C81.9218 137.937 81.9203 138.014 81.9037 138.088C81.8871 138.162 81.8557 138.233 81.8113 138.294C81.0275 139.336 80.5969 139.796 79.6291 141.128C79.0329 141.945 78.3448 143.071 77.5241 144.205C76.7035 145.338 75.5811 144.525 75.824 143.976C76.928 141.514 76.4606 140.83 76.4017 139.656C76.3828 139.452 76.4334 139.247 76.5453 139.075Z" fill="#263238"/>
<path opacity="0.2" d="M74.1943 135.902L75.6958 137.507L77.8265 135.439L76.3435 133.849L74.1943 135.902Z" fill="black"/>
<path d="M51.8564 76.1543C51.8564 76.1543 56.611 101.178 57.8475 110.893C58.5835 116.697 74.8123 137.577 74.8123 137.577L77.5833 134.659C77.5833 134.659 71.6438 119.372 64.4899 110.305C64.2065 99.6769 65.4136 82.1821 61.3067 76.3493L51.8564 76.1543Z" fill="#6638B6"/>
<path d="M47.6837 56.9661C47.6837 59.1152 47.5844 61.2238 47.4261 63.3545C47.2679 65.4853 47.0581 67.6049 46.7159 69.7393L46.6533 70.1405L46.5687 70.5931C46.5049 70.89 46.435 71.1807 46.3589 71.4653C46.197 72.0283 45.9909 72.5693 45.8069 73.0918C45.4043 74.1164 44.9473 75.1188 44.438 76.0947C43.435 78.0029 42.2923 79.8344 41.0192 81.5742C40.8849 81.7546 40.6886 81.879 40.4681 81.9235C40.2477 81.9681 40.0185 81.9296 39.8247 81.8156C39.6308 81.7015 39.4859 81.5199 39.4177 81.3056C39.3495 81.0913 39.3629 80.8593 39.4552 80.6542V80.6321C40.32 78.7627 41.1591 76.8454 41.8914 74.9465C42.2594 73.9971 42.5869 73.0366 42.8666 72.0945C42.9991 71.6235 43.1168 71.1561 43.2088 70.6998C43.2567 70.4717 43.2898 70.2472 43.3229 70.0264L43.3597 69.6989L43.3965 69.3309C43.5842 67.2921 43.6946 65.224 43.7976 63.1521C43.9007 61.0803 43.9485 58.9901 44.0074 56.9366V56.9182C44.0152 56.4302 44.2165 55.9653 44.5671 55.6258C44.9177 55.2862 45.3888 55.0998 45.8768 55.1077C46.3648 55.1155 46.8297 55.3168 47.1693 55.6674C47.5088 56.018 47.6952 56.4891 47.6874 56.9771L47.6837 56.9661Z" fill="#B55B52"/>
<path d="M46.4861 54.2767C41.9671 55.5978 42.5485 63.8189 42.5485 63.8189L48.9738 65.5485C48.9738 65.5485 50.041 59.528 49.9453 57.3679C49.8496 55.1231 48.9775 53.5517 46.4861 54.2767Z" fill="#6638B6"/>
<path d="M39.9343 80.1796L37.6711 82.1042L40.8433 83.3996C40.8433 83.3996 41.8259 81.9018 41.3695 80.4813L39.9343 80.1796Z" fill="#B55B52"/>
<path d="M38.0727 85.0411L39.519 85.2215C39.6796 85.2415 39.8424 85.208 39.9822 85.1262C40.1219 85.0444 40.2307 84.9188 40.2918 84.7688L40.8438 83.3999L37.6716 82.1045L37.4324 84.2279C37.4106 84.4204 37.4656 84.6138 37.5855 84.7661C37.7053 84.9183 37.8804 85.0172 38.0727 85.0411Z" fill="#B55B52"/>
<path d="M45.0237 56.4142C44.8213 64.6574 46.7165 70.6742 46.7386 76.047L61.3077 76.3488C61.201 70.9686 61.2451 67.4579 63.5598 57.8163C63.6605 57.3963 63.6724 56.96 63.5949 56.5352C63.5175 56.1104 63.3522 55.7064 63.1098 55.349C62.8674 54.9916 62.5532 54.6887 62.1871 54.4596C61.821 54.2305 61.4112 54.0803 60.9838 54.0185C60.1117 53.8897 59.1438 53.7683 58.1613 53.702C55.9594 53.498 53.7458 53.4513 51.5373 53.5622C49.9843 53.6726 48.3136 53.9008 47.1213 54.0811C46.5549 54.1653 46.0355 54.4444 45.6527 54.8702C45.2698 55.2961 45.0474 55.8421 45.0237 56.4142Z" fill="#6638B6"/>
<path d="M58.6018 64.0317L54.2815 64.0023C54.2384 64.0041 54.1955 63.9967 54.1557 63.9804C54.1158 63.9641 54.08 63.9393 54.0506 63.9079C54.0213 63.8764 53.999 63.8389 53.9855 63.7981C53.972 63.7572 53.9675 63.7139 53.9723 63.6711L54.2115 61.625C54.2271 61.5337 54.2744 61.4508 54.3451 61.3909C54.4158 61.331 54.5053 61.2979 54.5979 61.2975L58.9146 61.3269C58.9574 61.3245 59.0003 61.3315 59.0401 61.3473C59.08 61.3632 59.1159 61.3876 59.1453 61.4188C59.1748 61.45 59.197 61.4872 59.2106 61.5279C59.2241 61.5686 59.2286 61.6118 59.2237 61.6544L58.9845 63.7042C58.9697 63.7952 58.9232 63.8781 58.8531 63.938C58.783 63.998 58.694 64.0312 58.6018 64.0317Z" fill="white"/>
<path opacity="0.4" d="M51.5581 53.5659C51.5581 53.5659 49.1808 55.2293 51.6943 59.4024C53.7578 57.3952 55.9207 55.4927 58.1748 53.7021L51.5581 53.5659Z" fill="white"/>
<path d="M57.6757 46.2391C57.2157 48.3588 56.7152 52.2523 58.1762 53.7022C55.8789 54.6071 53.7606 55.9129 51.9202 57.5588C50.3046 54.5927 51.5522 53.5623 51.5522 53.5623C53.9368 53.0471 53.9147 51.2844 53.5357 49.6211L57.6757 46.2391Z" fill="#B55B52"/>
<path opacity="0.2" d="M57.2266 46.6069C57.1693 47.8735 56.8418 49.1131 56.2662 50.2428C55.865 51.0193 54.7942 51.3468 53.7159 51.4093C53.7515 50.8078 53.6932 50.2044 53.543 49.6209L57.2266 46.6069Z" fill="black"/>
<path d="M61.1211 43.6443C60.0171 47.0373 59.6491 48.4946 57.4411 49.8194C54.1475 51.8103 50.221 49.7311 50.2725 46.0842C50.324 42.8016 52.1125 37.8079 55.8182 37.2963C56.6389 37.1775 57.4762 37.2708 58.2506 37.5672C59.025 37.8635 59.7107 38.3532 60.2423 38.9896C60.7738 39.626 61.1337 40.3878 61.2875 41.2026C61.4414 42.0174 61.3841 42.858 61.1211 43.6443Z" fill="#B55B52"/>
<path d="M52.1255 39.189C53.9655 39.7079 58.4477 40.0943 59.3457 39.557C58.5029 40.8524 59.3052 44.3925 60.6079 45.25C62.3632 43.8405 62.7533 40.4329 61.1304 38.7437C59.5076 37.0546 54.3776 35.0343 52.1255 39.189Z" fill="#263238"/>
<path d="M61.6404 45.7209C61.5242 46.0442 61.3445 46.341 61.1119 46.5937C60.8794 46.8465 60.5986 47.0503 60.2861 47.1929C59.4544 47.5609 58.9024 46.8544 59.0202 45.9969C59.1269 45.2278 59.69 44.1054 60.5805 44.0907C60.7727 44.0934 60.9613 44.1433 61.1296 44.2361C61.2979 44.329 61.4407 44.4618 61.5455 44.623C61.6503 44.7841 61.7137 44.9686 61.7303 45.1601C61.7468 45.3516 61.7159 45.5442 61.6404 45.7209Z" fill="#B55B52"/>
<path d="M61.5443 75.4986L62.1773 76.8198C62.2251 76.9191 62.1037 77.0222 61.9344 77.0185L46.6514 76.6983C46.5226 76.6983 46.4158 76.6284 46.4085 76.5438L46.3018 75.2374C46.3018 75.149 46.4122 75.0754 46.5557 75.0754L61.3125 75.3846C61.3577 75.3819 61.4028 75.3909 61.4435 75.4109C61.4841 75.4309 61.5189 75.4612 61.5443 75.4986Z" fill="#263238"/>
<path d="M59.53 77.1073H59.9237C60.001 77.1073 60.0636 77.0668 60.0599 77.019L59.909 75.3188C59.909 75.271 59.8354 75.2268 59.7581 75.2268H59.3607C59.2834 75.2268 59.2245 75.2636 59.2282 75.3151L59.3754 77.0116C59.3828 77.0668 59.449 77.1073 59.53 77.1073Z" fill="#6638B6"/>
<path d="M47.7579 76.8639H48.1553C48.2326 76.8639 48.2952 76.8271 48.2915 76.7756L48.1406 75.0754C48.1406 75.0276 48.067 74.9871 47.9897 74.9834H47.5923C47.515 74.9834 47.4525 75.0202 47.4598 75.0717L47.607 76.7682C47.6144 76.8197 47.6806 76.8602 47.7579 76.8639Z" fill="#6638B6"/>
<path d="M53.6432 76.9862H54.0407C54.1179 76.9862 54.1805 76.9494 54.1768 76.8979L54.0259 75.2014C54.0259 75.1499 53.9523 75.1094 53.875 75.1094H53.4776C53.4003 75.1094 53.3415 75.1499 53.3451 75.1977L53.4923 76.8979C53.4997 76.942 53.5659 76.9862 53.6432 76.9862Z" fill="#6638B6"/>
<path d="M55.8289 43.3612C55.7553 43.6408 55.5492 43.8322 55.3652 43.7844C55.1812 43.7365 55.0929 43.4716 55.1628 43.1919C55.2327 42.9122 55.4425 42.7208 55.6265 42.7687C55.8105 42.8165 55.8988 43.0815 55.8289 43.3612Z" fill="#263238"/>
<path d="M52.6575 42.5518C52.5876 42.8351 52.3815 43.0228 52.1975 42.975C52.0135 42.9271 51.9215 42.6659 51.9951 42.3825C52.0687 42.0991 52.2711 41.9151 52.4551 41.9593C52.6391 42.0035 52.7311 42.2721 52.6575 42.5518Z" fill="#263238"/>
<path d="M52.5301 41.9961L51.9045 41.6281C51.9045 41.6281 52.118 42.2463 52.5301 41.9961Z" fill="#263238"/>
<path d="M53.3581 43.2474C52.9462 43.8242 52.4571 44.3417 51.9045 44.7857C52.0212 44.9239 52.1665 45.035 52.3305 45.1113C52.4945 45.1875 52.6731 45.2271 52.854 45.2273L53.3581 43.2474Z" fill="#A02724"/>
<path d="M53.5329 46.328C53.5199 46.3169 53.5103 46.3024 53.5051 46.2861C53.4999 46.2699 53.4993 46.2525 53.5034 46.236C53.5068 46.2253 53.5122 46.2154 53.5194 46.2069C53.5266 46.1983 53.5354 46.1913 53.5453 46.1861C53.5552 46.181 53.5661 46.1779 53.5772 46.177C53.5883 46.176 53.5995 46.1773 53.6102 46.1808C53.9539 46.2885 54.3181 46.314 54.6735 46.2552C55.0289 46.1964 55.3655 46.0549 55.6562 45.8422C55.6733 45.8276 55.6955 45.8203 55.7179 45.822C55.7404 45.8238 55.7612 45.8343 55.7758 45.8514C55.7905 45.8685 55.7977 45.8907 55.796 45.9131C55.7943 45.9355 55.7837 45.9564 55.7666 45.971C55.4555 46.2058 55.0922 46.3618 54.7078 46.4259C54.3233 46.49 53.9291 46.4602 53.5586 46.339L53.5329 46.328Z" fill="#263238"/>
<path d="M57.5576 42.0694C57.5353 42.0495 57.5166 42.0259 57.5024 41.9995C57.4264 41.8001 57.304 41.6216 57.1453 41.4789C56.9866 41.3362 56.7962 41.2333 56.5898 41.1789C56.5454 41.1711 56.5059 41.1459 56.48 41.109C56.4541 41.0721 56.444 41.0264 56.4518 40.982C56.4596 40.9376 56.4847 40.8981 56.5216 40.8722C56.5586 40.8463 56.6043 40.8362 56.6487 40.844C56.9111 40.9089 57.1543 41.0357 57.3579 41.2136C57.5614 41.3916 57.7195 41.6156 57.8189 41.867C57.8319 41.9016 57.8335 41.9395 57.8234 41.975C57.8133 42.0106 57.7921 42.042 57.7629 42.0646C57.7337 42.0872 57.698 42.0999 57.6611 42.1008C57.6241 42.1017 57.5879 42.0907 57.5576 42.0694Z" fill="#263238"/>
<path d="M52.0301 40.7633L52.008 40.7413C51.9763 40.7095 51.9585 40.6665 51.9585 40.6217C51.9585 40.5768 51.9763 40.5338 52.008 40.5021C52.2023 40.3197 52.4368 40.1858 52.6925 40.1109C52.9483 40.0361 53.218 40.0226 53.48 40.0715C53.5019 40.0771 53.5224 40.0869 53.5405 40.1005C53.5585 40.1142 53.5736 40.1312 53.5849 40.1508C53.5962 40.1703 53.6035 40.1919 53.6064 40.2144C53.6092 40.2368 53.6075 40.2595 53.6014 40.2813C53.5902 40.3247 53.5621 40.3618 53.5235 40.3846C53.4849 40.4074 53.4388 40.4139 53.3953 40.4027C53.1854 40.3631 52.969 40.3742 52.7642 40.435C52.5594 40.4958 52.3721 40.6046 52.2177 40.7523C52.191 40.7725 52.159 40.7843 52.1256 40.7863C52.0922 40.7882 52.0589 40.7803 52.0301 40.7633Z" fill="#263238"/>
<path d="M63.5563 56.6206C64.6271 58.0374 65.6281 59.4652 66.5996 60.9483C67.0817 61.6843 67.5601 62.4203 68.0127 63.2152C68.5003 64.0191 68.9378 64.8524 69.3228 65.7102C69.4393 65.9776 69.5401 66.2516 69.6246 66.5308C69.6859 66.7462 69.7277 66.9667 69.7497 67.1896C69.7558 67.279 69.7558 67.3688 69.7497 67.4582V67.6238C69.743 67.6968 69.7319 67.7693 69.7166 67.8409L69.6908 67.955V68.0065V68.047L69.6614 68.128C69.4884 68.5696 69.3523 69.0148 69.1462 69.4417C68.773 70.3166 68.3248 71.1576 67.8067 71.9552C67.273 72.7604 66.6482 73.5013 65.9446 74.1632C65.5861 74.4993 65.2009 74.8058 64.7927 75.0795C64.583 75.2156 64.3695 75.3481 64.1487 75.4696L63.7991 75.6388C63.6667 75.6977 63.571 75.7382 63.3796 75.8081L62.6804 74.13C62.7302 74.0813 62.7831 74.0358 62.8387 73.9939L63.0411 73.8172C63.1772 73.6958 63.3097 73.5633 63.4385 73.4272C63.7007 73.1459 63.9464 72.8498 64.1745 72.5403C64.624 71.9082 65.0156 71.237 65.3447 70.5347C65.4993 70.1667 65.6686 69.8208 65.7974 69.4307C65.9262 69.0406 66.0697 68.6947 66.1875 68.3267C66.3052 67.9587 66.3972 67.5539 66.5113 67.1712V67.1012V67.0644V67.0976V67.1712C66.5113 67.2153 66.4929 67.2816 66.4892 67.3073C66.4874 67.3355 66.4874 67.3638 66.4892 67.392V67.4987C66.4892 67.5833 66.4892 67.5576 66.4892 67.5208C66.4892 67.484 66.3862 67.2852 66.3089 67.1307C65.974 66.5014 65.5251 65.7764 65.0651 65.0846C64.6051 64.3928 64.1267 63.6825 63.6372 62.987C62.662 61.5923 61.6574 60.1828 60.6711 58.7992L63.5563 56.6206Z" fill="#B55B52"/>
<path d="M64.3545 75.374L61.5172 77.3796L60.2439 74.4797C60.2439 74.4797 61.9661 73.556 63.3241 74.1743L64.3545 75.374Z" fill="#B55B52"/>
<path d="M59.5395 77.6188L58.8292 76.6289C58.6944 76.4379 58.6393 76.2019 58.6758 75.971C58.7122 75.7401 58.8372 75.5325 59.0243 75.3924L60.2423 74.4797L61.5156 77.3796L60.7355 77.8617C60.5424 77.9802 60.3116 78.021 60.0896 77.976C59.8676 77.9309 59.671 77.8032 59.5395 77.6188Z" fill="#B55B52"/>
<path d="M57.8765 55.7449C56.9123 59.5757 62.8592 66.1335 62.8592 66.1335L67.8603 60.941C67.8603 60.941 65.575 56.0613 62.5906 54.5305C60.5077 53.4633 58.3034 54.0557 57.8765 55.7449Z" fill="#6638B6"/>
<path d="M55.7023 42.8061L55.0767 42.4381C55.0767 42.4381 55.2864 43.0564 55.7023 42.8061Z" fill="#263238"/>
<path d="M49.311 65.9791C49.2841 65.9789 49.2579 65.9708 49.2356 65.9557C49.2133 65.9406 49.196 65.9193 49.1858 65.8944C49.1739 65.8617 49.1753 65.8256 49.1898 65.7939C49.2042 65.7623 49.2306 65.7376 49.2631 65.7252L49.8372 65.5044C50.3749 65.3058 50.8392 64.9478 51.168 64.4783C51.4968 64.0088 51.6745 63.45 51.6772 62.8768L51.7177 57.4967C51.7293 57.0871 51.6 56.6859 51.3512 56.3603C51.1025 56.0346 50.7495 55.8043 50.3513 55.7077C49.9531 55.6112 49.5338 55.6543 49.1635 55.8299C48.7933 56.0055 48.4946 56.3029 48.3174 56.6724L45.8297 61.4564C45.5624 61.9614 45.4545 62.5356 45.5202 63.1032C45.5859 63.6709 45.8221 64.2052 46.1977 64.6359L46.6025 65.0959C46.6161 65.1085 46.6269 65.1239 46.6342 65.141C46.6415 65.1581 46.6452 65.1765 46.6449 65.1951C46.6446 65.2137 46.6404 65.232 46.6325 65.2489C46.6247 65.2657 46.6134 65.2807 46.5994 65.293C46.5854 65.3052 46.5689 65.3143 46.5511 65.3197C46.5334 65.3251 46.5146 65.3268 46.4962 65.3245C46.4777 65.3222 46.46 65.3161 46.4441 65.3065C46.4281 65.2969 46.4144 65.2841 46.4038 65.2688L45.999 64.7684C45.5845 64.3004 45.3226 63.7171 45.2483 63.0964C45.174 62.4757 45.2908 61.847 45.5831 61.2944L48.0708 56.5104C48.2834 56.1021 48.6273 55.7773 49.047 55.5883C49.4668 55.3992 49.9379 55.357 50.3846 55.4683C50.8313 55.5797 51.2275 55.8381 51.5093 56.2021C51.7912 56.566 51.9424 57.0143 51.9385 57.4746L51.898 62.8548C51.895 63.4788 51.7028 64.0873 51.3467 64.5998C50.9905 65.1123 50.4873 65.5047 49.9034 65.7252L49.3294 65.9423L49.311 65.9791Z" fill="#263238"/>
<path d="M51.8086 58.6961C51.7744 58.6952 51.7417 58.6815 51.7172 58.6576C51.6926 58.6338 51.678 58.6015 51.6761 58.5673C51.6239 58.1421 51.4441 57.7427 51.1604 57.4217C50.8767 57.1007 50.5024 56.8732 50.0868 56.7692C49.6712 56.6652 49.2338 56.6896 48.8324 56.8391C48.4309 56.9886 48.0842 57.2563 47.8379 57.6068C47.8294 57.622 47.8181 57.6355 47.8044 57.6463C47.7908 57.6571 47.7751 57.6652 47.7584 57.6699C47.7416 57.6747 47.7241 57.6762 47.7068 57.6742C47.6895 57.6722 47.6728 57.6668 47.6576 57.6583C47.6423 57.6499 47.6289 57.6385 47.6181 57.6249C47.6073 57.6112 47.5992 57.5956 47.5945 57.5789C47.5897 57.5621 47.5882 57.5446 47.5902 57.5273C47.5922 57.51 47.5976 57.4933 47.606 57.478C47.8799 57.0733 48.2714 56.7625 48.7277 56.5876C49.184 56.4128 49.683 56.3823 50.1571 56.5003C50.6313 56.6184 51.0578 56.8792 51.3788 57.2476C51.6999 57.616 51.9 58.0741 51.9521 58.56C51.9522 58.5948 51.9388 58.6284 51.9149 58.6537C51.8909 58.6791 51.8581 58.6942 51.8233 58.6961H51.8086Z" fill="#263238"/>
<path d="M50.3767 55.7556C50.355 55.7553 50.3336 55.7498 50.3144 55.7396C50.2952 55.7293 50.2787 55.7146 50.2663 55.6967C50.1991 55.5475 50.1643 55.3857 50.1643 55.222C50.1643 55.0583 50.1991 54.8965 50.2663 54.7473C50.3619 54.4505 50.5229 54.1789 50.7376 53.9528C50.9523 53.7267 51.215 53.5517 51.5065 53.4409C51.5226 53.4346 51.5399 53.4316 51.5572 53.4324C51.5745 53.4331 51.5915 53.4374 51.6071 53.445C51.6226 53.4526 51.6365 53.4633 51.6476 53.4766C51.6588 53.4898 51.6672 53.5052 51.6721 53.5218C51.6827 53.5545 51.6802 53.5901 51.6651 53.621C51.65 53.6519 51.6235 53.6757 51.5911 53.6874C51.3415 53.7898 51.1172 53.9451 50.9335 54.1427C50.7499 54.3403 50.6114 54.5755 50.5276 54.8319C50.4727 54.9459 50.4409 55.0696 50.434 55.1959C50.427 55.3222 50.4451 55.4486 50.4871 55.5679C50.4966 55.5826 50.5032 55.5991 50.5063 55.6163C50.5094 55.6336 50.5091 55.6513 50.5053 55.6684C50.5015 55.6855 50.4944 55.7017 50.4843 55.716C50.4743 55.7304 50.4615 55.7426 50.4466 55.7519C50.424 55.7586 50.4 55.7599 50.3767 55.7556Z" fill="#263238"/>
<path d="M49.008 65.7759C48.9454 66.0151 49.008 66.2433 49.1847 66.2838C49.3613 66.3242 49.5232 66.1586 49.5821 65.9158C49.641 65.6729 49.56 65.4447 49.4018 65.4079C49.2435 65.3711 49.0669 65.533 49.008 65.7759Z" fill="#263238"/>
<path d="M59.4532 59.4208C59.5709 59.9764 59.9684 60.3592 60.3327 60.2819C60.697 60.2046 60.8957 59.6857 60.7743 59.1337C60.6528 58.5817 60.2591 58.1916 59.8948 58.2726C59.5304 58.3536 59.3317 58.8798 59.4532 59.4208Z" fill="#263238"/>
<path d="M60.6054 59.2476C60.5884 59.2481 60.5716 59.2452 60.5558 59.2392C60.54 59.2332 60.5255 59.2241 60.5132 59.2125C60.5009 59.2008 60.491 59.1869 60.4841 59.1715C60.4772 59.156 60.4733 59.1394 60.4729 59.1224C60.3956 57.0874 59.6228 54.5592 58.1177 53.8122C58.0866 53.7964 58.063 53.769 58.052 53.736C58.0409 53.7029 58.0434 53.6668 58.0588 53.6356C58.0662 53.6198 58.0768 53.6058 58.0898 53.5942C58.1028 53.5827 58.118 53.5739 58.1345 53.5684C58.151 53.5629 58.1685 53.5608 58.1858 53.5622C58.2032 53.5636 58.22 53.5686 58.2354 53.5767C59.8473 54.3752 60.6532 56.9328 60.7341 59.0967C60.7357 59.114 60.7336 59.1315 60.728 59.148C60.7224 59.1644 60.7134 59.1796 60.7016 59.1924C60.6899 59.2052 60.6756 59.2154 60.6596 59.2224C60.6437 59.2293 60.6264 59.2329 60.609 59.2328L60.6054 59.2476Z" fill="#263238"/>
<path d="M59.0596 59.469C59.1368 59.9437 59.4791 60.2823 59.825 60.2271C60.1709 60.1719 60.3917 59.7413 60.3144 59.2629C60.2372 58.7845 59.8912 58.4497 59.5453 58.5049C59.1994 58.5601 58.9823 58.9906 59.0596 59.469Z" fill="white"/>
<path d="M59.0324 59.5093C59.1428 60.0981 59.452 60.5323 59.7206 60.4808C59.9892 60.4293 60.1107 59.9141 60.0003 59.3253C59.8899 58.7365 59.5808 58.3022 59.3121 58.3538C59.0435 58.4053 58.9184 58.9205 59.0324 59.5093Z" fill="#263238"/>
<path d="M46.2277 65.0813C46.1688 65.3241 46.2498 65.5523 46.408 65.5891C46.5663 65.6259 46.7429 65.4677 46.8055 65.2211C46.868 64.9745 46.7834 64.7537 46.6252 64.7133C46.4669 64.6728 46.2903 64.8421 46.2277 65.0813Z" fill="#263238"/>
<path d="M86.5364 35.1135C84.2069 35.5293 83.9125 35.3159 83.8831 33.6415C83.8536 31.9671 83.0072 29.1739 84.1848 28.2981C84.2657 28.2214 84.3652 28.1673 84.4734 28.1412C84.5817 28.115 84.6949 28.1177 84.8018 28.149C84.9087 28.1803 85.0055 28.2391 85.0826 28.3195C85.1596 28.3999 85.2143 28.4991 85.241 28.6072C85.3129 28.4235 85.4529 28.2747 85.6319 28.1917C85.8108 28.1088 86.0149 28.0981 86.2015 28.1619C86.2493 27.816 86.3045 26.9291 86.9375 26.6899C87.5704 26.4507 88.1519 27.0248 88.1519 27.0248C88.1519 27.0248 88.104 25.6595 89.024 25.792C89.2987 25.8359 89.5538 25.9616 89.756 26.1526C89.9582 26.3436 90.0981 26.5912 90.1575 26.8629C90.1575 26.8629 90.6874 26.0901 91.405 26.3955C92.1226 26.701 91.9717 27.5989 91.9717 27.5989C91.9717 27.5989 92.7335 27.2309 93.3002 27.6467C93.8669 28.0626 93.4548 28.7287 93.4548 28.7287C93.4548 28.7287 93.97 27.4039 94.9525 28.1362C95.8357 28.7986 95.0335 29.8363 95.0335 29.8363C95.0335 29.8363 96.005 29.6781 96.2405 30.1675C97.0354 31.8346 94.0068 33.6967 93.9074 36.5119C89.2559 38.2709 86.5364 35.1135 86.5364 35.1135Z" fill="#263238"/>
<path d="M69.751 79.8553L68.1981 79.5682L66.1446 81.5297C66.0329 81.6361 65.9447 81.7648 65.8857 81.9074C65.8268 82.05 65.7984 82.2034 65.8024 82.3577L65.8318 83.9622C65.8354 84.2365 65.9411 84.4997 66.1282 84.7004C66.3153 84.9011 66.5704 85.0249 66.8438 85.0478L67.5577 85.1103C67.8174 85.1349 68.0774 85.0667 68.2917 84.9178C68.5059 84.7689 68.6604 84.549 68.728 84.297L69.096 82.987C69.096 82.987 71.1237 80.5913 69.751 79.8553Z" fill="#FFB573"/>
<path d="M85.4323 50.5114C84.3908 53.2089 83.3531 55.9174 82.3521 58.6332C81.3512 61.349 80.3576 64.0759 79.4265 66.7586L79.2609 67.2554L79.1468 67.5793C79.1027 67.7007 79.0585 67.8258 79.018 67.9215C78.8451 68.3594 78.6721 68.7201 78.4992 69.0844C78.1532 69.8204 77.8036 70.4791 77.4504 71.1452C76.7401 72.47 76.0078 73.747 75.2681 75.0202C73.7961 77.5705 72.3241 80.0618 70.8006 82.59L66.116 79.6754C67.6616 77.2724 69.152 74.7921 70.5798 72.3154C71.2827 71.0716 71.9745 69.8241 72.6185 68.5876C72.9387 67.9694 73.2478 67.3511 73.5201 66.7476C73.6489 66.4569 73.7777 66.1588 73.8624 65.9159C73.8918 65.846 73.9028 65.7982 73.9212 65.7503L73.9801 65.559L74.1494 65.0217C75.0363 62.1954 75.9673 59.4649 76.8652 56.6938L79.559 48.4102L85.4323 50.5114Z" fill="#6638B6"/>
<path opacity="0.6" d="M85.4323 50.5114C84.3908 53.2089 83.3531 55.9174 82.3521 58.6332C81.3512 61.349 80.3576 64.0759 79.4265 66.7586L79.2609 67.2554L79.1468 67.5793C79.1027 67.7007 79.0585 67.8258 79.018 67.9215C78.8451 68.3594 78.6721 68.7201 78.4992 69.0844C78.1532 69.8204 77.8036 70.4791 77.4504 71.1452C76.7401 72.47 76.0078 73.747 75.2681 75.0202C73.7961 77.5705 72.3241 80.0618 70.8006 82.59L66.116 79.6754C67.6616 77.2724 69.152 74.7921 70.5798 72.3154C71.2827 71.0716 71.9745 69.8241 72.6185 68.5876C72.9387 67.9694 73.2478 67.3511 73.5201 66.7476C73.6489 66.4569 73.7777 66.1588 73.8624 65.9159C73.8918 65.846 73.9028 65.7982 73.9212 65.7503L73.9801 65.559L74.1494 65.0217C75.0363 62.1954 75.9673 59.4649 76.8652 56.6938L79.559 48.4102L85.4323 50.5114Z" fill="white"/>
<path d="M71.3979 149.007L68.0969 149.169L69.6572 140.572L72.7963 141.293L71.3979 149.007Z" fill="#FFB573"/>
<path d="M95.0768 149.132H91.7759L91.7869 141.488H95.0842L95.0768 149.132Z" fill="#FFB573"/>
<path d="M91.4633 148.749H95.4856C95.5502 148.748 95.6131 148.77 95.663 148.811C95.7129 148.852 95.7465 148.909 95.7579 148.973L96.2878 151.917C96.2996 151.99 96.2953 152.064 96.2754 152.135C96.2554 152.206 96.2202 152.272 96.1722 152.328C96.1242 152.384 96.0646 152.429 95.9975 152.46C95.9304 152.491 95.8574 152.506 95.7837 152.506C94.4883 152.484 93.5462 152.406 91.916 152.406C90.915 152.406 87.868 152.51 86.499 152.51C85.1301 152.51 84.9902 151.141 85.5606 151.015C88.1366 150.46 90.076 149.694 90.9187 148.962C91.068 148.827 91.2618 148.751 91.4633 148.749Z" fill="#263238"/>
<path opacity="0.2" d="M69.6556 140.576L68.9343 144.55L72.0734 145.271L72.7946 141.297L69.6556 140.576Z" fill="black"/>
<path opacity="0.2" d="M95.0854 141.488H91.7844V145.426H95.0854V141.488Z" fill="black"/>
<path d="M97.7444 50.4152C95.1684 62.0035 95.8529 73.441 95.5769 75.9176L77.9607 74.7547C76.1207 60.7707 78.1742 51.8504 79.3407 48.1925C79.5304 47.5887 79.889 47.0518 80.3742 46.6455C80.8595 46.2392 81.4509 45.9805 82.0787 45.8998C84.6982 45.6127 87.3362 45.5303 89.9686 45.6533C91.7507 45.7599 93.5195 46.0284 95.2531 46.4555C96.108 46.6512 96.8504 47.1779 97.3174 47.9203C97.7845 48.6626 97.938 49.5598 97.7444 50.4152Z" fill="#6638B6"/>
<path d="M92.4351 37.8C91.8537 39.9823 91.1655 43.8463 92.2732 45.8004C92.4462 46.1058 92.115 46.3671 92.1002 46.7204C92.0598 47.8023 90.5951 48.1261 87.975 48.1409C85.3548 48.1556 84.2324 47.0626 84.9463 46.0322C85.0558 45.8751 85.2221 45.7669 85.41 45.7304C87.8646 45.1821 87.9124 43.2575 87.5775 41.4212L92.4351 37.8Z" fill="#FFB573"/>
<path opacity="0.4" d="M87.7861 47.541C88.4744 48.4982 88.911 49.6131 89.0557 50.7831C91.6722 49.554 92.9197 46.5695 92.9197 46.5695L92.1322 45.7268C92.1322 45.7268 89.225 46.2751 87.7861 47.541Z" fill="black"/>
<path opacity="0.4" d="M87.5305 47.5522C86.5671 48.3364 85.7541 49.289 85.1311 50.3637C83.3022 49.2303 83.9057 45.9992 83.9057 45.9992L85.3961 45.7048C85.3961 45.7048 86.0622 46.3194 87.5305 47.5522Z" fill="black"/>
<path d="M87.6488 47.4713L87.0857 47.5265L86.1326 48.1558C86.0718 48.5348 86.1392 48.9233 86.324 49.2598C86.8776 49.3679 87.4426 49.4062 88.0057 49.3739C88.3836 49.1914 88.6847 48.8812 88.8558 48.498L88.1566 47.6038L87.6488 47.4713Z" fill="#263238"/>
<path d="M87.6445 47.4709C88.3515 48.3557 88.8937 49.3604 89.2453 50.437C91.8618 49.2079 93.3853 46.2712 93.3853 46.2712L92.1231 45.1672C92.1231 45.1672 89.0834 46.2124 87.6445 47.4709Z" fill="#6638B6"/>
<path d="M87.6478 47.471C86.6379 48.1082 85.7546 48.9266 85.0424 49.8851C83.2024 48.7554 83.9053 45.712 83.9053 45.712L85.3957 45.4176C85.3957 45.4176 86.1832 46.2456 87.6478 47.471Z" fill="#6638B6"/>
<path opacity="0.2" d="M90.4527 39.2758L87.5823 41.4175C87.6692 41.8602 87.7173 42.3097 87.7258 42.7607C88.7599 42.6834 90.2466 41.6567 90.4269 40.5822C90.5134 40.1517 90.5221 39.7093 90.4527 39.2758Z" fill="black"/>
<path d="M92.9592 34.1937C92.5433 37.4431 92.4661 39.3457 90.707 40.9317C88.0611 43.2833 84.1345 41.5242 83.5715 38.2159C83.0637 35.2388 83.8291 30.4253 87.108 29.3397C87.8299 29.0964 88.602 29.0417 89.351 29.1809C90.1 29.32 90.801 29.6484 91.3873 30.1348C91.9737 30.6212 92.4259 31.2495 92.701 31.9599C92.9761 32.6703 93.065 33.4392 92.9592 34.1937Z" fill="#FFB573"/>
<path d="M92.166 37.1304C91.43 36.4202 91.89 33.0199 92.2617 32.0447C90.4217 32.2213 84.4748 32.214 84.6993 30.5727C84.9238 28.9314 87.0876 27.5367 90.6241 28.6885C93.5681 29.649 94.3041 31.1173 94.3041 32.317C94.3483 34.7826 92.166 37.1304 92.166 37.1304Z" fill="#263238"/>
<path d="M94.1014 37.1674C93.7519 37.8353 93.1548 38.3399 92.438 38.5732C91.4996 38.8639 91.036 37.9991 91.3009 37.0717C91.5364 36.2401 92.3129 35.0809 93.2513 35.1986C94.1897 35.3164 94.532 36.3394 94.1014 37.1674Z" fill="#FFB573"/>
<path d="M67.8621 143.542L73.3195 144.745C73.3195 144.745 78.6261 123.949 80.2011 113.785C80.6832 110.694 81.8019 106.282 82.8213 101.641C84.1056 95.79 85.7211 89.4604 87.0459 84.5034C88.4443 79.2815 89.4821 75.5279 89.4821 75.5279L77.96 74.7661C77.96 74.7661 72.5982 101.965 71.5163 111.978C70.3865 122.385 67.8621 143.542 67.8621 143.542Z" fill="#263238"/>
<path opacity="0.2" d="M82.8218 101.633C84.1061 95.7822 85.7216 89.4526 87.0464 84.4957L85.8357 81.9197C82.9764 85.3347 82.244 95.9 82.8218 101.633Z" fill="black"/>
<path d="M83.4509 75.1191C83.4509 75.1191 85.8356 102.914 86.7629 112.537C87.7933 123.077 90.557 144.667 90.557 144.667H96.0991C96.0991 144.667 96.3493 121.675 95.3631 111.496C95.2233 91.4841 95.5728 75.9214 95.5728 75.9214L83.4509 75.1191Z" fill="#263238"/>
<path d="M89.8505 144.796H96.9676V142.669L89.5745 142.261L89.8505 144.796Z" fill="#6638B6"/>
<path d="M67.146 143.52L73.6486 144.955L74.1122 142.854L67.3042 141.139L67.146 143.52Z" fill="#6638B6"/>
<path d="M88.2077 34.7751C88.2077 35.04 88.0347 35.2461 87.8618 35.2351C87.6888 35.224 87.56 34.9996 87.5784 34.7346C87.5968 34.4696 87.7514 34.2636 87.9243 34.2746C88.0973 34.2856 88.2261 34.5101 88.2077 34.7751Z" fill="#263238"/>
<path d="M85.2052 34.5912C85.2052 34.8562 85.0323 35.0623 84.8593 35.0512C84.6864 35.0402 84.5576 34.8157 84.576 34.5508C84.5944 34.2858 84.7489 34.0797 84.9219 34.0908C85.0949 34.1018 85.2236 34.3116 85.2052 34.5912Z" fill="#263238"/>
<path d="M85.8948 34.775C85.5238 35.5645 85.0471 36.2999 84.478 36.9609C84.9159 37.432 85.7292 37.2848 85.7292 37.2848L85.8948 34.775Z" fill="#ED893E"/>
<path d="M86.8024 38.0689C87.1006 38.052 87.3924 37.9749 87.6599 37.8421C87.9275 37.7092 88.1653 37.5235 88.359 37.2961C88.3727 37.2817 88.3804 37.2626 88.3804 37.2427C88.3804 37.2228 88.3727 37.2037 88.359 37.1893C88.344 37.1754 88.3243 37.1676 88.3038 37.1676C88.2833 37.1676 88.2636 37.1754 88.2486 37.1893C88.0301 37.4387 87.7561 37.6332 87.4486 37.7572C87.1412 37.8812 86.8089 37.9312 86.4785 37.9033C86.4684 37.9022 86.4581 37.9033 86.4484 37.9062C86.4386 37.9092 86.4295 37.9141 86.4216 37.9206C86.4138 37.9271 86.4073 37.9351 86.4025 37.9441C86.3977 37.9531 86.3948 37.963 86.3939 37.9732C86.3929 37.9941 86.3999 38.0145 86.4137 38.0303C86.4274 38.0461 86.4467 38.0559 86.4675 38.0578C86.5788 38.0683 86.6906 38.0719 86.8024 38.0689Z" fill="#263238"/>
<path d="M88.9401 33.8552C88.9662 33.8522 88.9914 33.8434 89.0137 33.8295C89.0486 33.8068 89.0732 33.7714 89.0822 33.7307C89.0911 33.6901 89.0837 33.6476 89.0615 33.6123C88.9301 33.4006 88.75 33.2234 88.5362 33.0953C88.3224 32.9673 88.0811 32.8922 87.8324 32.8763C87.7951 32.8821 87.761 32.901 87.7364 32.9297C87.7118 32.9584 87.6982 32.9949 87.6982 33.0327C87.6982 33.0705 87.7118 33.1071 87.7364 33.1358C87.761 33.1645 87.7951 33.1834 87.8324 33.1891C88.0288 33.2037 88.219 33.2646 88.3873 33.367C88.5555 33.4693 88.6971 33.6102 88.8003 33.7779C88.814 33.8026 88.8344 33.823 88.8591 33.8366C88.8838 33.8503 88.9119 33.8567 88.9401 33.8552Z" fill="#263238"/>
<path d="M83.7224 33.461C83.748 33.4592 83.7727 33.4512 83.7945 33.4378C83.8163 33.4243 83.8345 33.4057 83.8475 33.3837C83.9414 33.2127 84.0743 33.0662 84.2355 32.9563C84.3966 32.8463 84.5814 32.7759 84.7749 32.7507C84.8159 32.747 84.8539 32.7278 84.8813 32.6971C84.9086 32.6663 84.9232 32.6263 84.9221 32.5851C84.9193 32.5438 84.9003 32.5052 84.8694 32.4777C84.8384 32.4502 84.7979 32.4359 84.7565 32.4379C84.5094 32.4678 84.2732 32.5566 84.0676 32.6968C83.862 32.8371 83.6931 33.0247 83.5752 33.2439C83.5553 33.2795 83.5504 33.3216 83.5614 33.3609C83.5724 33.4002 83.5986 33.4335 83.6341 33.4536C83.6618 33.4661 83.693 33.4687 83.7224 33.461Z" fill="#263238"/>
<path d="M90.351 149.323C90.6439 149.316 90.9352 149.277 91.2194 149.205C91.2343 149.202 91.2479 149.194 91.2584 149.183C91.2689 149.172 91.2758 149.158 91.2783 149.143C91.2823 149.128 91.2815 149.113 91.2763 149.099C91.271 149.085 91.2614 149.074 91.2489 149.065C91.1311 148.988 90.0934 148.329 89.718 148.521C89.6774 148.542 89.643 148.574 89.6185 148.612C89.5939 148.651 89.58 148.696 89.5782 148.742C89.5651 148.817 89.5714 148.895 89.5965 148.968C89.6216 149.041 89.6647 149.106 89.7217 149.157C89.906 149.284 90.1284 149.342 90.351 149.323ZM90.995 149.095C90.4319 149.209 90.0014 149.187 89.8284 149.036C89.7892 149.001 89.7598 148.957 89.743 148.907C89.7262 148.857 89.7227 148.804 89.7327 148.753C89.7327 148.694 89.7622 148.672 89.7842 148.661C89.9793 148.565 90.5754 148.845 90.995 149.095Z" fill="#6638B6"/>
<path d="M91.2031 149.208C91.2161 149.213 91.2306 149.213 91.2436 149.208C91.2561 149.201 91.2666 149.191 91.2737 149.179C91.2809 149.167 91.2844 149.152 91.2841 149.138C91.2841 149.098 91.2436 148.145 90.8719 147.832C90.8271 147.792 90.7743 147.763 90.7171 147.746C90.66 147.729 90.5998 147.724 90.5407 147.732C90.4818 147.733 90.4246 147.753 90.3785 147.789C90.3324 147.826 90.3001 147.877 90.2868 147.935C90.2022 148.303 90.8314 149.039 91.1663 149.212C91.1787 149.214 91.1915 149.213 91.2031 149.208ZM90.5922 147.869C90.6577 147.869 90.7207 147.894 90.7689 147.939C91.0044 148.137 91.089 148.693 91.1148 148.973C90.7873 148.715 90.3788 148.167 90.4377 147.95C90.4377 147.931 90.4377 147.883 90.5554 147.872H90.5922V147.869Z" fill="#6638B6"/>
<path d="M67.6044 147.714L71.4758 148.818C71.5376 148.836 71.5913 148.875 71.6276 148.928C71.6638 148.981 71.6804 149.045 71.6745 149.109L71.3875 152.079C71.3781 152.152 71.3531 152.222 71.3141 152.285C71.2751 152.347 71.2231 152.4 71.1616 152.441C71.1001 152.481 71.0306 152.508 70.9578 152.519C70.885 152.531 70.8106 152.526 70.7398 152.506C69.4996 152.138 68.6164 151.803 67.0598 151.358C66.0956 151.085 62.9566 149.959 61.8121 149.179C60.6676 148.399 61.3411 147.195 61.882 147.416C64.3145 148.402 66.0257 148.244 67.034 147.784C67.2099 147.694 67.412 147.669 67.6044 147.714Z" fill="#263238"/>
<path d="M66.3705 147.964C66.6549 148.035 66.946 148.076 67.239 148.086C67.2548 148.087 67.2705 148.083 67.2842 148.075C67.298 148.067 67.3091 148.056 67.3162 148.042C67.325 148.029 67.3296 148.014 67.3296 147.999C67.3296 147.984 67.325 147.969 67.3162 147.957C67.2242 147.854 66.4036 146.941 65.9951 147.019C65.9497 147.029 65.9075 147.05 65.8727 147.081C65.838 147.112 65.8117 147.151 65.7964 147.195C65.7645 147.264 65.7502 147.34 65.7547 147.416C65.7592 147.491 65.7824 147.565 65.8222 147.629C65.9624 147.799 66.1555 147.917 66.3705 147.964ZM67.055 147.92C66.4809 147.876 66.0724 147.736 65.951 147.552C65.9262 147.506 65.9132 147.455 65.9132 147.403C65.9132 147.351 65.9262 147.3 65.951 147.254C65.973 147.195 66.0025 147.184 66.0282 147.18C66.238 147.133 66.7164 147.567 67.055 147.935V147.92Z" fill="#6638B6"/>
<path d="M67.221 148.082C67.2355 148.086 67.2507 148.086 67.2651 148.082C67.2794 148.079 67.2924 148.071 67.3027 148.061C67.3131 148.051 67.3205 148.038 67.324 148.023C67.324 147.987 67.5522 147.059 67.2835 146.654C67.2507 146.605 67.2078 146.563 67.1577 146.532C67.1076 146.5 67.0515 146.479 66.9928 146.47C66.9358 146.455 66.8751 146.458 66.8204 146.481C66.7657 146.504 66.7201 146.544 66.6911 146.595C66.5071 146.927 66.9192 147.795 67.1879 148.067C67.1975 148.075 67.2089 148.08 67.221 148.082ZM66.9965 146.629C67.0594 146.646 67.1134 146.687 67.1474 146.743C67.324 147 67.2504 147.56 67.2026 147.847C66.956 147.512 66.7205 146.875 66.8346 146.68C66.8346 146.662 66.8677 146.621 66.9707 146.636L66.9965 146.629Z" fill="#6638B6"/>
<path d="M92.4898 45.5129C92.4507 45.5067 92.4106 45.5094 92.3727 45.5209C92.3348 45.5324 92.2999 45.5523 92.2708 45.5793C92.2418 45.6062 92.2192 45.6395 92.2049 45.6764C92.1905 45.7134 92.1848 45.7531 92.1881 45.7926C92.3169 47.7651 89.2441 51.3126 88.5081 61.9368C88.0702 68.3989 87.669 88.5469 87.9634 99.0275C87.9677 99.165 88.0033 99.2998 88.0675 99.4215C88.1316 99.5432 88.2227 99.6487 88.3337 99.7299C88.4448 99.8111 88.5729 99.866 88.7083 99.8903C88.8437 99.9146 88.9829 99.9078 89.1153 99.8702C94.547 98.3541 97.1119 102.03 98.157 97.6954C98.1018 92.5029 96.5305 73.86 96.9353 69.4403C97.3401 65.0206 99.0218 53.0128 99.4414 49.8112C99.813 47.0291 94.0097 45.7889 92.4898 45.5129Z" fill="#6638B6"/>
<path opacity="0.7" d="M92.4898 45.5129C92.4507 45.5067 92.4106 45.5094 92.3727 45.5209C92.3348 45.5324 92.2999 45.5523 92.2708 45.5793C92.2418 45.6062 92.2192 45.6395 92.2049 45.6764C92.1905 45.7134 92.1848 45.7531 92.1881 45.7926C92.3169 47.7651 89.2441 51.3126 88.5081 61.9368C88.0702 68.3989 87.669 88.5469 87.9634 99.0275C87.9677 99.165 88.0033 99.2998 88.0675 99.4215C88.1316 99.5432 88.2227 99.6487 88.3337 99.7299C88.4448 99.8111 88.5729 99.866 88.7083 99.8903C88.8437 99.9146 88.9829 99.9078 89.1153 99.8702C94.547 98.3541 97.1119 102.03 98.157 97.6954C98.1018 92.5029 96.5305 73.86 96.9353 69.4403C97.3401 65.0206 99.0218 53.0128 99.4414 49.8112C99.813 47.0291 94.0097 45.7889 92.4898 45.5129Z" fill="white"/>
<path opacity="0.2" d="M96.0702 54.5181C95.831 56.1593 95.739 62.7907 97.3177 65.9813C97.5827 63.7733 97.9286 61.1494 98.2635 58.6213L96.0702 54.5181Z" fill="#6638B6"/>
<path d="M98.3242 83.1967L96.7565 83.3807L95.3692 85.8573C95.2931 85.9913 95.2459 86.1398 95.2307 86.2932C95.2155 86.4466 95.2326 86.6015 95.2809 86.7479L95.7813 88.2714C95.8663 88.5321 96.0452 88.7519 96.2833 88.8879C96.5214 89.024 96.8016 89.0666 97.0693 89.0074L97.7685 88.8602C98.0255 88.8079 98.2555 88.666 98.4173 88.4596C98.5791 88.2533 98.6622 87.9961 98.6517 87.7341L98.6076 86.3799C98.6076 86.3799 99.8514 83.5058 98.3242 83.1967Z" fill="#FFB573"/>
<path d="M99.1854 48.575C99.6859 50.047 100.15 51.5006 100.61 52.9726C101.07 54.4446 101.53 55.9166 101.964 57.3886C102.398 58.8606 102.818 60.3657 103.204 61.9002C103.395 62.6694 103.572 63.4458 103.741 64.2591C103.819 64.6676 103.896 65.0834 103.958 65.525C103.988 65.7532 104.021 65.963 104.039 66.2169L104.072 66.5849L104.091 67.0007C104.098 67.1405 104.098 67.2805 104.091 67.4202C104.091 67.5674 104.091 67.7073 104.072 67.8214L104.039 68.1894L103.999 68.5206C103.947 68.9658 103.881 69.3706 103.815 69.7754C103.682 70.5777 103.528 71.3505 103.37 72.1159C103.053 73.6468 102.7 75.1446 102.343 76.635C101.986 78.1254 101.607 79.6121 101.239 81.0951L100.135 85.5442L94.8062 84.098C95.6305 81.2239 96.3812 78.2983 97.0768 75.3911C97.4153 73.9191 97.7318 72.4766 98.0152 71.0377C98.155 70.3017 98.2875 69.6025 98.3832 68.9106C98.4384 68.5647 98.4825 68.2225 98.512 67.9134C98.5406 67.6691 98.5504 67.4231 98.5414 67.1774V67.0228L98.5156 66.8241C98.5156 66.699 98.4715 66.5334 98.4494 66.3898C98.3979 66.0807 98.3317 65.7532 98.2581 65.4183C98.1072 64.7486 97.9268 64.0567 97.7318 63.3612C97.3638 61.9665 96.8964 60.5534 96.4217 59.1476C95.4833 56.3361 94.4272 53.5062 93.3379 50.7535L99.1854 48.575Z" fill="#6638B6"/>
<path opacity="0.7" d="M99.1854 48.575C99.6859 50.047 100.15 51.5006 100.61 52.9726C101.07 54.4446 101.53 55.9166 101.964 57.3886C102.398 58.8606 102.818 60.3657 103.204 61.9002C103.395 62.6694 103.572 63.4458 103.741 64.2591C103.819 64.6676 103.896 65.0834 103.958 65.525C103.988 65.7532 104.021 65.963 104.039 66.2169L104.072 66.5849L104.091 67.0007C104.098 67.1405 104.098 67.2805 104.091 67.4202C104.091 67.5674 104.091 67.7073 104.072 67.8214L104.039 68.1894L103.999 68.5206C103.947 68.9658 103.881 69.3706 103.815 69.7754C103.682 70.5777 103.528 71.3505 103.37 72.1159C103.053 73.6468 102.7 75.1446 102.343 76.635C101.986 78.1254 101.607 79.6121 101.239 81.0951L100.135 85.5442L94.8062 84.098C95.6305 81.2239 96.3812 78.2983 97.0768 75.3911C97.4153 73.9191 97.7318 72.4766 98.0152 71.0377C98.155 70.3017 98.2875 69.6025 98.3832 68.9106C98.4384 68.5647 98.4825 68.2225 98.512 67.9134C98.5406 67.6691 98.5504 67.4231 98.5414 67.1774V67.0228L98.5156 66.8241C98.5156 66.699 98.4715 66.5334 98.4494 66.3898C98.3979 66.0807 98.3317 65.7532 98.2581 65.4183C98.1072 64.7486 97.9268 64.0567 97.7318 63.3612C97.3638 61.9665 96.8964 60.5534 96.4217 59.1476C95.4833 56.3361 94.4272 53.5062 93.3379 50.7535L99.1854 48.575Z" fill="white"/>
<path d="M85.3288 45.2373C85.4097 45.2367 85.4891 45.2591 85.5577 45.3019C85.6264 45.3447 85.6814 45.4061 85.7165 45.479C85.7516 45.5519 85.7653 45.6332 85.7559 45.7136C85.7466 45.7939 85.7146 45.87 85.6636 45.9328C84.7878 46.9485 84.2358 48.3432 83.198 52.8181C81.9468 58.2167 79.2825 85.3788 78.782 98.6893C78.7796 98.7999 78.7531 98.9086 78.7046 99.008C78.6561 99.1074 78.5865 99.1951 78.5008 99.2651C78.4152 99.335 78.3153 99.3856 78.2082 99.4132C78.1011 99.4409 77.9893 99.445 77.8805 99.4253C75.2824 98.9469 73.5013 100.205 73.2179 98.5384C72.9051 96.6984 74.0717 79.1228 76.2539 70.8575C75.9117 63.5269 77.1481 48.8216 79.6174 46.8676C80.9569 45.782 83.8053 45.2631 85.3288 45.2373Z" fill="#6638B6"/>
<path opacity="0.7" d="M85.3288 45.2373C85.4097 45.2367 85.4891 45.2591 85.5577 45.3019C85.6264 45.3447 85.6814 45.4061 85.7165 45.479C85.7516 45.5519 85.7653 45.6332 85.7559 45.7136C85.7466 45.7939 85.7146 45.87 85.6636 45.9328C84.7878 46.9485 84.2358 48.3432 83.198 52.8181C81.9468 58.2167 79.2825 85.3788 78.782 98.6893C78.7796 98.7999 78.7531 98.9086 78.7046 99.008C78.6561 99.1074 78.5865 99.1951 78.5008 99.2651C78.4152 99.335 78.3153 99.3856 78.2082 99.4132C78.1011 99.4409 77.9893 99.445 77.8805 99.4253C75.2824 98.9469 73.5013 100.205 73.2179 98.5384C72.9051 96.6984 74.0717 79.1228 76.2539 70.8575C75.9117 63.5269 77.1481 48.8216 79.6174 46.8676C80.9569 45.782 83.8053 45.2631 85.3288 45.2373Z" fill="white"/>
<path d="M86.7616 48.8848C86.7616 48.8848 83.5821 57.8161 82.4634 65.3012C82.3751 67.3363 83.3429 71.2776 84.1268 72.9961C85.7644 69.4302 86.7874 67.3289 86.9493 65.3012C87.2106 62.2505 87.6412 48.9436 87.6412 48.9436L86.7616 48.8848Z" fill="#263238"/>
<path d="M93.4156 59.5085C93.3834 59.5074 93.3524 59.4958 93.3274 59.4755C93.3025 59.4551 93.2849 59.4271 93.2773 59.3957C93.2698 59.3644 93.2728 59.3315 93.2858 59.302C93.2988 59.2725 93.3211 59.2481 93.3494 59.2325L93.9529 58.916C94.5163 58.6262 94.978 58.1716 95.2764 57.6128C95.5749 57.054 95.696 56.4174 95.6236 55.788L94.9686 49.8559C94.9203 49.4137 94.7245 49.0006 94.4127 48.6833C94.101 48.366 93.6915 48.1629 93.2502 48.1068C92.8089 48.0507 92.3616 48.1448 91.9803 48.374C91.5991 48.6032 91.3062 48.9541 91.1487 49.3701L89.029 54.9453C88.8008 55.5362 88.7578 56.1825 88.9057 56.7984C89.0536 57.4143 89.3854 57.9707 89.857 58.3935L90.3649 58.8535C90.3919 58.881 90.407 58.918 90.407 58.9565C90.407 58.995 90.3919 59.032 90.3649 59.0596C90.3374 59.0865 90.3004 59.1016 90.2618 59.1016C90.2233 59.1016 90.1863 59.0865 90.1588 59.0596L89.651 58.6032C89.1371 58.1392 88.7765 57.5301 88.6168 56.8564C88.4571 56.1828 88.5059 55.4765 88.7567 54.8312L90.8948 49.2671C91.0774 48.7917 91.4142 48.3913 91.8513 48.1301C92.2885 47.8689 92.8007 47.7619 93.3058 47.8264C93.8109 47.8909 94.2798 48.123 94.6374 48.4857C94.9949 48.8483 95.2204 49.3204 95.2777 49.8264L95.9327 55.7549C96.0102 56.4448 95.8756 57.1419 95.5469 57.7533C95.2182 58.3647 94.7109 58.8615 94.0927 59.1773L93.4892 59.4901C93.4674 59.5042 93.4415 59.5107 93.4156 59.5085Z" fill="#263238"/>
<path d="M95.2408 51.1515C95.2057 51.1518 95.1717 51.1392 95.1453 51.1161C95.1189 51.0931 95.1018 51.0611 95.0973 51.0264C95.0117 50.5492 94.7694 50.1143 94.4088 49.7904C94.0482 49.4664 93.5899 49.272 93.1064 49.2379C92.2894 49.1348 91.1781 49.3924 90.7328 50.467C90.7264 50.486 90.7162 50.5036 90.7027 50.5185C90.6893 50.5335 90.673 50.5455 90.6547 50.5539C90.6365 50.5623 90.6167 50.5668 90.5966 50.5673C90.5765 50.5678 90.5566 50.5641 90.5379 50.5566C90.5193 50.549 90.5024 50.5377 90.4884 50.5234C90.4743 50.5091 90.4632 50.4921 90.456 50.4733C90.4487 50.4546 90.4454 50.4346 90.4462 50.4145C90.4469 50.3944 90.4518 50.3747 90.4605 50.3566C90.7093 49.8754 91.1001 49.4822 91.5798 49.2305C92.0595 48.9788 92.6051 48.8806 93.1425 48.9493C93.6799 49.018 94.1831 49.2502 94.5842 49.6145C94.9852 49.9788 95.2645 50.4575 95.3843 50.9859C95.3896 51.0234 95.3797 51.0615 95.357 51.0919C95.3342 51.1222 95.3004 51.1423 95.2629 51.1478L95.2408 51.1515Z" fill="#263238"/>
<path d="M93.2593 48.1081C93.2401 48.1071 93.2213 48.1024 93.204 48.094C93.1866 48.0857 93.1712 48.074 93.1585 48.0596C93.1458 48.0452 93.1361 48.0284 93.13 48.0101C93.124 47.9919 93.1216 47.9727 93.1231 47.9535C93.1673 47.2359 93.0642 45.9295 92.3871 45.5909C92.3524 45.5729 92.3264 45.5418 92.3147 45.5045C92.3029 45.4673 92.3065 45.4269 92.3245 45.3922C92.3426 45.3576 92.3737 45.3315 92.4109 45.3198C92.4482 45.3081 92.4886 45.3116 92.5233 45.3297C93.5021 45.8338 93.4138 47.7548 93.3991 47.9719C93.3973 48.0081 93.3818 48.0422 93.3559 48.0674C93.33 48.0927 93.2954 48.1072 93.2593 48.1081Z" fill="#263238"/>
<path d="M90.5919 59.0006C90.5551 59.2766 90.3822 59.479 90.2019 59.4533C90.0215 59.4275 89.9038 59.192 89.9406 58.9197C89.9774 58.6473 90.1467 58.4413 90.327 58.467C90.5073 58.4928 90.625 58.7283 90.5919 59.0006Z" fill="#263238"/>
<path d="M82.038 53.0352C81.8061 53.6203 81.302 53.9736 80.934 53.8227C80.566 53.6718 80.4225 53.0867 80.6543 52.4869C80.8861 51.887 81.3903 51.5485 81.7583 51.6993C82.1263 51.8502 82.2661 52.4501 82.038 53.0352Z" fill="#263238"/>
<path d="M80.827 52.656H80.7976C80.7596 52.648 80.7263 52.6254 80.705 52.593C80.6836 52.5606 80.6759 52.5211 80.6835 52.483C81.1693 50.0653 83.1786 46.227 84.9486 45.123C84.9647 45.1092 84.9836 45.099 85.004 45.0931C85.0243 45.0872 85.0458 45.0858 85.0667 45.0889C85.0877 45.0921 85.1078 45.0997 85.1255 45.1114C85.1433 45.123 85.1583 45.1383 85.1696 45.1563C85.1808 45.1743 85.1881 45.1945 85.1908 45.2155C85.1935 45.2366 85.1917 45.2579 85.1854 45.2782C85.1791 45.2985 85.1685 45.3171 85.1543 45.3329C85.1401 45.3487 85.1227 45.3612 85.1032 45.3696C83.392 46.4478 81.4453 50.1536 80.9706 52.5346C80.9646 52.5684 80.9469 52.599 80.9207 52.6212C80.8945 52.6434 80.8614 52.6557 80.827 52.656Z" fill="#263238"/>
<path d="M82.4551 53.1569C82.2858 53.6611 81.8515 53.9739 81.4835 53.8524C81.1155 53.731 80.9499 53.2195 81.1155 52.7116C81.2811 52.2038 81.7191 51.8947 82.0871 52.0161C82.4551 52.1376 82.6244 52.6491 82.4551 53.1569Z" fill="white"/>
<path d="M82.4827 53.2081C82.2582 53.83 81.8424 54.2532 81.559 54.1502C81.2757 54.0472 81.2278 53.4584 81.456 52.8328C81.6841 52.2072 82.0963 51.7876 82.3797 51.8907C82.663 51.9937 82.7109 52.5825 82.4827 53.2081Z" fill="#263238"/>
<path d="M93.7443 59.4055C93.7112 59.6778 93.5345 59.8802 93.3542 59.8581C93.1739 59.8361 93.0561 59.5932 93.0929 59.3209C93.1297 59.0485 93.3027 58.8461 93.483 58.8682C93.6633 58.8903 93.7811 59.1295 93.7443 59.4055Z" fill="#263238"/>
<path d="M114.612 43.4613C115.841 46.8211 112.573 48.5102 110.431 53.4598C108.29 58.4094 113.456 64.3122 121.387 64.441C129.317 64.5698 129.567 56.9742 128.338 51.5242C127.109 46.0741 129.678 45.1872 129.133 41.0251C128.434 35.5566 120.555 31.413 117.427 36.4325C114.645 36.1712 113.537 40.5246 114.612 43.4613Z" fill="#263238"/>
<path d="M138.101 88.6877V88.2608C138.094 88.056 138.042 87.8552 137.95 87.672L136.618 85.0445L135.058 84.7501C133.954 85.9388 135.058 88.3087 135.058 88.3087V88.6877C135.058 88.9982 135.159 89.3002 135.346 89.5479C135.534 89.7956 135.797 89.9755 136.095 90.0604L136.305 90.1229C136.521 90.1799 136.747 90.1856 136.966 90.1394C137.185 90.0932 137.389 89.9965 137.564 89.8571C137.739 89.7176 137.878 89.5392 137.971 89.3361C138.064 89.1331 138.109 88.911 138.101 88.6877Z" fill="#FFC3BD"/>
<path d="M131.487 54.8873L132.061 58.9132L132.664 62.9281C132.863 64.2713 133.073 65.6072 133.286 66.9467L133.923 70.9358L134 71.3296C134.026 71.4584 134.07 71.624 134.103 71.7675L134.214 72.2201L134.342 72.6875C134.508 73.3057 134.71 73.9461 134.887 74.579C135.255 75.8486 135.678 77.1329 136.094 78.4099C136.94 80.9601 137.824 83.5214 138.766 86.0385L133.562 87.8785L130.957 80.099C130.526 78.8 130.088 77.5009 129.672 76.1761C129.466 75.5101 129.26 74.8513 129.065 74.1632L128.914 73.6517L128.771 73.1181C128.723 72.9341 128.671 72.7721 128.627 72.5697L128.491 71.9662L127.722 67.9182C127.477 66.5836 127.22 65.249 126.953 63.9144L126.165 59.9105L125.345 55.9361L131.487 54.8873Z" fill="#6638B6"/>
<path opacity="0.6" d="M131.487 54.8873L132.061 58.9132L132.664 62.9281C132.863 64.2713 133.073 65.6072 133.286 66.9467L133.923 70.9358L134 71.3296C134.026 71.4584 134.07 71.624 134.103 71.7675L134.214 72.2201L134.342 72.6875C134.508 73.3057 134.71 73.9461 134.887 74.579C135.255 75.8486 135.678 77.1329 136.094 78.4099C136.94 80.9601 137.824 83.5214 138.766 86.0385L133.562 87.8785L130.957 80.099C130.526 78.8 130.088 77.5009 129.672 76.1761C129.466 75.5101 129.26 74.8513 129.065 74.1632L128.914 73.6517L128.771 73.1181C128.723 72.9341 128.671 72.7721 128.627 72.5697L128.491 71.9662L127.722 67.9182C127.477 66.5836 127.22 65.249 126.953 63.9144L126.165 59.9105L125.345 55.9361L131.487 54.8873Z" fill="white"/>
<path d="M130.659 54.578C130.832 56.5395 130.678 61.4191 128.709 73.5153H115.093C115.31 68.2603 115.325 64.9115 113.069 54.8835C113.018 54.658 113.013 54.4244 113.056 54.197C113.098 53.9697 113.187 53.7536 113.316 53.5618C113.446 53.3701 113.613 53.2069 113.808 53.0823C114.002 52.9577 114.221 52.8744 114.449 52.8374C115.778 52.619 117.119 52.4728 118.464 52.3995C120.524 52.2521 122.593 52.2521 124.654 52.3995C126.346 52.554 128.183 52.8595 129.294 53.0619C129.656 53.1306 129.986 53.3161 130.232 53.5899C130.479 53.8637 130.629 54.2108 130.659 54.578Z" fill="#263238"/>
<path d="M119.06 45.4297C119.45 47.4206 119.841 51.0711 118.446 52.3996C118.446 52.3996 120.19 54.5193 122.862 54.5193C125.533 54.5193 124.639 52.3996 124.639 52.3996C122.431 51.8697 122.475 50.2211 122.862 48.6755L119.06 45.4297Z" fill="#FFC3BD"/>
<path opacity="0.2" d="M120.611 46.7548L122.86 48.672C122.764 49.0339 122.7 49.4032 122.668 49.776C121.818 49.6546 120.486 48.9296 120.302 48.006C120.218 47.568 120.538 46.9608 120.611 46.7548Z" fill="black"/>
<path d="M116.718 41.5213C117.237 44.8112 117.388 46.2133 119.221 47.7516C121.981 50.0663 125.907 48.7084 126.382 45.3301C126.809 42.2904 125.885 37.4181 122.522 36.4135C121.781 36.1881 120.995 36.1558 120.238 36.3197C119.481 36.4836 118.778 36.8383 118.197 37.35C117.615 37.8617 117.174 38.5136 116.916 39.2436C116.657 39.9736 116.589 40.7577 116.718 41.5213Z" fill="#FFC3BD"/>
<path d="M117.267 43.891C119.151 42.0253 119.799 39.4309 119.622 38.371C121.437 38.8752 122.769 38.1613 122.688 37.8522C123.969 39.1034 126.291 40.0933 126.029 38.7464C125.768 37.3995 124.05 34.9155 120.465 35.8024C116.881 36.6893 115.501 40.3693 115.552 41.8634C115.604 43.3574 117.267 43.891 117.267 43.891Z" fill="#263238"/>
<path d="M121.44 41.8929C121.465 42.1652 121.627 42.3676 121.808 42.3529C121.988 42.3382 122.106 42.1027 122.08 41.834C122.054 41.5654 121.889 41.3593 121.712 41.374C121.535 41.3888 121.44 41.6243 121.44 41.8929Z" fill="#263238"/>
<path d="M124.496 41.6021C124.522 41.8708 124.688 42.0769 124.864 42.0585C125.041 42.0401 125.162 41.8119 125.137 41.5433C125.111 41.2746 124.945 41.0685 124.769 41.0833C124.592 41.098 124.471 41.3335 124.496 41.6021Z" fill="#263238"/>
<path d="M124.697 41.1056L125.326 40.859C125.326 40.859 125.039 41.3963 124.697 41.1056Z" fill="#263238"/>
<path d="M123.607 42.1763C123.905 42.7686 124.282 43.3172 124.73 43.8065C124.602 43.9173 124.451 43.9991 124.288 44.0461C124.126 44.0931 123.955 44.1043 123.787 44.0788L123.607 42.1763Z" fill="#ED847E"/>
<path d="M122.419 45.2643C122.552 45.2734 122.687 45.2734 122.82 45.2643C122.841 45.2615 122.86 45.2508 122.873 45.2343C122.886 45.2178 122.892 45.1969 122.89 45.176C122.89 45.1656 122.887 45.1554 122.882 45.1462C122.878 45.1369 122.871 45.1287 122.863 45.1221C122.855 45.1155 122.846 45.1106 122.836 45.1079C122.826 45.1051 122.816 45.1045 122.805 45.106C122.47 45.1448 122.131 45.1044 121.815 44.9881C121.498 44.8717 121.214 44.6827 120.984 44.4363C120.97 44.4234 120.951 44.416 120.932 44.4153C120.913 44.4147 120.894 44.4209 120.879 44.4328C120.864 44.4448 120.854 44.4617 120.85 44.4805C120.846 44.4993 120.849 44.5189 120.859 44.5356C121.058 44.7541 121.298 44.931 121.566 45.0561C121.834 45.1811 122.124 45.2519 122.419 45.2643Z" fill="#263238"/>
<path d="M115.989 44.197C116.235 44.7927 116.706 45.2674 117.3 45.5181C118.087 45.842 118.584 45.1501 118.448 44.3663C118.326 43.6303 117.767 42.6109 116.935 42.6256C116.754 42.6345 116.578 42.6878 116.422 42.7808C116.267 42.8738 116.137 43.0037 116.043 43.159C115.95 43.3143 115.896 43.4903 115.886 43.6713C115.877 43.8523 115.912 44.0329 115.989 44.197Z" fill="#FFC3BD"/>
<path d="M120.39 40.4797C120.421 40.4909 120.456 40.492 120.488 40.4827C120.52 40.4735 120.549 40.4544 120.57 40.4282C121.034 39.8578 121.979 39.913 121.987 39.913C122.028 39.9151 122.069 39.9009 122.101 39.8735C122.133 39.846 122.152 39.8075 122.156 39.7658C122.158 39.7449 122.156 39.7238 122.149 39.7038C122.143 39.6838 122.133 39.6654 122.119 39.6495C122.105 39.6337 122.088 39.6208 122.069 39.6117C122.05 39.6026 122.03 39.5974 122.009 39.5965C121.965 39.5965 120.886 39.5303 120.323 40.2295C120.297 40.2624 120.285 40.3043 120.289 40.3462C120.293 40.3881 120.313 40.4268 120.345 40.454L120.39 40.4797Z" fill="#263238"/>
<path d="M125.604 40.1447C125.639 40.1468 125.673 40.1373 125.702 40.1177C125.731 40.0981 125.753 40.0694 125.764 40.0362C125.775 40.003 125.774 39.9671 125.763 39.9342C125.751 39.9012 125.729 39.873 125.699 39.854C125.494 39.7086 125.256 39.6145 125.006 39.5793C124.757 39.5441 124.502 39.5689 124.264 39.6516C124.226 39.6686 124.195 39.7 124.179 39.7392C124.163 39.7784 124.164 39.8223 124.18 39.8613C124.188 39.8808 124.199 39.8985 124.214 39.9133C124.229 39.9282 124.247 39.9399 124.267 39.9478C124.286 39.9557 124.307 39.9596 124.328 39.9593C124.349 39.9589 124.37 39.9544 124.389 39.946C124.578 39.883 124.78 39.8658 124.977 39.8959C125.174 39.926 125.361 40.0024 125.523 40.1189C125.547 40.1346 125.575 40.1435 125.604 40.1447Z" fill="#263238"/>
<path d="M137.166 149.699L140.556 149.537L139.551 141.882L136.166 142.048L137.166 149.699Z" fill="#FFC3BD"/>
<g opacity="0.2">
<path d="M139.552 141.886L140.071 145.831L136.681 145.993L136.162 142.048L139.552 141.886Z" fill="black"/>
</g>
<path d="M128.707 73.5154C128.707 73.5154 132.973 99.3674 134.71 109.447C136.52 119.928 140.598 144.595 140.598 144.595L136.115 145.331C136.115 145.331 130.073 120.638 127.651 110.371C125.024 99.165 118.657 84.1395 118.724 73.5448L128.707 73.5154Z" fill="#6638B6"/>
<path opacity="0.2" d="M121.859 81.4498C121.219 80.5188 119.986 79.2124 119.04 78.1378C119.897 84.725 122.352 92.3684 124.593 99.5665C125.189 94.0833 124.851 85.7665 121.859 81.4498Z" fill="black"/>
<path d="M116.259 149.18H119.615L119.839 141.408H116.479L116.259 149.18Z" fill="#FFC3BD"/>
<path d="M119.773 148.672H116.001C115.936 148.671 115.873 148.694 115.823 148.737C115.774 148.779 115.742 148.839 115.733 148.903L115.302 151.884C115.294 151.96 115.303 152.036 115.326 152.109C115.35 152.181 115.389 152.248 115.439 152.304C115.49 152.361 115.553 152.406 115.622 152.437C115.692 152.468 115.767 152.484 115.843 152.484C117.157 152.458 117.79 152.381 119.449 152.381C120.469 152.381 122.577 152.488 123.987 152.488C125.396 152.488 125.459 151.097 124.885 150.968C122.254 150.405 121.205 149.625 120.333 148.878C120.176 148.746 119.978 148.673 119.773 148.672Z" fill="#263238"/>
<g opacity="0.2">
<path d="M119.836 141.412L119.722 145.419H116.365L116.48 141.412H119.836Z" fill="black"/>
</g>
<path d="M124.874 73.5154C124.874 73.5154 123.513 99.6986 122.593 109.892C121.632 120.498 120.477 144.532 120.477 144.532H115.935C115.935 144.532 115.126 120.59 115.442 110.131C115.785 98.7234 113.043 84.1101 114.894 73.5154H124.874Z" fill="#6638B6"/>
<path d="M115.545 144.693L120.87 144.793L120.951 141.547L115.523 141.885L115.545 144.693Z" fill="#263238"/>
<path d="M121.031 149.271C121.318 149.298 121.605 149.225 121.844 149.065C121.898 149.017 121.94 148.956 121.965 148.888C121.99 148.82 121.998 148.747 121.988 148.675C121.985 148.632 121.972 148.59 121.948 148.553C121.925 148.516 121.893 148.486 121.855 148.465C121.443 148.237 120.104 148.922 119.953 149.003C119.939 149.01 119.927 149.022 119.92 149.037C119.913 149.051 119.91 149.068 119.912 149.084C119.914 149.1 119.922 149.115 119.933 149.127C119.944 149.139 119.959 149.147 119.975 149.15C120.322 149.224 120.676 149.265 121.031 149.271ZM121.631 148.576C121.682 148.574 121.732 148.584 121.778 148.605C121.794 148.613 121.807 148.625 121.816 148.64C121.825 148.655 121.83 148.672 121.83 148.69C121.838 148.736 121.833 148.784 121.817 148.829C121.801 148.873 121.774 148.913 121.738 148.944C121.535 149.128 120.983 149.161 120.24 149.036C120.674 148.804 121.144 148.648 121.631 148.576Z" fill="#6638B6"/>
<path d="M119.989 149.154H120.022C120.424 148.974 121.215 148.249 121.152 147.87C121.152 147.778 121.075 147.667 120.854 147.645C120.775 147.636 120.695 147.644 120.619 147.667C120.543 147.69 120.473 147.729 120.412 147.781C119.993 148.131 119.916 149.036 119.912 149.073C119.911 149.087 119.913 149.101 119.919 149.114C119.925 149.127 119.934 149.138 119.945 149.147C119.959 149.153 119.974 149.155 119.989 149.154ZM120.792 147.792H120.839C120.983 147.792 120.994 147.862 120.994 147.884C121.034 148.113 120.497 148.679 120.089 148.926C120.12 148.545 120.269 148.184 120.516 147.892C120.592 147.826 120.691 147.791 120.792 147.792Z" fill="#6638B6"/>
<path d="M140.519 148.672H136.747C136.716 148.67 136.686 148.675 136.658 148.686C136.63 148.697 136.604 148.715 136.583 148.737C136.563 148.759 136.547 148.785 136.538 148.814C136.528 148.843 136.526 148.874 136.529 148.904L136.721 151.885C136.743 152.046 136.822 152.195 136.943 152.305C137.064 152.415 137.22 152.478 137.383 152.484C138.693 152.459 139.312 152.381 140.968 152.381C141.991 152.381 144.121 152.488 145.531 152.488C146.94 152.488 146.723 151.097 146.112 150.968C143.363 150.405 142.164 149.625 141.122 148.878C140.947 148.749 140.736 148.677 140.519 148.672Z" fill="#263238"/>
<path d="M141.776 149.271C142.064 149.298 142.352 149.225 142.593 149.065C142.646 149.016 142.687 148.956 142.712 148.888C142.737 148.82 142.745 148.747 142.736 148.675C142.733 148.631 142.719 148.589 142.695 148.553C142.671 148.516 142.638 148.486 142.6 148.465C142.188 148.237 140.852 148.922 140.701 149.003C140.686 149.01 140.674 149.022 140.666 149.036C140.658 149.051 140.655 149.067 140.657 149.084C140.66 149.099 140.667 149.114 140.679 149.126C140.69 149.138 140.704 149.146 140.72 149.15C141.067 149.224 141.421 149.265 141.776 149.271ZM142.376 148.576C142.426 148.574 142.477 148.584 142.523 148.605C142.539 148.613 142.552 148.625 142.562 148.64C142.572 148.655 142.577 148.672 142.578 148.69C142.584 148.736 142.579 148.784 142.563 148.828C142.547 148.872 142.521 148.912 142.486 148.944C142.28 149.128 141.728 149.161 140.984 149.036C141.419 148.804 141.889 148.649 142.376 148.576Z" fill="#6638B6"/>
<path d="M140.74 149.154H140.773C141.171 148.974 141.962 148.249 141.899 147.87C141.899 147.778 141.822 147.667 141.601 147.645C141.523 147.636 141.443 147.644 141.368 147.667C141.293 147.69 141.223 147.729 141.163 147.781C140.74 148.131 140.663 149.036 140.659 149.073C140.659 149.087 140.662 149.101 140.667 149.114C140.673 149.126 140.682 149.138 140.692 149.147C140.707 149.153 140.724 149.155 140.74 149.154ZM141.539 147.792H141.587C141.73 147.792 141.741 147.862 141.745 147.884C141.782 148.113 141.244 148.679 140.836 148.926C140.869 148.546 141.018 148.185 141.263 147.892C141.34 147.827 141.438 147.792 141.539 147.792Z" fill="#6638B6"/>
<path d="M135.74 145.54L140.998 144.694L140.406 141.882L135.195 143.111L135.74 145.54Z" fill="#263238"/>
<path d="M121.649 41.3963L122.278 41.1498C122.278 41.1498 121.995 41.6871 121.649 41.3963Z" fill="#263238"/>
<path d="M114.873 72.7166L114.527 73.9384C114.479 74.0304 114.589 74.1298 114.747 74.1298H128.776C128.901 74.1298 129 74.0672 129.007 73.9899L129.133 72.7718C129.133 72.6872 129.033 72.6136 128.901 72.6136H115.097C115.054 72.6099 115.011 72.6174 114.971 72.6355C114.932 72.6535 114.898 72.6815 114.873 72.7166Z" fill="#263238"/>
<path d="M116.775 74.259H116.407C116.333 74.259 116.278 74.2222 116.281 74.178L116.454 72.592C116.454 72.5441 116.524 72.5073 116.598 72.5073H116.966C117.039 72.5073 117.095 72.5441 117.091 72.592L116.914 74.178C116.911 74.2222 116.848 74.259 116.775 74.259Z" fill="#6638B6"/>
<path d="M127.734 74.259H127.366C127.293 74.259 127.234 74.2222 127.241 74.178L127.414 72.592C127.414 72.5441 127.484 72.5073 127.558 72.5073H127.926C127.999 72.5073 128.055 72.5441 128.051 72.592L127.878 74.178C127.871 74.2222 127.808 74.259 127.734 74.259Z" fill="#6638B6"/>
<path d="M122.276 74.259H121.908C121.834 74.259 121.779 74.2222 121.782 74.178L121.955 72.592C121.955 72.5441 122.025 72.5073 122.099 72.5073H122.467C122.54 72.5073 122.596 72.5441 122.588 72.592L122.415 74.178C122.415 74.2222 122.349 74.259 122.276 74.259Z" fill="#6638B6"/>
<path d="M117.859 52.2886C115.721 52.4837 112.453 52.0789 112.553 55.3578C112.652 58.6366 112.015 67.3214 112.185 71.3878C112.354 75.4542 111.294 101.785 113.009 109.417C113.311 110.76 124.387 110.587 125.727 110.458V109.248C125.727 109.248 133.775 108.166 135.766 108.512C135.593 103.926 131.137 80.7645 130.964 74.2582C130.791 67.752 131.523 56.5722 131.479 54.7984C131.435 53.0246 127.909 52.2445 125.749 52.2886C126.227 53.8894 125.171 56.896 123.482 60.2485C119.327 56.2005 118.102 54.1912 117.859 52.2886Z" fill="#6638B6"/>
<path opacity="0.7" d="M117.859 52.2886C115.721 52.4837 112.453 52.0789 112.553 55.3578C112.652 58.6366 112.015 67.3214 112.185 71.3878C112.354 75.4542 111.294 101.785 113.009 109.417C113.311 110.76 124.387 110.587 125.727 110.458V109.248C125.727 109.248 133.775 108.166 135.766 108.512C135.593 103.926 131.137 80.7645 130.964 74.2582C130.791 67.752 131.523 56.5722 131.479 54.7984C131.435 53.0246 127.909 52.2445 125.749 52.2886C126.227 53.8894 125.171 56.896 123.482 60.2485C119.327 56.2005 118.102 54.1912 117.859 52.2886Z" fill="white"/>
<path opacity="0.2" d="M113.789 60.0651L112.42 61.0329C112.314 63.8665 112.17 67.0423 112.155 69.4969C113.429 66.6817 114.146 62.619 113.789 60.0651Z" fill="#6638B6"/>
<path d="M118.15 57.125C118.08 57.2283 118.005 57.3278 117.925 57.4231L117.848 57.5114L117.808 57.5556L117.734 57.6329L117.587 57.7911L117.292 58.1186C117.094 58.3357 116.902 58.5602 116.711 58.7884C116.328 59.2447 115.96 59.7096 115.607 60.1831C114.885 61.1287 114.213 62.1114 113.594 63.1271C112.377 65.0022 111.498 67.0759 110.996 69.2543C110.903 69.7402 110.845 70.2321 110.823 70.7263C110.846 70.9721 110.917 71.211 111.033 71.4292C111.5 72.4184 112.062 73.36 112.711 74.2407C113.392 75.2122 114.164 76.158 114.956 77.0927C115.353 77.5637 115.765 78.0201 116.181 78.4727C116.597 78.9253 117.031 79.389 117.436 79.7901L113.469 83.6247C112.987 83.0985 112.56 82.6201 112.115 82.1159L110.816 80.5961C109.954 79.5767 109.126 78.5169 108.309 77.4055C107.422 76.2317 106.656 74.9717 106.02 73.6445C105.835 73.2334 105.676 72.8105 105.546 72.3786C105.469 72.1214 105.409 71.8596 105.365 71.5948C105.337 71.4427 105.318 71.2891 105.307 71.1348C105.292 70.9733 105.286 70.8112 105.288 70.649C105.297 69.8588 105.365 69.0703 105.491 68.2901C105.745 66.8164 106.157 65.3742 106.72 63.9882C107.249 62.676 107.863 61.4 108.56 60.1684C109.237 58.954 109.98 57.7948 110.749 56.6613C111.139 56.0946 111.537 55.5389 111.953 54.9906L112.582 54.17L112.909 53.7578L113.075 53.5517L113.16 53.4524L113.196 53.4045L113.145 53.4634C113.079 53.5481 113.016 53.6327 112.957 53.721L118.15 57.125Z" fill="#6638B6"/>
<path opacity="0.7" d="M118.15 57.125C118.08 57.2283 118.005 57.3278 117.925 57.4231L117.848 57.5114L117.808 57.5556L117.734 57.6329L117.587 57.7911L117.292 58.1186C117.094 58.3357 116.902 58.5602 116.711 58.7884C116.328 59.2447 115.96 59.7096 115.607 60.1831C114.885 61.1287 114.213 62.1114 113.594 63.1271C112.377 65.0022 111.498 67.0759 110.996 69.2543C110.903 69.7402 110.845 70.2321 110.823 70.7263C110.846 70.9721 110.917 71.211 111.033 71.4292C111.5 72.4184 112.062 73.36 112.711 74.2407C113.392 75.2122 114.164 76.158 114.956 77.0927C115.353 77.5637 115.765 78.0201 116.181 78.4727C116.597 78.9253 117.031 79.389 117.436 79.7901L113.469 83.6247C112.987 83.0985 112.56 82.6201 112.115 82.1159L110.816 80.5961C109.954 79.5767 109.126 78.5169 108.309 77.4055C107.422 76.2317 106.656 74.9717 106.02 73.6445C105.835 73.2334 105.676 72.8105 105.546 72.3786C105.469 72.1214 105.409 71.8596 105.365 71.5948C105.337 71.4427 105.318 71.2891 105.307 71.1348C105.292 70.9733 105.286 70.8112 105.288 70.649C105.297 69.8588 105.365 69.0703 105.491 68.2901C105.745 66.8164 106.157 65.3742 106.72 63.9882C107.249 62.676 107.863 61.4 108.56 60.1684C109.237 58.954 109.98 57.7948 110.749 56.6613C111.139 56.0946 111.537 55.5389 111.953 54.9906L112.582 54.17L112.909 53.7578L113.075 53.5517L113.16 53.4524L113.196 53.4045L113.145 53.4634C113.079 53.5481 113.016 53.6327 112.957 53.721L118.15 57.125Z" fill="white"/>
<path opacity="0.3" d="M123.489 60.2489C123.875 68.102 125.973 95.4886 125.733 109.248L126.374 109.163C126.374 109.163 125.38 88.0035 124.931 78.7446C124.482 69.4857 123.489 60.2489 123.489 60.2489Z" fill="#6638B6"/>
<path opacity="0.3" d="M117.125 79.8561L113.195 84.1102C113.195 85.538 112.197 88.3937 114.84 89.4314C117.482 90.4692 117.552 82.9399 117.125 79.8561Z" fill="#6638B6"/>
<path opacity="0.3" d="M129.942 79.7231L131.671 84.0582C131.723 85.5302 132.227 88.4742 131.204 89.5966C130.181 90.719 129.883 82.9137 129.942 79.7231Z" fill="#6638B6"/>
<path d="M125.646 62.9831L129.962 62.9537C130.005 62.9556 130.048 62.9481 130.088 62.9318C130.128 62.9155 130.164 62.8908 130.193 62.8593C130.223 62.8278 130.245 62.7904 130.258 62.7495C130.272 62.7086 130.276 62.6653 130.272 62.6225L130.032 60.5764C130.018 60.4878 129.974 60.4069 129.907 60.3472C129.84 60.2876 129.754 60.2528 129.664 60.2489L125.344 60.2747C125.301 60.2734 125.259 60.2813 125.219 60.2978C125.179 60.3143 125.144 60.3391 125.115 60.3704C125.085 60.4017 125.063 60.4389 125.049 60.4795C125.036 60.5201 125.031 60.5632 125.035 60.6059L125.274 62.6556C125.289 62.7445 125.334 62.8255 125.402 62.8852C125.47 62.9448 125.556 62.9794 125.646 62.9831Z" fill="white" stroke="#6638B6" stroke-width="0.184" stroke-miterlimit="10"/>
</svg>
