<svg width="184" height="184" viewBox="0 0 184 184" fill="none" xmlns="http://www.w3.org/2000/svg">
<path d="M142.718 97.2335H40.6786C40.3539 97.2325 40.0427 97.1031 39.8131 96.8735C39.5835 96.6439 39.4541 96.3327 39.4531 96.008C39.4541 95.6833 39.5835 95.3722 39.8131 95.1426C40.0427 94.913 40.3539 94.7836 40.6786 94.7826H142.718C143.042 94.7836 143.353 94.913 143.583 95.1426C143.813 95.3722 143.942 95.6833 143.943 96.008C143.942 96.3327 143.813 96.6439 143.583 96.8735C143.353 97.1031 143.042 97.2325 142.718 97.2335Z" fill="#6638B6"/>
<path opacity="0.3" d="M142.717 97.2335H118.83C118.505 97.2325 118.194 97.1031 117.964 96.8735C117.735 96.6439 117.605 96.3327 117.604 96.008C117.605 95.6833 117.735 95.3722 117.964 95.1426C118.194 94.913 118.505 94.7836 118.83 94.7826H142.717C143.042 94.7836 143.353 94.913 143.582 95.1426C143.812 95.3722 143.941 95.6833 143.942 96.008C143.941 96.3327 143.812 96.6439 143.582 96.8735C143.353 97.1031 143.042 97.2325 142.717 97.2335Z" fill="#263238"/>
<path d="M140.125 100.306H61.6494V108.847H140.125V100.306Z" fill="#263238"/>
<path opacity="0.1" d="M140.125 100.306H61.6494V108.847H140.125V100.306Z" fill="white"/>
<path d="M138.985 151.476H141.333L141.237 97.2332H137.984L138.985 151.476Z" fill="#263238"/>
<path opacity="0.1" d="M138.985 151.476H141.333L141.237 97.2332H137.984L138.985 151.476Z" fill="white"/>
<path d="M117.347 151.476H114.995L120.309 97.2332H123.562L117.347 151.476Z" fill="#263238"/>
<path opacity="0.2" d="M117.347 151.476H114.995L120.309 97.2332H123.562L117.347 151.476Z" fill="white"/>
<path d="M60.831 151.476H63.1789L63.0832 97.2332H59.8301L60.831 151.476Z" fill="#263238"/>
<path opacity="0.1" d="M60.831 151.476H63.1789L63.0832 97.2332H59.8301L60.831 151.476Z" fill="white"/>
<path d="M39.1958 151.476H36.8442L42.1582 97.2332H45.4113L39.1958 151.476Z" fill="#263238"/>
<path opacity="0.2" d="M39.1958 151.476H36.8442L42.1582 97.2332H45.4113L39.1958 151.476Z" fill="white"/>
<path d="M105.288 94.7827H99.8707L97.7031 84.1917H103.12L105.288 94.7827Z" fill="#263238"/>
<path d="M112.474 92.6001H88.9733C88.7906 92.6021 88.6094 92.5661 88.4412 92.4945C88.273 92.4229 88.1215 92.3172 87.9963 92.184C87.8711 92.0508 87.7749 91.8931 87.7138 91.7209C87.6526 91.5486 87.6279 91.3656 87.6412 91.1833L88.5391 76.305C88.5667 75.9238 88.7362 75.5668 89.0142 75.3045C89.2921 75.0422 89.6584 74.8937 90.0405 74.8882H113.545C113.727 74.8868 113.908 74.9231 114.076 74.9949C114.244 75.0667 114.395 75.1724 114.52 75.3055C114.646 75.4385 114.742 75.596 114.803 75.768C114.864 75.94 114.89 76.1229 114.877 76.305L113.979 91.1833C113.95 91.5648 113.78 91.9218 113.502 92.184C113.223 92.4463 112.856 92.5947 112.474 92.6001Z" fill="#263238"/>
<path d="M112.106 92.6001H88.6054C88.4226 92.6021 88.2414 92.5661 88.0733 92.4945C87.9051 92.4229 87.7536 92.3172 87.6284 92.184C87.5032 92.0508 87.407 91.8931 87.3459 91.7209C87.2847 91.5486 87.26 91.3656 87.2733 91.1833L88.1712 76.305C88.1988 75.9238 88.3683 75.5668 88.6463 75.3045C88.9242 75.0422 89.2904 74.8937 89.6726 74.8882H113.177C113.359 74.8868 113.54 74.9231 113.708 74.9949C113.876 75.0667 114.027 75.1724 114.152 75.3055C114.278 75.4385 114.374 75.596 114.435 75.768C114.497 75.94 114.522 76.1229 114.509 76.305L113.611 91.1833C113.583 91.5648 113.412 91.9218 113.134 92.184C112.855 92.4463 112.488 92.5947 112.106 92.6001Z" fill="#6638B6"/>
<path d="M88.6031 91.8642C88.5214 91.8648 88.4405 91.8488 88.3652 91.8171C88.29 91.7855 88.2219 91.7389 88.1651 91.6802C88.1098 91.6192 88.0672 91.5477 88.04 91.47C88.0129 91.3922 88.0016 91.3098 88.0069 91.2276L88.9048 76.3494C88.9185 76.153 89.0049 75.9688 89.1471 75.8327C89.2893 75.6966 89.4771 75.6184 89.6739 75.6134H113.178C113.26 75.6121 113.342 75.628 113.417 75.66C113.493 75.6921 113.561 75.7397 113.617 75.7996C113.673 75.8596 113.716 75.9306 113.743 76.0082C113.77 76.0858 113.781 76.1681 113.774 76.25L112.876 91.1282C112.863 91.3249 112.777 91.5096 112.635 91.6459C112.493 91.7821 112.304 91.86 112.107 91.8642H88.6031Z" fill="white"/>
<path opacity="0.2" d="M98.9255 74.8882L100.453 80.1175L104.986 74.8882H98.9255Z" fill="black"/>
<path d="M62.3934 62.1919C62.4302 62.4753 62.6068 62.6887 62.7945 62.674C62.9822 62.6593 63.0999 62.4164 63.0631 62.1331C63.0263 61.8497 62.8497 61.6363 62.6657 61.651C62.4817 61.6657 62.3603 61.9159 62.3934 62.1919Z" fill="#263238"/>
<path d="M62.7021 62.6152C63.0335 63.3498 63.4617 64.0367 63.9754 64.6576C63.5706 65.0661 62.831 64.9005 62.831 64.9005L62.7021 62.6152Z" fill="#A02724"/>
<path d="M61.4529 61.1131C61.4249 61.1183 61.3963 61.1183 61.3683 61.1131C61.3275 61.0953 61.2951 61.0623 61.278 61.0212C61.2608 60.9801 61.2602 60.9339 61.2763 60.8923C61.3719 60.6472 61.5258 60.429 61.7245 60.2566C61.9232 60.0841 62.1609 59.9626 62.4171 59.9024C62.4386 59.8987 62.4606 59.8993 62.4819 59.9042C62.5032 59.909 62.5233 59.918 62.5411 59.9307C62.5589 59.9433 62.574 59.9594 62.5855 59.9779C62.5971 59.9964 62.6049 60.017 62.6084 60.0386C62.6159 60.0824 62.6059 60.1275 62.5804 60.164C62.5549 60.2005 62.5161 60.2255 62.4723 60.2336C62.2716 60.2821 62.0861 60.3794 61.932 60.5167C61.778 60.6541 61.6602 60.8273 61.5891 61.0211C61.5755 61.0463 61.5561 61.0679 61.5323 61.0839C61.5086 61.1 61.4814 61.11 61.4529 61.1131Z" fill="#263238"/>
<path d="M54.0552 66.6334L56.2632 68.3262L59.2771 70.6336C59.1119 70.9803 59.0121 71.3546 58.9827 71.7376C58.876 72.584 58.7693 73.2096 60.6498 73.7285C60.8495 73.7761 61.0313 73.8802 61.1736 74.0283C61.3158 74.1764 61.4124 74.3623 61.452 74.5638C61.5256 75.0643 61.2202 75.6678 59.4832 75.9659C57.8008 76.2173 56.0821 75.9246 54.5778 75.1305C53.8418 74.7625 53.8418 74.3209 54.1509 73.5739C55.0782 71.4505 54.6293 68.7421 54.0552 66.6334Z" fill="#B55B52"/>
<path d="M51.519 74.2439C51.9431 73.4281 52.2928 72.5758 52.5642 71.6973C52.5642 71.6973 58.1578 71.3919 60.0051 71.9439C61.8525 72.4959 63.0006 74.8879 63.0006 74.8879L51.519 74.2439Z" fill="#6638B6"/>
<path d="M53.8591 78.4063C53.723 78.8185 53.5721 79.3226 53.4286 79.7863L53.0127 81.2215C52.7551 82.1783 52.5049 83.1388 52.3098 84.0956C52.1022 85.0312 51.9437 85.977 51.8351 86.9292C51.7216 87.8039 51.6945 88.6877 51.7542 89.5677C51.7758 89.9402 51.8325 90.3099 51.9234 90.6717C51.9455 90.7453 51.9639 90.8263 51.9897 90.8962L52.0633 91.0949C52.0458 91.0594 52.0262 91.025 52.0044 90.9919C51.9668 90.9382 51.9263 90.8866 51.883 90.8373C51.8355 90.7804 51.7811 90.7297 51.721 90.6865C51.6474 90.6349 51.6364 90.6423 51.6511 90.6607C51.7589 90.7382 51.8749 90.8036 51.997 90.8557C52.1626 90.9293 52.365 91.0029 52.5674 91.0729C52.9833 91.2127 53.4433 91.3415 53.918 91.4666C55.8169 91.945 57.8887 92.3167 59.909 92.7473L59.8428 95.2975C58.7636 95.4415 57.6779 95.5312 56.5897 95.5661C55.4855 95.6063 54.3799 95.5878 53.2777 95.5109C52.694 95.4719 52.1129 95.4006 51.537 95.2975C51.2353 95.2423 50.9225 95.1798 50.5913 95.0877C50.2104 94.9894 49.8404 94.8526 49.4873 94.6793C49.2258 94.5534 48.979 94.3991 48.7513 94.2193C48.59 94.091 48.441 93.9481 48.306 93.7924C48.2216 93.6927 48.143 93.5882 48.0705 93.4796C48.0337 93.417 47.9932 93.3545 47.9601 93.2919L47.9122 93.2036L47.6583 92.6847C47.581 92.5117 47.5185 92.3425 47.4522 92.1695C47.22 91.5253 47.0524 90.8596 46.9517 90.1823C46.5837 87.6247 46.8745 85.3431 47.2572 83.1241C47.4633 82.0201 47.7061 80.9161 47.9932 79.8673C48.1404 79.3337 48.295 78.8001 48.4606 78.2738C48.6262 77.7476 48.8028 77.2397 49.0162 76.662L53.8591 78.4063Z" fill="#B55B52"/>
<path d="M50.4539 73.7871C53.9315 72.8671 55.996 75.7154 54.8184 80.4111C53.6408 85.1068 53.247 85.2834 53.247 85.2834L46.0747 84.0874C46.9579 79.4874 46.888 74.7255 50.4539 73.7871Z" fill="#6638B6"/>
<path d="M61.6882 91.7272L61.1472 91.6793C59.609 91.6793 59.344 92.0988 58.3983 92.9784L58.0303 94.914C60.5143 96.1836 61.8464 94.7889 61.8501 94.7889H64.1501L63.3405 92.9489C63.1992 92.6163 62.9715 92.3276 62.6809 92.1127C62.3904 91.8979 62.0476 91.7648 61.6882 91.7272Z" fill="#B55B52"/>
<path d="M53.1065 62.9723C53.7321 66.3248 53.9271 68.3193 55.8481 69.8171C58.7332 72.0656 62.7076 69.9275 63.0977 66.4389C63.4473 63.2998 62.3617 58.3429 58.8951 57.4633C58.122 57.2724 57.3132 57.2793 56.5435 57.4835C55.7738 57.6876 55.0679 58.0824 54.491 58.6314C53.9142 59.1804 53.4849 59.8659 53.2429 60.6246C53.001 61.3833 52.954 62.1907 53.1065 62.9723Z" fill="#B55B52"/>
<path d="M59.7463 64.1423C62.1383 63.9509 61.4391 61.4301 60.6995 60.9039C61.8219 60.477 62.5947 58.6959 61.5164 57.4741C62.1494 55.8218 60.3388 53.8309 57.163 54.129C54.8446 54.3424 54.587 55.5679 54.587 55.5679C54.587 55.5679 51.8086 55.2772 50.653 57.5698C49.6668 59.5349 50.8628 60.5837 50.8628 60.5837C50.8628 60.5837 48.7873 61.1872 49.3614 63.8957C49.9723 66.8176 52.217 66.1405 52.217 66.1405C52.217 66.1405 51.7129 68.8196 54.7489 68.8564C57.3727 68.8895 57.4059 66.9244 57.4059 66.9244C57.4059 66.9244 60.8062 66.6079 59.7463 64.1423Z" fill="#263238"/>
<path d="M57.9663 64.3373C58.2345 65.0565 58.7587 65.6514 59.4383 66.008C60.3142 66.457 60.9839 65.526 60.8294 64.5692C60.6895 63.7117 59.9425 62.6114 59.0188 62.5599C58.0951 62.5084 57.6388 63.4468 57.9663 64.3373Z" fill="#B55B52"/>
<path d="M93.6443 147.262L96.9158 145.934L94.6048 138.077L91.3333 139.402L93.6443 147.262Z" fill="#B55B52"/>
<path opacity="0.2" d="M92.4557 143.214L95.7603 142L94.6048 138.077L91.3333 139.402L92.4557 143.214Z" fill="black"/>
<path d="M96.6307 144.624L92.8881 145.923C92.8567 145.933 92.8275 145.948 92.8022 145.969C92.7768 145.99 92.7559 146.016 92.7405 146.045C92.7251 146.074 92.7156 146.106 92.7125 146.139C92.7094 146.171 92.7128 146.204 92.7225 146.236L93.5689 149.261C93.6233 149.416 93.7367 149.545 93.8847 149.618C94.0327 149.69 94.2034 149.702 94.3601 149.651C95.6518 149.172 96.1743 148.915 97.7715 148.223C99.3436 147.565 100.881 146.828 102.379 146.015C103.626 145.279 102.876 144.024 102.268 144.23C100.83 144.716 98.4707 145.032 97.2747 144.62C97.0656 144.55 96.8389 144.551 96.6307 144.624Z" fill="#263238"/>
<path d="M67.3685 101.936C67.3685 101.936 92.0944 104.144 92.7347 111.257C94.0227 125.731 95.9989 139.685 95.9989 139.685L90.9683 141.525C90.9683 141.525 84.8117 125.627 84.8926 114.293C77.7608 112.28 59.0075 115.235 55.9421 109.734C53.2336 104.876 55.6109 101.387 55.6109 101.387L67.3685 101.936Z" fill="#263238"/>
<path d="M90.5931 142.67L96.8565 140.554L96.5841 137.702L89.5222 139.976L90.5931 142.67Z" fill="#6638B6"/>
<path d="M98.0107 144.774C97.7095 144.871 97.3985 144.934 97.0834 144.962C97.0674 144.964 97.0511 144.961 97.0367 144.954C97.0223 144.947 97.0104 144.936 97.0024 144.922C96.9943 144.908 96.99 144.893 96.99 144.878C96.99 144.862 96.9943 144.847 97.0024 144.833C97.0834 144.723 97.8047 143.751 98.2647 143.766C98.3173 143.769 98.3684 143.785 98.4133 143.813C98.4583 143.841 98.4957 143.879 98.5223 143.924C98.5702 143.989 98.5999 144.066 98.6083 144.146C98.6167 144.226 98.6035 144.307 98.5701 144.381C98.4385 144.576 98.2393 144.717 98.0107 144.774ZM97.2747 144.774C97.9114 144.686 98.3456 144.517 98.445 144.307C98.4657 144.259 98.4729 144.206 98.4658 144.154C98.4587 144.102 98.4375 144.053 98.4045 144.013C98.3931 143.989 98.3753 143.969 98.3533 143.955C98.3312 143.94 98.3057 143.932 98.2794 143.932C98.0144 143.921 97.5581 144.395 97.2563 144.774H97.2747Z" fill="#6638B6"/>
<path d="M97.1017 144.959C97.0884 144.963 97.0744 144.963 97.0612 144.959C97.0477 144.957 97.0349 144.951 97.024 144.943C97.0131 144.934 97.0044 144.923 96.9986 144.911C96.9986 144.871 96.5754 143.94 96.7962 143.498C96.8247 143.441 96.8657 143.392 96.916 143.354C96.9664 143.316 97.0249 143.289 97.0869 143.277C97.1546 143.254 97.228 143.256 97.2949 143.28C97.3619 143.305 97.4183 143.352 97.4549 143.413C97.6573 143.752 97.4034 144.617 97.1421 144.929C97.1319 144.943 97.1178 144.953 97.1017 144.959ZM97.1017 143.45C97.0703 143.461 97.0414 143.478 97.0168 143.5C96.9921 143.522 96.9722 143.549 96.9581 143.579C96.8257 143.84 96.9876 144.399 97.109 144.712C97.3114 144.366 97.4586 143.722 97.3261 143.502C97.3004 143.461 97.2562 143.413 97.1385 143.439L97.1017 143.45Z" fill="#6638B6"/>
<path d="M76.1377 149.599L79.6337 149.433L80.2041 141.179L76.7081 141.345L76.1377 149.599Z" fill="#B55B52"/>
<path d="M79.7147 148.838L75.7551 148.712C75.7222 148.71 75.6891 148.714 75.6578 148.724C75.6265 148.735 75.5975 148.751 75.5726 148.772C75.5476 148.794 75.5271 148.82 75.5123 148.85C75.4976 148.879 75.4888 148.911 75.4864 148.944L75.1957 152.069C75.1928 152.152 75.2063 152.234 75.2354 152.312C75.2646 152.39 75.3088 152.461 75.3656 152.521C75.4224 152.582 75.4906 152.631 75.5663 152.665C75.6419 152.699 75.7236 152.718 75.8066 152.72C77.1866 152.738 77.8453 152.679 79.586 152.72C80.6568 152.753 82.7655 152.911 84.2338 152.72C85.7021 152.529 85.4776 151.09 84.8373 151.034C83.3248 150.913 81.2971 149.868 80.3293 149.055C80.1554 148.914 79.9384 148.837 79.7147 148.838Z" fill="#263238"/>
<path d="M80.9585 149.489C80.6424 149.471 80.329 149.419 80.0238 149.334C80.0082 149.331 79.994 149.323 79.983 149.311C79.972 149.3 79.9647 149.285 79.9619 149.269C79.9592 149.253 79.9611 149.237 79.9675 149.223C79.974 149.208 79.9846 149.196 79.9981 149.187C80.1121 149.11 81.1315 148.451 81.5584 148.642C81.6067 148.663 81.649 148.696 81.6811 148.738C81.7133 148.78 81.7344 148.829 81.7424 148.882C81.7637 148.959 81.764 149.041 81.7433 149.118C81.7226 149.196 81.6817 149.267 81.6246 149.323C81.432 149.462 81.1936 149.521 80.9585 149.489ZM80.252 149.22C80.8776 149.367 81.356 149.364 81.5142 149.22C81.5505 149.181 81.5757 149.134 81.5874 149.082C81.599 149.03 81.5966 148.976 81.5805 148.926C81.577 148.9 81.5671 148.876 81.5516 148.855C81.5362 148.835 81.5157 148.818 81.4921 148.808C81.2493 148.698 80.6531 148.974 80.2225 149.22H80.252Z" fill="#6638B6"/>
<path d="M80.0266 149.338C80.0133 149.341 79.9994 149.341 79.9862 149.338C79.9743 149.33 79.9645 149.32 79.9574 149.308C79.9504 149.296 79.9464 149.282 79.9457 149.268C79.9457 149.227 79.8978 148.212 80.2622 147.881C80.3099 147.834 80.3686 147.8 80.433 147.782C80.4973 147.764 80.5651 147.762 80.6302 147.778C80.7006 147.781 80.7676 147.809 80.8203 147.856C80.8731 147.903 80.9085 147.966 80.9209 148.035C80.9871 148.422 80.4388 149.139 80.0818 149.338C80.0641 149.345 80.0443 149.345 80.0266 149.338ZM80.5529 147.936C80.5198 147.934 80.4867 147.938 80.4557 147.95C80.4246 147.961 80.3963 147.979 80.3726 148.002C80.1554 148.197 80.1076 148.779 80.1076 149.106C80.4204 148.856 80.7884 148.307 80.7442 148.054C80.7442 148.006 80.7074 147.951 80.5897 147.932L80.5529 147.936Z" fill="#6638B6"/>
<path opacity="0.2" d="M76.7088 141.345L80.2085 141.179L79.8773 145.9L76.3923 145.897L76.7088 141.345Z" fill="black"/>
<path d="M59.1557 101.542C59.1557 101.542 85.7989 105.616 85.3757 111.75C84.6139 122.79 80.9118 144.366 80.9118 144.366L75.6642 144.44C75.6642 144.44 74.424 122.308 76.4002 114.242C69.8461 114.242 51.3578 114.013 48.837 110.646C46.0475 106.926 48.9142 101.078 48.9142 101.078L59.1557 101.542Z" fill="#263238"/>
<path d="M75.0452 144.852L81.3969 144.753L81.7097 141.397L74.7397 141.669L75.0452 144.852Z" fill="#6638B6"/>
<path d="M63.8468 73.4158C61.7014 72.9963 52.0267 73.1178 52.0267 73.1178C51.0596 73.0913 50.1178 73.4286 49.3873 74.0629C48.6569 74.6973 48.191 75.5826 48.0817 76.5438C47.7432 79.5283 49.6384 86.1965 49.7046 89.5968C49.7856 93.7736 48.987 95.4664 48.906 101.089L67.3686 101.936C67.3686 90.6272 66.8755 81.2653 66.4302 76.7757C66.272 75.197 65.9923 73.8317 63.8468 73.4158Z" fill="#6638B6"/>
<path opacity="0.3" d="M63.8468 73.4158C61.7014 72.9963 52.0267 73.1178 52.0267 73.1178C51.0596 73.0913 50.1178 73.4286 49.3873 74.0629C48.6569 74.6973 48.191 75.5826 48.0817 76.5438C47.7432 79.5283 49.6384 86.1965 49.7046 89.5968C49.7856 93.7736 48.987 95.4664 48.906 101.089L67.3686 101.936C67.3686 90.6272 66.8755 81.2653 66.4302 76.7757C66.272 75.197 65.9923 73.8317 63.8468 73.4158Z" fill="white"/>
<path d="M66.3746 76.9781C66.9523 78.9653 67.5338 81.0078 68.1336 83.0023C68.7334 84.9969 69.348 87.0025 70.0398 88.8903C70.2091 89.3724 70.4078 89.8214 70.5698 90.285L70.8531 90.9364L70.8899 91.0174V91.0578V91.0799V91.0541C70.8263 90.9406 70.747 90.8365 70.6544 90.745C70.5293 90.6236 70.4814 90.6126 70.4704 90.6126C70.5524 90.6866 70.6472 90.7452 70.7501 90.7855C70.9302 90.8724 71.1158 90.9474 71.3058 91.01C71.7216 91.1535 72.189 91.2823 72.6637 91.4111C74.5883 91.9005 76.6896 92.2759 78.7357 92.7138L78.6694 95.2641C77.571 95.4122 76.4654 95.5019 75.3574 95.5327C74.236 95.5759 73.113 95.555 71.9939 95.4701C71.3988 95.4276 70.8066 95.3514 70.2202 95.242C69.911 95.1831 69.5909 95.1095 69.245 95.0101C68.8347 94.8952 68.4394 94.7321 68.0674 94.5244C67.7709 94.3543 67.4986 94.1451 67.2578 93.9025C67.0739 93.7129 66.9155 93.5001 66.7867 93.2695L66.6616 93.0377L66.2458 92.2501C66.0029 91.7349 65.7379 91.2161 65.5098 90.7046C65.0571 89.6705 64.6597 88.6474 64.2622 87.6207C63.8648 86.594 63.5262 85.5673 63.184 84.5369C62.5032 82.465 61.8886 80.4153 61.344 78.2809L66.3746 76.9781Z" fill="#B55B52"/>
<path d="M61.1289 74.9286C63.6534 72.3526 66.8808 73.7584 68.2681 78.4099C69.6555 83.0614 69.4052 83.4 69.4052 83.4L62.623 86.0312C61.0222 81.6004 58.5456 77.5524 61.1289 74.9286Z" fill="#6638B6"/>
<path d="M80.539 91.7272L79.998 91.6793C78.4598 91.6793 78.1985 92.0988 77.2528 92.9784L76.8848 94.914C79.3688 96.1836 80.7009 94.7889 80.7009 94.7889H83.0046L82.1913 92.9489C82.0507 92.6159 81.8231 92.3267 81.5325 92.1118C81.2418 91.8968 80.8986 91.764 80.539 91.7272Z" fill="#B55B52"/>
<path d="M49.7162 115.588H73.2977C73.8159 115.588 74.2361 115.168 74.2361 114.65V113.134C74.2361 112.616 73.8159 112.195 73.2977 112.195H49.7162C49.198 112.195 48.7778 112.616 48.7778 113.134V114.65C48.7778 115.168 49.198 115.588 49.7162 115.588Z" fill="#6638B6"/>
<path d="M49.8222 153.364H48.7771L49.9805 115.585H51.4267L49.8222 153.364Z" fill="#6638B6"/>
<path opacity="0.4" d="M49.8222 153.364H48.7771L49.9805 115.585H51.4267L49.8222 153.364Z" fill="white"/>
<path d="M59.4331 153.364H60.4782L59.2785 115.585H57.8323L59.4331 153.364Z" fill="#6638B6"/>
<path opacity="0.4" d="M59.4331 153.364H60.4782L59.2785 115.585H57.8323L59.4331 153.364Z" fill="white"/>
<path d="M63.5776 153.364H62.5325L63.7358 115.585H65.1821L63.5776 153.364Z" fill="#6638B6"/>
<path opacity="0.4" d="M63.5776 153.364H62.5325L63.7358 115.585H65.1821L63.5776 153.364Z" fill="white"/>
<path d="M73.1882 153.364H74.2333L73.0336 115.585H71.5874L73.1882 153.364Z" fill="#6638B6"/>
<path opacity="0.4" d="M73.1882 153.364H74.2333L73.0336 115.585H71.5874L73.1882 153.364Z" fill="white"/>
<g opacity="0.3">
<path d="M49.981 115.585H51.4272L51.3573 117.189H49.9294L49.981 115.585Z" fill="#6638B6"/>
<path d="M59.3271 117.189H57.8992L57.833 115.585H59.2756L59.3271 117.189Z" fill="#6638B6"/>
<path d="M65.1789 115.585L65.1127 117.189H63.6848L63.7363 115.585H65.1789Z" fill="#6638B6"/>
<path d="M73.0859 117.189H71.6544L71.5881 115.585H73.0344L73.0859 117.189Z" fill="#6638B6"/>
</g>
<path d="M143.152 69.4089H84.2097C83.7517 69.4137 83.2977 69.3234 82.8764 69.1438C82.4551 68.9642 82.0756 68.6991 81.7619 68.3654C81.4483 68.0317 81.2072 67.6365 81.054 67.2049C80.9008 66.7732 80.8388 66.3145 80.8719 65.8577L83.1204 28.5536C83.1911 27.5978 83.6172 26.7032 84.3147 26.0459C85.0121 25.3886 85.9305 25.0163 86.8887 25.0024H145.817C146.275 24.9976 146.729 25.0879 147.15 25.2675C147.571 25.4471 147.951 25.7122 148.264 26.0459C148.578 26.3796 148.819 26.7748 148.972 27.2064C149.125 27.6381 149.187 28.0968 149.154 28.5536L146.902 65.8725C146.829 66.8228 146.404 67.7117 145.711 68.3657C145.018 69.0196 144.105 69.3916 143.152 69.4089Z" fill="#6638B6"/>
<path d="M92.0945 61.5226L97.5298 80.1176L113.656 61.5226H92.0945Z" fill="#6638B6"/>
<path opacity="0.1" d="M140.276 54.3976H107.244C106.987 54.4002 106.732 54.3497 106.496 54.249C106.26 54.1483 106.047 53.9998 105.871 53.8127C105.695 53.6256 105.56 53.4041 105.473 53.1621C105.387 52.9201 105.352 52.6629 105.371 52.4067L106.633 31.4969C106.672 30.9611 106.911 30.4595 107.302 30.091C107.693 29.7225 108.208 29.5138 108.745 29.506H141.777C142.035 29.5005 142.291 29.5492 142.528 29.6489C142.766 29.7486 142.98 29.8971 143.156 30.0848C143.333 30.2725 143.468 30.4951 143.553 30.7384C143.638 30.9817 143.671 31.2401 143.65 31.4969L142.388 52.4067C142.348 52.9425 142.11 53.4441 141.719 53.8126C141.328 54.1811 140.813 54.3898 140.276 54.3976Z" fill="white"/>
<path opacity="0.1" d="M122.607 63.4173H89.5712C89.3147 63.4194 89.0605 63.3685 88.8246 63.2676C88.5887 63.1667 88.3763 63.0181 88.2007 62.831C88.0251 62.644 87.8901 62.4227 87.8042 62.1809C87.7183 61.9392 87.6835 61.6823 87.7018 61.4264L88.964 40.5166C89.0034 39.9814 89.2417 39.4803 89.6319 39.1119C90.0221 38.7435 90.536 38.5344 91.0726 38.5257H124.108C124.365 38.5207 124.621 38.5698 124.858 38.6697C125.095 38.7697 125.309 38.9182 125.485 39.1059C125.661 39.2935 125.796 39.516 125.881 39.759C125.966 40.002 125.999 40.2601 125.977 40.5166L124.715 61.4264C124.676 61.9616 124.437 62.4627 124.047 62.8311C123.657 63.1995 123.143 63.4086 122.607 63.4173Z" fill="white"/>
<g opacity="0.5">
<path d="M89.1353 28.2474C89.1286 28.53 89.0166 28.7999 88.8212 29.0041C88.6258 29.2084 88.3612 29.3322 88.0792 29.3514C87.9451 29.3448 87.814 29.31 87.6942 29.2494C87.5745 29.1888 87.4689 29.1036 87.3842 28.9995C87.2995 28.8954 87.2377 28.7746 87.2027 28.6451C87.1678 28.5155 87.1604 28.38 87.1813 28.2474C87.1896 27.9654 87.3022 27.6964 87.4972 27.4925C87.6923 27.2886 87.956 27.1642 88.2374 27.1434C88.3715 27.1501 88.5026 27.1848 88.6223 27.2455C88.7421 27.3061 88.8477 27.3912 88.9324 27.4953C89.0171 27.5995 89.0789 27.7202 89.1139 27.8498C89.1488 27.9794 89.1561 28.1148 89.1353 28.2474Z" fill="white"/>
<path d="M92.7384 28.2474C92.7308 28.5297 92.6185 28.7992 92.4233 29.0032C92.2281 29.2073 91.9639 29.3314 91.6822 29.3514C91.5478 29.3453 91.4163 29.3109 91.2961 29.2505C91.1759 29.1901 91.0698 29.105 90.9848 29.0008C90.8997 28.8967 90.8375 28.7757 90.8024 28.6459C90.7672 28.5161 90.7598 28.3803 90.7806 28.2474C90.7889 27.9654 90.9015 27.6964 91.0966 27.4925C91.2916 27.2886 91.5553 27.1642 91.8368 27.1434C91.9709 27.1501 92.1022 27.1849 92.2221 27.2455C92.3419 27.3061 92.4478 27.3911 92.5328 27.4952C92.6177 27.5992 92.6799 27.7199 92.7153 27.8495C92.7507 27.9791 92.7586 28.1146 92.7384 28.2474Z" fill="white"/>
<path d="M96.3653 28.2474C96.3586 28.53 96.2466 28.7999 96.0512 29.0041C95.8558 29.2084 95.5912 29.3322 95.3092 29.3514C95.1751 29.3448 95.044 29.31 94.9242 29.2494C94.8045 29.1888 94.6989 29.1036 94.6142 28.9995C94.5295 28.8954 94.4677 28.7746 94.4327 28.6451C94.3977 28.5155 94.3904 28.38 94.4112 28.2474C94.4196 27.9654 94.5321 27.6964 94.7272 27.4925C94.9223 27.2886 95.186 27.1642 95.4674 27.1434C95.6014 27.1501 95.7326 27.1848 95.8523 27.2455C95.972 27.3061 96.0777 27.3912 96.1624 27.4953C96.2471 27.5995 96.3089 27.7202 96.3438 27.8498C96.3788 27.9794 96.3861 28.1148 96.3653 28.2474Z" fill="white"/>
</g>
<path opacity="0.3" d="M142.695 69.0624H83.7668C83.2964 69.0661 82.8303 68.9724 82.3978 68.7874C81.9654 68.6023 81.5759 68.3298 81.2538 67.9869C80.9317 67.6441 80.684 67.2384 80.5262 66.7952C80.3684 66.352 80.304 65.8811 80.337 65.4118L82.5892 28.1076C82.66 27.1284 83.0954 26.2114 83.8094 25.5376C84.5234 24.8637 85.4642 24.4821 86.4458 24.4681H145.359C145.829 24.4644 146.295 24.5581 146.728 24.7431C147.16 24.9282 147.55 25.2007 147.872 25.5435C148.194 25.8864 148.442 26.2921 148.6 26.7353C148.757 27.1784 148.822 27.6494 148.789 28.1187L146.54 65.4228C146.469 66.3999 146.035 67.3149 145.323 67.9883C144.612 68.6617 143.674 69.0448 142.695 69.0624ZM86.4458 24.6558C85.5096 24.6672 84.6118 25.0299 83.9302 25.6719C83.2487 26.3139 82.8331 27.1885 82.7658 28.1224L80.5137 65.4265C80.481 65.8709 80.541 66.3173 80.6898 66.7373C80.8386 67.1574 81.0729 67.542 81.378 67.8668C81.6831 68.1916 82.0523 68.4495 82.4622 68.6243C82.8721 68.799 83.3138 68.8868 83.7594 68.882H142.695C143.631 68.8698 144.528 68.5069 145.209 67.865C145.891 67.2232 146.307 66.3491 146.375 65.4155L148.623 28.1113C148.655 27.6656 148.593 27.2181 148.443 26.7973C148.293 26.3765 148.057 25.9915 147.75 25.6666C147.443 25.3418 147.072 25.0842 146.661 24.9102C146.249 24.7362 145.806 24.6496 145.359 24.6558H86.4458Z" fill="#263238"/>
<path d="M110.786 47.2548C110.536 47.7847 110.308 48.2374 110.05 48.7268C109.793 49.2163 109.535 49.6579 109.27 50.1179C108.729 51.0342 108.166 51.9579 107.563 52.819C107.259 53.2606 106.947 53.6985 106.628 54.1327C106.293 54.5596 105.977 54.9939 105.62 55.4097C104.923 56.2716 104.172 57.0878 103.371 57.8532C103.169 58.0519 102.948 58.2212 102.735 58.431C102.523 58.6296 102.299 58.8152 102.065 58.9867L101.358 59.5203L101.141 59.6711C101.045 59.732 100.946 59.7873 100.843 59.8367C100.641 59.9337 100.429 60.0078 100.21 60.0575C99.7781 60.1585 99.3291 60.1619 98.8957 60.0677C98.4622 59.9735 98.0551 59.784 97.704 59.5129C97.5298 59.3755 97.3707 59.2201 97.2293 59.0492L97.1299 58.9167L97.0821 58.8505L97.0637 58.8211L96.9974 58.7033L96.7325 58.2249C96.6515 58.0703 96.5963 57.9231 96.5301 57.7723C96.2983 57.217 96.1088 56.6449 95.9634 56.0611C95.7072 54.997 95.5276 53.916 95.4261 52.8263C95.3185 51.7651 95.2718 50.6986 95.2862 49.6321C95.294 49.3295 95.4097 49.0396 95.6124 48.8148C95.815 48.59 96.0914 48.4449 96.3915 48.4058C96.6917 48.3668 96.996 48.4362 97.2494 48.6017C97.5029 48.7672 97.6889 49.0177 97.7739 49.3083V49.3524C98.2616 51.228 98.865 53.0715 99.5808 54.8724C99.7446 55.2534 99.9352 55.6224 100.151 55.9764C100.199 56.05 100.247 56.1383 100.295 56.2009L100.435 56.3702L100.468 56.4143L100.449 56.3849L100.409 56.3297C100.351 56.2543 100.284 56.1863 100.21 56.1273C100.063 56.0088 99.8925 55.9235 99.7096 55.8771C99.5264 55.8383 99.3371 55.8383 99.1539 55.8771C99.0587 55.8971 98.9661 55.928 98.8779 55.9691C98.8301 55.9691 98.7896 56.0169 98.7454 56.039C98.7013 56.0611 98.6351 56.1163 98.6829 56.0758L99.1429 55.6268C99.2975 55.487 99.4483 55.3177 99.5992 55.1558C99.7501 54.9939 99.9047 54.8356 100.052 54.6627C101.265 53.2076 102.37 51.6652 103.356 50.0479C103.861 49.2273 104.357 48.3919 104.828 47.5455L105.539 46.2723L106.212 45.0284L106.249 44.9622C106.568 44.3905 107.096 43.9643 107.722 43.7726C108.349 43.5809 109.025 43.6386 109.609 43.9335C110.194 44.2285 110.642 44.7379 110.86 45.3554C111.078 45.973 111.049 46.6508 110.779 47.2475L110.786 47.2548Z" fill="#263238"/>
<path d="M95.6298 49.4704L93.8376 48.4437L95.766 46.4749C96.3311 46.8936 96.8549 47.3656 97.33 47.8843C97.4419 48.003 97.5244 48.1462 97.571 48.3025C97.6176 48.4589 97.627 48.6239 97.5984 48.7845C97.5698 48.9451 97.504 49.0968 97.4062 49.2274C97.3085 49.358 97.1816 49.4639 97.0356 49.5366C96.8133 49.6397 96.5693 49.6875 96.3246 49.676C96.0798 49.6645 95.8414 49.5939 95.6298 49.4704Z" fill="#FFC3BD"/>
<path d="M93.4304 46.3349L94.4056 45.6394C94.5323 45.5472 94.6903 45.5087 94.8452 45.5321C95.0002 45.5555 95.1397 45.639 95.2336 45.7645L95.7672 46.4747L93.8389 48.4435L93.2317 47.0599C93.1765 46.9346 93.1662 46.7941 93.2024 46.6621C93.2385 46.5301 93.3191 46.4146 93.4304 46.3349Z" fill="#FFC3BD"/>
<path d="M106.926 45.6064C107.072 45.1255 107.348 44.6942 107.723 44.3599C108.098 44.0255 108.558 43.8011 109.053 43.7112C109.767 43.5533 110.491 43.4427 111.22 43.38C113.415 43.2943 115.613 43.3336 117.804 43.4977C118.952 43.575 120.126 43.7369 121.061 43.8915H121.094C121.589 43.9736 122.031 44.2487 122.324 44.6564C122.616 45.0641 122.735 45.5711 122.654 46.0664C122.194 48.7233 120.844 53.3454 120.696 57.7062C120.501 63.4323 120.59 66.7296 120.49 68.1096L105.752 67.8262C104.725 53.8312 106.002 48.7749 106.926 45.6064Z" fill="white"/>
<path d="M121.487 43.674H121.439C120.453 43.512 119.231 43.3391 118.006 43.2581L117.351 43.2213C116.707 45.8856 112.869 50.3679 111.706 57.1612C111.257 51.4829 110.911 45.5471 111.57 43.2324C110.528 43.264 109.489 43.3512 108.456 43.4936C107.91 43.6172 107.407 43.8831 106.997 44.2645C106.587 44.6459 106.286 45.1291 106.123 45.6648C105.218 48.3292 103.488 54.2981 104.552 68.974H120.932C121.038 67.502 120.656 64.4108 121.248 59.6525C121.819 55.0452 122.639 48.7744 123.121 45.974C123.208 45.4525 123.084 44.9181 122.778 44.4872C122.472 44.0563 122.008 43.764 121.487 43.674Z" fill="#263238"/>
<path opacity="0.2" d="M111.356 68.2086C111.332 68.2096 111.307 68.201 111.289 68.1845C111.27 68.168 111.259 68.145 111.257 68.1203C110.911 63.9803 111.559 58.0371 111.566 57.9745C111.568 57.9619 111.571 57.9497 111.578 57.9386C111.584 57.9275 111.592 57.9178 111.602 57.9099C111.612 57.902 111.623 57.8962 111.635 57.8927C111.648 57.8893 111.66 57.8883 111.673 57.8899C111.699 57.8927 111.722 57.9054 111.739 57.9253C111.755 57.9452 111.763 57.9708 111.761 57.9966C111.761 58.0555 111.106 63.9839 111.452 68.1019C111.454 68.1147 111.453 68.1278 111.449 68.1402C111.445 68.1526 111.439 68.1642 111.431 68.1741C111.423 68.1841 111.412 68.1923 111.401 68.1982C111.389 68.2042 111.377 68.2077 111.364 68.2086H111.356Z" fill="white"/>
<path opacity="0.3" d="M120.909 49.4997C120.302 52.2523 120.626 56.0648 121.277 59.5424C121.759 55.6379 122.418 50.5705 122.9 47.4352C122.227 46.9862 121.391 47.3027 120.909 49.4997Z" fill="black"/>
<path d="M111.533 43.3612C113.443 42.9416 113.775 41.764 113.638 40.4613C113.605 40.1359 113.552 39.8127 113.48 39.4935L115.865 37.5431L117.62 36.1152C117.142 38.2276 116.615 42.0805 118.058 43.5194C118.058 43.5194 116.88 45.4514 113.605 45.2159C110.838 45.0172 111.533 43.3612 111.533 43.3612Z" fill="#FFC3BD"/>
<path d="M114.436 44.7302L113.906 45.2307L115.599 45.8673L115.378 45.2233L114.436 44.7302Z" fill="#E0E0E0"/>
<path d="M115.73 46.7652C115.73 46.7652 115.064 45.0834 114.435 44.7265C115.673 44.4313 116.806 43.8041 117.714 42.9122L118.719 43.3134C118.719 43.3134 119.035 45.2638 115.73 46.7652Z" fill="#F5F5F5"/>
<path d="M113.51 44.598L113.907 45.231L112.126 45.3855L112.483 44.8225L113.51 44.598Z" fill="#E0E0E0"/>
<path d="M111.229 46.2906C111.882 45.5954 112.653 45.0222 113.507 44.5978C112.539 44.3108 112.48 42.9786 112.48 42.9786L111.542 43.159C111.542 43.159 109.82 44.8334 111.229 46.2906Z" fill="#F5F5F5"/>
<path opacity="0.2" d="M113.479 39.4902C113.55 39.8107 113.603 40.1351 113.637 40.4617C114.528 40.2998 115.72 39.3577 115.845 38.4561C115.887 38.1538 115.896 37.8477 115.871 37.5435L113.479 39.4902Z" fill="black"/>
<path d="M110.583 29.8597C109.729 30.9085 109.81 34.7026 111.617 34.7467C113.424 34.7909 112.136 27.9461 110.583 29.8597Z" fill="#263238"/>
<path d="M118.365 32.6197C118.185 35.4938 118.221 37.1829 116.771 38.6697C114.593 40.9034 111.06 39.6191 110.379 36.7597C109.772 34.1837 110.169 29.9186 112.977 28.7521C113.59 28.4897 114.261 28.39 114.924 28.4626C115.587 28.5353 116.22 28.7778 116.762 29.1668C117.303 29.5557 117.736 30.0779 118.017 30.6828C118.297 31.2877 118.417 31.9549 118.365 32.6197Z" fill="#FFC3BD"/>
<path d="M116.954 30.2276C115.147 32.0198 117.495 33.3335 116.586 34.2977C118.29 35.1883 117.664 35.8433 117.664 35.8433C117.487 36.3333 117.487 36.8695 117.664 37.3595C119.585 36.8663 123.151 30.4852 119.257 29.5063C116.928 30.5441 116.954 30.2276 116.954 30.2276Z" fill="#263238"/>
<path d="M117.691 31.5151C115.98 31.7801 113.827 30.9631 112.492 30.2713C111.156 29.5795 110.961 30.8859 111.454 31.2833C110.596 31.3127 109.511 30.6356 109.779 29.1231C110.026 27.7431 111.833 26.4367 114.405 27.6033C116.227 28.4276 118.472 27.342 119.347 28.2951C120.223 29.2483 118.832 31.3348 117.691 31.5151Z" fill="#263238"/>
<path d="M118.864 29.6428C120.012 29.4919 120.06 28.7669 119.74 27.4973C120.98 29.26 120.476 29.801 119.74 30.2279C118.919 29.9519 118.864 29.6428 118.864 29.6428Z" fill="#263238"/>
<path d="M119.139 34.824C118.884 35.3862 118.44 35.8409 117.884 36.1083C117.174 36.4285 116.813 35.7735 117.004 35.0043C117.177 34.3088 117.74 33.3079 118.476 33.3152C119.212 33.3226 119.459 34.1138 119.139 34.824Z" fill="#FFC3BD"/>
<path d="M113.88 33.4879C113.88 33.7197 113.755 33.9111 113.604 33.9148C113.453 33.9185 113.343 33.7271 113.343 33.4879C113.343 33.2487 113.468 33.0647 113.619 33.0647C113.77 33.0647 113.88 33.2524 113.88 33.4879Z" fill="#263238"/>
<path d="M111.246 33.5105C111.246 33.746 111.121 33.9337 110.967 33.9373C110.812 33.941 110.691 33.7497 110.694 33.5141C110.698 33.2786 110.816 33.0909 110.97 33.0909C111.125 33.0909 111.246 33.2786 111.246 33.5105Z" fill="#263238"/>
<path d="M112.237 33.5911C111.962 34.3078 111.59 34.9838 111.133 35.6003C111.291 35.7117 111.472 35.7875 111.663 35.8224C111.853 35.8573 112.049 35.8506 112.237 35.8027V33.5911Z" fill="#ED847E"/>
<path d="M113.167 36.4321C113.434 36.4022 113.692 36.3171 113.924 36.1821C114.157 36.0472 114.359 35.8654 114.517 35.6483C114.527 35.6331 114.53 35.6147 114.526 35.5971C114.523 35.5795 114.512 35.5642 114.497 35.5544C114.482 35.5447 114.463 35.5413 114.446 35.5451C114.428 35.5489 114.413 35.5595 114.403 35.5747C114.226 35.806 113.997 35.993 113.735 36.1208C113.474 36.2485 113.186 36.3135 112.894 36.3107C112.885 36.3106 112.876 36.3125 112.868 36.316C112.86 36.3196 112.852 36.3248 112.846 36.3313C112.84 36.3379 112.835 36.3456 112.832 36.3541C112.829 36.3626 112.827 36.3716 112.828 36.3806C112.828 36.3896 112.83 36.3985 112.833 36.4068C112.837 36.4151 112.842 36.4226 112.849 36.4288C112.855 36.435 112.863 36.4398 112.871 36.4429C112.88 36.446 112.889 36.4473 112.898 36.4468C112.994 36.4321 113.082 36.4321 113.167 36.4321Z" fill="#263238"/>
<path d="M115.157 32.5565C115.18 32.5552 115.202 32.5462 115.22 32.5308C115.235 32.5203 115.247 32.5068 115.256 32.4913C115.266 32.4758 115.272 32.4586 115.274 32.4407C115.277 32.4227 115.275 32.4045 115.27 32.3871C115.265 32.3697 115.257 32.3534 115.246 32.3394C115.119 32.1652 114.953 32.0235 114.761 31.9262C114.569 31.829 114.357 31.7788 114.142 31.7801C114.124 31.7814 114.107 31.7864 114.091 31.7946C114.075 31.8028 114.061 31.8141 114.05 31.8278C114.038 31.8416 114.03 31.8575 114.025 31.8745C114.02 31.8916 114.018 31.9096 114.02 31.9273C114.024 31.964 114.042 31.9979 114.07 32.0219C114.098 32.0459 114.134 32.0581 114.171 32.0561C114.342 32.0544 114.511 32.0945 114.663 32.1727C114.815 32.2509 114.945 32.365 115.043 32.505C115.057 32.5221 115.074 32.5357 115.094 32.5447C115.114 32.5536 115.136 32.5577 115.157 32.5565Z" fill="#263238"/>
<path d="M110.179 32.6711C110.2 32.6681 110.221 32.6599 110.239 32.6471C110.257 32.6342 110.272 32.6172 110.282 32.5975C110.352 32.4383 110.459 32.2979 110.594 32.1879C110.729 32.0779 110.888 32.0014 111.058 31.9646C111.076 31.9629 111.094 31.9574 111.109 31.9485C111.125 31.9396 111.139 31.9274 111.15 31.9128C111.161 31.8982 111.168 31.8815 111.172 31.8638C111.176 31.8461 111.176 31.8278 111.172 31.81C111.166 31.7746 111.147 31.7428 111.118 31.721C111.089 31.6992 111.053 31.6889 111.018 31.6923C110.803 31.7346 110.602 31.8274 110.43 31.9631C110.259 32.0988 110.122 32.2734 110.031 32.4724C110.016 32.5052 110.014 32.5427 110.026 32.5771C110.037 32.6114 110.062 32.6398 110.094 32.6564C110.12 32.6687 110.15 32.6738 110.179 32.6711Z" fill="#263238"/>
<path d="M123.56 45.3373C124.009 46.283 124.384 47.1773 124.752 48.0973C125.12 49.0173 125.448 49.9557 125.775 50.8941C126.418 52.8066 126.937 54.7586 127.328 56.7379C127.413 57.2494 127.509 57.7499 127.571 58.2761L127.619 58.6662L127.645 58.8613V58.9606V59.0968C127.681 59.4774 127.681 59.8606 127.645 60.2413C127.56 61.0741 127.273 61.8736 126.809 62.5707C126.375 63.2091 125.804 63.7433 125.139 64.1347C124.584 64.4604 123.987 64.7081 123.365 64.8707C122.811 65.0224 122.244 65.1234 121.672 65.1725C120.593 65.2745 119.505 65.2312 118.437 65.0437C118.148 64.9951 117.884 64.8473 117.691 64.6257C117.499 64.4041 117.389 64.1225 117.381 63.8289C117.373 63.5354 117.468 63.2483 117.648 63.0167C117.829 62.7852 118.084 62.6236 118.371 62.5597L118.504 62.5302C118.872 62.4456 119.354 62.3425 119.766 62.2321C120.178 62.1217 120.597 61.9929 120.988 61.8641C121.669 61.646 122.3 61.2959 122.846 60.8337C122.99 60.7 123.1 60.5333 123.166 60.348C123.192 60.218 123.192 60.0842 123.166 59.9542C123.154 59.8551 123.135 59.7567 123.111 59.6598L122.978 59.06C122.894 58.6405 122.772 58.2062 122.662 57.7793C122.434 56.9145 122.176 56.0497 121.882 55.1813C121.587 54.3128 121.286 53.448 120.965 52.5832C120.645 51.7184 120.307 50.8536 119.965 50.0072C119.622 49.1608 119.262 48.2702 118.919 47.4643V47.4275C118.644 46.8136 118.624 46.1155 118.864 45.4868C119.103 44.8581 119.582 44.3502 120.196 44.075C120.81 43.7998 121.508 43.7797 122.137 44.0192C122.766 44.2586 123.274 44.7381 123.549 45.352L123.56 45.3373Z" fill="#263238"/>
<path d="M117.275 63.6201L115.652 64.4003L118.456 65.3975C118.456 65.3975 120.325 64.8014 119.42 63.7636L118.916 63.6054C118.106 63.3404 117.709 63.3699 117.275 63.6201Z" fill="#FFC3BD"/>
<path d="M115.869 66.3802L117.102 66.6158C117.278 66.6481 117.46 66.6248 117.622 66.5489C117.784 66.473 117.919 66.3485 118.007 66.1925L118.456 65.3866L115.652 64.4004L115.284 65.1695C115.227 65.2858 115.197 65.4136 115.196 65.5432C115.196 65.6728 115.225 65.8007 115.281 65.9174C115.338 66.0341 115.42 66.1364 115.522 66.2166C115.624 66.2968 115.742 66.3527 115.869 66.3802Z" fill="#FFC3BD"/>
</svg>
