<svg width="766" height="164" viewBox="0 0 766 164" fill="none" xmlns="http://www.w3.org/2000/svg">
<g clip-path="url(#clip0_73_1036)">
<path d="M73.4939 155.238C114.084 155.238 146.988 122.334 146.988 81.7439C146.988 41.1544 114.084 8.25 73.4939 8.25C32.9044 8.25 0 41.1544 0 81.7439C0 122.334 32.9044 155.238 73.4939 155.238Z" fill="url(#paint0_linear_73_1036)"/>
<path d="M0.594727 90.9915C4.59951 122.921 29.0894 148.466 60.4966 154.085L102.462 116.355V102.302H86.8312L102.462 88.2489V74.1957H86.8312L102.462 60.1425V46.0894H50.5575L0.594727 90.9915Z" fill="#BE1E6D"/>
<path d="M102.474 116.355H50.5576L58.6764 102.302H102.474V116.355Z" fill="white"/>
<path d="M102.474 60.1303H58.6764L50.5576 46.0771H102.474V60.1303Z" fill="white"/>
<path d="M102.474 88.2368H66.7949L70.8483 81.2102L66.7949 74.1836H102.474V88.2368Z" fill="white"/>
<path d="M39.2227 74.1835H66.795L58.6762 60.1304H39.2227V74.1835Z" fill="white"/>
<path d="M39.2227 102.302H58.6762L66.795 88.2368H39.2227V102.302Z" fill="white"/>
</g>
<g clip-path="url(#clip1_73_1036)">
<path d="M579.64 32.6512C592.027 32.3136 602.339 34.2511 611.886 42.8549C621.616 51.9225 625.419 64.8345 626.05 77.6623C627.31 103.322 613.505 127.896 585.51 129.148C585.162 129.199 584.811 129.234 584.461 129.252C574.085 129.753 562.004 126.318 554.126 119.188C536.921 103.616 535.647 72.9436 546.054 53.3303C552.613 40.9652 565.665 33.3388 579.64 32.6512ZM584.116 123.144C589.474 122.455 593.908 120.383 597.184 115.86C606.219 102.471 605.632 82.6132 604.178 67.1363C603.351 58.3677 600.264 47.6909 593.184 42.0268C590.322 39.7365 585.27 38.2385 581.604 38.7657C572.591 39.5696 567.54 44.6598 564.488 52.8846C558.062 70.2058 555.754 124.532 584.116 123.144Z" fill="#E31B79"/>
<path d="M430.755 55.7344C443.603 55.2553 459.709 58.3988 463.175 73.143C464.166 77.3587 463.884 82.6952 463.877 87.0408L463.845 105.91C463.857 112.149 463.051 112.645 469.328 113.205C469.057 117.66 469.234 123.628 469.242 128.194C461.169 128.149 448.96 129.818 446.764 119.668C444.471 122.422 443.567 123.605 440.357 125.604C433.884 129.636 423.423 129.934 416.178 128.172C410.382 126.762 405.62 123.519 402.512 118.29C400.527 114.233 400.122 109.477 400.649 105.072C402.505 89.5606 418.762 87.5983 431.172 85.928C435.522 85.237 440.828 84.6483 444.472 82.0073C447.548 79.7708 447.168 76.525 444.97 73.7922C440.68 68.4582 429.516 68.0981 424.356 72.2079C421.359 74.5939 420.834 77.8667 420.5 81.4362C414.437 81.3803 408.373 81.3842 402.31 81.4478C402.503 79.5217 402.653 77.3957 403.031 75.5059C405.774 61.7822 418.095 56.4115 430.755 55.7344ZM420.852 112.903C428.033 116.948 440.992 113.872 444.937 106.311C445.852 104.557 447.932 97.6766 446.702 95.9674L446.344 95.9145C442.708 97.4881 435.913 98.8678 431.795 99.3372C425.343 100.072 411.452 104.687 420.852 112.903Z" fill="#273441"/>
<path d="M677.935 59.0477C699.855 57.8913 696.583 76.9682 696.748 92.0377C696.845 100.807 696.517 109.637 697.098 118.395C697.259 120.816 697.771 123.787 700.211 124.947C701.104 125.374 701.849 125.466 702.614 126.131C702.778 127.168 702.853 126.832 702.5 127.735C699.251 128.44 678.411 127.93 673.804 127.775C673.206 127.755 672.953 127.462 672.68 127.015C673.231 125.409 675.671 125.143 677.582 123.199C679.398 114.08 678.719 105.254 678.844 95.9909C678.858 90.3513 678.931 84.9044 678.377 79.2797C677.042 65.7365 665.601 69.2473 656.927 73.9796C657.192 76.486 657.033 81.4311 657.025 84.1135L657 106.393C656.994 112.303 656.332 118.583 658.741 124.027C660.446 125.154 662.221 124.835 663.019 126.793C662.85 127.589 663.003 127.49 662.488 127.922C658.98 128.008 635.083 128.474 633.558 127.735C632.96 127.446 632.882 127.238 632.676 126.643C633.394 124.87 634.977 125.133 636.384 124.383C637.23 123.934 637.658 122.7 637.906 121.828C639.341 116.75 639.266 75.7628 637.889 71.6175C636.952 68.8035 633.614 67.9918 632.445 65.6353C632.095 64.9279 632.198 64.6117 632.418 63.913C635.133 62.7812 653.765 59.3261 657.053 59.0324L656.98 68.2382C663.158 62.7473 669.782 59.9066 677.935 59.0477Z" fill="#E31B79"/>
<path d="M331.798 57.0712C337.592 57.1185 343.354 57.0072 349.156 57.1749C351.068 59.3357 353.387 63.1655 355.063 65.6344C358.847 71.2087 362.432 77.014 366.36 82.4907C370.845 75.0665 378.273 64.1367 383.331 57.1032C385.626 57.0945 399.689 56.8398 400.866 57.3117C401.39 58.6028 399.759 61.1078 399.008 62.1658C392.221 71.7261 386.21 82.4699 379.267 91.8592C383.35 97.6717 387.268 104.526 391.166 110.532C393.16 113.606 400.626 124.783 400.949 127.559C399.879 128.243 384.096 127.95 382.001 127.951C377.115 119.684 371.356 110.895 366.217 102.718C364.993 105.113 362.366 109.016 360.85 111.436C357.401 116.922 353.992 122.433 350.622 127.968C348.242 127.897 332.898 128.279 332.168 127.57C332.118 126.754 332.069 125.826 332.449 125.099C334.495 121.173 337.285 117.058 339.661 113.307L353.193 91.8005C352.418 90.7063 351.628 89.4998 350.898 88.362C344.705 78.7208 337.866 69.3865 332.081 59.5087C331.713 58.8803 331.753 57.7841 331.798 57.0712Z" fill="#273441"/>
<path d="M311.843 57.1062C314.843 57.097 327.108 56.8601 329.377 57.2135L329.606 57.8503C329.333 60.3776 324.215 67.3436 322.511 69.9223C317.651 77.1875 312.847 84.4905 308.101 91.8305C309.118 93.8473 311.981 98.1472 313.27 100.2L323.962 117.113C325.904 120.182 329.179 124.459 329.551 127.99C323.658 127.748 316.574 127.94 310.593 127.946C307.782 122.799 304.084 117.694 301.099 112.597C299.196 109.347 296.932 105.769 294.706 102.746C293.772 104.889 290.7 109.57 289.357 111.724C285.993 117.165 282.58 122.576 279.12 127.956C276.595 127.908 261.817 128.243 260.671 127.615C260.249 126.007 261.797 123.527 262.702 122.205C269.332 112.519 275.107 101.261 281.979 91.8322C281.555 91.3258 281.153 90.8019 280.774 90.2617C279.987 89.1263 279.24 87.9296 278.486 86.7642C272.548 77.5965 266.263 68.6263 260.479 59.3668C260.192 58.9075 260.442 57.6507 260.539 57.1068C266.332 57.0478 272.125 57.0656 277.917 57.1596C283.454 64.9372 289.73 74.44 294.84 82.5018C296.784 80.011 299.246 76.0686 301.022 73.3917L311.843 57.1062Z" fill="#273441"/>
<path d="M479.835 35.8541C485.68 35.8897 491.521 35.8895 497.366 35.853C497.152 42.4806 497.332 50.2661 497.324 56.9807L514.284 56.9509L514.292 72.0978C508.643 72.0524 502.993 72.036 497.341 72.0485L497.313 93.563C497.313 97.0693 496.581 108.123 499.41 110.474C502.231 112.82 510.459 112.62 514.295 112.135L514.279 123.529L514.292 127.437C511.116 127.895 507.911 128.146 504.704 128.188C479.71 128.491 479.891 117.266 479.916 96.9484C479.949 88.6621 479.938 80.3759 479.88 72.09C476.431 72.026 471.882 71.9331 468.516 72.1906C468.292 67.7063 468.488 61.552 468.523 56.9865C469.391 56.999 470.258 56.9979 471.126 56.9829C482.417 56.741 480.091 43.7789 479.835 35.8541Z" fill="#273441"/>
<path d="M196 35.7646L235.626 35.811C239.705 35.8108 250.804 36.0941 254.421 35.6509L254.407 50.8756C240.766 50.8038 227.125 50.8041 213.485 50.877L213.495 74.3467C224.554 74.3448 238.413 74.7338 249.193 74.2652L249.203 89.7182C245.211 89.4232 239.525 89.5845 235.431 89.5872L213.496 89.6342L213.484 113.004L256.078 112.926L256.072 128.097C251.917 127.617 239.134 127.901 234.375 127.929C221.693 128.004 208.639 127.754 196 127.94V35.7646Z" fill="#273441"/>
<path d="M765.695 111.581C764.975 112.808 764.201 114.145 763.431 115.334C759.103 122.071 752.257 126.795 744.421 128.451C738.137 129.794 731.661 129.518 725.655 127.155C704.375 118.784 701.479 90.2098 712.245 72.5278C724.1 53.0555 757.792 53.4083 764.26 77.0772C764.933 79.5425 765.164 82.3339 765.695 84.8904V88.317C761.667 88.6393 755.214 88.441 751.038 88.436L724.401 88.4051C725.018 94.4891 725.082 99.3499 727.666 104.929C735.589 122.017 750.591 119.084 762.151 108.735C763.172 109.32 764.655 110.224 765.695 110.669V111.581ZM737.739 82.3573C741.742 82.3648 745.848 82.325 749.842 82.3896C749.575 74.8096 748.304 62.8235 737.466 64.6145C727.219 65.6478 726.515 74.7732 724.812 82.424C729.121 82.3579 733.43 82.3356 737.739 82.3573Z" fill="#E31B79"/>
</g>
<defs>
<linearGradient id="paint0_linear_73_1036" x1="28.3733" y1="134.255" x2="117.195" y2="30.9074" gradientUnits="userSpaceOnUse">
<stop offset="0.04" stop-color="#E21C79"/>
<stop offset="0.65" stop-color="#E21E7B"/>
<stop offset="0.73" stop-color="#E42880"/>
<stop offset="0.88" stop-color="#E9448E"/>
<stop offset="1" stop-color="#EF609D"/>
</linearGradient>
<clipPath id="clip0_73_1036">
<rect width="147" height="147" fill="white" transform="translate(0 8.25)"/>
</clipPath>
<clipPath id="clip1_73_1036">
<rect width="569.695" height="163.5" fill="white" transform="translate(196)"/>
</clipPath>
</defs>
</svg>
