<svg width="622" height="559" viewBox="0 0 622 559" fill="none" xmlns="http://www.w3.org/2000/svg">
<path d="M123.452 126.054C124.991 112.72 140.477 106.286 147.635 117.492C144.296 117.235 142.359 115.05 139.527 114.486C132.928 113.172 126.465 118.209 125.719 124.907C124.218 138.376 132.534 150.448 146.429 151.182L147.147 151.875L146.966 153.282C145.806 153.844 145.859 153.788 144.559 153.865C143.813 155.76 144.004 167.053 143.849 170.186C143.344 180.393 142.007 186.269 137.699 195.406C137.419 195.999 137.54 195.725 137.696 196.666L136.983 196.537C136.961 194.522 137.052 194.277 136.219 192.513L135.454 193.38L135.555 193.953C135.883 195.879 136.026 196.179 135.674 198.025C140.938 211.354 150.612 223.019 160.092 233.623C165.831 240.043 173.916 247.191 176.957 255.36C179.504 262.205 176.787 291.157 177.239 301.077C178.35 321.158 179.95 341.207 182.036 361.214C182.87 369.95 183.699 383.368 185.076 391.526L186.318 393.401C182.289 397.016 177.87 400.969 173.226 403.781C155.13 414.735 135.943 424.227 116.953 433.537C114.261 434.854 111.395 436.011 108.568 436.949C109.451 435.342 109.47 436.043 109.265 434.651L107.655 433.986C101.685 447.994 108.861 486.442 124.082 497.535C124.259 497.594 124.437 497.653 124.615 497.712C126.75 496.1 126.819 494.091 129.68 492.099L130.344 492.243C133.76 501.976 118.33 505.554 112.337 509.255C105.359 513.567 103.539 518.977 94.7239 514.965C79.703 523.037 64.6253 529.604 47.1884 528.871C42.8405 530.558 39.6042 527.456 36.2014 526.439C36.0632 526.83 35.9249 527.221 35.7867 527.612C30.3439 525.142 25.3901 520.263 22.2171 515.254C20.8757 513.139 17.4503 507.889 18.046 505.565C18.1007 505.356 12.5587 483.7 11.7369 479.361C7.66762 457.871 6.41191 435.813 3.42048 414.152C2.90405 410.407 1.3628 406.969 0.805654 403.374C0.317083 400.219 1.19887 397.038 0.362621 393.877C-0.228272 391.644 0.0401276 389.63 0.215842 387.359C0.314413 389.046 0.416197 392.828 1.34245 394.049C1.7153 392.308 0.146735 369.334 0.178877 364.401C0.370127 335.321 -1.66827 304.43 7.20048 276.314C9.70763 268.371 12.0203 266.346 13.9907 260.882L13.4442 261.113C12.638 262.623 9.85066 267.112 8.62494 268.001C15.9653 250.234 33.5437 239.719 50.4278 232.559C54.4628 230.848 59.1782 228.483 63.3792 227.361L64.5369 225.766L62.5082 223.916C63.9037 223.696 65.288 223.407 66.6557 223.051C89.6389 217.253 86.281 189.47 89.4771 171.827C90.8132 164.371 93.5014 157.223 97.4083 150.733C103.513 140.519 111.144 133.076 122.853 130.15C123.868 127.55 123.79 128.597 123.452 126.054Z" fill="#FAA4A2"/>
<path d="M62.5078 223.916C63.9033 223.695 65.2876 223.407 66.6553 223.051C89.6385 217.253 86.2807 189.469 89.4767 171.827C90.8128 164.371 93.501 157.223 97.408 150.733C103.513 140.518 111.144 133.076 122.852 130.149C125 142.508 129.814 149.174 141.767 153.634C141.968 160.075 142.037 167.771 141.539 174.208C137.552 174.757 135.775 174.807 132.662 177.649C126.749 183.049 122.708 190.175 117.728 196.447C115.169 199.669 111.369 204.194 109.282 207.649C102.077 210.457 69.6944 226.665 64.5366 225.766L62.5078 223.916Z" fill="#957F6E"/>
<path d="M123.451 126.054C124.991 112.72 140.476 106.286 147.634 117.492C144.295 117.235 142.358 115.05 139.527 114.486C132.928 113.172 126.464 118.209 125.718 124.907C124.218 138.376 132.533 150.448 146.428 151.182L147.146 151.875L146.965 153.282C145.806 153.844 145.859 153.788 144.558 153.865C143.812 155.76 144.004 167.053 143.849 170.186C143.344 180.393 142.006 186.269 137.698 195.406C137.419 195.999 137.539 195.725 137.695 196.666L136.983 196.537C136.961 194.522 137.051 194.277 136.218 192.513L136.329 192.143C138.534 189.309 140.464 181.627 140.206 178.19L139.581 177.058C134.025 176.328 117.384 200.607 113.137 205.79C116.738 221.766 129.952 261.686 137.593 276.352C144.658 268.842 161.034 245.075 171.688 255.451C171.981 256.661 172.129 256.217 171.707 257.031C169.234 256.201 164.667 254.288 162.365 255.472C153.146 260.207 144.998 274.102 136.981 279.533C129.599 267.546 114.101 223.256 111.44 208.819C99.849 215.106 87.2468 220.084 75.0893 225.222C73.1832 226.027 66.1381 229.044 64.7425 229.344C60.7123 229.753 56.5852 231.949 52.3691 233.351C53.6013 231.89 60.6556 230.083 63.3786 227.361L64.5363 225.766C69.6941 226.665 102.077 210.457 109.281 207.649C111.368 204.194 115.169 199.669 117.727 196.447C122.707 190.176 126.749 183.049 132.662 177.649C135.774 174.807 137.552 174.758 141.539 174.208C142.037 167.771 141.967 160.076 141.766 153.634C129.814 149.175 125 142.508 122.852 130.15C123.867 127.55 123.789 128.597 123.451 126.054Z" fill="#352C3B"/>
<path d="M47.1883 528.87C42.8405 530.558 39.6042 527.456 36.2014 526.439C36.0632 526.83 35.9249 527.221 35.7867 527.612C30.3439 525.142 25.3901 520.263 22.2171 515.254C20.8757 513.139 17.4503 507.889 18.046 505.564C18.1007 505.356 12.5587 483.699 11.7369 479.361C7.66762 457.871 6.41191 435.813 3.42048 414.151C2.90405 410.407 1.3628 406.968 0.805654 403.374C0.317083 400.219 1.19887 397.038 0.362621 393.877C-0.228272 391.644 0.0401276 389.63 0.215842 387.358C0.314413 389.046 0.416197 392.827 1.34245 394.049C1.7153 392.308 0.146735 369.334 0.178877 364.401C0.370127 335.321 -1.66827 304.43 7.20048 276.314C9.70762 268.37 12.0203 266.346 13.9907 260.882L13.4442 261.112C12.638 262.623 9.85066 267.112 8.62494 268.001C15.9653 250.233 33.5437 239.719 50.4278 232.559C54.4628 230.847 59.1782 228.483 63.3792 227.36C60.6562 230.082 53.6019 231.89 52.3698 233.351C56.5858 231.949 60.713 229.753 64.7432 229.344C42.2057 239.132 19.9708 246.804 10.1373 271.584C-6.55506 313.643 2.44762 400.455 8.1878 446.472C10.5519 465.423 12.3262 488.29 19.98 505.827C24.2844 515.694 30.1526 523.203 40.4582 527.081C42.6294 527.896 44.926 528.378 47.1883 528.87Z" fill="#353C55"/>
<path d="M116.045 431.345C139.327 419.743 165.077 408.195 185.075 391.525L186.317 393.4C182.287 397.016 177.869 400.969 173.225 403.781C155.129 414.735 135.942 424.226 116.952 433.536C114.26 434.854 111.394 436.011 108.567 436.948C109.45 435.341 109.469 436.043 109.264 434.65L107.654 433.986L108.829 433.075C110.684 433.15 111.752 433.252 113.234 432.154L112.948 431.297C111.193 430.028 110.922 429.958 108.791 429.529C107.55 429.829 83.5862 439.348 82.9835 439.771C82.705 440.365 81.6212 442.69 81.2178 442.835C78.0057 443.804 74.6039 444.115 71.29 444.918C58.3128 448.068 47.598 455.588 41.9473 467.919C40.9846 470.024 40.2689 472.676 38.5525 474.336L37.5882 474.224L37.1602 473.249C37.5239 470.994 40.3498 465.225 41.6634 463.146C51.6561 447.323 62.6146 444.635 79.2046 440.446C82.7623 435.373 92.3596 433.938 98.3018 430.992C105.7 427.322 109.875 424.312 116.045 431.345Z" fill="#382534"/>
<path d="M135.674 198.024C134.756 195.349 131.981 187.081 135.312 185.629C136.029 186.716 136.039 190.264 136.33 192.142L136.219 192.512L135.454 193.379L135.556 193.952C135.883 195.878 136.027 196.178 135.674 198.024Z" fill="#382534"/>
<path d="M71.2226 343.692L72.5507 344.421C74.8494 348.808 84.6605 430.161 83.3807 434.886C82.7715 434.538 82.4249 434.206 81.8769 433.761C80.131 415.849 78.0787 397.969 75.721 380.127C75.0069 374.792 70.8862 347.388 71.2226 343.692Z" fill="#382534"/>
<path d="M35.1035 265.119C45.7674 266.737 70.264 310.644 67.4055 319.176L66.4058 318.78C64.8914 317.136 61.7548 307.071 60.7524 304.366C55.4076 289.962 46.8657 277.268 35.2653 267.165C35.2653 267.165 35.1185 265.307 35.1035 265.119Z" fill="#382534"/>
<path d="M78.1271 459.809C77.3337 472.713 78.9585 483.549 83.6787 495.542C85.836 501.022 89.1591 505.548 91.9352 510.717L91.5119 511.831L90.7775 511.837C90.3012 511.456 89.4361 510.765 89.0884 510.267C77.9578 494.273 74.7184 477.716 76.0791 459.193L78.1271 459.809Z" fill="#382534"/>
<path d="M76.0801 459.194C76.4845 455.273 76.9238 448.54 78.9745 445.353C80.4858 447.19 78.5674 456.864 78.1281 459.81L76.0801 459.194Z" fill="#221A28"/>
<path d="M404.954 247.341C403.861 248.747 402.597 249.482 400.931 249.946C399.752 249.519 399.473 249.62 398.723 248.475C391.202 236.976 395.423 223.301 396.714 211.184L395.852 214.97C397.48 195.661 392.895 192.654 389.552 174.582C388.331 167.976 390.339 149.812 390.511 142.178C391.18 111.697 386.434 81.6945 407.627 56.2497C417.559 43.6101 432.73 33.9594 448.888 32.8474C450.522 31.9433 459.441 33.9498 459.832 33.7698C476.316 26.1412 504.404 29.6893 518.498 40.9941C522.597 43.9862 525.65 46.7137 529.17 50.4037C550.764 73.7792 548.997 105.829 554.793 135.09C556.095 141.678 559.834 150.317 562.582 156.562C570.506 169.494 582.184 182.182 588.859 194.575C588.693 196.892 588.661 197.304 589.175 199.555C594.58 211.175 598.523 219.241 597.275 232.372C597.039 234.849 596.054 241.99 596.027 243.624L595.877 246.535C584.697 241.34 573.789 238.068 563.22 233.26C559.079 254.947 537.43 285.95 555.093 305.233L555.307 306.305C553.507 307.601 553.834 306.423 551.37 307.06C546.179 309.369 535.641 301.479 532.186 297.697C531.731 298.87 531.479 299.706 530.82 300.777L529.813 301.543C526.636 301.43 520.475 297.333 518.177 295.013C507.709 284.456 505.598 270.84 505.363 256.87C499.073 261.809 496.727 263.11 489.136 265.756C488.83 264.894 489.029 264.428 489.141 263.394C489.195 259.2 488.707 253.876 488.67 249.816C488.53 235.453 485.82 232.99 476.531 223.24L474.656 221.321C472.77 217.25 465.854 209.566 461.23 209.268C453.495 208.77 445.486 214.552 439.561 218.832C426.313 206.878 416.027 193.867 412.384 176.009C411.452 171.46 410.654 162.574 408.913 158.672C407.67 159.897 407.632 159.43 407.648 160.774C407.68 164.147 408.763 167.945 409.202 171.223C411.575 188.938 419.477 202.208 431.659 214.996C433.25 216.663 436.052 218.971 437.975 220.424C430.325 226.744 432.655 230.159 441.88 230.117C432.741 238.955 417.275 240.588 404.954 247.341Z" fill="#957F6E"/>
<path d="M438.581 87.9895C465.983 63.8464 470.612 132.098 504.763 136.96C506.365 137.165 507.554 137.013 508.583 137.863L509.654 139.644C513.104 140.19 522.265 133.248 525.844 139.981C533.928 155.186 524.74 164.491 512.44 170.118L512.301 171.077C513.212 171.888 513.683 171.918 514.851 172.29C515.36 173.932 515.403 177.441 515.542 179.275C516.919 197.372 511.674 216.005 508.315 233.807C507.126 240.312 506.178 246.859 505.47 253.431C500.349 258.407 495.769 260.759 489.142 263.394C489.195 259.2 488.708 253.876 488.67 249.816C488.531 235.453 485.821 232.99 476.531 223.24L474.656 221.321C472.771 217.25 465.854 209.566 461.231 209.269C453.495 208.77 445.487 214.552 439.562 218.832C426.313 206.879 416.028 193.867 412.385 176.009C411.453 171.461 410.654 162.574 408.913 158.673C407.617 156.263 404.537 141.415 403.572 137.611C406.545 125.135 411.217 98.9906 421.358 91.4771C424.337 89.267 428.89 89.9232 432.319 90.6345L433.39 89.8128C433.738 88.7951 433.803 88.8192 434.376 87.884C435.978 87.1464 436.835 87.5755 438.581 87.9895Z" fill="#EEE5E0"/>
<path d="M474.656 221.321C483.796 215.171 491.601 209.561 497.906 200.482C499.128 198.727 500.853 196.124 503.001 195.641L503.467 196.182C501.228 203.016 489.812 213.516 483.935 217.634C482.542 218.61 477.254 222.454 476.531 223.24L474.656 221.321Z" fill="#2C2C38"/>
<path d="M440.166 149.837C440.771 149.97 441.478 150.245 442.078 150.451C449.069 159.923 441.393 166.679 440.809 173.966C441.907 177.232 444.96 176.486 446.225 180.976C444.082 180.46 442.073 179.494 440.332 178.145C435.28 174.267 442.239 167.733 442.298 162.151C442.352 156.704 440.509 154.656 440.166 149.837Z" fill="#2C2C38"/>
<path d="M470.215 190.271L471.827 190.908L472.031 191.909C463.877 198.388 450.125 199.185 440.252 197.42L439.234 196.188L439.443 195.304C441.356 194.792 444.8 195.636 447.002 195.871C455.884 196.815 462.72 194.651 470.215 190.271Z" fill="#2C2C38"/>
<path d="M468.286 128.362C471.629 128.1 478.095 128.16 480.902 130.008L480.832 130.79C479.429 131.845 471.318 130.466 468.259 130.779C463.802 131.549 461.771 133.15 457.813 133.833L457.062 133.029L457.33 131.967C460.127 129.811 464.846 129.013 468.286 128.362Z" fill="#2C2C38"/>
<path d="M469.153 148.831C475.239 149.964 474.821 155.286 471.687 159.435C470.883 159.203 470.149 159.026 469.442 158.549C468.258 157.729 467.455 156.47 467.203 155.052C466.78 152.516 467.76 150.778 469.153 148.831Z" fill="#353C55"/>
<path d="M423.002 152.007C424.175 152.145 424.791 152.157 425.75 152.897C426.913 153.785 427.636 155.127 427.743 156.584C427.936 159.19 427.1 160.427 425.574 162.36C420.232 160.487 419.873 156.191 423.002 152.007Z" fill="#353C55"/>
<path d="M418.153 132.13C422.519 131.833 426.377 132.222 430.271 134.347L429.902 134.882C426.387 135.427 424.18 134.66 420.644 134.038C416.027 134.62 411.612 137.385 408.789 136.449L409.014 135.878C412.834 133.082 413.648 132.982 418.153 132.13Z" fill="#2C2C38"/>
<path d="M519.949 146.79L520.914 147.544C520.828 148.902 516.767 154.562 515.664 156.32C514.973 156.082 514.844 155.92 514.217 155.509C513.649 152.368 517.758 148.735 519.949 146.79Z" fill="#2C2C38"/>
<path d="M404.954 247.341C403.861 248.747 402.597 249.482 400.931 249.946C399.752 249.519 399.473 249.62 398.723 248.475C391.202 236.976 395.423 223.301 396.714 211.184L395.852 214.97C397.48 195.661 392.895 192.654 389.552 174.582C388.331 167.976 390.339 149.812 390.511 142.178C391.18 111.697 386.434 81.6945 407.627 56.2497C417.559 43.6101 432.73 33.9594 448.888 32.8474C450.522 31.9433 459.441 33.9498 459.832 33.7698C476.316 26.1412 504.404 29.6893 518.498 40.9941L515.9 42.1869C502.154 34.1164 491.188 31.1071 474.843 32.5652C469.898 33.006 465.822 34.8122 460.663 34.7056C442.856 34.337 427.154 39.3143 414.506 52.3004C397.304 69.9553 392.429 92.5954 393.307 116.484C393.548 122.956 393.709 132.692 393.393 139.076C392.814 150.81 390.945 161.683 391.979 173.607C392.841 183.545 398.423 193.375 398.793 202.687C399.179 215.189 392.981 227.322 396.232 239.825C396.913 242.439 397.063 244.784 399.013 246.981C401.113 249.345 402.404 248.388 404.954 247.341Z" fill="#353C55"/>
<path d="M508.582 137.862C513.387 135.7 518.407 133.301 523.614 135.526C532.592 139.363 532.367 152.104 528.601 159.558C525.655 165.394 522.382 168.168 516.933 171.262C521.535 201.004 509.048 227.723 507.633 257.03C507.055 269.066 511.19 286.517 521.144 294.145C523.132 295.693 529.919 299.416 530.819 300.776L529.812 301.542C526.635 301.43 520.474 297.332 518.176 295.013C507.708 284.455 505.598 270.839 505.362 256.87C499.073 261.808 496.726 263.11 489.135 265.756C488.83 264.894 489.028 264.428 489.14 263.394C495.767 260.758 500.348 258.407 505.469 253.431C506.176 246.858 507.124 240.312 508.314 233.807C511.673 216.005 516.917 197.372 515.54 179.274C515.401 177.44 515.358 173.931 514.849 172.29C513.682 171.917 513.21 171.887 512.299 171.076L512.439 170.118C524.739 164.49 533.926 155.185 525.842 139.981C522.264 133.248 513.103 140.189 509.653 139.643L508.582 137.862Z" fill="#2C2C38"/>
<path d="M551.171 305.48C536.6 278.044 556.582 258.627 561.082 232.15C561.977 226.874 562.421 219.263 561.773 213.944C561.146 208.814 560.214 206.429 560.594 201.038L561.178 200.558C564.859 207.838 564.152 222.409 563.862 230.689C572.98 235.163 586.068 239.394 596.027 243.623L595.877 246.535C584.696 241.34 573.789 238.068 563.219 233.26C559.078 254.947 537.43 285.95 555.093 305.233L555.307 306.305C553.507 307.601 553.834 306.422 551.369 307.06L551.171 305.48Z" fill="#2C2C38"/>
<path d="M529.171 50.4033C550.765 73.7788 548.997 105.829 554.794 135.089C556.096 141.677 559.835 150.317 562.583 156.562L560.349 157.214C542.446 122.581 554.687 85.2465 529.053 53.9263L529.171 50.4033Z" fill="#353C55"/>
<path d="M438.58 87.9893C438.393 82.5451 444.479 79.7597 448.941 80.584C472.491 84.9372 474.157 117.754 493.571 130.077C500.745 134.63 507.939 134.092 510.077 135.513C508.802 137.247 506.798 136.95 504.763 136.96C470.611 132.098 465.982 63.8462 438.58 87.9893Z" fill="#333136"/>
<path d="M403.571 137.611C402.638 140.246 401.996 147.74 399.89 149.152C398.819 141.206 408.815 104.1 413.99 96.363C418.056 90.2883 420.467 88.4633 427.308 86.8184C430.115 87.5527 431.546 87.6775 433.388 89.8131L432.317 90.6348C428.888 89.9235 424.335 89.2673 421.356 91.4774C411.215 98.9909 406.544 125.136 403.571 137.611Z" fill="#2E2E33"/>
<path d="M562.582 156.562C570.505 169.493 582.183 182.181 588.858 194.575C588.692 196.892 588.66 197.304 589.174 199.555C580.421 184.27 568.035 171.066 560.348 157.213L562.582 156.562Z" fill="#353C55"/>
<path d="M532.185 297.697C529.956 293.878 525.306 285.158 525.821 280.691L526.49 279.994L527.455 280.112C528.992 282.11 529.024 285.318 529.897 287.916C533.385 298.297 541.174 303.102 551.171 305.48L551.369 307.06C546.178 309.369 535.64 301.479 532.185 297.697Z" fill="#2C2C38"/>
<path d="M515.9 42.187L518.499 40.9941C522.597 43.9863 525.65 46.7137 529.17 50.4038L529.052 53.9267C524.466 48.8435 521.418 46.229 515.9 42.187Z" fill="#353C55"/>
<path d="M454.582 46.7495C455.284 47.3891 455.075 47.2316 455.525 48.1449C454.518 50.0223 449.616 52.392 447.618 54.4612C442.352 59.9151 439.941 65.677 437.011 72.4449L436.014 71.8418C433.684 64.4054 448.197 50.3062 454.582 46.7495Z" fill="#2C2C38"/>
<path d="M228.649 349.284C228.24 341.684 224.546 305.426 227.698 300.943C229.533 298.334 233.597 298.339 236.418 298.248C248.688 297.841 261.06 298.125 273.343 298.12L343.159 298.141L387.077 298.114C395.3 298.12 403.513 297.975 411.731 298.425C418.882 298.821 419.445 302.598 420.339 308.752C423.838 332.701 427.004 356.703 430.298 380.684C431.322 388.231 432.388 395.778 433.502 403.315C434.032 406.92 435.243 413.669 435.254 417.081C434.038 417.584 433.55 417.531 432.238 417.633C424.77 422.968 430.518 429.701 429.65 436.289L428.616 436.498C423.334 431.49 421.159 395.832 409.164 404.472C402.682 409.137 412.829 433.938 410.922 437.826L411.982 438.491C410.589 440.569 408.597 442.476 410.697 445.261L411.313 445.577C412.111 446 411.811 445.797 412.406 446.284C418.668 433.541 403.352 412.057 412.063 405.64C417.961 406.989 427.732 439.38 425.723 446.054C424.582 449.857 422.07 454.469 421.17 458.995L421.764 459.756C424.218 458.272 426.961 450.548 428.247 447.5C430.175 447.232 432.35 446.981 434.241 446.622C433.716 438.137 429.189 427.612 431.964 420.466L432.864 419.738C438.318 420.975 443.461 439.583 444.018 444.565C444.463 448.513 445.052 453.033 440.6 454.844C435.195 457.308 429.281 457.988 423.913 460.468C421.127 461.748 417.366 467.265 415.781 467.715C411.152 469.044 408.473 467.999 403.373 470.211L399.881 471.695C392.482 469.783 390.034 468.594 382.4 468.963C377.932 466.435 362.553 457.051 358.893 456.885L359.351 456.853L359.056 457.677C362.338 460.757 364.902 462.413 369.088 464.228C368.016 466.848 345.164 487.749 340.966 491.477C338.914 493.298 330.275 500.288 329.271 502.104L329.414 503.4L328.181 504.755C328.592 504.761 329.75 504.605 330.224 504.557C331.151 503.068 343.214 492.778 345.586 490.652C343.55 496.651 342.996 497.84 338.811 502.511L339.597 503.839C338.94 505.216 338.735 505.436 337.847 506.625C331.036 512.49 326.065 515.607 316.643 516.309C313.284 516.555 311.674 515.468 309.239 516.946C309.724 522.099 313.71 555.293 312.872 557.543L311.642 558.041C308.009 557.554 298.24 557.784 294.254 557.784L262.212 557.752C262.218 554.929 262.046 552.561 261.843 549.755C261.943 522.18 259.516 490.796 258.507 462.943C258.276 458.631 257.213 443.665 257.814 440.001C259.282 439.198 261.71 439.364 263.479 439.321C264.35 438.796 265.806 439.075 267.374 438.598L267.053 437.784C265.626 437.955 264.193 438.073 262.756 438.137C259.749 438.26 238.95 437.859 238.417 437.371L239.609 437.077C231.125 435.695 232.183 428.458 232.278 421.832C244.206 418.5 258.271 417.692 269.483 412.373C272.643 410.873 273.544 407.027 274.406 403.867C279.138 401.049 286.488 402.142 289.144 395.243C288.714 386.972 262.564 388.108 256.693 387.92C251.612 388.012 246.53 388.049 241.449 388.038C243.916 387.433 245.999 387.074 248.483 386.656C260.251 384.289 284.494 386.672 290.73 379.141C301.033 366.693 254.563 368.412 251.106 368.541C243.136 368.83 235.726 370.389 228.504 371.107C233.18 367.716 238.879 363.431 244.188 361.861C249.551 360.276 282.322 361.111 274.423 349.145C271.658 344.956 240.149 344.528 234.652 346.89C232.781 347.694 230.512 348.39 228.649 349.284Z" fill="#EEE5E0"/>
<path d="M412.406 446.284C418.669 433.541 403.353 412.057 412.063 405.64C417.962 406.99 427.733 439.38 425.724 446.054C424.583 449.857 422.07 454.469 421.17 458.995L421.765 459.756C424.219 458.272 426.962 450.548 428.247 447.5C430.176 447.233 432.351 446.981 434.242 446.622C433.717 438.137 429.19 427.612 431.965 420.466L432.865 419.738C438.319 420.975 443.462 439.584 444.019 444.565C444.463 448.513 445.053 453.034 440.601 454.844C435.195 457.308 429.281 457.988 423.913 460.468C421.128 461.749 417.367 467.266 415.781 467.716C411.153 469.044 408.474 467.999 403.374 470.212L399.881 471.695C392.483 469.783 390.035 468.594 382.401 468.964C377.933 466.435 362.553 457.051 358.894 456.885L359.351 456.853L359.057 457.678C362.338 460.758 364.903 462.413 369.088 464.229C368.017 466.848 345.165 487.749 340.967 491.477C338.914 493.298 330.276 500.288 329.271 502.104L329.415 503.4L328.181 504.755C328.593 504.761 329.75 504.605 330.224 504.557C331.151 503.068 343.215 492.778 345.587 490.652C343.551 496.651 342.997 497.84 338.811 502.511L339.598 503.839C338.941 505.216 338.735 505.436 337.848 506.625C331.037 512.49 326.066 515.608 316.643 516.309C313.285 516.556 311.674 515.468 309.24 516.947C309.724 522.1 313.711 555.293 312.873 557.543L311.643 558.041C308.01 557.554 298.241 557.784 294.254 557.784L262.212 557.752C262.219 554.929 262.047 552.562 261.844 549.755C261.944 522.18 259.517 490.797 258.507 462.943C258.277 458.631 257.214 443.665 257.815 440.001C259.282 439.198 261.71 439.364 263.479 439.321C264.35 438.796 265.806 439.075 267.375 438.598L267.054 437.784C265.626 437.955 264.193 438.073 262.757 438.137C259.75 438.261 238.95 437.859 238.418 437.371L239.61 437.077C269.573 437.205 299.537 437.184 329.5 437.002C345.559 436.964 361.864 437.43 377.885 437.066C377.912 431.019 376.712 418.624 384.41 417.135C392.633 419.117 388.245 434.27 392.804 437.377C395.574 434.082 385.47 407.032 397.572 405.506C398.354 405.404 399.04 405.72 399.731 405.999C406.138 412.207 405.747 434.318 410.922 437.827L411.983 438.491C410.59 440.569 408.597 442.476 410.697 445.261L411.313 445.577C412.112 446.001 411.812 445.797 412.406 446.284Z" fill="#EEE5E0"/>
<path d="M263.479 439.321C268.827 439.38 301.792 438.914 304.193 439.985L305.849 439.787C305.82 444.083 305.734 448.502 305.77 452.782C305.303 465.535 305.54 478.305 306.478 491.032C306.848 496.539 307.908 505.666 307.866 510.835L307.736 512.211C309.074 513.454 310.411 513.776 312.133 514.418C310.924 515.243 311.038 514.943 309.263 514.9C309.155 515.838 308.952 516.229 309.239 516.947C309.724 522.099 313.71 555.293 312.872 557.543L311.642 558.041C308.009 557.554 298.24 557.784 294.254 557.784L262.212 557.752C262.218 554.929 262.046 552.562 261.843 549.755C261.943 522.18 259.517 490.796 258.507 462.943C258.276 458.631 257.213 443.665 257.815 440.001C259.282 439.198 261.71 439.364 263.479 439.321Z" fill="#FAA4A2"/>
<path d="M304.194 439.985L305.85 439.787C305.821 444.083 305.734 448.502 305.77 452.782C305.304 465.536 305.541 478.305 306.478 491.032C306.849 496.539 307.908 505.666 307.867 510.835L307.737 512.212C309.075 513.454 310.412 513.776 312.134 514.418C310.925 515.243 311.039 514.943 309.264 514.901L307.842 514.52C306.83 513.62 306.236 509.978 305.692 508.2C304 489.109 302.04 458.979 304.194 439.985Z" fill="#221A28"/>
<path d="M305.691 508.199C306.236 509.978 306.83 513.62 307.842 514.52L309.264 514.9C309.155 515.838 308.952 516.229 309.239 516.946C309.724 522.099 313.711 555.293 312.872 557.543L311.642 558.041C309.337 549.98 306.13 517.755 305.691 508.199Z" fill="#353C55"/>
<path d="M377.885 437.066C377.912 431.019 376.712 418.624 384.41 417.135C392.633 419.117 388.245 434.27 392.804 437.377C395.574 434.082 385.47 407.032 397.572 405.506C398.354 405.404 399.04 405.72 399.731 405.999C406.138 412.207 405.747 434.318 410.922 437.827L411.983 438.491C410.59 440.569 408.597 442.476 410.697 445.261L411.313 445.577C412.112 446.001 411.812 445.797 412.406 446.284L412.074 446.949C409.578 452.021 410.204 455.262 407.895 459.751L407.419 459.804C406.395 454.624 408.27 446.643 407.912 443.729C407.054 436.745 402.019 413.208 398.295 408.355L397.337 407.884C389.617 411.382 397.203 434.479 396.324 441.581C395.59 447.527 393.71 452.535 392.483 458.213L391.599 459.022L390.587 458.861C388.637 455.728 390.608 422.689 384.067 419.92C376.535 422.861 383.145 449.616 377.912 455.76L376.926 455.873C376.181 454.989 376.122 455.299 376.331 453.901C377.22 447.972 378.029 445.379 377.853 439.284C368.965 439.305 359.74 439.203 350.882 439.412C342.1 445.529 331.74 449.895 321.644 453.328C310.211 466.746 307.73 498.681 329.271 502.104L329.415 503.4L328.181 504.755C328.593 504.761 329.75 504.605 330.224 504.557C331.151 503.068 343.215 492.778 345.587 490.652C343.551 496.651 342.997 497.84 338.811 502.511L339.598 503.839C338.941 505.216 338.735 505.436 337.848 506.625C331.037 512.49 326.066 515.608 316.643 516.309C313.285 516.556 311.674 515.468 309.24 516.947C308.953 516.229 309.155 515.838 309.264 514.901C311.039 514.943 310.925 515.243 312.134 514.418C310.412 513.776 309.075 513.454 307.737 512.212L307.867 510.835C307.908 505.666 306.848 496.539 306.478 491.032C305.541 478.305 305.304 465.536 305.77 452.782C305.734 448.502 305.821 444.083 305.849 439.787L304.194 439.985C301.792 438.914 268.827 439.38 263.479 439.321C264.35 438.796 265.806 439.075 267.375 438.598L267.054 437.784C265.626 437.955 264.193 438.073 262.757 438.137C259.75 438.261 238.95 437.859 238.418 437.371L239.61 437.077C269.573 437.205 299.537 437.184 329.5 437.002C345.559 436.964 361.864 437.43 377.885 437.066Z" fill="#2C2C38"/>
<path d="M306.706 452.519C309.85 454.341 319.956 442.439 331.927 446.686C328.903 448.272 326.793 448.593 323.632 449.638C318.253 451.416 314.842 458.379 313.044 463.345C308.338 476.35 309.859 499.126 325.671 504.064C326.5 504.316 327.337 504.547 328.18 504.755C328.591 504.761 329.749 504.605 330.223 504.557C331.15 503.068 343.214 492.778 345.586 490.652C343.55 496.651 342.996 497.84 338.81 502.511L339.597 503.839C338.94 505.216 338.734 505.436 337.846 506.625C331.036 512.49 326.065 515.608 316.642 516.309C313.284 516.556 311.673 515.468 309.239 516.947C308.952 516.229 309.154 515.838 309.263 514.901C311.038 514.943 310.924 515.243 312.133 514.418C310.41 513.776 309.074 513.454 307.736 512.212L307.866 510.835C307.907 505.666 306.847 496.539 306.477 491.032C305.54 478.305 305.303 465.536 305.769 452.782L306.706 452.519Z" fill="#FAA4A2"/>
<path d="M307.867 510.835L308.971 512.093C320.284 516.646 330.761 510.117 338.811 502.511L339.597 503.839C338.941 505.216 338.735 505.435 337.847 506.625C331.037 512.49 326.065 515.607 316.643 516.309C313.285 516.555 311.674 515.468 309.24 516.946C308.952 516.229 309.155 515.838 309.264 514.9C311.038 514.943 310.924 515.243 312.133 514.418C310.411 513.775 309.075 513.454 307.736 512.211L307.867 510.835Z" fill="#3A3A55"/>
<path d="M305.85 439.787C308.313 438.812 332.281 439.39 336.457 439.428C334.99 441.169 333.56 443.129 335.25 445.245L333.595 445.058L331.928 446.686C319.957 442.438 309.851 454.34 306.708 452.519L305.77 452.782C305.734 448.502 305.821 444.083 305.85 439.787Z" fill="#FAA4A2"/>
<path d="M306.707 452.519C311.055 445.636 326.902 440.194 333.594 445.058L331.927 446.686C319.956 442.438 309.85 454.34 306.707 452.519Z" fill="#382534"/>
<path d="M336.456 439.428C340.069 439.364 344.26 439.401 347.795 439.005C343.153 441.78 340.251 443.14 335.249 445.245C333.56 443.129 334.99 441.169 336.456 439.428Z" fill="#FDDBD3"/>
<path d="M391.41 439.059L393.248 439.482C394.839 442.085 393.414 445.722 392.674 448.839L392.476 449.038L392.026 448.93C391.319 445.727 391.442 442.353 391.41 439.059Z" fill="#EEE5E0"/>
<path d="M241.449 388.038C243.917 387.433 246 387.074 248.484 386.656C251.282 388.06 253.462 387.085 256.693 387.92C251.612 388.011 246.53 388.049 241.449 388.038Z" fill="#D7DBEC"/>
<path d="M120.838 127.334C115.481 116.474 111.675 107.851 109.832 95.5439C106.667 74.4116 111.502 50.9793 124.246 33.6662C137.187 15.7452 156.842 3.83619 178.72 0.660894C193.98 -1.60917 221.66 1.9968 233.897 11.0454C236.911 12.0492 237.556 12.2271 240.761 12.6047C252.359 13.3096 266.612 24.7226 274.049 33.1584C293.084 54.7497 298.69 96.1503 278.586 118.747C276.601 120.979 274.825 121.168 272.355 120.026C272.389 122.256 272.528 127.14 271.949 129.172C269.27 138.579 269.503 148.236 268.203 157.66C265.784 175.196 248.112 203.868 231.967 211.577C227.404 213.27 226.131 213.352 221.175 213.744C204.922 211.277 188.703 202.742 176.129 192.257C172.973 189.626 167.62 183.263 164.771 181.594C164.553 184.543 171.247 191.496 173.487 193.39C185.442 203.493 198.397 209.824 213.086 214.726C212.349 216.783 211.781 218.896 211.388 221.045C210.768 224.545 209.739 235.171 211.829 238.153L212.582 237.819C213.366 236.31 213.092 226.669 213.164 223.898C222.595 237.037 226.995 257.004 230.796 272.677C217.336 291.869 198.278 288.537 179.681 278.413C179.921 272.811 181.515 259.907 179.63 255.113C175.65 245.001 162.189 233.271 155.249 224.154C147.089 213.434 143.139 209.362 137.695 196.666C137.54 195.724 137.419 195.998 137.699 195.406C142.007 186.268 143.344 180.393 143.849 170.186C144.004 167.052 143.813 155.759 144.558 153.864C145.859 153.787 145.806 153.844 146.965 153.282L147.146 151.874L146.429 151.182C132.534 150.447 124.218 138.375 125.718 124.906C126.465 118.209 132.928 113.171 139.527 114.486C142.358 115.05 144.295 117.235 147.634 117.492C140.477 106.285 124.991 112.719 123.452 126.053C123.79 128.596 123.868 127.55 122.852 130.149C111.144 133.076 103.513 140.518 97.4081 150.733C93.5011 157.222 90.8129 164.371 89.4768 171.827C86.2808 189.469 89.6386 217.253 66.6554 223.051C65.2877 223.407 63.9034 223.695 62.5079 223.916C62.255 223.854 61.2329 223.298 60.957 223.156L60.9297 222.348C62.6617 220.931 66.2311 220.178 68.5063 219.202C86.4441 211.509 84.5059 188.512 86.6756 172.86C87.3425 167.971 88.6459 163.19 90.5525 158.639C96.9174 143.251 105.586 133.706 120.838 127.334Z" fill="#EEE5E0"/>
<path d="M120.838 127.334C115.481 116.474 111.675 107.851 109.832 95.5439C106.667 74.4116 111.502 50.9793 124.246 33.6662C137.187 15.7452 156.842 3.83619 178.72 0.660894C193.98 -1.60917 221.66 1.9968 233.897 11.0454C236.911 12.0492 237.556 12.2271 240.761 12.6047C252.359 13.3096 266.612 24.7226 274.049 33.1584C293.084 54.7497 298.69 96.1503 278.586 118.747C276.601 120.979 274.825 121.168 272.355 120.026C272.453 118.786 272.72 117.067 272.881 115.794C276.216 91.6514 263.753 65.3057 246.898 48.5652L245.914 48.4999C242.205 69.3434 235.667 87.7074 220.075 102.873C217.584 105.295 217.54 104.957 220.274 107.075L220.133 108.032C217.591 109.715 216.516 106.813 214.109 108.103C208.596 111.055 203.537 114.784 197.657 117.067C192.639 119.13 171.322 122.408 167.722 118.223L167.486 117.346L167.204 116.779L165.951 117.055C163.372 118.311 162.125 118.062 159.322 117.937L157.763 118.851C153.262 119.547 151.459 119.935 147.634 117.492C140.477 106.285 124.991 112.719 123.452 126.053C123.79 128.596 123.868 127.55 122.852 130.149C111.144 133.076 103.513 140.518 97.4081 150.733C93.5011 157.222 90.8129 164.371 89.4768 171.827C86.2808 189.469 89.6386 217.253 66.6554 223.051C65.2877 223.407 63.9034 223.695 62.5079 223.916C62.255 223.854 61.2329 223.298 60.957 223.156L60.9297 222.348C62.6617 220.931 66.2311 220.178 68.5063 219.202C86.4441 211.509 84.5059 188.512 86.6756 172.86C87.3425 167.971 88.6459 163.19 90.5525 158.639C96.9174 143.251 105.586 133.706 120.838 127.334Z" fill="#957F6E"/>
<path d="M120.838 127.334C115.481 116.474 111.675 107.851 109.832 95.5439C106.667 74.4116 111.502 50.9793 124.246 33.6662C137.187 15.7452 156.842 3.83619 178.72 0.660894C193.98 -1.60917 221.66 1.9968 233.897 11.0454C233.355 11.2672 232.814 11.489 232.273 11.7107C222.25 9.03518 213.876 4.95568 203.437 3.33268C140.26 -6.49051 92.9316 57.1146 118.114 115.197C119.564 118.539 121.409 123.11 123.452 126.053C123.79 128.596 123.868 127.55 122.852 130.149C111.144 133.076 103.513 140.518 97.4081 150.733C93.5011 157.222 90.8129 164.371 89.4768 171.827C86.2808 189.469 89.6386 217.253 66.6554 223.051C65.2877 223.407 63.9034 223.695 62.5079 223.916C62.255 223.854 61.2329 223.298 60.957 223.156L60.9297 222.348C62.6617 220.931 66.2311 220.178 68.5063 219.202C86.4441 211.509 84.5059 188.512 86.6756 172.86C87.3425 167.971 88.6459 163.19 90.5525 158.639C96.9174 143.251 105.586 133.706 120.838 127.334Z" fill="#353C55"/>
<path d="M240.76 12.605C252.358 13.3099 266.611 24.7228 274.048 33.1587C293.082 54.75 298.689 96.1505 278.585 118.748C276.6 120.979 274.824 121.168 272.354 120.026C272.452 118.786 272.719 117.067 272.88 115.795L273.044 119.198L273.612 119.43L274.424 118.866C283.565 110.896 288.005 97.5705 288.654 86.3123C290.321 57.3672 275.925 29.2582 248.756 17.5238C246.097 16.3754 242.407 15.0191 240.76 12.605Z" fill="#353C55"/>
<path d="M214.878 104.688C228.995 91.1618 235.96 79.1216 241.42 59.9498C242.521 56.0878 243.034 45.2073 245.166 42.543L245.776 42.9227C246.604 44.8864 246.179 46.3391 245.915 48.4999C242.205 69.3434 235.668 87.7074 220.075 102.873C217.585 105.295 217.54 104.957 220.274 107.075L220.133 108.032C217.591 109.715 216.517 106.813 214.109 108.103C208.597 111.055 203.538 114.784 197.657 117.067C192.639 119.131 171.322 122.408 167.722 118.223L167.486 117.346C169.92 117.262 175.64 117.975 179.037 117.947C191.831 117.846 201.597 113.592 211.917 106.424C209.728 106.514 207.06 106.578 204.916 106.895C202.401 107.266 197.032 109.405 194.742 108.751L194.701 108.24C198.261 103.904 209.668 104.362 214.878 104.688Z" fill="#2C2C38"/>
<path d="M157.762 118.851C155.636 118.552 154.891 118.651 153.199 117.421L153.26 116.808C157.222 114.726 162.553 114.613 166.567 112.791C184.044 104.857 199.061 89.566 204.509 70.9357C205.212 68.5312 206.021 64.6859 208.355 63.6387C209.497 67.2291 204.326 78.2419 202.637 81.7134C195.486 96.4078 181.637 109.714 166.167 115.237C165.17 115.593 165.651 115.199 165.003 116.092L165.95 117.055C163.372 118.311 162.125 118.062 159.321 117.936L157.762 118.851Z" fill="#2C2C38"/>
<path d="M246.896 48.5654C247.76 48.2049 248.555 47.6286 249.419 48.2242C258.544 54.5175 267.709 73.7932 271.427 83.3732C275.799 94.6389 277.08 108.154 274.424 118.866L273.613 119.43L273.044 119.198L272.88 115.795C276.215 91.6516 263.752 65.3059 246.896 48.5654Z" fill="#2C2C38"/>
<path d="M206.535 172.454C212.111 172.582 218.361 173.567 224.127 173.647C231.39 173.747 238.445 173.38 245.689 173.055C243.881 176.773 242.3 179.719 240.233 183.301C229.672 196.799 211.496 185.462 206.535 172.454Z" fill="#2C2C38"/>
<path d="M210.076 175.115C220.644 176.187 231.289 176.268 241.871 175.356C240.626 178.022 239.48 179.873 237.952 182.378C228.092 192.054 216.565 184.183 210.076 175.115Z" fill="#EEE5E0"/>
<path d="M237.668 126.832C238.238 127.255 238.361 127.472 238.835 128.008C238.752 130.273 237.72 138.766 238.234 140.197C242.058 150.839 251.016 152.576 236.358 161.399L235.707 160.038C237.289 155.943 245.769 154.738 239.874 148.144C235.02 142.716 234.04 133.197 237.668 126.832Z" fill="#2C2C38"/>
<path d="M207.749 127.9C213.712 130.123 212.73 135.638 209.08 139.656C202.79 137.994 203.862 131.673 207.749 127.9Z" fill="#353C55"/>
<path d="M254.973 127.919C261.55 128.705 260.421 134.979 257.176 138.986C251.177 137.645 252.204 131.931 254.973 127.919Z" fill="#353C55"/>
<path d="M256.159 104.817C259.403 104.597 268.635 104.379 269.566 108.083C267.673 108.557 266.85 107.919 264.754 107.272C258.591 106.256 254.445 108.722 250.242 107.702L250.494 107.006C252.345 105.614 253.91 105.408 256.159 104.817Z" fill="#2C2C38"/>
<path d="M134.16 126.025C139.046 126.633 144.241 131.718 142.771 136.897C142.078 136.732 141.918 136.559 141.273 136.203C139.211 131.877 134.406 127.333 134.16 126.025Z" fill="#2C2C38"/>
<path d="M563.22 233.261C573.789 238.069 584.696 241.34 595.877 246.535C608.391 253.373 614.659 260.218 618.736 273.861C618.864 274.284 618.988 274.718 619.1 275.147C620.359 282.238 621.205 289.218 621.27 296.433C621.725 346.966 598.004 443.933 572.702 488.296C567.693 497.085 560.15 507.536 549.741 510.166C543.35 511.784 536.938 510.461 531.329 507.188C522.002 501.746 514.802 491.895 509.541 482.693C495.329 457.833 484.871 421.624 475.555 393.92C470.557 379.051 464.632 364.08 460.646 348.921C477.254 345.53 498.591 330.446 505.871 314.961C509.407 322.085 513.73 328.947 517.502 335.974C527.702 354.984 538.695 373.394 550.716 391.306C554.38 396.765 558.168 402.48 561.5 408.126C564.382 412.92 566.739 418.014 568.529 423.317C569.863 427.232 571.395 437.12 573.264 438.904L574.079 438.657C574.732 436.568 573.516 433.371 573.104 431.196C569.863 414.012 559.454 400.086 549.982 385.848C554.788 370.614 557.734 348.808 561.259 332.857C562.229 328.465 564.404 318.073 564.597 313.922L563.788 313.07L562.78 313.381C561.907 314.902 557.846 338.47 557.07 342.359C554.407 356.04 551.509 369.672 548.37 383.25C539.841 370.475 531.923 357.304 524.648 343.779C519.414 334.271 511.684 319.61 505.791 310.853C504.698 311.072 501.098 311.86 500.445 311.131C490.92 300.515 490.539 278.184 489.136 265.757C496.727 263.111 499.073 261.809 505.363 256.87C505.598 270.84 507.709 284.456 518.177 295.014C520.475 297.333 526.636 301.431 529.813 301.543L530.82 300.777C531.479 299.706 531.73 298.87 532.186 297.697C535.641 301.479 546.179 309.369 551.37 307.06C553.834 306.423 553.507 307.601 555.307 306.305L555.093 305.234C537.43 285.95 559.079 254.947 563.22 233.261Z" fill="#D7F1EE"/>
<path d="M436.442 237.508L436.914 237.802L437 238.584C428.835 244.487 434.83 245.371 429.478 252.467C425.669 257.513 432.623 273.609 437.964 275.928C440.637 277.085 441.607 276.881 444.676 276.078C445.491 285.468 446.321 296.936 453.366 303.824C461.985 312.25 464.835 321.174 469.051 331.999C464.326 336.284 460.437 341.416 457.592 347.126C462.05 362.702 468.232 379.441 473.417 394.98C483.532 425.298 492.81 454.989 507.109 483.603C502.555 482.987 496.544 482.483 492.328 481.021C491.273 480.657 490.651 479.055 490.234 478.053L490.067 477.657C488.203 476.066 462.612 470.908 458.471 469.997L425.964 462.198C431.626 460.216 439.78 458.797 444.419 455.149C446.487 453.521 446.6 451.094 446.75 448.604C447.5 437.152 439.442 427.194 437.803 416.62C432.125 379.961 427.984 343.028 422.466 306.353C421.555 300.273 418.801 296.62 412.442 296.111C407.492 295.715 402.585 295.838 397.566 295.854L372.725 295.843C376.55 281.011 380.76 265.37 394.169 256.248C406.855 247.613 422.123 242.816 436.442 237.508Z" fill="#D7F1EE"/>
<path d="M186.318 393.4C190.206 389.152 192.283 386.185 195.406 381.589C199.065 376.549 203.223 365.686 208.564 362.515C219.571 355.991 233.24 347.886 246.33 347.704C251.238 347.64 272.811 346.997 273.228 352.6C268.151 359.692 249.315 357.03 241.642 360.013C233.69 363.104 228.788 369.966 220.61 371.948L219.967 372.842L220.309 373.881C223.761 374.765 241.641 371.653 246.483 371.294C254.202 370.721 282.544 370.255 288.227 374.16C289.334 376.109 289.134 375.097 288.886 377.293C286.838 380.1 282.251 381.364 278.913 381.707C264.474 383.185 243.093 383.164 229.258 388.531L229.119 389.672L228.839 389.592L228.858 388.74L228.413 389.388C234.159 392.666 282.702 386.774 286.06 394.97C282.814 405.088 231.866 402.013 229.238 406.347L229.734 407.257C238.136 408.312 267.421 401.917 271.531 405.998C269.694 414.59 239.175 416.026 231.602 419.732C224.088 423.412 220.78 429.706 213.886 434.066C206.969 438.335 198.061 437.65 192.454 441.276C182.683 447.591 171.66 456.253 162.527 463.543C150.316 473.286 135.283 483.924 123.807 494.315C111.157 479.307 106.585 459.241 108.266 439.953C108.355 438.951 108.455 437.95 108.568 436.948C111.395 436.011 114.261 434.854 116.953 433.536C135.943 424.226 155.13 414.735 173.226 403.781C177.871 400.969 182.289 397.016 186.318 393.4Z" fill="#EEE5E0"/>
<path d="M229.783 423.369C230.001 431.377 229.391 434.944 236.81 439.326C242.962 439.54 249.036 439.465 255.19 439.422C255.282 442.186 255.659 457.575 256.169 459.686L256.678 458.411C257.335 459.9 258.075 461.395 258.507 462.943C259.517 490.796 261.943 522.179 261.843 549.754C261.741 552.047 261.621 554.34 261.483 556.632L261.034 556.921L260.482 555.764C260.272 556.621 260.153 556.766 259.785 557.575C256.252 558.127 242.631 557.843 238.366 557.843L192.583 557.789C192.591 549.674 192.746 540.445 192.221 532.442C192.472 529.373 192.219 522.008 192.182 518.698C192.037 508.499 191.799 498.306 191.464 488.112C191.219 479.901 190.777 454.019 189.547 446.873C190.377 445.068 193.584 443.006 195.334 442.476C200.239 440.997 205.223 439.851 210.166 438.405C218.522 435.962 223.286 428.656 229.783 423.369Z" fill="#FDDBD3"/>
<path d="M256.168 459.686L256.677 458.411C257.334 459.9 258.075 461.395 258.506 462.943C259.516 490.796 261.942 522.18 261.842 549.755C261.74 552.047 261.62 554.34 261.482 556.632L261.033 556.921L260.482 555.765C259.514 550.13 259.225 530.814 258.972 524.36L256.168 459.686Z" fill="#221A28"/>
<path d="M187.704 447.415L186.957 447.185C188.781 446.526 187.941 446.494 189.547 446.874C190.777 454.019 191.219 479.902 191.464 488.113C191.798 498.307 192.037 508.5 192.181 518.699C192.219 522.009 192.472 529.374 192.22 532.443C191.902 536.637 192.572 554.747 191.427 556.74L190.844 555.497L190.275 557.179C188.879 558.218 150.327 557.79 146.505 557.79L61.4707 557.795C63.0334 548.518 64.1043 539.037 65.2287 529.685C77.0257 526.578 83.847 523.359 94.565 517.986C105.361 520.6 105.645 516.138 114.821 510.91C126.756 504.113 133.05 505.265 133.206 489.704C149.496 476.099 170.537 460.088 187.704 447.415Z" fill="#FAA4A2"/>
<path d="M187.704 447.415L186.957 447.185C188.781 446.526 187.941 446.494 189.547 446.874C190.777 454.019 191.219 479.902 191.464 488.113C191.798 498.307 192.037 508.5 192.181 518.699C192.219 522.009 192.472 529.374 192.22 532.443C191.902 536.637 192.572 554.747 191.427 556.74L190.844 555.497C189.576 549.027 190.035 520.445 189.918 512.48C189.597 490.599 188.502 469.232 187.704 447.415Z" fill="#221A28"/>
<path d="M369.087 464.229C370.137 464.652 370.839 465.054 371.83 465.589C375.13 468.043 378.006 469.569 381.574 471.546C395.985 470.93 396.403 477.031 408.676 470.517C417.317 471.782 417.864 470.651 423.001 463.65C444.162 469.446 466.581 474.294 488.021 479.222C479.439 495.055 471.965 515.645 475.93 533.729C450.06 531.179 425.856 528.721 400.233 523.198C393.023 521.629 385.865 519.802 378.783 517.718C376.603 517.06 367.271 513.68 365.785 513.567C353.515 513.058 348.643 500.963 345.355 499.817C343.265 500.797 340.279 504.783 337.846 506.625C338.734 505.436 338.939 505.216 339.596 503.84L338.81 502.511C342.995 497.841 343.549 496.651 345.586 490.652C343.213 492.779 331.15 503.069 330.223 504.558C329.749 504.606 328.591 504.761 328.18 504.756L329.413 503.401L329.27 502.104C330.274 500.288 338.913 493.298 340.965 491.477C345.163 487.749 368.015 466.848 369.087 464.229Z" fill="#D7F1EE"/>
<path d="M369.087 464.229C370.137 464.652 370.839 465.053 371.83 465.589C365.369 471.84 354.851 480.925 349.399 487.577C341.049 497.765 357.388 509.062 365.785 513.567C353.515 513.058 348.643 500.963 345.355 499.817C343.265 500.797 340.279 504.782 337.846 506.625C338.734 505.436 338.939 505.216 339.596 503.839L338.81 502.511C342.995 497.84 343.549 496.651 345.586 490.652C343.213 492.778 331.15 503.068 330.223 504.557C329.749 504.605 328.591 504.761 328.18 504.755L329.413 503.4L329.27 502.104C330.274 500.288 338.913 493.298 340.965 491.477C345.163 487.749 368.015 466.848 369.087 464.229Z" fill="#353C55"/>
<path d="M231.967 211.577C232.071 212.899 231.935 215.529 233.362 216.233C251.326 225.098 270.667 231.9 289.111 240.008C301.895 245.626 314.683 260.619 316.343 274.68L315.863 274.707C315.633 271.428 313.445 268.595 312.367 265.44C312.348 265.552 319.975 289.405 320.29 292.281C320.472 293.947 320.503 294.504 319.923 296.041C318.042 297.375 288.039 296.309 283.009 296.341L252.912 296.507C249.742 296.513 242.034 296.823 239.28 296.175C232.998 273.555 227.977 238.792 213.773 220.762C214.435 218.212 214.408 216.832 216.216 215.331L218.201 215.578C221.896 215.245 225.59 215.228 229.385 214.855L229.582 214.019L228.972 213.568C226.771 214.182 223.269 214.905 221.175 213.743C226.131 213.352 227.405 213.27 231.967 211.577Z" fill="#FAA4A2"/>
<path d="M231.966 211.577C232.07 212.899 231.933 215.529 233.36 216.233C251.325 225.098 270.666 231.9 289.11 240.008C301.893 245.626 314.682 260.619 316.342 274.68L315.862 274.707C315.632 271.428 313.443 268.595 312.365 265.44C312.347 265.552 319.974 289.405 320.289 292.281C320.471 293.947 320.502 294.504 319.922 296.041C318.04 297.375 288.038 296.309 283.007 296.341L252.911 296.507C249.741 296.513 242.033 296.823 239.279 296.175C241.841 295.607 259.469 295.843 262.842 295.849L319.861 295.87C316.813 282.693 312.786 265.874 304.671 255.097C301.819 251.269 298.247 248.036 294.155 245.577C288.81 242.304 238.323 220.588 233.987 219.992C232.859 219.828 233.201 219.677 232.321 220.007L231.909 220.815L228.136 215.532C224.356 216.201 221.982 216.504 218.199 215.578C221.895 215.245 225.589 215.228 229.384 214.855L229.58 214.019L228.971 213.568C226.77 214.182 223.268 214.905 221.174 213.743C226.13 213.352 227.403 213.27 231.966 211.577Z" fill="#353C55"/>
<path d="M231.91 220.816L232.322 220.007C233.202 219.678 232.86 219.828 233.988 219.993C238.496 227.609 257.769 260.936 259.29 267.931L258.851 268.617C252.517 267.589 244.88 254.797 237.726 256.645C235.165 258.595 236.641 259.259 233.886 261.541L233.303 261.145C233.386 258.461 234.141 256.292 236.166 254.412C241.282 249.654 251.512 260.931 255.163 264.241C248.291 249.231 239.861 235.283 231.91 220.816Z" fill="#382534"/>
<path d="M594.869 516.513C595.919 519.314 597.168 527.884 597.816 531.436L602.83 557.848L396.018 557.832C396.885 554.056 397.935 549.937 398.423 546.129C396.875 541.013 397.716 536.407 398.766 531.371L398.862 531.575C400.009 528.999 399.221 528.65 400.593 525.892L401.493 525.822C418.887 529.866 461.814 535.849 479.964 535.866C483.993 531.27 485.637 526.652 487.491 520.953C507.446 521.253 509.969 528.463 528.912 532.796C536.273 534.478 543.082 533.889 550.534 534.018C554.819 533.466 554.594 537.526 557.268 539.76C558.939 543.418 577.502 544.848 578.123 540.772C579.473 531.923 589.635 534.532 588.564 525.254C588.36 523.514 593.235 521.462 594.65 516.604L594.869 516.513Z" fill="#D7F1EE"/>
<path d="M398.423 546.129C396.875 541.013 397.716 536.407 398.766 531.372L398.862 531.575C400.009 528.999 399.221 528.65 400.593 525.892L401.493 525.822C400.137 530.429 399.676 540.269 398.423 546.129Z" fill="#353C55"/>
<path d="M459.446 211.283C460.009 211.252 461.171 211.338 461.782 211.364C465.414 213.594 484.721 234.665 485.166 238.346C487.271 255.719 486.179 279.116 490.866 296.588C492.73 303.541 497.648 312.234 500.729 318.759C493.475 329.547 485.257 334.791 474.527 341.32C472.143 333.751 466.829 318.207 462.843 311.42C458.096 305.544 453.88 302.02 450.414 295.131C446.841 288.029 449.498 258.204 436.47 261.718C437.359 264.712 442.132 265.216 443.22 268.258C444.061 270.61 444.661 273.24 442.132 274.493C434.787 273.47 427.636 257.368 432.602 252.296C438.543 249.489 452.659 254.808 456.286 251.697C456.221 251.367 456.157 251.038 456.093 250.708C452.498 248.93 433.968 251.742 434.23 245.633C434.653 235.839 460.373 245.818 463.716 243.381L463.395 242.496C459.286 240.101 446.059 239.585 440.3 238.423L439.839 237.499C441.248 224.257 464.771 236.96 471.693 234.55L471.404 233.701C469.089 231.968 466.732 231.76 463.855 231.148C461.873 228.578 459.559 224.755 457.491 221.876C452.927 222.851 438.403 231.269 436.111 226.386C438.039 220.081 453.607 213.305 459.446 211.283Z" fill="#EEE5E0"/>
<path d="M231.166 275.531C232.099 276.635 235.937 293.052 236.647 295.784C235.852 295.795 235.058 295.821 234.264 295.864C218.375 296.759 224.512 318.517 225.286 330.103C221.408 336.547 219.126 344.072 215.054 350.511C210.052 358.412 203.098 362.675 198.769 371.176C195.656 377.288 190.938 383.823 186.984 389.458C186.744 387.417 186.516 385.376 186.301 383.335C184.554 352.809 177.721 311.13 179.691 281.348C196.221 289.329 220.22 295.211 231.166 275.531Z" fill="#FDDBD3"/>
<path d="M488.884 482.912C496.293 484.615 501.109 485.274 508.577 485.708C517.052 500.015 531.468 517.284 550.438 512.431C563.172 509.175 570.436 496.764 576.693 486.212C580.984 488.708 585.827 492.163 590.166 494.327C604.523 497.214 597.822 507.911 594.87 516.513L594.65 516.604L593.745 515.742L592.379 516.99C590.847 519.298 590.402 520.086 587.895 520.686C581.857 519.004 578.22 506.957 573.934 506.261L573.232 506.796C572.627 513.61 597.114 525.314 579.275 532.85C578.814 532.074 578.343 531.302 577.856 530.542C576.216 527.965 571.315 519.963 568.732 519.389L567.998 519.909C567.586 522.919 576.757 530.306 577.122 535.352C577.807 544.865 557.075 540.499 556.754 534.548C559.636 533.798 564.982 537.269 567.886 536.643C567.072 530.509 547.213 531.49 542.938 531.725C526.931 532.62 514.668 524.494 500.37 519.673C495.982 518.195 482.975 518.65 477.398 518.49C478.481 507.525 483.452 492.597 488.884 482.912Z" fill="#EEE5E0"/>
<path d="M590.166 494.326C604.523 497.213 597.821 507.91 594.869 516.513L594.65 516.604L593.744 515.741L592.378 516.989C594.216 508.971 576.923 500.566 576.414 495.023C579.816 494.674 590.509 506.914 593.375 509.785C600.13 502.034 597.296 499.838 590.166 494.326Z" fill="#353C55"/>
<path d="M595.246 441.447C595.524 444.388 593.82 457.474 593.563 461.411C592.872 472.118 592.203 482.681 592.738 493.453C590.065 491.637 587.387 489.837 584.697 488.048L577.947 483.747C585.313 468.765 589.872 457.259 595.246 441.447Z" fill="#D7F1EE"/>
<path d="M588.859 194.575C599.964 211.633 602.107 225.347 598.373 244.842C607.105 250.789 619.759 260.7 619.946 272.302C619.561 269.174 616.303 261.434 613.657 259.736C615.703 262.853 621.023 271.413 619.1 275.146C618.987 274.718 618.864 274.284 618.736 273.861C614.659 260.218 608.391 253.372 595.877 246.535L596.027 243.624C596.053 241.99 597.039 234.849 597.275 232.372C598.523 219.241 594.58 211.175 589.175 199.555C588.66 197.304 588.693 196.892 588.859 194.575Z" fill="#353C55"/>
<path d="M224.955 335.851C226.117 338.015 226.111 347.313 226.236 350.313L215.408 355.675L215.121 355.691L214.918 355.214C219.958 348.053 221.381 343.928 224.955 335.851Z" fill="#EEE5E0"/>
<path d="M469.174 334.807C471.023 336.398 471.66 340.029 472.346 342.498C469.517 343.752 466.56 344.877 463.667 346.018C462.553 346.146 462.623 346.157 461.535 345.878C461.557 342.772 466.978 337.222 469.174 334.807Z" fill="#D7F1EE"/>
<path d="M477.205 520.873L484.924 521.018C483.558 525.024 482.867 526.706 480.928 530.45L478.351 533.873C477.087 528.479 477.055 526.444 477.205 520.873Z" fill="#D7F1EE"/>
<path d="M455.139 225.013C457.106 225.373 459.023 227.303 459.173 229.297L458.456 229.955L456.173 229.63C454.32 229.416 451.261 229.482 450.377 227.809C451.523 226.33 453.377 225.779 455.139 225.013Z" fill="#EEE5E0"/>
<path d="M428.359 438.957C429.135 439.177 429.489 439.396 430.223 439.744C431.385 441.421 431.101 442.851 431.085 444.967L429.269 444.538C428.128 442.99 428.391 440.96 428.359 438.957Z" fill="#EEE5E0"/>
</svg>
