<svg width="845" height="164" viewBox="0 0 845 164" fill="none" xmlns="http://www.w3.org/2000/svg">
<g clip-path="url(#clip0_73_1049)">
<path d="M60.56 142.305C94.0064 142.305 121.12 115.191 121.12 81.7451C121.12 48.2987 94.0064 21.1851 60.56 21.1851C27.1136 21.1851 0 48.2987 0 81.7451C0 115.191 27.1136 142.305 60.56 142.305Z" fill="url(#paint0_linear_73_1049)"/>
<path d="M0.490234 89.3652C3.79023 115.675 23.9702 136.725 49.8502 141.355L84.4302 110.265V98.6852H71.5502L84.4302 87.1052V75.5252H71.5502L84.4302 63.9452V52.3652H41.6602L0.490234 89.3652Z" fill="#BE1E6D"/>
<path d="M84.4397 110.265H41.6597L48.3497 98.6851H84.4397V110.265Z" fill="white"/>
<path d="M84.4397 63.935H48.3497L41.6597 52.355H84.4397V63.935Z" fill="white"/>
<path d="M84.44 87.0951H55.04L58.38 81.3051L55.04 75.5151H84.44V87.0951Z" fill="white"/>
<path d="M32.3198 75.5151H55.0398L48.3498 63.9351H32.3198V75.5151Z" fill="white"/>
<path d="M32.3198 98.6852H48.3498L55.0398 87.0952H32.3198V98.6852Z" fill="white"/>
</g>
<g clip-path="url(#clip1_73_1049)">
<path d="M516.224 35.7236L539.045 35.6448C548.902 35.625 559.716 34.8998 569.171 37.7297C585.061 42.4847 589.938 57.0863 585.808 72.1784C580.934 89.9788 559.598 94.2839 544.16 89.3496C544.351 93.6141 544.239 98.6862 544.245 103.011C544.219 108.886 543.484 116.871 546.468 122.242C548.536 125.968 552.34 124.047 553.976 126.463C553.706 127.638 552.504 127.799 551.372 127.789C542.691 127.708 534 127.796 525.316 127.765C522.622 127.756 518.799 127.94 516.227 127.341L516.102 126.775C519.23 122.746 524.611 126.79 524.921 115.051C525.418 96.2037 525.079 77.3564 525.181 58.4995C525.194 55.9626 525.161 53.3199 525.02 50.8087C524.542 42.2774 524.714 40.2086 516.276 37.7666C515.835 36.8568 516.026 36.8479 516.224 35.7236ZM561.758 81.7577C566.075 76.0378 567.208 72.0182 567.607 64.7877C568.193 54.1196 565.344 41.9079 552.274 41.5163C550.509 41.4632 548.73 41.5288 546.919 41.6016C546.122 41.9652 544.775 42.8401 544.588 43.8455C543.978 47.2131 544.117 51.0942 544.219 54.5488C544.456 62.5893 544.077 70.5968 544.127 78.6252C544.176 86.7181 553.374 86.2803 558.649 83.5938C559.72 83.0443 560.757 82.4312 561.758 81.7577Z" fill="#E31B79"/>
<path d="M402.818 55.8327C405.052 55.5377 410.074 55.66 412.311 55.837C423.661 56.7359 434.899 61.6492 437.377 73.8645C438.215 77.9916 437.996 82.5469 437.985 86.8025C437.977 92.7617 437.929 98.7208 437.839 104.68C437.771 110.573 437.002 112.867 443.417 113.143L443.425 127.935C435.329 127.94 423.442 129.682 420.634 119.91C413.623 128.59 403.51 130.322 392.744 128.652C386.398 127.668 380.94 124.729 377.251 119.341C374.341 114.429 373.846 108.153 375.083 102.656C377.954 90.5343 391.037 87.8972 401.558 86.4666C405.949 85.8693 419.888 84.6536 420.496 78.9129C421.531 69.1633 405.427 66.9952 399.222 71.6421C395.538 74.4015 395.056 77.1527 394.214 81.4294C388.59 81.2 382.169 81.3447 376.488 81.3849C377.656 64.6911 386.55 57.7136 402.818 55.8327ZM394.722 112.842C402.622 116.994 414.879 113.956 419.195 105.867C420.898 102.675 420.786 100.037 420.753 96.5686C420.676 96.4397 420.464 96.0521 420.367 95.9825C417.57 96.9217 415.105 97.5589 412.227 98.1463C405.998 99.4177 386.104 100.755 393.813 111.851C394.008 112.132 394.46 112.588 394.722 112.842Z" fill="#273441"/>
<path d="M285.842 57.092C288.383 57.0821 302.013 56.8534 303.49 57.3801C303.921 59.8946 296.385 70.3368 294.519 73.0942C290.393 79.1912 286.383 85.8209 282.086 91.7382L296.149 114.075C297.839 116.764 303.016 124.546 303.836 127.148C302.355 128.098 287.357 127.674 284.53 127.661C283.197 125.148 280.545 121.155 278.947 118.593C275.663 113.239 272.302 107.934 268.867 102.676C267.615 105.328 264.978 109.267 263.356 111.861L253.472 127.619C250.818 127.679 236.379 128.223 234.929 127.307C234.802 127.226 234.833 127.271 234.805 127.121C234.334 124.593 253.23 96.0195 256.079 91.7346C254.614 89.9792 253.162 87.6385 251.899 85.6936C246.461 77.3195 240.713 69.1346 235.418 60.6715C234.529 59.2505 234.261 58.7567 234.685 57.1032L252.113 57.0953C257.638 65.5363 263.657 74.0278 269.026 82.5146C273.446 74.8182 280.898 65.1741 285.842 57.092Z" fill="#273441"/>
<path d="M305.863 57.0737L323.379 57.1011C329.02 65.2052 335.012 74.2679 340.362 82.5632C345.285 74.7113 352.033 64.6471 357.386 57.0948C361.996 57.0674 369.815 56.7925 374.173 57.1818C376.244 58.9665 368.54 69.0402 367.023 71.3256L353.506 91.742C356.918 98.694 374.121 122.433 374.944 127.689C368.802 127.534 362.114 127.674 355.93 127.682C351.193 119.662 345.363 110.633 340.337 102.74C335.343 110.592 329.601 119.589 324.992 127.585C318.896 127.832 311.626 127.673 305.417 127.677C306.982 123.265 310.578 118.366 313.063 114.31C317.652 106.819 322.836 99.2867 327.267 91.7074C321.78 83.8363 316.645 75.6089 311.249 67.6613C309.415 64.9596 305.794 60.2636 305.863 57.0737Z" fill="#273441"/>
<path d="M454.026 36.0116C459.731 36.0271 465.436 36.0096 471.14 35.9585L471.16 57.0945L488.243 57.052L488.254 72.2463C482.683 72.1227 476.754 72.2229 471.155 72.2212L471.138 93.4004C471.135 97.6102 471.294 101.493 471.405 105.692C471.614 113.586 482.181 112.858 488.24 111.97L488.243 121.691L488.265 127.416C484.779 127.724 481.282 127.899 477.783 127.94C452.823 127.992 454.009 116.222 454.008 96.2313L454.009 72.2176C450.214 72.1859 446.419 72.2047 442.624 72.274C442.557 67.2104 442.563 62.1465 442.64 57.0833C443.23 57.0955 443.82 57.1018 444.409 57.1021C456.599 57.0942 454.076 44.6883 454.026 36.0116Z" fill="#273441"/>
<path d="M709.341 59.4712C716.161 59.8473 722.388 60.0978 728.658 62.9393C728.596 67.6956 729.116 72.4767 728.948 77.2304C728.915 78.25 728.625 78.2575 727.805 78.5895C726.149 78.3568 725.164 76.1287 724.331 74.7855C720.494 68.5946 713.855 63.7545 706.235 65.229C703.018 65.852 701.173 67.4402 699.448 70.0608C699.27 72.2558 698.99 76.0269 700.63 77.7446C708.168 85.6309 720.708 87.2873 728.365 95.1211C735.62 102.545 734.454 115.729 726.821 122.426C719.902 128.588 710.773 129.464 701.895 129.132C698.341 128.594 689.667 127.399 686.796 125.738C685.518 124.267 684.932 110.419 684.816 107.618L685.324 107.085C686.041 107.047 686.789 107.004 687.286 107.65C693.165 115.302 696.79 123.714 708.043 123.502C713.075 123.407 720.214 119.506 719.134 114.29C717.023 104.1 698.266 101.216 691.511 94.1994C687.54 90.077 685.36 87.1363 684.928 81.2675C684.793 65.2695 695.615 60.3273 709.341 59.4712Z" fill="#E31B79"/>
<path d="M618.055 70.3023C622.942 64.803 628.655 59.6719 636.542 60.0331C638.09 60.104 640.181 60.1933 641.587 60.8365C642.259 61.9866 638.782 76.3723 637.902 78.2548C635.943 78.7173 631.319 73.5997 628.408 73.0406C624.032 72.2007 621.786 73.8225 618.229 76.0014C618.437 79.0644 618.295 83.7093 618.288 86.8732L618.259 106.8C618.252 111.321 617.926 118.732 619.257 122.874C620.791 125.951 623.31 124.084 624.272 127.062L623.946 127.616C621.934 127.967 595.543 127.866 594.604 127.405C594.357 124.494 599.386 125.153 599.606 121.179C600.476 105.594 600.377 89.6685 599.732 74.0856C599.596 70.8189 593.995 67.4322 593.794 65.223C594.693 64.2789 614.389 60.52 617.165 60.0681L617.926 60.1713C618.796 61.2686 618.203 68.5635 618.055 70.3023Z" fill="#E31B79"/>
<path d="M671.456 60.0659L671.852 60.1147C673.07 61.728 670.436 114.857 673.459 123.901C674.924 124.763 678.053 125.34 677.648 127.371C676.251 128.137 652.159 127.715 648.348 127.662C648.045 127.023 648.138 126.807 648.292 126.107C648.954 125.397 650.802 124.955 651.813 124.637C652.261 123.884 652.718 123.058 652.975 122.219C654.365 117.667 654.21 81.5708 653.492 75.5704C653.209 73.2049 652.633 71.4493 651.53 69.3564C649.652 68.3464 646.85 67.491 647.746 65.0283C649.745 64.1607 668.736 60.3504 671.456 60.0659Z" fill="#E31B79"/>
<path d="M660.464 29.0874C666.085 27.8926 671.627 31.4201 672.932 37.0223C674.236 42.6241 670.821 48.2405 665.252 49.6553C661.55 50.5958 657.632 49.4605 655 46.6872C652.372 43.914 651.447 39.9353 652.58 36.2846C653.713 32.6341 656.729 29.8814 660.464 29.0874Z" fill="#E31B79"/>
<path d="M761.916 68.9873C765.581 65.9846 769.029 63.5459 773.531 61.9241C782.963 58.5285 794.742 58.5338 798.918 69.5262C799.61 69.5908 800.947 68.4074 801.605 67.8757C808.511 62.3085 818.884 58.2474 827.862 60.5298C841.12 63.901 839.358 80.4903 839.325 91.0205L839.262 111.901C839.256 115.431 838.9 120.475 840.685 123.589C841.396 124.831 843.267 125.24 844.568 125.534V127.647C839.022 127.927 832.702 127.69 827.097 127.775C824.693 127.811 817.643 127.894 815.585 127.5C815.189 126.534 815.216 126.934 815.555 125.874C816.879 124.858 819.632 125.262 819.978 122.643C821.746 109.29 821.101 93.9062 820.705 80.4959C820.297 66.6729 808.834 70.1054 800.397 74.8545C800.785 87.0695 800.242 99.8169 800.453 112.114C800.495 114.734 800.341 121.388 802.119 123.764C803.239 125.265 805.804 125.298 806.723 126.439L806.347 127.002C805.531 127.396 803.762 127.897 802.906 127.828C795.131 127.208 784.899 128.621 777.394 127.525C776.613 125.13 781.445 124.649 781.929 121.478C783.045 114.488 782.548 107.249 782.597 100.194C782.702 85.2196 785.768 60.2954 762.104 74.6161C762.308 78.0539 762.163 83.0849 762.163 86.6324L762.143 109.455C762.137 112.774 761.923 117.623 762.4 120.955C762.835 124.001 767.399 125.604 767.926 127.128L767.692 127.463C765.249 127.893 741.759 127.94 738.703 127.531C738.044 126.817 738.143 127.132 738.166 126.259C738.864 125.368 740.204 125.442 741.136 124.866C742.368 124.103 742.892 122.707 743.237 121.366C744.347 117.035 744.443 79.9484 743.652 74.8749C743.316 72.7155 742.266 70.9361 741.176 69.0881C739.793 68.3511 738.248 67.8405 737.435 66.6122C737.244 65.4908 737.168 65.9094 737.718 64.9278C740.27 64.0206 759.538 60.1982 762.209 60.0646C762.193 62.9836 762.242 66.1026 761.916 68.9873Z" fill="#E31B79"/>
<path d="M170.13 35.5752C189.392 35.5686 209.114 35.7911 228.335 35.5347C228.339 40.4077 228.22 45.8813 228.386 50.7056L187.397 50.7283C187.445 58.5473 187.443 66.3666 187.393 74.1856C199.283 74.1872 211.506 74.3409 223.368 74.1655L223.38 89.3357C211.424 89.2981 199.329 89.2147 187.376 89.3499C187.435 97.1307 187.447 104.912 187.41 112.692L230.17 112.697C230.192 117.588 230.294 122.754 230.163 127.622L170.13 127.589V35.5752Z" fill="#273441"/>
</g>
<defs>
<linearGradient id="paint0_linear_73_1049" x1="23.38" y1="125.015" x2="96.57" y2="39.8551" gradientUnits="userSpaceOnUse">
<stop offset="0.04" stop-color="#E21C79"/>
<stop offset="0.65" stop-color="#E21E7B"/>
<stop offset="0.73" stop-color="#E42880"/>
<stop offset="0.88" stop-color="#E9448E"/>
<stop offset="1" stop-color="#EF609D"/>
</linearGradient>
<clipPath id="clip0_73_1049">
<rect width="121.13" height="121.13" fill="white" transform="translate(0 21.1851)"/>
</clipPath>
<clipPath id="clip1_73_1049">
<rect width="674.438" height="163.5" fill="white" transform="translate(170.13)"/>
</clipPath>
</defs>
</svg>
